<?xml version="1.0" encoding="UTF-8"?>
<svg xmlns="http://www.w3.org/2000/svg" xmlns:xlink="http://www.w3.org/1999/xlink" width="163pt" height="136pt" viewBox="0 0 163 136" version="1.1">
<g id="surface1">
<path style="fill:none;stroke-width:0.79701;stroke-linecap:butt;stroke-linejoin:miter;stroke:rgb(0%,0%,100%);stroke-opacity:1;stroke-miterlimit:10;" d="M 156.608125 128.913875 L 156.834688 129.140438 L 156.990938 129.300594 L 157.174531 129.492 L 157.362031 129.683406 L 157.549531 129.878719 L 158.112031 130.452938 L 158.299531 130.64825 L 158.490938 130.839656 L 158.502656 130.855281 L 158.670625 131.031063 L 158.850313 131.222469 L 159.03 131.417781 L 159.213594 131.609188 L 159.393281 131.800594 L 159.576875 131.992 L 159.760469 132.187313 L 160.127656 132.570125 L 160.170625 132.617 L 160.303438 132.761531 L 160.479219 132.956844 L 161.006563 133.531063 L 161.18625 133.726375 L 161.362031 133.917781 L 161.721406 134.300594 L 161.838594 134.4295 L 161.897188 134.495906 M 136.912813 112.175594 L 137.451875 112.558406 L 137.721406 112.753719 L 138.268281 113.136531 L 138.490938 113.292781 L 138.537813 113.327938 L 138.795625 113.52325 L 139.580781 114.097469 L 139.846406 114.292781 L 140.112031 114.484188 L 140.158906 114.519344 L 140.365938 114.675594 L 140.615938 114.870906 L 141.377656 115.445125 L 141.631563 115.640438 L 141.826875 115.781063 L 141.885469 115.831844 L 142.127656 116.02325 L 142.37375 116.214656 L 142.615938 116.409969 L 143.108125 116.792781 L 143.358125 116.984188 L 143.494844 117.089656 L 143.600313 117.1795 L 143.834688 117.370906 L 144.072969 117.562313 L 144.307344 117.753719 L 144.545625 117.949031 L 144.787813 118.140438 L 145.026094 118.331844 L 145.162813 118.441219 L 145.260469 118.52325 L 145.487031 118.718563 L 146.178438 119.292781 L 146.408906 119.488094 L 146.643281 119.6795 L 146.826875 119.831844 L 146.87375 119.870906 L 147.0925 120.062313 L 147.315156 120.257625 L 147.983125 120.831844 L 148.209688 121.027156 L 148.43625 121.218563 L 148.494844 121.269344 L 148.651094 121.409969 L 148.865938 121.605281 L 149.080781 121.796688 L 149.299531 121.988094 L 149.514375 122.1795 L 149.733125 122.374813 L 149.951875 122.566219 L 150.162813 122.753719 L 150.170625 122.757625 L 150.377656 122.949031 L 150.584688 123.144344 L 151.2175 123.718563 L 151.428438 123.913875 L 151.639375 124.105281 L 151.830781 124.281063 L 151.850313 124.296688 L 152.053438 124.488094 L 152.256563 124.683406 L 152.865938 125.257625 L 153.069063 125.452938 L 153.483125 125.83575 L 153.49875 125.851375 L 153.678438 126.027156 L 153.877656 126.222469 L 154.072969 126.413875 L 154.272188 126.605281 L 154.4675 126.796688 L 154.666719 126.992 L 154.865938 127.183406 L 155.069063 127.374813 L 155.166719 127.472469 L 155.264375 127.566219 L 155.451875 127.761531 L 156.221406 128.531063 L 156.416719 128.722469 L 156.608125 128.913875 M 105.131563 96.738094 L 105.276094 96.781063 L 105.924531 96.976375 L 106.576875 97.167781 L 106.799531 97.234188 L 107.197969 97.359188 L 107.807344 97.550594 L 108.416719 97.745906 L 108.4675 97.761531 L 108.990938 97.937313 L 109.565156 98.128719 L 110.135469 98.320125 L 110.674531 98.515438 L 111.213594 98.706844 L 111.756563 98.89825 L 111.803438 98.913875 L 112.268281 99.089656 L 112.776094 99.284969 L 113.291719 99.476375 L 113.471406 99.542781 L 113.783906 99.667781 L 114.264375 99.859188 L 114.74875 100.0545 L 115.139375 100.206844 L 115.233125 100.245906 L 115.690156 100.437313 L 116.147188 100.632625 L 116.612031 100.824031 L 116.807344 100.906063 L 117.057344 101.015438 L 117.490938 101.206844 L 117.932344 101.402156 L 118.37375 101.593563 L 118.475313 101.636531 L 118.791719 101.784969 L 119.209688 101.976375 L 119.627656 102.171688 L 120.049531 102.363094 L 120.143281 102.406063 L 120.451875 102.5545 L 120.846406 102.745906 L 121.24875 102.941219 L 121.651094 103.132625 L 121.81125 103.21075 L 122.037813 103.324031 L 122.416719 103.515438 L 122.799531 103.71075 L 123.182344 103.902156 L 123.479219 104.046688 L 123.565156 104.093563 L 123.928438 104.284969 L 124.291719 104.480281 L 124.658906 104.671688 L 125.03 104.863094 L 125.147188 104.925594 L 125.385469 105.0545 L 125.733125 105.249813 L 126.084688 105.441219 L 126.440156 105.632625 L 126.791719 105.824031 L 126.815156 105.83575 L 127.127656 106.019344 L 127.463594 106.21075 L 128.483125 106.784969 L 128.807344 106.980281 L 129.127656 107.171688 L 129.455781 107.367 L 129.78 107.558406 L 130.108125 107.749813 L 130.151094 107.77325 L 130.420625 107.941219 L 130.733125 108.136531 L 131.358125 108.519344 L 131.674531 108.71075 L 131.819063 108.800594 L 131.979219 108.906063 L 132.881563 109.480281 L 133.18625 109.675594 L 133.487031 109.863094 L 133.490938 109.867 L 133.776094 110.058406 L 134.065156 110.249813 L 134.358125 110.445125 L 134.647188 110.636531 L 134.940156 110.827938 L 135.155 110.968563 L 135.229219 111.019344 L 135.510469 111.214656 L 135.787813 111.406063 L 136.350313 111.788875 L 136.631563 111.984188 L 136.822969 112.109188 L 136.912813 112.175594 M 43.420625 101.636531 L 43.522188 101.593563 L 43.963594 101.402156 L 44.401094 101.206844 L 45.088594 100.906063 L 45.283906 100.824031 L 45.74875 100.632625 L 46.205781 100.437313 L 46.662813 100.245906 L 46.756563 100.206844 L 47.147188 100.0545 L 47.631563 99.859188 L 48.112031 99.667781 L 48.424531 99.542781 L 48.604219 99.476375 L 49.119844 99.284969 L 49.627656 99.089656 L 50.0925 98.913875 L 50.139375 98.89825 L 50.682344 98.706844 L 51.221406 98.515438 L 51.756563 98.320125 L 52.905 97.937313 L 53.428438 97.761531 L 53.475313 97.745906 L 54.088594 97.550594 L 54.697969 97.359188 L 55.096406 97.234188 L 55.319063 97.167781 L 55.971406 96.976375 L 56.619844 96.781063 L 56.764375 96.738094 L 57.307344 96.589656 L 58.006563 96.39825 L 58.432344 96.281063 L 58.725313 96.206844 L 59.479219 96.011531 L 60.100313 95.851375 L 60.237031 95.820125 L 61.053438 95.628719 L 61.768281 95.46075 L 61.877656 95.437313 L 62.768281 95.242 L 63.43625 95.097469 L 63.682344 95.050594 L 64.662813 94.859188 L 65.104219 94.769344 L 65.701875 94.667781 L 66.772188 94.476375 L 66.791719 94.472469 L 68.018281 94.281063 L 68.440156 94.214656 L 69.358125 94.089656 L 70.108125 93.984188 L 70.869844 93.89825 L 71.776094 93.788875 L 72.647188 93.702938 L 73.444063 93.624813 L 74.901094 93.511531 L 75.112031 93.495906 L 76.78 93.39825 L 78.447969 93.331844 L 79.088594 93.320125 L 80.115938 93.300594 L 81.78 93.300594 L 82.807344 93.320125 L 83.447969 93.331844 L 85.115938 93.39825 L 86.783906 93.495906 L 86.994844 93.511531 L 88.451875 93.624813 L 89.24875 93.702938 L 90.119844 93.788875 L 91.026094 93.89825 L 91.787813 93.984188 L 92.537813 94.089656 L 93.455781 94.214656 L 93.877656 94.281063 L 95.104219 94.472469 L 95.12375 94.476375 L 96.194063 94.667781 L 96.791719 94.769344 L 97.233125 94.859188 L 98.213594 95.050594 L 98.459688 95.097469 L 99.127656 95.242 L 100.018281 95.437313 L 100.127656 95.46075 L 100.838594 95.628719 L 101.658906 95.820125 L 101.795625 95.851375 L 102.416719 96.011531 L 103.170625 96.206844 L 103.463594 96.281063 L 103.889375 96.39825 L 104.588594 96.589656 L 105.131563 96.738094 M 17.588594 117.753719 L 17.822969 117.562313 L 18.06125 117.370906 L 18.295625 117.1795 L 18.401094 117.089656 L 18.537813 116.984188 L 18.787813 116.792781 L 19.28 116.409969 L 19.522188 116.214656 L 19.768281 116.02325 L 20.010469 115.831844 L 20.069063 115.781063 L 20.264375 115.640438 L 20.518281 115.445125 L 21.28 114.870906 L 21.53 114.675594 L 21.737031 114.519344 L 21.783906 114.484188 L 22.049531 114.292781 L 22.315156 114.097469 L 22.838594 113.714656 L 23.096406 113.52325 L 23.358125 113.327938 L 23.405 113.292781 L 23.627656 113.136531 L 24.174531 112.753719 L 24.444063 112.558406 L 24.983125 112.175594 L 25.072969 112.109188 L 25.264375 111.984188 L 25.545625 111.788875 L 26.108125 111.406063 L 26.385469 111.214656 L 26.666719 111.019344 L 26.740938 110.968563 L 26.955781 110.827938 L 27.24875 110.636531 L 27.537813 110.445125 L 27.830781 110.249813 L 28.119844 110.058406 L 28.405 109.867 L 28.408906 109.863094 L 28.709688 109.675594 L 29.014375 109.480281 L 29.916719 108.906063 L 30.076875 108.800594 L 30.221406 108.71075 L 30.537813 108.519344 L 31.162813 108.136531 L 31.475313 107.941219 L 31.744844 107.77325 L 31.787813 107.749813 L 32.115938 107.558406 L 32.440156 107.367 L 32.768281 107.171688 L 33.088594 106.980281 L 33.412813 106.788875 L 33.752656 106.593563 L 34.432344 106.21075 L 34.768281 106.019344 L 35.080781 105.83575 L 35.104219 105.824031 L 35.455781 105.632625 L 35.81125 105.441219 L 36.162813 105.249813 L 36.510469 105.0545 L 36.74875 104.925594 L 36.865938 104.863094 L 37.237031 104.671688 L 37.604219 104.480281 L 37.9675 104.284969 L 38.330781 104.093563 L 38.416719 104.046688 L 38.713594 103.902156 L 39.096406 103.71075 L 39.479219 103.515438 L 39.858125 103.324031 L 40.084688 103.21075 L 40.244844 103.132625 L 40.647188 102.941219 L 41.049531 102.745906 L 41.444063 102.5545 L 41.752656 102.406063 L 41.846406 102.363094 L 42.268281 102.171688 L 42.68625 101.976375 L 43.104219 101.784969 L 43.420625 101.636531 M -0.00125 134.495906 L 0.0573438 134.4295 L 0.174531 134.300594 L 0.533906 133.917781 L 0.709688 133.726375 L 0.889375 133.531063 L 1.416719 132.956844 L 1.5925 132.761531 L 1.725313 132.617 L 1.768281 132.570125 L 2.135469 132.187313 L 2.319063 131.992 L 2.502656 131.800594 L 2.682344 131.609188 L 2.865938 131.417781 L 3.045625 131.222469 L 3.225313 131.031063 L 3.393281 130.855281 L 3.405 130.839656 L 3.596406 130.64825 L 3.783906 130.452938 L 4.346406 129.878719 L 4.533906 129.683406 L 4.721406 129.492 L 4.905 129.300594 L 5.06125 129.140438 L 5.479219 128.722469 L 5.674531 128.531063 L 6.444063 127.761531 L 6.631563 127.566219 L 6.729219 127.472469 L 6.826875 127.374813 L 7.03 127.183406 L 7.229219 126.992 L 7.428438 126.796688 L 7.62375 126.605281 L 7.822969 126.413875 L 8.018281 126.222469 L 8.2175 126.027156 L 8.397188 125.851375 L 8.412813 125.83575 L 8.826875 125.452938 L 9.03 125.257625 L 9.639375 124.683406 L 9.8425 124.488094 L 10.045625 124.296688 L 10.065156 124.281063 L 10.256563 124.105281 L 10.4675 123.913875 L 10.678438 123.718563 L 11.31125 123.144344 L 11.518281 122.949031 L 11.725313 122.757625 L 11.733125 122.753719 L 11.944063 122.566219 L 12.162813 122.374813 L 12.381563 122.1795 L 12.596406 121.988094 L 12.815156 121.796688 L 13.03 121.605281 L 13.244844 121.409969 L 13.401094 121.269344 L 13.459688 121.218563 L 13.68625 121.027156 L 13.912813 120.831844 L 14.580781 120.257625 L 14.803438 120.062313 L 15.022188 119.870906 L 15.069063 119.831844 L 15.252656 119.6795 L 15.487031 119.488094 L 15.7175 119.292781 L 16.408906 118.718563 L 16.635469 118.52325 L 16.733125 118.441219 L 16.869844 118.331844 L 17.108125 118.140438 L 17.350313 117.949031 L 17.588594 117.753719 M 156.608125 5.577938 L 156.803438 5.386531 L 156.834688 5.355281 L 156.990938 5.195125 L 157.174531 5.003719 L 157.362031 4.808406 L 157.924531 4.234188 L 158.112031 4.038875 L 158.299531 3.847469 L 158.490938 3.656063 L 158.502656 3.640438 L 158.670625 3.464656 L 158.850313 3.269344 L 159.03 3.077938 L 159.213594 2.886531 L 159.393281 2.695125 L 159.576875 2.499813 L 160.127656 1.925594 L 160.170625 1.878719 L 160.303438 1.730281 L 160.830781 1.156063 L 161.006563 0.96075 L 161.18625 0.769344 L 161.362031 0.577938 L 161.541719 0.386531 L 161.721406 0.191219 L 161.838594 0.0623125 L 161.897188 -0.0001875 M 136.912813 22.320125 L 137.182344 22.128719 L 137.451875 21.933406 L 137.721406 21.742 L 138.268281 21.359188 L 138.490938 21.202938 L 138.537813 21.163875 L 138.795625 20.972469 L 139.319063 20.589656 L 139.580781 20.394344 L 140.112031 20.011531 L 140.158906 19.976375 L 140.365938 19.820125 L 140.615938 19.624813 L 141.12375 19.242 L 141.377656 19.046688 L 141.631563 18.855281 L 141.826875 18.71075 L 141.885469 18.663875 L 142.127656 18.472469 L 142.37375 18.277156 L 142.615938 18.08575 L 143.108125 17.702938 L 143.358125 17.507625 L 143.494844 17.406063 L 143.600313 17.316219 L 143.834688 17.124813 L 144.072969 16.933406 L 144.307344 16.738094 L 144.545625 16.546688 L 144.787813 16.355281 L 145.026094 16.163875 L 145.162813 16.0545 L 145.260469 15.968563 L 145.487031 15.777156 L 145.947969 15.394344 L 146.178438 15.199031 L 146.408906 15.007625 L 146.643281 14.816219 L 146.826875 14.659969 L 146.87375 14.624813 L 147.0925 14.4295 L 147.760469 13.855281 L 147.983125 13.659969 L 148.43625 13.277156 L 148.494844 13.222469 L 148.651094 13.08575 L 148.865938 12.890438 L 149.080781 12.699031 L 149.299531 12.507625 L 149.514375 12.316219 L 149.733125 12.120906 L 149.951875 11.9295 L 150.162813 11.742 L 150.170625 11.738094 L 150.377656 11.542781 L 150.584688 11.351375 L 151.006563 10.968563 L 151.2175 10.77325 L 151.639375 10.390438 L 151.830781 10.214656 L 151.850313 10.199031 L 152.053438 10.003719 L 152.662813 9.4295 L 152.865938 9.234188 L 153.069063 9.042781 L 153.483125 8.659969 L 153.678438 8.464656 L 153.877656 8.27325 L 154.072969 8.081844 L 154.272188 7.890438 L 154.4675 7.695125 L 154.865938 7.312313 L 155.069063 7.120906 L 155.264375 6.925594 L 155.451875 6.734188 L 156.221406 5.964656 L 156.416719 5.77325 L 156.608125 5.577938 M 105.131563 37.753719 L 105.276094 37.71075 L 105.924531 37.519344 L 106.576875 37.327938 L 106.799531 37.261531 L 107.197969 37.136531 L 107.807344 36.941219 L 108.416719 36.749813 L 108.4675 36.734188 L 108.990938 36.558406 L 109.565156 36.367 L 110.135469 36.175594 L 110.674531 35.980281 L 111.213594 35.788875 L 111.756563 35.597469 L 111.803438 35.577938 L 112.268281 35.402156 L 112.776094 35.21075 L 113.291719 35.019344 L 113.471406 34.952938 L 113.783906 34.827938 L 114.264375 34.632625 L 114.74875 34.441219 L 115.139375 34.288875 L 115.233125 34.249813 L 115.690156 34.058406 L 116.147188 33.863094 L 116.612031 33.671688 L 116.807344 33.589656 L 117.057344 33.480281 L 117.490938 33.288875 L 117.932344 33.093563 L 118.37375 32.902156 L 118.475313 32.859188 L 118.791719 32.71075 L 119.209688 32.515438 L 119.627656 32.324031 L 120.049531 32.132625 L 120.143281 32.089656 L 120.451875 31.941219 L 120.846406 31.745906 L 121.651094 31.363094 L 121.81125 31.284969 L 122.037813 31.171688 L 122.416719 30.976375 L 123.565156 30.402156 L 123.928438 30.206844 L 124.291719 30.015438 L 124.658906 29.824031 L 125.03 29.632625 L 125.147188 29.570125 L 125.385469 29.437313 L 125.733125 29.245906 L 126.084688 29.0545 L 126.440156 28.863094 L 126.791719 28.667781 L 126.815156 28.656063 L 127.127656 28.476375 L 127.463594 28.284969 L 127.803438 28.093563 L 128.143281 27.89825 L 128.483125 27.706844 L 128.807344 27.515438 L 129.127656 27.324031 L 129.455781 27.128719 L 129.78 26.937313 L 130.108125 26.745906 L 130.151094 26.722469 L 130.420625 26.5545 L 130.733125 26.359188 L 131.358125 25.976375 L 131.674531 25.781063 L 131.819063 25.695125 L 131.979219 25.589656 L 132.580781 25.206844 L 132.881563 25.011531 L 133.18625 24.820125 L 133.487031 24.632625 L 133.490938 24.628719 L 133.776094 24.437313 L 134.065156 24.242 L 134.358125 24.050594 L 134.647188 23.859188 L 134.940156 23.667781 L 135.155 23.527156 L 135.229219 23.472469 L 135.510469 23.281063 L 135.787813 23.089656 L 136.069063 22.89825 L 136.350313 22.702938 L 136.631563 22.511531 L 136.822969 22.386531 L 136.912813 22.320125 M 43.420625 32.859188 L 43.522188 32.902156 L 43.963594 33.093563 L 44.401094 33.288875 L 45.088594 33.589656 L 45.283906 33.671688 L 45.74875 33.863094 L 46.205781 34.058406 L 46.662813 34.249813 L 46.756563 34.288875 L 47.147188 34.441219 L 47.631563 34.632625 L 48.112031 34.827938 L 48.424531 34.952938 L 48.604219 35.019344 L 49.119844 35.21075 L 49.627656 35.402156 L 50.0925 35.577938 L 50.139375 35.597469 L 50.682344 35.788875 L 51.221406 35.980281 L 51.756563 36.171688 L 52.330781 36.367 L 52.905 36.558406 L 53.428438 36.734188 L 53.475313 36.749813 L 54.088594 36.941219 L 54.697969 37.136531 L 55.096406 37.261531 L 55.319063 37.327938 L 55.971406 37.519344 L 56.619844 37.71075 L 56.764375 37.753719 L 57.307344 37.906063 L 58.006563 38.097469 L 58.432344 38.214656 L 58.725313 38.288875 L 59.479219 38.480281 L 60.100313 38.640438 L 60.237031 38.675594 L 61.053438 38.867 L 61.768281 39.034969 L 61.877656 39.058406 L 62.768281 39.249813 L 63.43625 39.394344 L 63.682344 39.445125 L 64.662813 39.636531 L 65.104219 39.722469 L 65.701875 39.827938 L 66.772188 40.019344 L 66.791719 40.02325 L 68.018281 40.214656 L 68.440156 40.281063 L 69.358125 40.406063 L 70.108125 40.507625 L 70.869844 40.597469 L 71.776094 40.706844 L 72.647188 40.792781 L 73.444063 40.870906 L 74.901094 40.984188 L 75.112031 40.999813 L 76.78 41.097469 L 78.447969 41.163875 L 79.088594 41.175594 L 80.115938 41.195125 L 81.78 41.195125 L 82.807344 41.175594 L 83.447969 41.163875 L 85.115938 41.097469 L 86.783906 40.999813 L 86.994844 40.984188 L 88.451875 40.870906 L 89.24875 40.792781 L 90.119844 40.706844 L 91.026094 40.597469 L 91.787813 40.507625 L 92.537813 40.406063 L 93.455781 40.281063 L 93.877656 40.214656 L 95.104219 40.02325 L 95.12375 40.019344 L 96.194063 39.827938 L 96.791719 39.722469 L 97.233125 39.636531 L 98.213594 39.445125 L 98.459688 39.394344 L 99.127656 39.249813 L 100.018281 39.058406 L 100.127656 39.034969 L 100.838594 38.867 L 101.658906 38.675594 L 101.795625 38.640438 L 102.416719 38.480281 L 103.170625 38.288875 L 103.463594 38.214656 L 103.889375 38.097469 L 104.588594 37.906063 L 105.131563 37.753719 M 17.588594 16.738094 L 17.822969 16.933406 L 18.06125 17.124813 L 18.295625 17.316219 L 18.401094 17.406063 L 18.537813 17.507625 L 18.787813 17.702938 L 19.28 18.08575 L 19.522188 18.277156 L 19.768281 18.472469 L 20.010469 18.663875 L 20.069063 18.71075 L 20.264375 18.855281 L 20.518281 19.046688 L 20.772188 19.242 L 21.28 19.624813 L 21.53 19.820125 L 21.737031 19.976375 L 21.783906 20.011531 L 22.315156 20.394344 L 22.576875 20.589656 L 22.838594 20.781063 L 23.096406 20.972469 L 23.358125 21.163875 L 23.405 21.202938 L 23.627656 21.359188 L 24.174531 21.742 L 24.444063 21.933406 L 24.713594 22.128719 L 24.983125 22.320125 L 25.072969 22.386531 L 25.264375 22.511531 L 25.545625 22.702938 L 25.826875 22.89825 L 26.108125 23.089656 L 26.385469 23.281063 L 26.666719 23.472469 L 26.740938 23.527156 L 26.955781 23.667781 L 27.24875 23.859188 L 27.537813 24.050594 L 27.830781 24.242 L 28.119844 24.437313 L 28.405 24.628719 L 28.408906 24.632625 L 28.709688 24.820125 L 29.014375 25.011531 L 29.315156 25.206844 L 29.916719 25.589656 L 30.076875 25.695125 L 30.221406 25.781063 L 30.537813 25.976375 L 31.162813 26.359188 L 31.475313 26.5545 L 31.744844 26.722469 L 31.787813 26.745906 L 32.115938 26.937313 L 32.440156 27.128719 L 32.768281 27.324031 L 33.088594 27.515438 L 33.412813 27.706844 L 33.752656 27.89825 L 34.0925 28.093563 L 34.432344 28.284969 L 34.768281 28.476375 L 35.080781 28.656063 L 35.104219 28.667781 L 35.455781 28.863094 L 35.81125 29.0545 L 36.162813 29.245906 L 36.510469 29.437313 L 36.74875 29.570125 L 36.865938 29.632625 L 37.237031 29.824031 L 37.604219 30.015438 L 37.9675 30.206844 L 38.330781 30.402156 L 39.479219 30.976375 L 39.858125 31.171688 L 40.084688 31.284969 L 40.244844 31.363094 L 41.049531 31.745906 L 41.444063 31.941219 L 41.752656 32.089656 L 41.846406 32.132625 L 42.268281 32.324031 L 42.68625 32.515438 L 43.104219 32.71075 L 43.420625 32.859188 M -0.00125 -0.0001875 L 0.0573438 0.0623125 L 0.174531 0.191219 L 0.354219 0.386531 L 0.533906 0.577938 L 0.709688 0.769344 L 0.889375 0.96075 L 1.065156 1.156063 L 1.5925 1.730281 L 1.725313 1.878719 L 1.768281 1.925594 L 2.319063 2.499813 L 2.502656 2.695125 L 2.682344 2.886531 L 2.865938 3.077938 L 3.045625 3.269344 L 3.225313 3.464656 L 3.393281 3.640438 L 3.405 3.656063 L 3.596406 3.847469 L 3.783906 4.038875 L 3.971406 4.234188 L 4.533906 4.808406 L 4.721406 5.003719 L 4.905 5.195125 L 5.06125 5.355281 L 5.0925 5.386531 L 5.287813 5.577938 L 5.479219 5.77325 L 5.674531 5.964656 L 6.444063 6.734188 L 6.631563 6.925594 L 6.826875 7.120906 L 7.03 7.312313 L 7.428438 7.695125 L 7.62375 7.890438 L 7.822969 8.081844 L 8.018281 8.27325 L 8.2175 8.464656 L 8.412813 8.659969 L 8.826875 9.042781 L 9.03 9.234188 L 9.233125 9.4295 L 9.8425 10.003719 L 10.045625 10.199031 L 10.065156 10.214656 L 10.256563 10.390438 L 10.678438 10.77325 L 10.889375 10.968563 L 11.31125 11.351375 L 11.518281 11.542781 L 11.725313 11.738094 L 11.733125 11.742 L 11.944063 11.9295 L 12.162813 12.120906 L 12.381563 12.316219 L 12.596406 12.507625 L 12.815156 12.699031 L 13.03 12.890438 L 13.244844 13.08575 L 13.401094 13.222469 L 13.459688 13.277156 L 13.912813 13.659969 L 14.135469 13.855281 L 14.803438 14.4295 L 15.022188 14.624813 L 15.069063 14.659969 L 15.252656 14.816219 L 15.487031 15.007625 L 15.7175 15.199031 L 15.947969 15.394344 L 16.408906 15.777156 L 16.635469 15.968563 L 16.733125 16.0545 L 16.869844 16.163875 L 17.108125 16.355281 L 17.350313 16.546688 L 17.588594 16.738094 " transform="matrix(1,0,0,-1,0.72,135.492)"/>
</g>
</svg>
