<?xml version="1.0" encoding="UTF-8"?>
<svg xmlns="http://www.w3.org/2000/svg" xmlns:xlink="http://www.w3.org/1999/xlink" width="164pt" height="136pt" viewBox="0 0 164 136" version="1.1">
<g id="surface1">
<path style="fill:none;stroke-width:0.79701;stroke-linecap:butt;stroke-linejoin:miter;stroke:rgb(0%,0%,100%);stroke-opacity:1;stroke-miterlimit:10;" d="M 158.729219 123.574031 L 158.776094 123.722469 L 158.783906 123.753719 L 158.819063 123.874813 L 158.865938 124.02325 L 158.951875 124.320125 L 158.99875 124.472469 L 159.041719 124.620906 L 159.088594 124.769344 L 159.131563 124.921688 L 159.178438 125.070125 L 159.221406 125.218563 L 159.268281 125.370906 L 159.31125 125.519344 L 159.358125 125.667781 L 159.401094 125.816219 L 159.447969 125.968563 L 159.494844 126.117 L 159.502656 126.144344 L 159.537813 126.265438 L 159.580781 126.417781 L 159.666719 126.714656 L 159.709688 126.867 L 159.756563 127.015438 L 159.8425 127.312313 L 159.885469 127.464656 L 159.932344 127.613094 L 159.975313 127.761531 L 160.018281 127.913875 L 160.065156 128.062313 L 160.151094 128.359188 L 160.197969 128.511531 L 160.221406 128.58575 L 160.240938 128.659969 L 160.283906 128.808406 L 160.326875 128.96075 L 160.369844 129.109188 L 160.408906 129.257625 L 160.451875 129.409969 L 160.580781 129.855281 L 160.62375 130.007625 L 160.670625 130.156063 L 160.713594 130.3045 L 160.756563 130.456844 L 160.8425 130.753719 L 160.885469 130.906063 L 160.928438 131.0545 L 160.93625 131.074031 L 160.971406 131.202938 L 161.014375 131.351375 L 161.053438 131.503719 L 161.139375 131.800594 L 161.182344 131.952938 L 161.221406 132.101375 L 161.264375 132.249813 L 161.307344 132.402156 L 161.393281 132.699031 L 161.432344 132.847469 L 161.475313 132.999813 L 161.56125 133.296688 L 161.604219 133.449031 L 161.647188 133.597469 L 161.655 133.617 L 161.690156 133.745906 L 161.729219 133.89825 L 161.772188 134.046688 L 161.81125 134.195125 L 161.854219 134.343563 L 161.893281 134.495906 M 154.264375 109.808406 L 154.319063 109.96075 L 154.37375 110.109188 L 154.424531 110.257625 L 154.479219 110.409969 L 154.483125 110.421688 L 154.53 110.558406 L 154.576875 110.706844 L 154.627656 110.859188 L 154.78 111.3045 L 154.830781 111.456844 L 154.932344 111.753719 L 154.987031 111.906063 L 155.088594 112.202938 L 155.139375 112.355281 L 155.194063 112.503719 L 155.201875 112.527156 L 155.240938 112.652156 L 155.291719 112.800594 L 155.338594 112.952938 L 155.440156 113.249813 L 155.487031 113.402156 L 155.588594 113.699031 L 155.639375 113.851375 L 155.690156 113.999813 L 155.737031 114.14825 L 155.787813 114.296688 L 155.838594 114.449031 L 155.889375 114.597469 L 155.916719 114.675594 L 155.940156 114.745906 L 155.987031 114.89825 L 156.037813 115.046688 L 156.131563 115.343563 L 156.182344 115.495906 L 156.229219 115.644344 L 156.28 115.792781 L 156.326875 115.945125 L 156.377656 116.093563 L 156.424531 116.242 L 156.475313 116.394344 L 156.526094 116.542781 L 156.572969 116.691219 L 156.62375 116.839656 L 156.635469 116.874813 L 156.670625 116.992 L 156.764375 117.288875 L 156.81125 117.441219 L 156.858125 117.589656 L 156.908906 117.738094 L 156.955781 117.890438 L 157.049531 118.187313 L 157.100313 118.33575 L 157.147188 118.488094 L 157.194063 118.636531 L 157.244844 118.784969 L 157.291719 118.937313 L 157.3425 119.08575 L 157.350313 119.117 L 157.389375 119.234188 L 157.432344 119.386531 L 157.572969 119.831844 L 157.619844 119.984188 L 157.713594 120.281063 L 157.760469 120.433406 L 157.854219 120.730281 L 157.901094 120.882625 L 158.041719 121.327938 L 158.069063 121.409969 L 158.088594 121.480281 L 158.135469 121.628719 L 158.178438 121.777156 L 158.225313 121.9295 L 158.268281 122.077938 L 158.315156 122.226375 L 158.362031 122.378719 L 158.405 122.527156 L 158.49875 122.824031 L 158.545625 122.976375 L 158.588594 123.124813 L 158.635469 123.27325 L 158.682344 123.425594 L 158.729219 123.574031 M 149.139375 96.195125 L 149.197969 96.347469 L 149.385469 96.792781 L 149.451875 96.945125 L 149.463594 96.976375 L 149.510469 97.093563 L 149.569063 97.242 L 149.627656 97.394344 L 149.744844 97.691219 L 149.807344 97.843563 L 149.924531 98.140438 L 149.987031 98.288875 L 150.049531 98.441219 L 150.108125 98.589656 L 150.170625 98.738094 L 150.182344 98.765438 L 150.229219 98.890438 L 150.287813 99.038875 L 150.3425 99.187313 L 150.401094 99.339656 L 150.576875 99.784969 L 150.635469 99.937313 L 150.752656 100.234188 L 150.815156 100.386531 L 150.87375 100.534969 L 150.897188 100.597469 L 150.932344 100.683406 L 150.987031 100.831844 L 151.041719 100.984188 L 151.100313 101.132625 L 151.155 101.281063 L 151.213594 101.433406 L 151.272188 101.581844 L 151.326875 101.730281 L 151.385469 101.882625 L 151.56125 102.327938 L 151.615938 102.472469 L 151.619844 102.480281 L 151.729219 102.777156 L 151.783906 102.9295 L 151.893281 103.226375 L 151.947969 103.378719 L 152.006563 103.527156 L 152.115938 103.824031 L 152.174531 103.976375 L 152.229219 104.124813 L 152.287813 104.27325 L 152.330781 104.390438 L 152.3425 104.425594 L 152.451875 104.722469 L 152.506563 104.874813 L 152.557344 105.02325 L 152.666719 105.320125 L 152.721406 105.472469 L 152.830781 105.769344 L 152.885469 105.921688 L 152.944063 106.070125 L 152.99875 106.218563 L 153.049531 106.355281 L 153.053438 106.370906 L 153.108125 106.519344 L 153.209688 106.816219 L 153.264375 106.968563 L 153.315156 107.117 L 153.369844 107.265438 L 153.424531 107.417781 L 153.475313 107.566219 L 153.53 107.714656 L 153.584688 107.867 L 153.74875 108.312313 L 153.768281 108.367 L 153.799531 108.464656 L 153.901094 108.761531 L 153.951875 108.913875 L 154.006563 109.062313 L 154.057344 109.21075 L 154.108125 109.363094 L 154.162813 109.511531 L 154.264375 109.808406 M 143.010469 82.792781 L 143.053438 82.882625 L 143.201875 83.1795 L 143.276094 83.331844 L 143.354219 83.480281 L 143.428438 83.628719 L 143.506563 83.777156 L 143.584688 83.9295 L 143.662813 84.077938 L 143.729219 84.202938 L 143.740938 84.226375 L 143.81125 84.378719 L 143.881563 84.527156 L 143.955781 84.675594 L 144.026094 84.827938 L 144.174531 85.124813 L 144.252656 85.27325 L 144.326875 85.425594 L 144.401094 85.574031 L 144.444063 85.656063 L 144.475313 85.722469 L 144.545625 85.874813 L 144.68625 86.171688 L 144.756563 86.324031 L 144.830781 86.472469 L 144.901094 86.620906 L 144.975313 86.769344 L 145.049531 86.921688 L 145.12375 87.070125 L 145.162813 87.152156 L 145.194063 87.218563 L 145.260469 87.370906 L 145.330781 87.519344 L 145.397188 87.667781 L 145.4675 87.816219 L 145.537813 87.968563 L 145.678438 88.265438 L 145.74875 88.417781 L 145.822969 88.566219 L 145.877656 88.683406 L 145.893281 88.714656 L 145.959688 88.867 L 146.158906 89.312313 L 146.229219 89.464656 L 146.295625 89.613094 L 146.365938 89.761531 L 146.43625 89.913875 L 146.502656 90.062313 L 146.572969 90.21075 L 146.596406 90.257625 L 146.639375 90.363094 L 146.705781 90.511531 L 146.768281 90.659969 L 146.834688 90.808406 L 146.901094 90.96075 L 147.033906 91.257625 L 147.100313 91.409969 L 147.170625 91.558406 L 147.237031 91.706844 L 147.303438 91.859188 L 147.315156 91.874813 L 147.369844 92.007625 L 147.494844 92.3045 L 147.557344 92.456844 L 147.62375 92.605281 L 147.68625 92.753719 L 147.752656 92.906063 L 147.885469 93.202938 L 147.951875 93.355281 L 148.018281 93.503719 L 148.03 93.534969 L 148.080781 93.652156 L 148.139375 93.800594 L 148.201875 93.952938 L 148.326875 94.249813 L 148.389375 94.402156 L 148.451875 94.550594 L 148.518281 94.699031 L 148.580781 94.851375 L 148.647188 94.999813 L 148.709688 95.14825 L 148.74875 95.234188 L 148.772188 95.296688 L 148.834688 95.449031 L 148.893281 95.597469 L 148.955781 95.745906 L 149.014375 95.89825 L 149.139375 96.195125 M 135.080781 69.714656 L 135.12375 69.761531 L 135.18625 69.867 L 135.283906 70.015438 L 135.385469 70.163875 L 135.490938 70.316219 L 135.604219 70.464656 L 135.721406 70.613094 L 135.8425 70.761531 L 135.932344 70.913875 L 136.03 71.062313 L 136.131563 71.21075 L 136.233125 71.363094 L 136.451875 71.659969 L 136.557344 71.796688 L 136.565156 71.812313 L 136.655 71.96075 L 136.74875 72.109188 L 136.846406 72.257625 L 136.947969 72.409969 L 137.049531 72.558406 L 137.155 72.706844 L 137.264375 72.859188 L 137.276094 72.870906 L 137.354219 73.007625 L 137.447969 73.156063 L 137.541719 73.308406 L 137.635469 73.456844 L 137.737031 73.605281 L 137.834688 73.753719 L 137.940156 73.906063 L 137.990938 73.980281 L 138.033906 74.0545 L 138.12375 74.202938 L 138.213594 74.355281 L 138.303438 74.503719 L 138.397188 74.652156 L 138.494844 74.800594 L 138.5925 74.952938 L 138.694063 75.101375 L 138.709688 75.128719 L 138.78 75.249813 L 138.865938 75.402156 L 139.045625 75.699031 L 139.135469 75.851375 L 139.322969 76.14825 L 139.420625 76.296688 L 139.424531 76.308406 L 139.502656 76.449031 L 139.674531 76.745906 L 139.760469 76.89825 L 139.846406 77.046688 L 139.93625 77.195125 L 140.03 77.347469 L 140.119844 77.495906 L 140.143281 77.531063 L 140.205781 77.644344 L 140.287813 77.792781 L 140.369844 77.945125 L 140.455781 78.093563 L 140.537813 78.242 L 140.627656 78.394344 L 140.713594 78.542781 L 140.803438 78.691219 L 140.862031 78.788875 L 140.889375 78.843563 L 140.9675 78.992 L 141.049531 79.140438 L 141.127656 79.288875 L 141.209688 79.441219 L 141.295625 79.589656 L 141.377656 79.738094 L 141.463594 79.890438 L 141.549531 80.038875 L 141.576875 80.08575 L 141.631563 80.187313 L 141.709688 80.339656 L 141.865938 80.636531 L 141.947969 80.784969 L 142.026094 80.937313 L 142.190156 81.234188 L 142.276094 81.386531 L 142.295625 81.417781 L 142.428438 81.683406 L 142.502656 81.83575 L 142.737031 82.281063 L 142.819063 82.433406 L 142.897188 82.581844 L 142.979219 82.730281 L 143.010469 82.792781 M 121.772188 77.644344 L 122.022188 77.495906 L 122.2175 77.378719 L 122.268281 77.347469 L 122.510469 77.195125 L 122.744844 77.046688 L 122.93625 76.925594 L 122.979219 76.89825 L 123.205781 76.745906 L 123.428438 76.597469 L 123.647188 76.449031 L 123.651094 76.445125 L 123.865938 76.296688 L 124.287813 75.999813 L 124.369844 75.941219 L 124.494844 75.851375 L 124.697969 75.699031 L 124.897188 75.550594 L 125.084688 75.406063 L 125.0925 75.402156 L 125.287813 75.249813 L 125.479219 75.101375 L 125.666719 74.952938 L 125.803438 74.843563 L 125.854219 74.800594 L 126.041719 74.652156 L 126.401094 74.355281 L 126.576875 74.202938 L 126.756563 74.0545 L 126.928438 73.906063 L 127.100313 73.753719 L 127.237031 73.632625 L 127.268281 73.605281 L 127.440156 73.456844 L 127.608125 73.308406 L 127.768281 73.156063 L 127.928438 73.007625 L 127.955781 72.984188 L 128.0925 72.859188 L 128.256563 72.706844 L 128.412813 72.558406 L 128.565156 72.409969 L 128.670625 72.3045 L 128.721406 72.257625 L 129.033906 71.96075 L 129.182344 71.812313 L 129.326875 71.659969 L 129.389375 71.593563 L 129.475313 71.511531 L 129.627656 71.363094 L 129.776094 71.21075 L 129.916719 71.062313 L 130.053438 70.913875 L 130.104219 70.855281 L 130.201875 70.761531 L 130.350313 70.613094 L 130.490938 70.464656 L 130.627656 70.316219 L 130.756563 70.163875 L 130.822969 70.08575 L 130.897188 70.015438 L 131.045625 69.867 L 131.182344 69.714656 L 131.315156 69.566219 L 131.440156 69.417781 L 131.537813 69.288875 L 131.56125 69.265438 L 131.7175 69.117 L 131.862031 68.968563 L 131.994844 68.820125 L 132.112031 68.667781 L 132.221406 68.519344 L 132.256563 68.464656 L 132.381563 68.370906 L 132.553438 68.218563 L 132.701875 68.070125 L 132.826875 67.921688 L 132.924531 67.769344 L 132.971406 67.675594 L 133.2175 67.769344 L 133.690156 67.909969 L 133.694063 67.921688 L 133.776094 68.070125 L 133.87375 68.218563 L 133.987031 68.370906 L 134.115938 68.519344 L 134.260469 68.667781 L 134.408906 68.8045 L 134.416719 68.820125 L 134.506563 68.968563 L 134.604219 69.117 L 134.713594 69.265438 L 134.826875 69.417781 L 134.951875 69.566219 L 135.080781 69.714656 M 89.850313 77.046688 L 89.951875 77.089656 L 90.205781 77.195125 L 90.565156 77.347469 L 90.670625 77.386531 L 90.932344 77.495906 L 91.299531 77.644344 L 91.385469 77.6795 L 91.674531 77.792781 L 92.053438 77.945125 L 92.104219 77.964656 L 92.440156 78.093563 L 92.819063 78.242 L 92.830781 78.242 L 93.225313 78.394344 L 93.537813 78.507625 L 93.631563 78.542781 L 94.045625 78.691219 L 94.252656 78.769344 L 94.463594 78.843563 L 94.893281 78.992 L 94.971406 79.019344 L 95.334688 79.140438 L 95.690156 79.257625 L 95.783906 79.288875 L 96.24875 79.441219 L 96.405 79.488094 L 96.729219 79.589656 L 97.12375 79.71075 L 97.221406 79.738094 L 97.733125 79.890438 L 97.838594 79.917781 L 98.268281 80.038875 L 98.557344 80.117 L 98.826875 80.187313 L 99.272188 80.3045 L 99.412813 80.339656 L 99.990938 80.476375 L 100.033906 80.488094 L 100.697969 80.636531 L 100.705781 80.640438 L 101.420625 80.784969 L 102.143281 80.921688 L 102.225313 80.937313 L 102.858125 81.042781 L 103.147188 81.08575 L 103.576875 81.14825 L 104.256563 81.234188 L 104.291719 81.242 L 105.010469 81.316219 L 105.725313 81.374813 L 105.869844 81.386531 L 106.444063 81.421688 L 107.158906 81.449031 L 107.877656 81.456844 L 108.596406 81.449031 L 109.31125 81.425594 L 109.947969 81.386531 L 110.03 81.378719 L 110.744844 81.316219 L 111.459688 81.234188 L 112.178438 81.132625 L 112.455781 81.08575 L 112.897188 81.011531 L 113.272188 80.937313 L 113.612031 80.867 L 113.9675 80.784969 L 114.330781 80.702938 L 114.588594 80.636531 L 115.049531 80.519344 L 115.155 80.488094 L 115.670625 80.339656 L 115.764375 80.308406 L 116.147188 80.187313 L 116.483125 80.081844 L 116.600313 80.038875 L 117.026094 79.890438 L 117.197969 79.827938 L 117.428438 79.738094 L 117.815156 79.589656 L 117.916719 79.550594 L 118.182344 79.441219 L 118.537813 79.288875 L 118.631563 79.249813 L 118.877656 79.140438 L 119.205781 78.992 L 119.350313 78.925594 L 119.526094 78.843563 L 119.830781 78.691219 L 120.065156 78.577938 L 120.135469 78.542781 L 120.420625 78.394344 L 120.705781 78.242 L 120.783906 78.202938 L 120.983125 78.093563 L 121.252656 77.945125 L 121.502656 77.8045 L 121.514375 77.792781 L 121.772188 77.644344 M 67.006563 68.015438 L 67.326875 67.921688 L 67.721406 67.769344 L 67.725313 67.769344 L 68.303438 67.620906 L 68.440156 67.570125 L 69.158906 67.58575 L 69.240938 67.620906 L 69.733125 67.769344 L 69.877656 67.8045 L 70.131563 67.921688 L 70.541719 68.070125 L 70.5925 68.08575 L 70.881563 68.218563 L 71.256563 68.370906 L 71.31125 68.386531 L 71.588594 68.519344 L 71.944063 68.667781 L 72.026094 68.699031 L 72.268281 68.820125 L 72.608125 68.968563 L 72.744844 69.02325 L 72.93625 69.117 L 73.264375 69.265438 L 73.459688 69.351375 L 73.596406 69.417781 L 73.912813 69.566219 L 74.178438 69.683406 L 74.244844 69.714656 L 74.557344 69.867 L 74.885469 70.015438 L 74.893281 70.019344 L 75.194063 70.163875 L 75.514375 70.316219 L 75.612031 70.359188 L 75.826875 70.464656 L 76.139375 70.613094 L 76.330781 70.699031 L 76.455781 70.761531 L 76.764375 70.913875 L 77.045625 71.046688 L 77.080781 71.062313 L 77.385469 71.21075 L 77.697969 71.363094 L 77.764375 71.390438 L 78.002656 71.511531 L 78.315156 71.659969 L 78.479219 71.738094 L 78.62375 71.812313 L 78.928438 71.96075 L 79.197969 72.08575 L 79.240938 72.109188 L 79.545625 72.257625 L 79.858125 72.409969 L 79.912813 72.433406 L 80.162813 72.558406 L 80.471406 72.706844 L 80.631563 72.784969 L 80.78 72.859188 L 81.088594 73.007625 L 81.346406 73.132625 L 81.401094 73.156063 L 81.705781 73.308406 L 82.018281 73.456844 L 82.065156 73.476375 L 82.326875 73.605281 L 82.639375 73.753719 L 82.783906 73.824031 L 82.951875 73.906063 L 83.264375 74.0545 L 83.49875 74.163875 L 83.576875 74.202938 L 83.889375 74.355281 L 84.209688 74.503719 L 84.2175 74.507625 L 84.522188 74.652156 L 84.8425 74.800594 L 84.932344 74.843563 L 85.162813 74.952938 L 85.483125 75.101375 L 85.651094 75.1795 L 85.807344 75.249813 L 86.131563 75.402156 L 86.365938 75.507625 L 86.455781 75.550594 L 86.783906 75.699031 L 87.084688 75.83575 L 87.115938 75.851375 L 87.447969 75.999813 L 87.783906 76.14825 L 87.799531 76.156063 L 88.119844 76.296688 L 88.459688 76.449031 L 88.518281 76.472469 L 88.803438 76.597469 L 89.147188 76.745906 L 89.237031 76.784969 L 89.49875 76.89825 L 89.850313 77.046688 M 34.955781 68.370906 L 35.190156 68.218563 L 35.389375 68.070125 L 35.459688 68.007625 L 35.674531 67.921688 L 35.963594 67.769344 L 36.174531 67.624813 L 36.760469 67.620906 L 36.893281 67.620906 L 37.158906 67.769344 L 37.510469 67.921688 L 37.612031 67.956844 L 37.795625 68.070125 L 38.084688 68.218563 L 38.326875 68.327938 L 38.397188 68.370906 L 38.678438 68.519344 L 38.994844 68.667781 L 39.045625 68.687313 L 39.295625 68.820125 L 39.619844 68.968563 L 39.760469 69.027156 L 39.947969 69.117 L 40.287813 69.265438 L 40.479219 69.347469 L 40.639375 69.417781 L 41.002656 69.566219 L 41.385469 69.714656 L 41.78 69.867 L 41.912813 69.913875 L 42.197969 70.015438 L 42.627656 70.159969 L 42.639375 70.163875 L 43.108125 70.316219 L 43.346406 70.386531 L 43.608125 70.464656 L 44.065156 70.589656 L 44.147188 70.613094 L 44.737031 70.761531 L 44.78 70.77325 L 45.401094 70.913875 L 45.49875 70.933406 L 46.155 71.062313 L 46.213594 71.074031 L 46.932344 71.191219 L 47.065156 71.21075 L 47.647188 71.292781 L 48.272188 71.363094 L 48.365938 71.370906 L 49.080781 71.433406 L 49.799531 71.472469 L 50.518281 71.495906 L 51.233125 71.499813 L 51.951875 71.488094 L 52.666719 71.46075 L 53.385469 71.413875 L 53.994844 71.363094 L 54.100313 71.351375 L 54.819063 71.27325 L 55.303438 71.21075 L 55.533906 71.1795 L 56.252656 71.074031 L 56.319063 71.062313 L 56.971406 70.949031 L 57.174531 70.913875 L 57.68625 70.816219 L 57.940156 70.761531 L 58.405 70.663875 L 58.639375 70.613094 L 59.119844 70.503719 L 59.287813 70.464656 L 59.838594 70.327938 L 59.893281 70.316219 L 60.4675 70.163875 L 60.553438 70.140438 L 61.018281 70.015438 L 61.272188 69.941219 L 61.545625 69.867 L 61.987031 69.734188 L 62.049531 69.714656 L 62.541719 69.566219 L 62.705781 69.511531 L 63.018281 69.417781 L 63.424531 69.284969 L 63.475313 69.265438 L 63.928438 69.117 L 64.139375 69.042781 L 64.37375 68.968563 L 64.799531 68.820125 L 64.858125 68.796688 L 65.233125 68.667781 L 65.572969 68.542781 L 65.643281 68.519344 L 66.069063 68.370906 L 66.291719 68.281063 L 66.479219 68.218563 L 66.885469 68.070125 L 67.006563 68.015438 M 23.272188 80.577938 L 23.338594 80.488094 L 23.447969 80.339656 L 23.557344 80.187313 L 23.666719 80.038875 L 23.772188 79.890438 L 23.877656 79.738094 L 23.979219 79.589656 L 23.987031 79.577938 L 24.0925 79.441219 L 24.209688 79.288875 L 24.319063 79.140438 L 24.432344 78.992 L 24.541719 78.843563 L 24.647188 78.691219 L 24.705781 78.613094 L 24.760469 78.542781 L 24.881563 78.394344 L 24.99875 78.242 L 25.225313 77.945125 L 25.338594 77.792781 L 25.420625 77.683406 L 25.451875 77.644344 L 25.576875 77.495906 L 25.697969 77.347469 L 25.819063 77.195125 L 26.053438 76.89825 L 26.139375 76.784969 L 26.170625 76.745906 L 26.299531 76.597469 L 26.424531 76.449031 L 26.549531 76.296688 L 26.791719 75.999813 L 26.854219 75.921688 L 26.920625 75.851375 L 27.053438 75.699031 L 27.31125 75.402156 L 27.43625 75.249813 L 27.56125 75.101375 L 27.572969 75.089656 L 27.697969 74.952938 L 27.838594 74.800594 L 28.104219 74.503719 L 28.233125 74.355281 L 28.287813 74.288875 L 28.37375 74.202938 L 28.518281 74.0545 L 28.658906 73.906063 L 28.795625 73.753719 L 28.932344 73.605281 L 29.006563 73.519344 L 29.072969 73.456844 L 29.225313 73.308406 L 29.37375 73.156063 L 29.725313 72.784969 L 29.807344 72.706844 L 29.963594 72.558406 L 30.115938 72.409969 L 30.268281 72.257625 L 30.412813 72.109188 L 30.440156 72.077938 L 30.572969 71.96075 L 30.737031 71.812313 L 30.897188 71.659969 L 31.049531 71.511531 L 31.158906 71.402156 L 31.209688 71.363094 L 31.385469 71.21075 L 31.553438 71.062313 L 31.7175 70.913875 L 31.869844 70.761531 L 31.87375 70.761531 L 32.057344 70.613094 L 32.237031 70.464656 L 32.408906 70.316219 L 32.572969 70.163875 L 32.5925 70.144344 L 32.768281 70.015438 L 32.955781 69.867 L 33.135469 69.714656 L 33.303438 69.566219 L 33.307344 69.562313 L 33.518281 69.417781 L 33.7175 69.265438 L 33.901094 69.117 L 34.026094 69.007625 L 34.0925 68.968563 L 34.319063 68.820125 L 34.526094 68.667781 L 34.709688 68.519344 L 34.740938 68.488094 L 34.955781 68.370906 M 15.549531 93.652156 L 15.705781 93.355281 L 15.78 93.202938 L 15.858125 93.0545 L 15.932344 92.906063 L 16.006563 92.753719 L 16.100313 92.566219 L 16.158906 92.456844 L 16.240938 92.3045 L 16.397188 92.007625 L 16.479219 91.859188 L 16.557344 91.706844 L 16.631563 91.558406 L 16.709688 91.409969 L 16.787813 91.257625 L 16.819063 91.199031 L 16.865938 91.109188 L 16.947969 90.96075 L 17.03 90.808406 L 17.194063 90.511531 L 17.272188 90.363094 L 17.354219 90.21075 L 17.510469 89.913875 L 17.533906 89.870906 L 17.596406 89.761531 L 17.678438 89.613094 L 17.764375 89.464656 L 17.846406 89.312313 L 17.932344 89.163875 L 18.096406 88.867 L 18.178438 88.714656 L 18.252656 88.577938 L 18.260469 88.566219 L 18.346406 88.417781 L 18.432344 88.265438 L 18.522188 88.117 L 18.608125 87.968563 L 18.690156 87.816219 L 18.862031 87.519344 L 18.944063 87.370906 L 18.9675 87.324031 L 19.033906 87.218563 L 19.213594 86.921688 L 19.299531 86.769344 L 19.389375 86.620906 L 19.475313 86.472469 L 19.565156 86.324031 L 19.651094 86.171688 L 19.68625 86.109188 L 19.740938 86.02325 L 19.834688 85.874813 L 19.924531 85.722469 L 20.018281 85.574031 L 20.108125 85.425594 L 20.197969 85.27325 L 20.377656 84.976375 L 20.401094 84.9295 L 20.471406 84.827938 L 20.565156 84.675594 L 20.662813 84.527156 L 20.756563 84.378719 L 20.850313 84.226375 L 20.944063 84.077938 L 21.033906 83.9295 L 21.119844 83.788875 L 21.127656 83.777156 L 21.225313 83.628719 L 21.326875 83.480281 L 21.424531 83.331844 L 21.522188 83.1795 L 21.615938 83.031063 L 21.713594 82.882625 L 21.807344 82.730281 L 21.834688 82.683406 L 21.905 82.581844 L 22.010469 82.433406 L 22.112031 82.281063 L 22.213594 82.132625 L 22.408906 81.83575 L 22.506563 81.683406 L 22.553438 81.613094 L 22.608125 81.534969 L 22.7175 81.386531 L 22.822969 81.234188 L 22.924531 81.08575 L 23.03 80.937313 L 23.131563 80.784969 L 23.233125 80.636531 L 23.272188 80.577938 M 9.483125 107.117 L 9.541719 106.968563 L 9.604219 106.816219 L 9.647188 106.706844 L 9.662813 106.667781 L 9.787813 106.370906 L 9.850313 106.218563 L 9.975313 105.921688 L 10.037813 105.769344 L 10.096406 105.620906 L 10.158906 105.472469 L 10.221406 105.320125 L 10.28 105.171688 L 10.3425 105.02325 L 10.365938 104.968563 L 10.405 104.874813 L 10.4675 104.722469 L 10.533906 104.574031 L 10.596406 104.425594 L 10.662813 104.27325 L 10.787813 103.976375 L 10.850313 103.824031 L 11.037813 103.378719 L 11.080781 103.27325 L 11.100313 103.226375 L 11.233125 102.9295 L 11.299531 102.777156 L 11.362031 102.628719 L 11.428438 102.480281 L 11.494844 102.327938 L 11.557344 102.1795 L 11.62375 102.031063 L 11.68625 101.882625 L 11.74875 101.730281 L 11.799531 101.620906 L 11.815156 101.581844 L 11.881563 101.433406 L 11.951875 101.281063 L 12.084688 100.984188 L 12.151094 100.831844 L 12.350313 100.386531 L 12.416719 100.234188 L 12.483125 100.08575 L 12.514375 100.007625 L 12.549531 99.937313 L 12.619844 99.784969 L 12.68625 99.636531 L 12.826875 99.339656 L 12.893281 99.187313 L 12.963594 99.038875 L 13.03 98.890438 L 13.096406 98.738094 L 13.162813 98.589656 L 13.233125 98.441219 L 13.303438 98.288875 L 13.444063 97.992 L 13.518281 97.843563 L 13.588594 97.691219 L 13.658906 97.542781 L 13.725313 97.394344 L 13.795625 97.242 L 13.865938 97.093563 L 13.932344 96.945125 L 13.947969 96.909969 L 14.155 96.495906 L 14.225313 96.347469 L 14.299531 96.195125 L 14.440156 95.89825 L 14.514375 95.745906 L 14.655 95.449031 L 14.666719 95.421688 L 14.803438 95.14825 L 14.881563 94.999813 L 14.955781 94.851375 L 15.03 94.699031 L 15.178438 94.402156 L 15.24875 94.249813 L 15.322969 94.101375 L 15.381563 93.976375 L 15.397188 93.952938 L 15.475313 93.800594 L 15.549531 93.652156 M 4.416719 120.730281 L 4.518281 120.433406 L 4.569063 120.281063 L 4.619844 120.132625 L 4.627656 120.109188 L 4.670625 119.984188 L 4.725313 119.831844 L 4.78 119.683406 L 4.830781 119.534969 L 4.885469 119.386531 L 4.93625 119.234188 L 4.990938 119.08575 L 5.041719 118.937313 L 5.0925 118.784969 L 5.147188 118.636531 L 5.197969 118.488094 L 5.24875 118.33575 L 5.299531 118.187313 L 5.346406 118.058406 L 5.350313 118.038875 L 5.405 117.890438 L 5.459688 117.738094 L 5.569063 117.441219 L 5.62375 117.288875 L 5.678438 117.140438 L 5.729219 116.992 L 5.783906 116.839656 L 5.838594 116.691219 L 5.889375 116.542781 L 5.944063 116.394344 L 5.994844 116.242 L 6.049531 116.093563 L 6.06125 116.0545 L 6.104219 115.945125 L 6.158906 115.792781 L 6.268281 115.495906 L 6.322969 115.343563 L 6.377656 115.195125 L 6.43625 115.046688 L 6.490938 114.89825 L 6.541719 114.745906 L 6.651094 114.449031 L 6.705781 114.296688 L 6.760469 114.14825 L 6.78 114.093563 L 6.815156 113.999813 L 6.87375 113.851375 L 6.928438 113.699031 L 6.987031 113.550594 L 7.041719 113.402156 L 7.100313 113.249813 L 7.209688 112.952938 L 7.268281 112.800594 L 7.432344 112.355281 L 7.487031 112.202938 L 7.494844 112.1795 L 7.545625 112.0545 L 7.604219 111.906063 L 7.662813 111.753719 L 7.721406 111.605281 L 7.776094 111.456844 L 7.834688 111.3045 L 7.893281 111.156063 L 7.947969 111.007625 L 8.006563 110.859188 L 8.065156 110.706844 L 8.119844 110.558406 L 8.178438 110.409969 L 8.213594 110.312313 L 8.233125 110.257625 L 8.295625 110.109188 L 8.354219 109.96075 L 8.412813 109.808406 L 8.588594 109.363094 L 8.647188 109.21075 L 8.764375 108.913875 L 8.822969 108.761531 L 8.881563 108.613094 L 8.928438 108.488094 L 8.940156 108.464656 L 9.002656 108.312313 L 9.06125 108.163875 L 9.12375 108.015438 L 9.182344 107.867 L 9.244844 107.714656 L 9.303438 107.566219 L 9.365938 107.417781 L 9.424531 107.265438 L 9.483125 107.117 M -0.00125 134.495906 L 0.045625 134.343563 L 0.0885938 134.195125 L 0.135469 134.046688 L 0.178438 133.89825 L 0.221406 133.745906 L 0.268281 133.597469 L 0.31125 133.449031 L 0.326875 133.402156 L 0.358125 133.296688 L 0.451875 132.999813 L 0.49875 132.847469 L 0.545625 132.699031 L 0.588594 132.550594 L 0.635469 132.402156 L 0.682344 132.249813 L 0.729219 132.101375 L 0.772188 131.952938 L 0.819063 131.800594 L 0.865938 131.652156 L 0.908906 131.503719 L 0.955781 131.351375 L 1.002656 131.202938 L 1.041719 131.066219 L 1.045625 131.0545 L 1.0925 130.906063 L 1.143281 130.753719 L 1.237031 130.456844 L 1.283906 130.3045 L 1.377656 130.007625 L 1.424531 129.855281 L 1.565156 129.409969 L 1.612031 129.257625 L 1.705781 128.96075 L 1.74875 128.808406 L 1.760469 128.777156 L 1.799531 128.659969 L 1.846406 128.511531 L 1.897188 128.359188 L 1.990938 128.062313 L 2.041719 127.913875 L 2.088594 127.761531 L 2.182344 127.464656 L 2.233125 127.312313 L 2.37375 126.867 L 2.420625 126.714656 L 2.4675 126.566219 L 2.475313 126.538875 L 2.518281 126.417781 L 2.569063 126.265438 L 2.615938 126.117 L 2.666719 125.968563 L 2.7175 125.816219 L 2.764375 125.667781 L 2.815156 125.519344 L 2.862031 125.370906 L 2.912813 125.218563 L 2.959688 125.070125 L 3.010469 124.921688 L 3.057344 124.769344 L 3.108125 124.620906 L 3.155 124.472469 L 3.194063 124.347469 L 3.201875 124.320125 L 3.354219 123.874813 L 3.405 123.722469 L 3.506563 123.425594 L 3.557344 123.27325 L 3.608125 123.124813 L 3.655 122.976375 L 3.705781 122.824031 L 3.756563 122.675594 L 3.803438 122.527156 L 3.854219 122.378719 L 3.905 122.226375 L 3.912813 122.206844 L 3.955781 122.077938 L 4.006563 121.9295 L 4.057344 121.777156 L 4.112031 121.628719 L 4.162813 121.480281 L 4.213594 121.327938 L 4.365938 120.882625 L 4.416719 120.730281 M 158.729219 10.921688 L 158.776094 10.77325 L 158.783906 10.742 L 158.819063 10.620906 L 158.865938 10.472469 L 158.908906 10.324031 L 158.951875 10.171688 L 158.99875 10.02325 L 159.041719 9.874813 L 159.088594 9.722469 L 159.131563 9.574031 L 159.178438 9.425594 L 159.221406 9.277156 L 159.268281 9.124813 L 159.31125 8.976375 L 159.358125 8.827938 L 159.401094 8.675594 L 159.494844 8.378719 L 159.502656 8.351375 L 159.537813 8.226375 L 159.666719 7.781063 L 159.709688 7.628719 L 159.756563 7.480281 L 159.799531 7.331844 L 159.8425 7.1795 L 159.885469 7.031063 L 159.932344 6.882625 L 159.975313 6.730281 L 160.018281 6.581844 L 160.065156 6.433406 L 160.108125 6.284969 L 160.151094 6.132625 L 160.221406 5.909969 L 160.240938 5.83575 L 160.283906 5.683406 L 160.369844 5.386531 L 160.408906 5.238094 L 160.451875 5.08575 L 160.537813 4.788875 L 160.580781 4.636531 L 160.62375 4.488094 L 160.670625 4.339656 L 160.713594 4.187313 L 160.8425 3.742 L 160.885469 3.589656 L 160.928438 3.441219 L 160.93625 3.417781 L 160.971406 3.292781 L 161.014375 3.140438 L 161.053438 2.992 L 161.096406 2.843563 L 161.139375 2.691219 L 161.182344 2.542781 L 161.221406 2.394344 L 161.264375 2.245906 L 161.307344 2.093563 L 161.393281 1.796688 L 161.432344 1.644344 L 161.518281 1.347469 L 161.56125 1.195125 L 161.647188 0.89825 L 161.655 0.878719 L 161.690156 0.749813 L 161.729219 0.597469 L 161.772188 0.449031 L 161.81125 0.300594 L 161.854219 0.14825 L 161.893281 -0.0001875 M 154.264375 24.683406 L 154.37375 24.386531 L 154.424531 24.234188 L 154.479219 24.08575 L 154.483125 24.070125 L 154.53 23.937313 L 154.576875 23.788875 L 154.627656 23.636531 L 154.729219 23.339656 L 154.78 23.187313 L 154.881563 22.890438 L 154.932344 22.738094 L 154.987031 22.589656 L 155.088594 22.292781 L 155.139375 22.140438 L 155.194063 21.992 L 155.201875 21.968563 L 155.240938 21.843563 L 155.291719 21.691219 L 155.338594 21.542781 L 155.389375 21.394344 L 155.440156 21.242 L 155.487031 21.093563 L 155.588594 20.796688 L 155.639375 20.644344 L 155.690156 20.495906 L 155.737031 20.347469 L 155.787813 20.195125 L 155.889375 19.89825 L 155.916719 19.820125 L 155.987031 19.597469 L 156.037813 19.449031 L 156.084688 19.300594 L 156.131563 19.14825 L 156.182344 18.999813 L 156.229219 18.851375 L 156.28 18.699031 L 156.326875 18.550594 L 156.377656 18.402156 L 156.424531 18.253719 L 156.475313 18.101375 L 156.526094 17.952938 L 156.572969 17.8045 L 156.62375 17.652156 L 156.635469 17.620906 L 156.670625 17.503719 L 156.7175 17.355281 L 156.764375 17.202938 L 156.858125 16.906063 L 156.908906 16.757625 L 156.955781 16.605281 L 157.049531 16.308406 L 157.100313 16.156063 L 157.194063 15.859188 L 157.244844 15.706844 L 157.291719 15.558406 L 157.3425 15.409969 L 157.350313 15.378719 L 157.389375 15.261531 L 157.432344 15.109188 L 157.526094 14.812313 L 157.572969 14.659969 L 157.666719 14.363094 L 157.713594 14.21075 L 157.854219 13.765438 L 157.901094 13.613094 L 157.994844 13.316219 L 158.041719 13.163875 L 158.069063 13.081844 L 158.088594 13.015438 L 158.135469 12.867 L 158.178438 12.714656 L 158.225313 12.566219 L 158.268281 12.417781 L 158.315156 12.269344 L 158.362031 12.117 L 158.405 11.968563 L 158.451875 11.820125 L 158.49875 11.667781 L 158.545625 11.519344 L 158.588594 11.370906 L 158.635469 11.218563 L 158.729219 10.921688 M 149.139375 38.300594 L 149.197969 38.14825 L 149.322969 37.851375 L 149.385469 37.699031 L 149.451875 37.550594 L 149.463594 37.515438 L 149.510469 37.402156 L 149.569063 37.249813 L 149.744844 36.8045 L 149.807344 36.652156 L 149.924531 36.355281 L 149.987031 36.202938 L 150.049531 36.0545 L 150.108125 35.906063 L 150.170625 35.753719 L 150.182344 35.730281 L 150.229219 35.605281 L 150.287813 35.456844 L 150.3425 35.308406 L 150.401094 35.156063 L 150.518281 34.859188 L 150.576875 34.706844 L 150.694063 34.409969 L 150.752656 34.257625 L 150.815156 34.109188 L 150.87375 33.96075 L 150.897188 33.89825 L 150.932344 33.812313 L 150.987031 33.659969 L 151.041719 33.511531 L 151.100313 33.363094 L 151.155 33.21075 L 151.272188 32.913875 L 151.326875 32.765438 L 151.385469 32.613094 L 151.502656 32.316219 L 151.56125 32.163875 L 151.615938 32.02325 L 151.619844 32.015438 L 151.674531 31.867 L 151.729219 31.714656 L 151.893281 31.269344 L 151.947969 31.117 L 152.006563 30.968563 L 152.06125 30.820125 L 152.115938 30.667781 L 152.174531 30.519344 L 152.229219 30.370906 L 152.287813 30.218563 L 152.330781 30.105281 L 152.3425 30.070125 L 152.451875 29.77325 L 152.506563 29.620906 L 152.557344 29.472469 L 152.612031 29.324031 L 152.666719 29.171688 L 152.776094 28.874813 L 152.830781 28.722469 L 152.885469 28.574031 L 152.944063 28.425594 L 152.99875 28.277156 L 153.049531 28.140438 L 153.053438 28.124813 L 153.108125 27.976375 L 153.158906 27.827938 L 153.209688 27.675594 L 153.264375 27.527156 L 153.315156 27.378719 L 153.369844 27.226375 L 153.424531 27.077938 L 153.475313 26.9295 L 153.53 26.781063 L 153.584688 26.628719 L 153.694063 26.331844 L 153.74875 26.1795 L 153.768281 26.128719 L 153.799531 26.031063 L 153.850313 25.882625 L 153.901094 25.730281 L 153.951875 25.581844 L 154.006563 25.433406 L 154.057344 25.284969 L 154.108125 25.132625 L 154.162813 24.984188 L 154.213594 24.83575 L 154.264375 24.683406 M 143.010469 51.702938 L 143.053438 51.613094 L 143.201875 51.316219 L 143.276094 51.163875 L 143.354219 51.015438 L 143.428438 50.867 L 143.506563 50.714656 L 143.662813 50.417781 L 143.729219 50.288875 L 143.740938 50.265438 L 143.881563 49.968563 L 143.955781 49.820125 L 144.026094 49.667781 L 144.174531 49.370906 L 144.252656 49.218563 L 144.444063 48.83575 L 144.475313 48.769344 L 144.68625 48.324031 L 144.756563 48.171688 L 144.830781 48.02325 L 144.901094 47.874813 L 144.975313 47.722469 L 145.12375 47.425594 L 145.162813 47.343563 L 145.194063 47.27325 L 145.260469 47.124813 L 145.330781 46.976375 L 145.397188 46.827938 L 145.4675 46.675594 L 145.608125 46.378719 L 145.678438 46.226375 L 145.74875 46.077938 L 145.822969 45.9295 L 145.877656 45.812313 L 145.893281 45.781063 L 145.959688 45.628719 L 146.0925 45.331844 L 146.158906 45.1795 L 146.229219 45.031063 L 146.295625 44.882625 L 146.365938 44.730281 L 146.43625 44.581844 L 146.502656 44.433406 L 146.572969 44.284969 L 146.596406 44.238094 L 146.639375 44.132625 L 146.705781 43.984188 L 146.768281 43.83575 L 146.834688 43.683406 L 146.9675 43.386531 L 147.033906 43.234188 L 147.100313 43.08575 L 147.170625 42.937313 L 147.237031 42.788875 L 147.303438 42.636531 L 147.315156 42.620906 L 147.369844 42.488094 L 147.432344 42.339656 L 147.494844 42.187313 L 147.557344 42.038875 L 147.62375 41.890438 L 147.68625 41.738094 L 147.885469 41.292781 L 147.951875 41.140438 L 148.018281 40.992 L 148.03 40.96075 L 148.080781 40.843563 L 148.139375 40.691219 L 148.264375 40.394344 L 148.326875 40.242 L 148.451875 39.945125 L 148.518281 39.796688 L 148.580781 39.644344 L 148.647188 39.495906 L 148.709688 39.347469 L 148.74875 39.261531 L 148.772188 39.195125 L 148.834688 39.046688 L 148.893281 38.89825 L 148.955781 38.745906 L 149.014375 38.597469 L 149.139375 38.300594 M 135.080781 64.777156 L 135.12375 64.734188 L 135.18625 64.628719 L 135.283906 64.480281 L 135.385469 64.331844 L 135.490938 64.1795 L 135.604219 64.031063 L 135.721406 63.882625 L 135.8425 63.734188 L 135.932344 63.581844 L 136.03 63.433406 L 136.131563 63.281063 L 136.233125 63.132625 L 136.451875 62.83575 L 136.557344 62.695125 L 136.565156 62.683406 L 136.655 62.534969 L 136.74875 62.386531 L 136.846406 62.234188 L 137.049531 61.937313 L 137.155 61.784969 L 137.264375 61.636531 L 137.276094 61.624813 L 137.354219 61.488094 L 137.447969 61.339656 L 137.541719 61.187313 L 137.635469 61.038875 L 137.737031 60.890438 L 137.834688 60.738094 L 137.940156 60.589656 L 137.990938 60.515438 L 138.033906 60.441219 L 138.12375 60.288875 L 138.303438 59.992 L 138.397188 59.843563 L 138.494844 59.691219 L 138.5925 59.542781 L 138.694063 59.394344 L 138.709688 59.367 L 138.78 59.242 L 138.865938 59.093563 L 139.045625 58.796688 L 139.135469 58.644344 L 139.322969 58.347469 L 139.420625 58.195125 L 139.424531 58.183406 L 139.502656 58.046688 L 139.588594 57.89825 L 139.674531 57.745906 L 139.846406 57.449031 L 139.93625 57.300594 L 140.03 57.14825 L 140.119844 56.999813 L 140.143281 56.964656 L 140.205781 56.851375 L 140.287813 56.699031 L 140.369844 56.550594 L 140.455781 56.402156 L 140.537813 56.249813 L 140.627656 56.101375 L 140.713594 55.952938 L 140.803438 55.8045 L 140.862031 55.706844 L 140.889375 55.652156 L 140.9675 55.503719 L 141.049531 55.355281 L 141.127656 55.202938 L 141.209688 55.0545 L 141.295625 54.906063 L 141.377656 54.753719 L 141.549531 54.456844 L 141.576875 54.409969 L 141.631563 54.308406 L 141.709688 54.156063 L 141.865938 53.859188 L 141.947969 53.706844 L 142.026094 53.558406 L 142.108125 53.409969 L 142.190156 53.257625 L 142.276094 53.109188 L 142.295625 53.077938 L 142.428438 52.812313 L 142.502656 52.659969 L 142.658906 52.363094 L 142.737031 52.21075 L 142.819063 52.062313 L 142.897188 51.913875 L 142.979219 51.761531 L 143.010469 51.702938 M 121.772188 56.851375 L 122.022188 56.999813 L 122.2175 57.117 L 122.268281 57.14825 L 122.510469 57.300594 L 122.744844 57.449031 L 122.93625 57.570125 L 122.979219 57.597469 L 123.205781 57.745906 L 123.428438 57.89825 L 123.647188 58.046688 L 123.651094 58.050594 L 123.865938 58.195125 L 124.076875 58.347469 L 124.287813 58.495906 L 124.369844 58.5545 L 124.494844 58.644344 L 124.697969 58.796688 L 124.897188 58.945125 L 125.084688 59.089656 L 125.0925 59.093563 L 125.287813 59.242 L 125.479219 59.394344 L 125.666719 59.542781 L 125.803438 59.652156 L 125.854219 59.691219 L 126.041719 59.843563 L 126.401094 60.140438 L 126.518281 60.242 L 126.576875 60.288875 L 126.756563 60.441219 L 127.100313 60.738094 L 127.237031 60.863094 L 127.268281 60.890438 L 127.440156 61.038875 L 127.608125 61.187313 L 127.768281 61.339656 L 127.928438 61.488094 L 127.955781 61.511531 L 128.0925 61.636531 L 128.256563 61.784969 L 128.412813 61.937313 L 128.565156 62.08575 L 128.670625 62.191219 L 128.721406 62.234188 L 128.877656 62.386531 L 129.033906 62.534969 L 129.182344 62.683406 L 129.326875 62.83575 L 129.389375 62.902156 L 129.475313 62.984188 L 129.627656 63.132625 L 129.776094 63.281063 L 129.916719 63.433406 L 130.053438 63.581844 L 130.104219 63.640438 L 130.201875 63.730281 L 130.350313 63.882625 L 130.490938 64.031063 L 130.627656 64.1795 L 130.756563 64.331844 L 130.822969 64.409969 L 130.897188 64.480281 L 131.045625 64.628719 L 131.182344 64.777156 L 131.315156 64.9295 L 131.440156 65.077938 L 131.537813 65.206844 L 131.56125 65.226375 L 131.7175 65.378719 L 131.862031 65.527156 L 131.994844 65.675594 L 132.112031 65.827938 L 132.221406 65.976375 L 132.256563 66.031063 L 132.381563 66.124813 L 132.553438 66.27325 L 132.701875 66.425594 L 132.826875 66.574031 L 132.924531 66.722469 L 132.971406 66.820125 L 133.2175 66.722469 L 133.690156 66.58575 L 133.694063 66.574031 L 133.776094 66.425594 L 133.87375 66.27325 L 133.987031 66.124813 L 134.115938 65.976375 L 134.260469 65.827938 L 134.408906 65.691219 L 134.416719 65.675594 L 134.506563 65.527156 L 134.604219 65.378719 L 134.713594 65.226375 L 134.826875 65.077938 L 134.951875 64.9295 L 135.080781 64.777156 M 89.850313 57.449031 L 89.951875 57.406063 L 90.205781 57.300594 L 90.565156 57.14825 L 90.670625 57.105281 L 90.932344 56.999813 L 91.299531 56.851375 L 91.385469 56.816219 L 91.674531 56.699031 L 92.053438 56.550594 L 92.104219 56.531063 L 92.440156 56.402156 L 92.819063 56.253719 L 92.830781 56.249813 L 93.225313 56.101375 L 93.537813 55.988094 L 93.631563 55.952938 L 94.045625 55.8045 L 94.252656 55.726375 L 94.463594 55.652156 L 94.893281 55.503719 L 94.971406 55.476375 L 95.334688 55.355281 L 95.690156 55.234188 L 95.783906 55.202938 L 96.24875 55.0545 L 96.405 55.003719 L 96.729219 54.906063 L 97.12375 54.784969 L 97.221406 54.753719 L 97.733125 54.605281 L 97.838594 54.574031 L 98.268281 54.456844 L 98.557344 54.378719 L 98.826875 54.308406 L 99.272188 54.191219 L 99.412813 54.156063 L 99.990938 54.015438 L 100.033906 54.007625 L 100.697969 53.859188 L 100.705781 53.855281 L 101.420625 53.706844 L 102.143281 53.574031 L 102.225313 53.558406 L 102.858125 53.452938 L 103.147188 53.409969 L 103.576875 53.347469 L 104.256563 53.257625 L 104.291719 53.253719 L 105.010469 53.1795 L 105.725313 53.117 L 105.869844 53.109188 L 106.444063 53.074031 L 107.158906 53.046688 L 107.877656 53.038875 L 108.596406 53.046688 L 109.31125 53.070125 L 109.947969 53.109188 L 110.03 53.113094 L 110.744844 53.1795 L 111.459688 53.257625 L 112.178438 53.363094 L 112.455781 53.409969 L 112.897188 53.484188 L 113.272188 53.558406 L 113.612031 53.628719 L 113.9675 53.706844 L 114.330781 53.792781 L 114.588594 53.859188 L 115.049531 53.976375 L 115.155 54.007625 L 115.670625 54.156063 L 115.764375 54.183406 L 116.147188 54.308406 L 116.483125 54.413875 L 116.600313 54.456844 L 117.026094 54.605281 L 117.197969 54.667781 L 117.428438 54.753719 L 117.815156 54.906063 L 117.916719 54.945125 L 118.182344 55.0545 L 118.537813 55.202938 L 118.631563 55.245906 L 118.877656 55.355281 L 119.205781 55.503719 L 119.350313 55.570125 L 119.526094 55.652156 L 119.830781 55.8045 L 120.065156 55.917781 L 120.135469 55.952938 L 120.705781 56.249813 L 120.783906 56.292781 L 120.983125 56.402156 L 121.252656 56.550594 L 121.502656 56.691219 L 121.514375 56.699031 L 121.772188 56.851375 M 67.006563 66.476375 L 67.326875 66.574031 L 67.721406 66.722469 L 67.725313 66.726375 L 68.303438 66.874813 L 68.440156 66.925594 L 69.158906 66.909969 L 69.240938 66.874813 L 69.733125 66.722469 L 69.877656 66.691219 L 70.131563 66.574031 L 70.541719 66.425594 L 70.5925 66.409969 L 70.881563 66.27325 L 71.256563 66.124813 L 71.31125 66.109188 L 71.588594 65.976375 L 71.944063 65.827938 L 72.026094 65.792781 L 72.268281 65.675594 L 72.608125 65.527156 L 72.744844 65.472469 L 72.93625 65.378719 L 73.264375 65.226375 L 73.459688 65.144344 L 73.596406 65.077938 L 73.912813 64.9295 L 74.178438 64.812313 L 74.244844 64.777156 L 74.557344 64.628719 L 74.885469 64.480281 L 74.893281 64.476375 L 75.194063 64.331844 L 75.514375 64.1795 L 75.612031 64.136531 L 75.826875 64.031063 L 76.139375 63.882625 L 76.330781 63.796688 L 76.455781 63.730281 L 76.764375 63.581844 L 77.045625 63.449031 L 77.080781 63.433406 L 77.385469 63.281063 L 77.697969 63.132625 L 77.764375 63.105281 L 78.002656 62.984188 L 78.315156 62.83575 L 78.479219 62.757625 L 78.62375 62.683406 L 78.928438 62.534969 L 79.197969 62.409969 L 79.240938 62.386531 L 79.545625 62.234188 L 79.858125 62.08575 L 79.912813 62.058406 L 80.162813 61.937313 L 80.471406 61.784969 L 80.631563 61.71075 L 80.78 61.636531 L 81.088594 61.488094 L 81.346406 61.363094 L 81.401094 61.339656 L 81.705781 61.187313 L 82.018281 61.038875 L 82.065156 61.019344 L 82.326875 60.890438 L 82.639375 60.738094 L 82.783906 60.671688 L 82.951875 60.589656 L 83.264375 60.441219 L 83.49875 60.327938 L 83.576875 60.288875 L 83.889375 60.140438 L 84.209688 59.992 L 84.2175 59.988094 L 84.522188 59.843563 L 84.8425 59.691219 L 84.932344 59.652156 L 85.162813 59.542781 L 85.483125 59.394344 L 85.651094 59.316219 L 85.807344 59.242 L 86.131563 59.093563 L 86.365938 58.988094 L 86.455781 58.945125 L 86.783906 58.796688 L 87.084688 58.659969 L 87.115938 58.644344 L 87.447969 58.495906 L 87.783906 58.347469 L 87.799531 58.339656 L 88.119844 58.195125 L 88.459688 58.046688 L 88.518281 58.02325 L 88.803438 57.89825 L 89.147188 57.745906 L 89.237031 57.71075 L 89.49875 57.597469 L 89.850313 57.449031 M 34.955781 66.124813 L 35.190156 66.27325 L 35.389375 66.425594 L 35.459688 66.484188 L 35.674531 66.574031 L 35.963594 66.722469 L 36.174531 66.870906 L 36.760469 66.874813 L 36.893281 66.874813 L 37.158906 66.722469 L 37.510469 66.574031 L 37.612031 66.538875 L 37.795625 66.425594 L 38.084688 66.27325 L 38.326875 66.167781 L 38.397188 66.124813 L 38.678438 65.976375 L 38.994844 65.827938 L 39.045625 65.8045 L 39.295625 65.675594 L 39.619844 65.527156 L 39.760469 65.464656 L 39.947969 65.378719 L 40.287813 65.226375 L 40.479219 65.14825 L 40.639375 65.077938 L 41.002656 64.9295 L 41.194063 64.855281 L 41.385469 64.777156 L 41.78 64.628719 L 41.912813 64.581844 L 42.197969 64.480281 L 42.627656 64.331844 L 42.639375 64.331844 L 43.108125 64.1795 L 43.346406 64.109188 L 43.608125 64.031063 L 44.065156 63.902156 L 44.147188 63.882625 L 44.737031 63.730281 L 44.78 63.722469 L 45.401094 63.581844 L 45.49875 63.562313 L 46.155 63.433406 L 46.213594 63.421688 L 46.932344 63.300594 L 47.065156 63.281063 L 47.647188 63.202938 L 48.272188 63.132625 L 48.365938 63.124813 L 49.080781 63.062313 L 49.799531 63.02325 L 50.518281 62.999813 L 51.233125 62.992 L 51.951875 63.003719 L 52.666719 63.034969 L 53.385469 63.081844 L 53.994844 63.132625 L 54.100313 63.144344 L 54.819063 63.222469 L 55.303438 63.281063 L 55.533906 63.312313 L 56.252656 63.421688 L 56.319063 63.433406 L 56.971406 63.542781 L 57.174531 63.581844 L 57.68625 63.6795 L 57.940156 63.730281 L 58.405 63.827938 L 58.639375 63.882625 L 59.119844 63.992 L 59.287813 64.031063 L 59.838594 64.167781 L 59.893281 64.1795 L 60.4675 64.331844 L 60.553438 64.355281 L 61.018281 64.480281 L 61.272188 64.5545 L 61.545625 64.628719 L 61.987031 64.761531 L 62.049531 64.777156 L 62.541719 64.9295 L 62.705781 64.984188 L 63.018281 65.077938 L 63.424531 65.21075 L 63.475313 65.226375 L 63.928438 65.378719 L 64.139375 65.452938 L 64.37375 65.527156 L 64.799531 65.675594 L 64.858125 65.699031 L 65.233125 65.827938 L 65.572969 65.952938 L 65.643281 65.976375 L 66.069063 66.124813 L 66.291719 66.214656 L 66.479219 66.27325 L 66.885469 66.425594 L 67.006563 66.476375 M 23.272188 53.917781 L 23.338594 54.007625 L 23.447969 54.156063 L 23.557344 54.308406 L 23.666719 54.456844 L 23.877656 54.753719 L 23.979219 54.906063 L 23.987031 54.913875 L 24.0925 55.0545 L 24.209688 55.202938 L 24.319063 55.355281 L 24.432344 55.503719 L 24.541719 55.652156 L 24.647188 55.8045 L 24.705781 55.882625 L 24.760469 55.952938 L 24.881563 56.101375 L 24.99875 56.249813 L 25.112031 56.402156 L 25.338594 56.699031 L 25.420625 56.812313 L 25.451875 56.851375 L 25.576875 56.999813 L 25.697969 57.14825 L 25.819063 57.300594 L 26.053438 57.597469 L 26.139375 57.71075 L 26.170625 57.745906 L 26.299531 57.89825 L 26.549531 58.195125 L 26.670625 58.347469 L 26.791719 58.495906 L 26.854219 58.574031 L 26.920625 58.644344 L 27.053438 58.796688 L 27.31125 59.093563 L 27.43625 59.242 L 27.56125 59.394344 L 27.572969 59.406063 L 27.697969 59.542781 L 27.838594 59.691219 L 27.971406 59.843563 L 28.104219 59.992 L 28.233125 60.140438 L 28.287813 60.206844 L 28.37375 60.288875 L 28.518281 60.441219 L 28.658906 60.589656 L 28.795625 60.738094 L 28.932344 60.890438 L 29.006563 60.976375 L 29.072969 61.038875 L 29.225313 61.187313 L 29.37375 61.339656 L 29.725313 61.71075 L 29.807344 61.784969 L 29.963594 61.937313 L 30.268281 62.234188 L 30.412813 62.386531 L 30.440156 62.417781 L 30.572969 62.534969 L 30.737031 62.683406 L 30.897188 62.83575 L 31.049531 62.984188 L 31.158906 63.089656 L 31.209688 63.132625 L 31.385469 63.281063 L 31.553438 63.433406 L 31.7175 63.581844 L 31.869844 63.730281 L 31.87375 63.734188 L 32.057344 63.882625 L 32.237031 64.031063 L 32.408906 64.1795 L 32.572969 64.331844 L 32.5925 64.347469 L 32.768281 64.480281 L 32.955781 64.628719 L 33.135469 64.777156 L 33.303438 64.9295 L 33.307344 64.933406 L 33.518281 65.077938 L 33.7175 65.226375 L 33.901094 65.378719 L 34.026094 65.484188 L 34.0925 65.527156 L 34.319063 65.675594 L 34.526094 65.827938 L 34.709688 65.976375 L 34.740938 66.003719 L 34.955781 66.124813 M 15.549531 40.843563 L 15.705781 41.140438 L 15.78 41.292781 L 15.858125 41.441219 L 16.006563 41.738094 L 16.080781 41.890438 L 16.100313 41.925594 L 16.158906 42.038875 L 16.240938 42.187313 L 16.319063 42.339656 L 16.397188 42.488094 L 16.479219 42.636531 L 16.557344 42.788875 L 16.631563 42.937313 L 16.787813 43.234188 L 16.819063 43.296688 L 16.865938 43.386531 L 17.03 43.683406 L 17.112031 43.83575 L 17.194063 43.984188 L 17.272188 44.132625 L 17.354219 44.284969 L 17.510469 44.581844 L 17.533906 44.624813 L 17.596406 44.730281 L 17.678438 44.882625 L 17.764375 45.031063 L 17.846406 45.1795 L 17.932344 45.331844 L 18.096406 45.628719 L 18.178438 45.781063 L 18.252656 45.917781 L 18.260469 45.9295 L 18.432344 46.226375 L 18.522188 46.378719 L 18.608125 46.527156 L 18.690156 46.675594 L 18.776094 46.827938 L 18.862031 46.976375 L 18.944063 47.124813 L 18.9675 47.167781 L 19.033906 47.27325 L 19.12375 47.425594 L 19.213594 47.574031 L 19.299531 47.722469 L 19.389375 47.874813 L 19.475313 48.02325 L 19.565156 48.171688 L 19.651094 48.324031 L 19.68625 48.386531 L 19.740938 48.472469 L 19.834688 48.620906 L 19.924531 48.769344 L 20.018281 48.921688 L 20.197969 49.218563 L 20.287813 49.370906 L 20.377656 49.519344 L 20.401094 49.562313 L 20.471406 49.667781 L 20.565156 49.820125 L 20.662813 49.968563 L 20.850313 50.265438 L 20.944063 50.417781 L 21.033906 50.566219 L 21.119844 50.706844 L 21.127656 50.714656 L 21.225313 50.867 L 21.326875 51.015438 L 21.424531 51.163875 L 21.522188 51.316219 L 21.615938 51.464656 L 21.713594 51.613094 L 21.807344 51.761531 L 21.834688 51.812313 L 21.905 51.913875 L 22.010469 52.062313 L 22.112031 52.21075 L 22.213594 52.363094 L 22.408906 52.659969 L 22.506563 52.812313 L 22.553438 52.882625 L 22.608125 52.96075 L 22.7175 53.109188 L 22.822969 53.257625 L 22.924531 53.409969 L 23.03 53.558406 L 23.131563 53.706844 L 23.272188 53.917781 M 9.483125 27.378719 L 9.541719 27.527156 L 9.604219 27.675594 L 9.647188 27.788875 L 9.662813 27.827938 L 9.787813 28.124813 L 9.850313 28.277156 L 10.037813 28.722469 L 10.096406 28.874813 L 10.221406 29.171688 L 10.28 29.324031 L 10.3425 29.472469 L 10.365938 29.527156 L 10.405 29.620906 L 10.4675 29.77325 L 10.533906 29.921688 L 10.596406 30.070125 L 10.662813 30.218563 L 10.725313 30.370906 L 10.850313 30.667781 L 10.912813 30.820125 L 11.037813 31.117 L 11.080781 31.222469 L 11.100313 31.269344 L 11.299531 31.714656 L 11.362031 31.867 L 11.494844 32.163875 L 11.557344 32.316219 L 11.62375 32.464656 L 11.68625 32.613094 L 11.74875 32.765438 L 11.799531 32.874813 L 11.815156 32.913875 L 11.881563 33.062313 L 11.951875 33.21075 L 12.018281 33.363094 L 12.151094 33.659969 L 12.2175 33.812313 L 12.416719 34.257625 L 12.483125 34.409969 L 12.514375 34.488094 L 12.549531 34.558406 L 12.619844 34.706844 L 12.68625 34.859188 L 12.826875 35.156063 L 12.893281 35.308406 L 12.963594 35.456844 L 13.096406 35.753719 L 13.162813 35.906063 L 13.303438 36.202938 L 13.37375 36.355281 L 13.444063 36.503719 L 13.518281 36.652156 L 13.588594 36.8045 L 13.658906 36.952938 L 13.725313 37.101375 L 13.795625 37.249813 L 13.865938 37.402156 L 13.932344 37.550594 L 13.947969 37.58575 L 14.006563 37.699031 L 14.080781 37.851375 L 14.155 37.999813 L 14.225313 38.14825 L 14.299531 38.300594 L 14.440156 38.597469 L 14.514375 38.745906 L 14.584688 38.89825 L 14.655 39.046688 L 14.729219 39.195125 L 14.803438 39.347469 L 14.881563 39.495906 L 14.955781 39.644344 L 15.03 39.796688 L 15.178438 40.093563 L 15.24875 40.242 L 15.322969 40.394344 L 15.381563 40.519344 L 15.397188 40.542781 L 15.475313 40.691219 L 15.549531 40.843563 M 4.416719 13.765438 L 4.569063 14.21075 L 4.627656 14.386531 L 4.670625 14.511531 L 4.725313 14.659969 L 4.78 14.812313 L 4.830781 14.96075 L 4.885469 15.109188 L 4.93625 15.261531 L 4.990938 15.409969 L 5.0925 15.706844 L 5.147188 15.859188 L 5.24875 16.156063 L 5.299531 16.308406 L 5.346406 16.437313 L 5.350313 16.456844 L 5.405 16.605281 L 5.459688 16.757625 L 5.62375 17.202938 L 5.678438 17.355281 L 5.729219 17.503719 L 5.783906 17.652156 L 5.838594 17.8045 L 5.889375 17.952938 L 5.944063 18.101375 L 5.994844 18.253719 L 6.049531 18.402156 L 6.06125 18.441219 L 6.104219 18.550594 L 6.158906 18.699031 L 6.213594 18.851375 L 6.322969 19.14825 L 6.377656 19.300594 L 6.43625 19.449031 L 6.490938 19.597469 L 6.541719 19.745906 L 6.596406 19.89825 L 6.705781 20.195125 L 6.760469 20.347469 L 6.78 20.402156 L 6.815156 20.495906 L 6.87375 20.644344 L 6.928438 20.796688 L 6.987031 20.945125 L 7.041719 21.093563 L 7.100313 21.242 L 7.155 21.394344 L 7.209688 21.542781 L 7.268281 21.691219 L 7.322969 21.843563 L 7.432344 22.140438 L 7.487031 22.292781 L 7.494844 22.312313 L 7.545625 22.441219 L 7.662813 22.738094 L 7.721406 22.890438 L 7.776094 23.038875 L 7.834688 23.187313 L 7.893281 23.339656 L 7.947969 23.488094 L 8.006563 23.636531 L 8.065156 23.788875 L 8.119844 23.937313 L 8.178438 24.08575 L 8.213594 24.183406 L 8.233125 24.234188 L 8.295625 24.386531 L 8.412813 24.683406 L 8.471406 24.83575 L 8.588594 25.132625 L 8.647188 25.284969 L 8.822969 25.730281 L 8.881563 25.882625 L 8.928438 26.007625 L 8.940156 26.031063 L 9.002656 26.1795 L 9.06125 26.331844 L 9.12375 26.480281 L 9.182344 26.628719 L 9.244844 26.781063 L 9.303438 26.9295 L 9.365938 27.077938 L 9.424531 27.226375 L 9.483125 27.378719 M -0.00125 -0.0001875 L 0.045625 0.14825 L 0.0885938 0.300594 L 0.135469 0.449031 L 0.178438 0.597469 L 0.221406 0.749813 L 0.268281 0.89825 L 0.31125 1.046688 L 0.326875 1.093563 L 0.405 1.347469 L 0.49875 1.644344 L 0.545625 1.796688 L 0.588594 1.945125 L 0.635469 2.093563 L 0.682344 2.245906 L 0.729219 2.394344 L 0.772188 2.542781 L 0.819063 2.691219 L 0.865938 2.843563 L 0.908906 2.992 L 0.955781 3.140438 L 1.002656 3.292781 L 1.041719 3.4295 L 1.045625 3.441219 L 1.0925 3.589656 L 1.143281 3.742 L 1.283906 4.187313 L 1.330781 4.339656 L 1.424531 4.636531 L 1.471406 4.788875 L 1.565156 5.08575 L 1.612031 5.238094 L 1.705781 5.534969 L 1.74875 5.683406 L 1.760469 5.714656 L 1.799531 5.83575 L 1.846406 5.984188 L 1.897188 6.132625 L 1.944063 6.284969 L 1.990938 6.433406 L 2.041719 6.581844 L 2.088594 6.730281 L 2.135469 6.882625 L 2.182344 7.031063 L 2.233125 7.1795 L 2.28 7.331844 L 2.37375 7.628719 L 2.420625 7.781063 L 2.4675 7.9295 L 2.475313 7.956844 L 2.518281 8.077938 L 2.569063 8.226375 L 2.615938 8.378719 L 2.7175 8.675594 L 2.764375 8.827938 L 2.815156 8.976375 L 2.862031 9.124813 L 2.912813 9.277156 L 2.959688 9.425594 L 3.010469 9.574031 L 3.057344 9.722469 L 3.108125 9.874813 L 3.155 10.02325 L 3.194063 10.144344 L 3.201875 10.171688 L 3.252656 10.324031 L 3.354219 10.620906 L 3.405 10.77325 L 3.557344 11.218563 L 3.608125 11.370906 L 3.655 11.519344 L 3.705781 11.667781 L 3.756563 11.820125 L 3.803438 11.968563 L 3.854219 12.117 L 3.905 12.269344 L 3.912813 12.288875 L 3.955781 12.417781 L 4.057344 12.714656 L 4.112031 12.867 L 4.213594 13.163875 L 4.264375 13.316219 L 4.365938 13.613094 L 4.416719 13.765438 " transform="matrix(1,0,0,-1,0.72,135.492)"/>
</g>
</svg>
