<?xml version="1.0" encoding="UTF-8"?>
<svg xmlns="http://www.w3.org/2000/svg" xmlns:xlink="http://www.w3.org/1999/xlink" width="164pt" height="136pt" viewBox="0 0 164 136" version="1.1">
<g id="surface1">
<path style="fill:none;stroke-width:0.79701;stroke-linecap:butt;stroke-linejoin:miter;stroke:rgb(0%,0%,100%);stroke-opacity:1;stroke-miterlimit:10;" d="M 115.330781 58.195125 L 115.28 58.140438 L 115.18625 58.046688 L 115.033906 57.89825 L 114.877656 57.745906 L 114.721406 57.597469 L 114.608125 57.492 L 114.557344 57.449031 L 114.381563 57.300594 L 114.205781 57.14825 L 114.022188 56.999813 L 113.940156 56.9295 L 113.826875 56.851375 L 113.62375 56.699031 L 113.412813 56.550594 L 113.268281 56.449031 L 113.194063 56.402156 L 112.955781 56.249813 L 112.713594 56.101375 L 112.596406 56.031063 L 112.451875 55.952938 L 112.174531 55.8045 L 111.928438 55.671688 L 111.885469 55.652156 L 111.557344 55.503719 L 111.256563 55.367 L 111.221406 55.355281 L 110.830781 55.202938 L 110.588594 55.113094 L 110.408906 55.0545 L 109.932344 54.906063 L 109.916719 54.89825 L 109.350313 54.753719 L 109.24875 54.730281 L 108.615938 54.605281 L 108.576875 54.597469 L 107.905 54.503719 L 107.369844 54.456844 L 107.237031 54.445125 L 106.565156 54.417781 L 105.897188 54.425594 M 118.014375 71.96075 L 118.069063 71.812313 L 118.12375 71.659969 L 118.170625 71.511531 L 118.221406 71.363094 L 118.268281 71.21075 L 118.31125 71.062313 L 118.358125 70.913875 L 118.397188 70.761531 L 118.475313 70.464656 L 118.510469 70.316219 L 118.545625 70.163875 L 118.580781 70.015438 L 118.612031 69.867 L 118.631563 69.769344 L 118.639375 69.714656 L 118.666719 69.566219 L 118.690156 69.417781 L 118.713594 69.265438 L 118.737031 69.117 L 118.756563 68.968563 L 118.772188 68.820125 L 118.787813 68.667781 L 118.819063 68.370906 L 118.830781 68.218563 L 118.846406 67.921688 L 118.854219 67.769344 L 118.862031 67.472469 L 118.862031 67.02325 L 118.858125 66.874813 L 118.854219 66.722469 L 118.838594 66.425594 L 118.830781 66.27325 L 118.819063 66.124813 L 118.787813 65.827938 L 118.772188 65.675594 L 118.756563 65.527156 L 118.737031 65.378719 L 118.713594 65.226375 L 118.666719 64.9295 L 118.639375 64.777156 L 118.631563 64.726375 L 118.612031 64.628719 L 118.580781 64.480281 L 118.545625 64.331844 L 118.510469 64.1795 L 118.475313 64.031063 L 118.43625 63.882625 L 118.397188 63.730281 L 118.358125 63.581844 L 118.31125 63.433406 L 118.268281 63.281063 L 118.221406 63.132625 L 118.170625 62.984188 L 118.12375 62.83575 L 118.069063 62.683406 L 117.959688 62.386531 L 117.959688 62.382625 L 117.901094 62.234188 L 117.838594 62.08575 L 117.772188 61.937313 L 117.705781 61.784969 L 117.639375 61.636531 L 117.49875 61.339656 L 117.424531 61.187313 L 117.350313 61.038875 L 117.287813 60.925594 L 117.272188 60.890438 L 117.18625 60.738094 L 117.100313 60.589656 L 117.010469 60.441219 L 116.920625 60.288875 L 116.830781 60.140438 L 116.737031 59.992 L 116.639375 59.843563 L 116.619844 59.808406 L 116.537813 59.691219 L 116.428438 59.542781 L 116.322969 59.394344 L 116.209688 59.242 L 115.983125 58.945125 L 115.947969 58.902156 L 115.858125 58.796688 L 115.729219 58.644344 L 115.463594 58.347469 L 115.330781 58.195125 M 98.389375 78.093563 L 98.522188 78.159969 L 98.709688 78.242 L 99.037813 78.394344 L 99.194063 78.46075 L 99.385469 78.542781 L 99.744844 78.691219 L 99.865938 78.742 L 100.127656 78.843563 L 100.526094 78.992 L 100.533906 78.995906 L 100.959688 79.140438 L 101.205781 79.222469 L 101.428438 79.288875 L 101.87375 79.425594 L 101.932344 79.441219 L 102.49875 79.589656 L 102.545625 79.601375 L 103.162813 79.738094 L 103.213594 79.749813 L 103.885469 79.874813 L 103.994844 79.890438 L 104.557344 79.968563 L 105.225313 80.034969 L 105.303438 80.038875 L 105.897188 80.070125 L 106.565156 80.077938 L 107.237031 80.050594 L 107.369844 80.038875 L 107.905 79.992 L 108.576875 79.89825 L 108.615938 79.890438 L 109.24875 79.765438 L 109.350313 79.738094 L 109.916719 79.593563 L 109.932344 79.589656 L 110.408906 79.441219 L 110.588594 79.382625 L 110.830781 79.288875 L 111.221406 79.140438 L 111.256563 79.124813 L 111.557344 78.992 L 111.885469 78.843563 L 111.928438 78.820125 L 112.174531 78.691219 L 112.451875 78.542781 L 112.596406 78.464656 L 112.713594 78.394344 L 112.955781 78.242 L 113.194063 78.093563 L 113.268281 78.046688 L 113.412813 77.945125 L 113.62375 77.792781 L 113.826875 77.644344 L 113.940156 77.562313 L 114.022188 77.495906 L 114.205781 77.347469 L 114.381563 77.195125 L 114.557344 77.046688 L 114.608125 77.003719 L 114.721406 76.89825 L 114.877656 76.745906 L 115.033906 76.597469 L 115.18625 76.449031 L 115.28 76.355281 L 115.330781 76.296688 L 115.729219 75.851375 L 115.858125 75.699031 L 115.947969 75.593563 L 115.983125 75.550594 L 116.096406 75.402156 L 116.209688 75.249813 L 116.322969 75.101375 L 116.428438 74.952938 L 116.537813 74.800594 L 116.619844 74.683406 L 116.639375 74.652156 L 116.737031 74.503719 L 116.830781 74.355281 L 116.920625 74.202938 L 117.100313 73.906063 L 117.18625 73.753719 L 117.272188 73.605281 L 117.287813 73.570125 L 117.350313 73.456844 L 117.424531 73.308406 L 117.49875 73.156063 L 117.639375 72.859188 L 117.705781 72.706844 L 117.838594 72.409969 L 117.901094 72.257625 L 117.959688 72.113094 L 117.959688 72.109188 L 118.014375 71.96075 M 89.018281 65.378719 L 88.975313 65.527156 L 88.93625 65.675594 L 88.897188 65.827938 L 88.862031 65.976375 L 88.807344 66.27325 L 88.783906 66.425594 L 88.752656 66.722469 L 88.740938 66.874813 L 88.733125 67.02325 L 88.729219 67.171688 L 88.729219 67.324031 L 88.733125 67.472469 L 88.740938 67.620906 L 88.752656 67.769344 L 88.768281 67.921688 L 88.783906 68.070125 L 88.807344 68.218563 L 88.834688 68.370906 L 88.862031 68.519344 L 88.897188 68.667781 L 88.93625 68.820125 L 88.975313 68.968563 L 89.018281 69.117 L 89.069063 69.265438 L 89.119844 69.417781 L 89.139375 69.472469 L 89.174531 69.566219 L 89.233125 69.714656 L 89.295625 69.867 L 89.362031 70.015438 L 89.432344 70.163875 L 89.502656 70.316219 L 89.658906 70.613094 L 89.744844 70.761531 L 89.81125 70.878719 L 89.830781 70.913875 L 89.920625 71.062313 L 90.014375 71.21075 L 90.112031 71.363094 L 90.315156 71.659969 L 90.424531 71.812313 L 90.483125 71.886531 L 90.533906 71.96075 L 90.647188 72.109188 L 90.764375 72.257625 L 90.885469 72.409969 L 91.010469 72.558406 L 91.139375 72.706844 L 91.151094 72.722469 L 91.268281 72.859188 L 91.401094 73.007625 L 91.541719 73.156063 L 91.682344 73.308406 L 91.822969 73.452938 L 91.826875 73.456844 L 91.971406 73.605281 L 92.12375 73.753719 L 92.28 73.906063 L 92.43625 74.0545 L 92.490938 74.105281 L 92.596406 74.202938 L 92.764375 74.355281 L 92.932344 74.503719 L 93.104219 74.652156 L 93.162813 74.702938 L 93.28 74.800594 L 93.459688 74.952938 L 93.643281 75.101375 L 93.830781 75.249813 L 94.022188 75.402156 L 94.420625 75.699031 L 94.502656 75.761531 L 94.62375 75.851375 L 94.834688 75.999813 L 95.049531 76.14825 L 95.174531 76.234188 L 95.268281 76.296688 L 95.490938 76.449031 L 95.721406 76.597469 L 95.8425 76.675594 L 95.955781 76.745906 L 96.197969 76.89825 L 96.444063 77.046688 L 96.514375 77.089656 L 96.697969 77.195125 L 96.959688 77.347469 L 97.182344 77.472469 L 97.225313 77.495906 L 97.787813 77.792781 L 97.854219 77.827938 L 98.084688 77.945125 L 98.389375 78.093563 M 105.897188 54.425594 L 105.303438 54.456844 L 105.225313 54.46075 L 104.557344 54.527156 L 103.994844 54.605281 L 103.885469 54.620906 L 103.213594 54.742 L 103.162813 54.753719 L 102.545625 54.894344 L 102.49875 54.906063 L 101.932344 55.0545 L 101.87375 55.070125 L 101.428438 55.202938 L 101.205781 55.27325 L 100.959688 55.355281 L 100.533906 55.499813 L 100.526094 55.503719 L 100.127656 55.652156 L 99.865938 55.753719 L 99.744844 55.8045 L 99.385469 55.952938 L 99.194063 56.031063 L 99.037813 56.101375 L 98.709688 56.249813 L 98.522188 56.33575 L 98.389375 56.402156 L 98.084688 56.550594 L 97.854219 56.667781 L 97.787813 56.699031 L 97.506563 56.851375 L 97.225313 56.999813 L 97.182344 57.02325 L 96.959688 57.14825 L 96.697969 57.300594 L 96.514375 57.406063 L 96.444063 57.449031 L 96.197969 57.597469 L 95.955781 57.745906 L 95.8425 57.820125 L 95.721406 57.89825 L 95.490938 58.046688 L 95.268281 58.195125 L 95.174531 58.261531 L 95.049531 58.347469 L 94.834688 58.495906 L 94.62375 58.644344 L 94.502656 58.734188 L 94.420625 58.796688 L 94.022188 59.093563 L 93.830781 59.242 L 93.643281 59.394344 L 93.459688 59.542781 L 93.28 59.691219 L 93.104219 59.843563 L 92.932344 59.992 L 92.596406 60.288875 L 92.490938 60.390438 L 92.43625 60.441219 L 92.12375 60.738094 L 91.971406 60.890438 L 91.826875 61.038875 L 91.822969 61.042781 L 91.682344 61.187313 L 91.541719 61.339656 L 91.401094 61.488094 L 91.268281 61.636531 L 91.151094 61.77325 L 91.139375 61.784969 L 91.010469 61.937313 L 90.885469 62.08575 L 90.764375 62.234188 L 90.647188 62.386531 L 90.533906 62.534969 L 90.483125 62.609188 L 90.424531 62.683406 L 90.315156 62.83575 L 90.112031 63.132625 L 90.014375 63.281063 L 89.920625 63.433406 L 89.830781 63.581844 L 89.81125 63.617 L 89.744844 63.730281 L 89.658906 63.882625 L 89.502656 64.1795 L 89.432344 64.331844 L 89.362031 64.480281 L 89.295625 64.628719 L 89.233125 64.777156 L 89.174531 64.9295 L 89.139375 65.02325 L 89.119844 65.077938 L 89.069063 65.226375 L 89.018281 65.378719 M 160.182344 126.58575 L 160.209688 126.714656 L 160.240938 126.867 L 160.276094 127.015438 L 160.338594 127.312313 L 160.37375 127.464656 L 160.43625 127.761531 L 160.471406 127.913875 L 160.533906 128.21075 L 160.569063 128.359188 L 160.600313 128.511531 L 160.635469 128.659969 L 160.666719 128.808406 L 160.701875 128.96075 L 160.733125 129.109188 L 160.768281 129.257625 L 160.799531 129.409969 L 160.834688 129.558406 L 160.854219 129.636531 L 160.865938 129.706844 L 160.901094 129.855281 L 160.932344 130.007625 L 160.994844 130.3045 L 161.026094 130.456844 L 161.057344 130.605281 L 161.0925 130.753719 L 161.12375 130.906063 L 161.155 131.0545 L 161.190156 131.202938 L 161.221406 131.351375 L 161.252656 131.503719 L 161.287813 131.652156 L 161.319063 131.800594 L 161.350313 131.952938 L 161.385469 132.101375 L 161.416719 132.249813 L 161.451875 132.402156 L 161.483125 132.550594 L 161.518281 132.699031 L 161.522188 132.726375 L 161.549531 132.847469 L 161.580781 132.999813 L 161.643281 133.296688 L 161.674531 133.449031 L 161.737031 133.745906 L 161.768281 133.89825 L 161.799531 134.046688 L 161.834688 134.195125 L 161.865938 134.343563 L 161.897188 134.495906 M 157.026094 112.652156 L 157.06125 112.800594 L 157.0925 112.952938 L 157.162813 113.249813 L 157.197969 113.402156 L 157.233125 113.550594 L 157.264375 113.699031 L 157.299531 113.851375 L 157.405 114.296688 L 157.440156 114.449031 L 157.475313 114.597469 L 157.502656 114.702938 L 157.510469 114.745906 L 157.545625 114.89825 L 157.576875 115.046688 L 157.647188 115.343563 L 157.678438 115.495906 L 157.74875 115.792781 L 157.78 115.945125 L 157.850313 116.242 L 157.885469 116.394344 L 157.916719 116.542781 L 157.987031 116.839656 L 158.022188 116.992 L 158.0925 117.288875 L 158.127656 117.441219 L 158.162813 117.589656 L 158.170625 117.628719 L 158.194063 117.738094 L 158.229219 117.890438 L 158.260469 118.038875 L 158.330781 118.33575 L 158.362031 118.488094 L 158.397188 118.636531 L 158.428438 118.784969 L 158.463594 118.937313 L 158.49875 119.08575 L 158.53 119.234188 L 158.565156 119.386531 L 158.635469 119.683406 L 158.666719 119.831844 L 158.701875 119.984188 L 158.772188 120.281063 L 158.807344 120.433406 L 158.8425 120.581844 L 158.8425 120.58575 L 158.87375 120.730281 L 158.905 120.882625 L 158.940156 121.031063 L 158.971406 121.1795 L 159.006563 121.327938 L 159.037813 121.480281 L 159.072969 121.628719 L 159.104219 121.777156 L 159.139375 121.9295 L 159.174531 122.077938 L 159.205781 122.226375 L 159.240938 122.378719 L 159.272188 122.527156 L 159.3425 122.824031 L 159.377656 122.976375 L 159.408906 123.124813 L 159.444063 123.27325 L 159.479219 123.425594 L 159.510469 123.570125 L 159.514375 123.574031 L 159.545625 123.722469 L 159.576875 123.874813 L 159.612031 124.02325 L 159.674531 124.320125 L 159.709688 124.472469 L 159.740938 124.620906 L 159.776094 124.769344 L 159.807344 124.921688 L 159.8425 125.070125 L 159.87375 125.218563 L 159.908906 125.370906 L 159.940156 125.519344 L 160.010469 125.816219 L 160.041719 125.968563 L 160.076875 126.117 L 160.108125 126.265438 L 160.143281 126.417781 L 160.178438 126.566219 L 160.182344 126.58575 M 153.803438 98.738094 L 153.838594 98.890438 L 153.908906 99.187313 L 153.944063 99.339656 L 154.049531 99.784969 L 154.084688 99.937313 L 154.119844 100.08575 L 154.151094 100.218563 L 154.155 100.234188 L 154.18625 100.386531 L 154.221406 100.534969 L 154.252656 100.683406 L 154.287813 100.831844 L 154.322969 100.984188 L 154.354219 101.132625 L 154.389375 101.281063 L 154.424531 101.433406 L 154.459688 101.581844 L 154.490938 101.730281 L 154.526094 101.882625 L 154.631563 102.327938 L 154.666719 102.480281 L 154.737031 102.777156 L 154.776094 102.9295 L 154.81125 103.077938 L 154.819063 103.124813 L 154.877656 103.378719 L 154.912813 103.527156 L 154.944063 103.675594 L 154.979219 103.824031 L 155.014375 103.976375 L 155.049531 104.124813 L 155.080781 104.27325 L 155.115938 104.425594 L 155.18625 104.722469 L 155.221406 104.874813 L 155.326875 105.320125 L 155.362031 105.472469 L 155.432344 105.769344 L 155.4675 105.921688 L 155.490938 106.011531 L 155.502656 106.070125 L 155.537813 106.218563 L 155.572969 106.370906 L 155.604219 106.519344 L 155.674531 106.816219 L 155.709688 106.968563 L 155.740938 107.117 L 155.776094 107.265438 L 155.81125 107.417781 L 155.881563 107.714656 L 155.916719 107.867 L 156.022188 108.312313 L 156.057344 108.464656 L 156.127656 108.761531 L 156.162813 108.89825 L 156.162813 108.913875 L 156.233125 109.21075 L 156.264375 109.363094 L 156.334688 109.659969 L 156.365938 109.808406 L 156.401094 109.96075 L 156.471406 110.257625 L 156.506563 110.409969 L 156.576875 110.706844 L 156.612031 110.859188 L 156.7175 111.3045 L 156.752656 111.456844 L 156.822969 111.753719 L 156.830781 111.792781 L 156.858125 111.906063 L 156.889375 112.0545 L 156.924531 112.202938 L 156.955781 112.355281 L 157.026094 112.652156 M 150.822969 84.675594 L 150.850313 84.827938 L 150.905 85.124813 L 150.928438 85.27325 L 150.959688 85.425594 L 151.014375 85.722469 L 151.041719 85.874813 L 151.069063 86.02325 L 151.100313 86.171688 L 151.127656 86.324031 L 151.158906 86.472469 L 151.18625 86.620906 L 151.2175 86.769344 L 151.244844 86.921688 L 151.307344 87.218563 L 151.338594 87.370906 L 151.365938 87.519344 L 151.428438 87.816219 L 151.459688 87.968563 L 151.471406 88.007625 L 151.490938 88.117 L 151.518281 88.265438 L 151.549531 88.417781 L 151.580781 88.566219 L 151.608125 88.714656 L 151.639375 88.867 L 151.670625 89.015438 L 151.697969 89.163875 L 151.729219 89.312313 L 151.760469 89.464656 L 151.822969 89.761531 L 151.854219 89.913875 L 151.916719 90.21075 L 151.951875 90.363094 L 152.014375 90.659969 L 152.049531 90.808406 L 152.080781 90.96075 L 152.115938 91.109188 L 152.139375 91.226375 L 152.147188 91.257625 L 152.178438 91.409969 L 152.240938 91.706844 L 152.272188 91.859188 L 152.365938 92.3045 L 152.397188 92.456844 L 152.432344 92.605281 L 152.463594 92.753719 L 152.494844 92.906063 L 152.53 93.0545 L 152.56125 93.202938 L 152.596406 93.355281 L 152.627656 93.503719 L 152.697969 93.800594 L 152.729219 93.952938 L 152.799531 94.249813 L 152.81125 94.300594 L 152.830781 94.402156 L 152.862031 94.550594 L 152.897188 94.699031 L 152.928438 94.851375 L 152.959688 94.999813 L 152.994844 95.14825 L 153.026094 95.296688 L 153.06125 95.449031 L 153.0925 95.597469 L 153.127656 95.745906 L 153.158906 95.89825 L 153.229219 96.195125 L 153.260469 96.347469 L 153.365938 96.792781 L 153.401094 96.945125 L 153.471406 97.242 L 153.479219 97.288875 L 153.502656 97.394344 L 153.537813 97.542781 L 153.569063 97.691219 L 153.604219 97.843563 L 153.635469 97.992 L 153.670625 98.140438 L 153.701875 98.288875 L 153.737031 98.441219 L 153.772188 98.589656 L 153.803438 98.738094 M 149.053438 70.464656 L 149.06125 70.613094 L 149.065156 70.761531 L 149.072969 70.913875 L 149.088594 71.21075 L 149.096406 71.363094 L 149.104219 71.511531 L 149.115938 71.659969 L 149.12375 71.812313 L 149.131563 71.96075 L 149.155 72.257625 L 149.162813 72.409969 L 149.18625 72.706844 L 149.197969 72.859188 L 149.221406 73.156063 L 149.233125 73.308406 L 149.268281 73.753719 L 149.283906 73.906063 L 149.295625 74.0545 L 149.31125 74.202938 L 149.326875 74.355281 L 149.338594 74.503719 L 149.369844 74.800594 L 149.385469 74.952938 L 149.416719 75.249813 L 149.432344 75.402156 L 149.451875 75.550594 L 149.4675 75.699031 L 149.483125 75.851375 L 149.53 76.296688 L 149.549531 76.449031 L 149.580781 76.745906 L 149.600313 76.89825 L 149.619844 77.046688 L 149.635469 77.195125 L 149.655 77.347469 L 149.694063 77.644344 L 149.709688 77.792781 L 149.733125 77.945125 L 149.772188 78.242 L 149.791719 78.394344 L 149.81125 78.542781 L 149.834688 78.691219 L 149.854219 78.843563 L 149.87375 78.992 L 149.920625 79.288875 L 149.940156 79.441219 L 149.987031 79.738094 L 150.010469 79.890438 L 150.057344 80.187313 L 150.080781 80.339656 L 150.127656 80.636531 L 150.131563 80.636531 L 150.151094 80.784969 L 150.174531 80.937313 L 150.221406 81.234188 L 150.244844 81.386531 L 150.291719 81.683406 L 150.315156 81.83575 L 150.3425 81.984188 L 150.389375 82.281063 L 150.416719 82.433406 L 150.440156 82.581844 L 150.4675 82.730281 L 150.494844 82.882625 L 150.518281 83.031063 L 150.545625 83.1795 L 150.572969 83.331844 L 150.655 83.777156 L 150.682344 83.9295 L 150.737031 84.226375 L 150.768281 84.378719 L 150.795625 84.527156 L 150.799531 84.546688 L 150.822969 84.675594 M 149.81125 55.952938 L 149.772188 56.249813 L 149.752656 56.402156 L 149.733125 56.550594 L 149.709688 56.699031 L 149.694063 56.851375 L 149.655 57.14825 L 149.635469 57.300594 L 149.619844 57.449031 L 149.580781 57.745906 L 149.565156 57.89825 L 149.549531 58.046688 L 149.53 58.195125 L 149.514375 58.347469 L 149.483125 58.644344 L 149.4675 58.796688 L 149.451875 58.945125 L 149.432344 59.093563 L 149.416719 59.242 L 149.401094 59.394344 L 149.369844 59.691219 L 149.354219 59.843563 L 149.338594 59.992 L 149.326875 60.140438 L 149.31125 60.288875 L 149.295625 60.441219 L 149.283906 60.589656 L 149.268281 60.738094 L 149.256563 60.890438 L 149.233125 61.187313 L 149.221406 61.339656 L 149.18625 61.784969 L 149.174531 61.937313 L 149.162813 62.08575 L 149.155 62.234188 L 149.143281 62.386531 L 149.131563 62.534969 L 149.12375 62.683406 L 149.115938 62.83575 L 149.104219 62.984188 L 149.088594 63.281063 L 149.080781 63.433406 L 149.065156 63.730281 L 149.06125 63.882625 L 149.045625 64.1795 L 149.041719 64.331844 L 149.033906 64.480281 L 149.03 64.628719 L 149.022188 64.777156 L 149.018281 64.9295 L 149.010469 65.226375 L 149.006563 65.378719 L 148.99875 65.675594 L 148.994844 65.827938 L 148.994844 65.976375 L 148.987031 66.27325 L 148.987031 66.574031 L 148.983125 66.722469 L 148.983125 67.769344 L 148.987031 67.921688 L 148.987031 68.218563 L 148.990938 68.370906 L 148.994844 68.519344 L 148.994844 68.667781 L 148.99875 68.820125 L 149.010469 69.265438 L 149.014375 69.417781 L 149.022188 69.714656 L 149.03 69.867 L 149.033906 70.015438 L 149.041719 70.163875 L 149.045625 70.316219 L 149.053438 70.464656 M 152.432344 41.890438 L 152.397188 42.038875 L 152.365938 42.187313 L 152.334688 42.339656 L 152.272188 42.636531 L 152.240938 42.788875 L 152.147188 43.234188 L 152.139375 43.269344 L 152.115938 43.386531 L 152.080781 43.534969 L 152.049531 43.683406 L 152.014375 43.83575 L 151.951875 44.132625 L 151.916719 44.284969 L 151.822969 44.730281 L 151.791719 44.882625 L 151.729219 45.1795 L 151.697969 45.331844 L 151.670625 45.480281 L 151.639375 45.628719 L 151.608125 45.781063 L 151.580781 45.9295 L 151.518281 46.226375 L 151.490938 46.378719 L 151.471406 46.488094 L 151.459688 46.527156 L 151.428438 46.675594 L 151.397188 46.827938 L 151.365938 46.976375 L 151.338594 47.124813 L 151.307344 47.27325 L 151.276094 47.425594 L 151.244844 47.574031 L 151.2175 47.722469 L 151.18625 47.874813 L 151.158906 48.02325 L 151.127656 48.171688 L 151.100313 48.324031 L 151.069063 48.472469 L 151.014375 48.769344 L 150.987031 48.921688 L 150.959688 49.070125 L 150.928438 49.218563 L 150.905 49.370906 L 150.850313 49.667781 L 150.822969 49.820125 L 150.799531 49.945125 L 150.795625 49.968563 L 150.768281 50.117 L 150.737031 50.265438 L 150.709688 50.417781 L 150.655 50.714656 L 150.627656 50.867 L 150.572969 51.163875 L 150.545625 51.316219 L 150.518281 51.464656 L 150.494844 51.613094 L 150.4675 51.761531 L 150.440156 51.913875 L 150.416719 52.062313 L 150.389375 52.21075 L 150.365938 52.363094 L 150.3425 52.511531 L 150.315156 52.659969 L 150.291719 52.812313 L 150.221406 53.257625 L 150.197969 53.409969 L 150.151094 53.706844 L 150.131563 53.859188 L 150.127656 53.859188 L 150.080781 54.156063 L 150.057344 54.308406 L 149.987031 54.753719 L 149.963594 54.906063 L 149.940156 55.0545 L 149.920625 55.202938 L 149.897188 55.355281 L 149.87375 55.503719 L 149.854219 55.652156 L 149.834688 55.8045 L 149.81125 55.952938 M 155.604219 27.976375 L 155.572969 28.124813 L 155.537813 28.277156 L 155.502656 28.425594 L 155.490938 28.484188 L 155.4675 28.574031 L 155.432344 28.722469 L 155.397188 28.874813 L 155.326875 29.171688 L 155.291719 29.324031 L 155.221406 29.620906 L 155.18625 29.77325 L 155.080781 30.218563 L 155.049531 30.370906 L 154.979219 30.667781 L 154.944063 30.820125 L 154.912813 30.968563 L 154.877656 31.117 L 154.819063 31.370906 L 154.81125 31.417781 L 154.776094 31.566219 L 154.737031 31.714656 L 154.701875 31.867 L 154.631563 32.163875 L 154.596406 32.316219 L 154.526094 32.613094 L 154.490938 32.765438 L 154.459688 32.913875 L 154.389375 33.21075 L 154.354219 33.363094 L 154.322969 33.511531 L 154.287813 33.659969 L 154.252656 33.812313 L 154.221406 33.96075 L 154.18625 34.109188 L 154.155 34.257625 L 154.151094 34.27325 L 154.119844 34.409969 L 154.049531 34.706844 L 154.014375 34.859188 L 153.944063 35.156063 L 153.908906 35.308406 L 153.803438 35.753719 L 153.772188 35.906063 L 153.701875 36.202938 L 153.670625 36.355281 L 153.635469 36.503719 L 153.604219 36.652156 L 153.569063 36.8045 L 153.537813 36.952938 L 153.502656 37.101375 L 153.479219 37.206844 L 153.471406 37.249813 L 153.43625 37.402156 L 153.365938 37.699031 L 153.330781 37.851375 L 153.260469 38.14825 L 153.229219 38.300594 L 153.158906 38.597469 L 153.127656 38.745906 L 153.0925 38.89825 L 153.06125 39.046688 L 153.026094 39.195125 L 152.994844 39.347469 L 152.959688 39.495906 L 152.928438 39.644344 L 152.897188 39.796688 L 152.862031 39.945125 L 152.830781 40.093563 L 152.81125 40.195125 L 152.799531 40.242 L 152.764375 40.394344 L 152.729219 40.542781 L 152.697969 40.691219 L 152.662813 40.843563 L 152.627656 40.992 L 152.596406 41.140438 L 152.56125 41.292781 L 152.53 41.441219 L 152.494844 41.589656 L 152.463594 41.738094 L 152.432344 41.890438 M 158.8425 13.913875 L 158.772188 14.21075 L 158.737031 14.363094 L 158.666719 14.659969 L 158.635469 14.812313 L 158.565156 15.109188 L 158.53 15.261531 L 158.49875 15.409969 L 158.428438 15.706844 L 158.397188 15.859188 L 158.362031 16.007625 L 158.330781 16.156063 L 158.295625 16.308406 L 158.260469 16.456844 L 158.229219 16.605281 L 158.194063 16.757625 L 158.170625 16.863094 L 158.162813 16.906063 L 158.0925 17.202938 L 158.057344 17.355281 L 157.987031 17.652156 L 157.951875 17.8045 L 157.916719 17.952938 L 157.885469 18.101375 L 157.850313 18.253719 L 157.78 18.550594 L 157.74875 18.699031 L 157.713594 18.851375 L 157.678438 18.999813 L 157.647188 19.14825 L 157.612031 19.300594 L 157.576875 19.449031 L 157.545625 19.597469 L 157.510469 19.745906 L 157.502656 19.792781 L 157.475313 19.89825 L 157.405 20.195125 L 157.369844 20.347469 L 157.299531 20.644344 L 157.264375 20.796688 L 157.233125 20.945125 L 157.162813 21.242 L 157.127656 21.394344 L 157.0925 21.542781 L 157.06125 21.691219 L 157.026094 21.843563 L 156.955781 22.140438 L 156.924531 22.292781 L 156.889375 22.441219 L 156.858125 22.589656 L 156.830781 22.702938 L 156.822969 22.738094 L 156.787813 22.890438 L 156.7175 23.187313 L 156.682344 23.339656 L 156.612031 23.636531 L 156.576875 23.788875 L 156.471406 24.234188 L 156.43625 24.386531 L 156.365938 24.683406 L 156.334688 24.83575 L 156.264375 25.132625 L 156.233125 25.284969 L 156.162813 25.581844 L 156.162813 25.597469 L 156.127656 25.730281 L 156.0925 25.882625 L 156.022188 26.1795 L 155.987031 26.331844 L 155.916719 26.628719 L 155.881563 26.781063 L 155.776094 27.226375 L 155.740938 27.378719 L 155.709688 27.527156 L 155.674531 27.675594 L 155.639375 27.827938 L 155.604219 27.976375 M 161.897188 -0.0001875 L 161.865938 0.14825 L 161.834688 0.300594 L 161.799531 0.449031 L 161.768281 0.597469 L 161.737031 0.749813 L 161.643281 1.195125 L 161.612031 1.347469 L 161.549531 1.644344 L 161.522188 1.765438 L 161.518281 1.796688 L 161.483125 1.945125 L 161.451875 2.093563 L 161.416719 2.245906 L 161.385469 2.394344 L 161.350313 2.542781 L 161.319063 2.691219 L 161.287813 2.843563 L 161.252656 2.992 L 161.221406 3.140438 L 161.190156 3.292781 L 161.155 3.441219 L 161.12375 3.589656 L 161.0925 3.742 L 161.057344 3.890438 L 160.994844 4.187313 L 160.963594 4.339656 L 160.901094 4.636531 L 160.865938 4.788875 L 160.854219 4.855281 L 160.834688 4.937313 L 160.799531 5.08575 L 160.768281 5.238094 L 160.733125 5.386531 L 160.701875 5.534969 L 160.666719 5.683406 L 160.635469 5.83575 L 160.600313 5.984188 L 160.569063 6.132625 L 160.533906 6.284969 L 160.471406 6.581844 L 160.43625 6.730281 L 160.405 6.882625 L 160.37375 7.031063 L 160.338594 7.1795 L 160.307344 7.331844 L 160.276094 7.480281 L 160.240938 7.628719 L 160.209688 7.781063 L 160.182344 7.909969 L 160.178438 7.9295 L 160.108125 8.226375 L 160.076875 8.378719 L 160.041719 8.527156 L 160.010469 8.675594 L 159.975313 8.827938 L 159.940156 8.976375 L 159.908906 9.124813 L 159.87375 9.277156 L 159.8425 9.425594 L 159.807344 9.574031 L 159.776094 9.722469 L 159.740938 9.874813 L 159.709688 10.02325 L 159.674531 10.171688 L 159.643281 10.324031 L 159.612031 10.472469 L 159.576875 10.620906 L 159.545625 10.77325 L 159.514375 10.921688 L 159.510469 10.925594 L 159.479219 11.070125 L 159.444063 11.218563 L 159.408906 11.370906 L 159.377656 11.519344 L 159.3425 11.667781 L 159.307344 11.820125 L 159.272188 11.968563 L 159.240938 12.117 L 159.205781 12.269344 L 159.174531 12.417781 L 159.104219 12.714656 L 159.072969 12.867 L 159.037813 13.015438 L 159.006563 13.163875 L 158.971406 13.316219 L 158.940156 13.464656 L 158.905 13.613094 L 158.87375 13.765438 L 158.8425 13.909969 L 158.8425 13.913875 M 0.752656 131.652156 L 0.713594 131.800594 L 0.674531 131.945125 L 0.670625 131.952938 L 0.631563 132.101375 L 0.596406 132.249813 L 0.557344 132.402156 L 0.518281 132.550594 L 0.475313 132.699031 L 0.43625 132.847469 L 0.397188 132.999813 L 0.319063 133.296688 L 0.28 133.449031 L 0.201875 133.745906 L 0.158906 133.89825 L 0.0417188 134.343563 L 0.00265625 134.480281 L -0.00125 134.495906 M 4.694063 117.808406 L 4.670625 117.890438 L 4.584688 118.187313 L 4.537813 118.33575 L 4.494844 118.488094 L 4.447969 118.636531 L 4.405 118.784969 L 4.362031 118.937313 L 4.268281 119.234188 L 4.225313 119.386531 L 4.178438 119.534969 L 4.135469 119.683406 L 4.088594 119.831844 L 4.041719 119.984188 L 4.026094 120.038875 L 3.99875 120.132625 L 3.955781 120.281063 L 3.912813 120.433406 L 3.869844 120.581844 L 3.822969 120.730281 L 3.78 120.882625 L 3.651094 121.327938 L 3.604219 121.480281 L 3.518281 121.777156 L 3.471406 121.9295 L 3.428438 122.077938 L 3.381563 122.226375 L 3.354219 122.320125 L 3.338594 122.378719 L 3.209688 122.824031 L 3.170625 122.976375 L 3.084688 123.27325 L 3.041719 123.425594 L 2.955781 123.722469 L 2.912813 123.874813 L 2.865938 124.02325 L 2.78 124.320125 L 2.737031 124.472469 L 2.694063 124.620906 L 2.682344 124.652156 L 2.651094 124.769344 L 2.608125 124.921688 L 2.569063 125.070125 L 2.526094 125.218563 L 2.483125 125.370906 L 2.444063 125.519344 L 2.358125 125.816219 L 2.315156 125.968563 L 2.276094 126.117 L 2.233125 126.265438 L 2.190156 126.417781 L 2.104219 126.714656 L 2.06125 126.867 L 2.018281 127.015438 L 2.014375 127.031063 L 1.979219 127.163875 L 1.93625 127.312313 L 1.897188 127.464656 L 1.858125 127.613094 L 1.815156 127.761531 L 1.776094 127.913875 L 1.733125 128.062313 L 1.694063 128.21075 L 1.651094 128.359188 L 1.608125 128.511531 L 1.569063 128.659969 L 1.526094 128.808406 L 1.483125 128.96075 L 1.444063 129.109188 L 1.401094 129.257625 L 1.358125 129.409969 L 1.3425 129.464656 L 1.319063 129.558406 L 1.240938 129.855281 L 1.197969 130.007625 L 1.119844 130.3045 L 1.080781 130.456844 L 1.037813 130.605281 L 0.99875 130.753719 L 0.959688 130.906063 L 0.916719 131.0545 L 0.877656 131.202938 L 0.834688 131.351375 L 0.795625 131.503719 L 0.752656 131.652156 M 9.18625 104.124813 L 9.135469 104.27325 L 9.080781 104.425594 L 9.026094 104.574031 L 8.975313 104.722469 L 8.920625 104.874813 L 8.869844 105.02325 L 8.760469 105.320125 L 8.7175 105.445125 L 8.705781 105.472469 L 8.604219 105.769344 L 8.553438 105.921688 L 8.451875 106.218563 L 8.401094 106.370906 L 8.350313 106.519344 L 8.295625 106.667781 L 8.244844 106.816219 L 8.194063 106.968563 L 8.139375 107.117 L 8.088594 107.265438 L 8.045625 107.386531 L 8.037813 107.417781 L 7.93625 107.714656 L 7.885469 107.867 L 7.838594 108.015438 L 7.737031 108.312313 L 7.68625 108.464656 L 7.584688 108.761531 L 7.533906 108.913875 L 7.432344 109.21075 L 7.381563 109.363094 L 7.37375 109.374813 L 7.330781 109.511531 L 7.237031 109.808406 L 7.18625 109.96075 L 7.139375 110.109188 L 7.088594 110.257625 L 7.037813 110.409969 L 6.990938 110.558406 L 6.940156 110.706844 L 6.889375 110.859188 L 6.8425 111.007625 L 6.740938 111.3045 L 6.690156 111.456844 L 6.596406 111.753719 L 6.549531 111.906063 L 6.455781 112.202938 L 6.405 112.355281 L 6.31125 112.652156 L 6.260469 112.800594 L 6.213594 112.952938 L 6.162813 113.101375 L 6.115938 113.249813 L 6.033906 113.495906 L 6.018281 113.550594 L 5.971406 113.699031 L 5.924531 113.851375 L 5.881563 113.999813 L 5.787813 114.296688 L 5.740938 114.449031 L 5.647188 114.745906 L 5.600313 114.89825 L 5.549531 115.046688 L 5.455781 115.343563 L 5.408906 115.495906 L 5.365938 115.628719 L 5.362031 115.644344 L 5.315156 115.792781 L 5.268281 115.945125 L 5.225313 116.093563 L 5.178438 116.242 L 5.135469 116.394344 L 4.994844 116.839656 L 4.947969 116.992 L 4.905 117.140438 L 4.858125 117.288875 L 4.81125 117.441219 L 4.7175 117.738094 L 4.694063 117.808406 M 14.471406 90.659969 L 14.405 90.808406 L 14.338594 90.96075 L 14.205781 91.257625 L 14.139375 91.409969 L 14.076875 91.546688 L 14.072969 91.558406 L 14.010469 91.706844 L 13.951875 91.859188 L 13.889375 92.007625 L 13.822969 92.156063 L 13.760469 92.3045 L 13.697969 92.456844 L 13.635469 92.605281 L 13.569063 92.753719 L 13.506563 92.906063 L 13.440156 93.0545 L 13.377656 93.202938 L 13.319063 93.355281 L 13.256563 93.503719 L 13.197969 93.652156 L 13.135469 93.800594 L 13.072969 93.952938 L 12.947969 94.249813 L 12.885469 94.402156 L 12.760469 94.699031 L 12.737031 94.753719 L 12.701875 94.851375 L 12.643281 94.999813 L 12.580781 95.14825 L 12.522188 95.296688 L 12.463594 95.449031 L 12.405 95.597469 L 12.3425 95.745906 L 12.283906 95.89825 L 12.221406 96.046688 L 12.162813 96.195125 L 12.100313 96.347469 L 12.065156 96.425594 L 12.041719 96.495906 L 11.924531 96.792781 L 11.865938 96.945125 L 11.81125 97.093563 L 11.752656 97.242 L 11.694063 97.394344 L 11.635469 97.542781 L 11.572969 97.691219 L 11.514375 97.843563 L 11.455781 97.992 L 11.397188 98.136531 L 11.397188 98.140438 L 11.338594 98.288875 L 11.283906 98.441219 L 11.229219 98.589656 L 11.170625 98.738094 L 11.115938 98.890438 L 11.057344 99.038875 L 11.002656 99.187313 L 10.944063 99.339656 L 10.768281 99.784969 L 10.725313 99.894344 L 10.713594 99.937313 L 10.604219 100.234188 L 10.549531 100.386531 L 10.494844 100.534969 L 10.43625 100.683406 L 10.381563 100.831844 L 10.326875 100.984188 L 10.272188 101.132625 L 10.213594 101.281063 L 10.158906 101.433406 L 10.100313 101.581844 L 10.057344 101.699031 L 10.045625 101.730281 L 9.990938 101.882625 L 9.940156 102.031063 L 9.830781 102.327938 L 9.78 102.480281 L 9.670625 102.777156 L 9.615938 102.9295 L 9.506563 103.226375 L 9.451875 103.378719 L 9.393281 103.527156 L 9.385469 103.550594 L 9.3425 103.675594 L 9.291719 103.824031 L 9.237031 103.976375 L 9.18625 104.124813 M 21.108125 77.495906 L 21.018281 77.644344 L 20.924531 77.792781 L 20.834688 77.945125 L 20.78 78.031063 L 20.744844 78.093563 L 20.662813 78.242 L 20.580781 78.394344 L 20.408906 78.691219 L 20.322969 78.843563 L 20.233125 78.992 L 20.147188 79.140438 L 20.108125 79.199031 L 20.06125 79.288875 L 19.983125 79.441219 L 19.819063 79.738094 L 19.737031 79.890438 L 19.651094 80.038875 L 19.569063 80.187313 L 19.483125 80.339656 L 19.440156 80.409969 L 19.401094 80.488094 L 19.244844 80.784969 L 19.162813 80.937313 L 19.084688 81.08575 L 19.002656 81.234188 L 18.920625 81.386531 L 18.838594 81.534969 L 18.768281 81.659969 L 18.756563 81.683406 L 18.682344 81.83575 L 18.604219 81.984188 L 18.53 82.132625 L 18.451875 82.281063 L 18.37375 82.433406 L 18.2175 82.730281 L 18.135469 82.882625 L 18.100313 82.949031 L 18.057344 83.031063 L 17.987031 83.1795 L 17.912813 83.331844 L 17.764375 83.628719 L 17.68625 83.777156 L 17.612031 83.9295 L 17.455781 84.226375 L 17.428438 84.277156 L 17.381563 84.378719 L 17.240938 84.675594 L 17.166719 84.827938 L 17.0925 84.976375 L 17.022188 85.124813 L 16.947969 85.27325 L 16.869844 85.425594 L 16.795625 85.574031 L 16.725313 85.722469 L 16.655 85.874813 L 16.514375 86.171688 L 16.444063 86.324031 L 16.303438 86.620906 L 16.229219 86.769344 L 16.155 86.921688 L 16.088594 87.058406 L 16.084688 87.070125 L 16.018281 87.218563 L 15.947969 87.370906 L 15.815156 87.667781 L 15.744844 87.816219 L 15.674531 87.968563 L 15.533906 88.265438 L 15.463594 88.417781 L 15.416719 88.515438 L 15.397188 88.566219 L 15.330781 88.714656 L 15.264375 88.867 L 15.065156 89.312313 L 14.99875 89.464656 L 14.928438 89.613094 L 14.862031 89.761531 L 14.791719 89.913875 L 14.74875 90.007625 L 14.725313 90.062313 L 14.662813 90.21075 L 14.600313 90.363094 L 14.533906 90.511531 L 14.471406 90.659969 M 31.502656 70.222469 L 31.432344 70.163875 L 31.252656 70.015438 L 31.084688 69.867 L 30.924531 69.714656 L 30.834688 69.624813 L 30.760469 69.566219 L 30.584688 69.417781 L 30.424531 69.265438 L 30.272188 69.117 L 30.162813 68.999813 L 30.119844 68.968563 L 29.944063 68.820125 L 29.783906 68.667781 L 29.635469 68.519344 L 29.506563 68.370906 L 29.490938 68.351375 L 29.31125 68.218563 L 29.127656 68.070125 L 28.979219 67.921688 L 28.858125 67.769344 L 28.822969 67.71075 L 28.151094 67.718563 L 28.12375 67.769344 L 28.022188 67.921688 L 27.893281 68.070125 L 27.737031 68.218563 L 27.553438 68.370906 L 27.483125 68.421688 L 27.420625 68.519344 L 27.31125 68.667781 L 27.18625 68.820125 L 27.053438 68.968563 L 26.908906 69.117 L 26.81125 69.206844 L 26.772188 69.265438 L 26.666719 69.417781 L 26.553438 69.566219 L 26.432344 69.714656 L 26.303438 69.867 L 26.162813 70.015438 L 26.143281 70.038875 L 26.057344 70.163875 L 25.947969 70.316219 L 25.834688 70.464656 L 25.7175 70.613094 L 25.596406 70.761531 L 25.471406 70.906063 L 25.4675 70.913875 L 25.264375 71.21075 L 25.155 71.363094 L 25.041719 71.511531 L 24.924531 71.659969 L 24.803438 71.812313 L 24.799531 71.812313 L 24.705781 71.96075 L 24.604219 72.109188 L 24.49875 72.257625 L 24.393281 72.409969 L 24.166719 72.706844 L 24.131563 72.753719 L 24.065156 72.859188 L 23.869844 73.156063 L 23.768281 73.308406 L 23.557344 73.605281 L 23.459688 73.734188 L 23.447969 73.753719 L 23.354219 73.906063 L 23.260469 74.0545 L 23.162813 74.202938 L 23.065156 74.355281 L 22.862031 74.652156 L 22.791719 74.753719 L 22.760469 74.800594 L 22.670625 74.952938 L 22.483125 75.249813 L 22.389375 75.402156 L 22.194063 75.699031 L 22.119844 75.808406 L 22.096406 75.851375 L 22.006563 75.999813 L 21.920625 76.14825 L 21.826875 76.296688 L 21.737031 76.449031 L 21.549531 76.745906 L 21.451875 76.89825 L 21.28 77.195125 L 21.194063 77.347469 L 21.108125 77.495906 M 55.631563 72.351375 L 55.56125 72.409969 L 55.369844 72.558406 L 55.170625 72.706844 L 54.9675 72.859188 L 54.959688 72.863094 L 54.74875 73.007625 L 54.526094 73.156063 L 54.295625 73.308406 L 54.291719 73.312313 L 54.053438 73.456844 L 53.799531 73.605281 L 53.619844 73.71075 L 53.541719 73.753719 L 53.260469 73.906063 L 52.979219 74.0545 L 52.947969 74.070125 L 52.670625 74.202938 L 52.358125 74.355281 L 52.28 74.390438 L 52.014375 74.503719 L 51.662813 74.652156 L 51.608125 74.675594 L 51.276094 74.800594 L 50.940156 74.9295 L 50.869844 74.952938 L 50.420625 75.101375 L 50.268281 75.152156 L 49.928438 75.249813 L 49.600313 75.343563 L 49.377656 75.402156 L 48.928438 75.511531 L 48.737031 75.550594 L 48.256563 75.64825 L 47.951875 75.699031 L 47.588594 75.761531 L 46.916719 75.843563 L 46.850313 75.851375 L 46.24875 75.902156 L 45.576875 75.933406 L 44.908906 75.937313 L 44.237031 75.913875 L 43.565156 75.867 L 43.405 75.851375 L 42.897188 75.792781 L 42.28 75.699031 L 42.225313 75.691219 L 41.557344 75.562313 L 41.49875 75.550594 L 40.885469 75.406063 L 40.858125 75.402156 L 40.31125 75.249813 L 40.2175 75.226375 L 39.819063 75.101375 L 39.545625 75.015438 L 39.365938 74.952938 L 38.947969 74.800594 L 38.87375 74.777156 L 38.56125 74.652156 L 38.205781 74.507625 L 38.190156 74.503719 L 37.846406 74.355281 L 37.533906 74.214656 L 37.514375 74.202938 L 37.197969 74.0545 L 36.893281 73.906063 L 36.865938 73.890438 L 36.604219 73.753719 L 36.322969 73.605281 L 36.194063 73.538875 L 36.049531 73.456844 L 35.783906 73.308406 L 35.526094 73.156063 L 35.28 73.007625 L 35.037813 72.859188 L 34.854219 72.742 L 34.799531 72.706844 L 34.569063 72.558406 L 34.3425 72.409969 L 34.182344 72.300594 L 34.12375 72.257625 L 33.905 72.109188 L 33.694063 71.96075 L 33.514375 71.827938 L 33.490938 71.812313 L 33.283906 71.659969 L 33.084688 71.511531 L 32.893281 71.363094 L 32.8425 71.324031 L 32.697969 71.21075 L 32.506563 71.062313 L 32.319063 70.913875 L 32.174531 70.788875 L 32.139375 70.761531 L 31.951875 70.613094 L 31.776094 70.464656 L 31.604219 70.316219 L 31.502656 70.222469 M 51.662813 59.843563 L 52.014375 59.992 L 52.28 60.105281 L 52.358125 60.140438 L 52.670625 60.288875 L 52.947969 60.425594 L 52.979219 60.441219 L 53.541719 60.738094 L 53.619844 60.784969 L 53.799531 60.890438 L 54.053438 61.038875 L 54.291719 61.183406 L 54.295625 61.187313 L 54.526094 61.339656 L 54.74875 61.488094 L 54.959688 61.632625 L 54.9675 61.636531 L 55.170625 61.784969 L 55.369844 61.937313 L 55.56125 62.08575 L 55.631563 62.140438 L 55.744844 62.234188 L 55.920625 62.386531 L 56.0925 62.534969 L 56.256563 62.683406 L 56.299531 62.726375 L 56.412813 62.83575 L 56.565156 62.984188 L 56.709688 63.132625 L 56.850313 63.281063 L 56.971406 63.417781 L 56.983125 63.433406 L 57.112031 63.581844 L 57.233125 63.730281 L 57.350313 63.882625 L 57.463594 64.031063 L 57.569063 64.1795 L 57.670625 64.331844 L 57.768281 64.480281 L 57.858125 64.628719 L 57.944063 64.777156 L 58.022188 64.9295 L 58.096406 65.077938 L 58.166719 65.226375 L 58.233125 65.378719 L 58.291719 65.527156 L 58.31125 65.574031 L 58.350313 65.675594 L 58.397188 65.827938 L 58.444063 65.976375 L 58.483125 66.124813 L 58.518281 66.27325 L 58.545625 66.425594 L 58.572969 66.574031 L 58.5925 66.722469 L 58.608125 66.874813 L 58.615938 67.02325 L 58.619844 67.171688 L 58.619844 67.324031 L 58.615938 67.472469 L 58.608125 67.620906 L 58.5925 67.769344 L 58.572969 67.921688 L 58.518281 68.218563 L 58.483125 68.370906 L 58.444063 68.519344 L 58.397188 68.667781 L 58.350313 68.820125 L 58.31125 68.921688 L 58.291719 68.968563 L 58.233125 69.117 L 58.166719 69.265438 L 58.096406 69.417781 L 58.022188 69.566219 L 57.944063 69.714656 L 57.858125 69.867 L 57.768281 70.015438 L 57.670625 70.163875 L 57.569063 70.316219 L 57.463594 70.464656 L 57.350313 70.613094 L 57.233125 70.761531 L 57.112031 70.913875 L 56.983125 71.062313 L 56.971406 71.077938 L 56.850313 71.21075 L 56.709688 71.363094 L 56.565156 71.511531 L 56.412813 71.659969 L 56.299531 71.769344 L 56.256563 71.812313 L 56.0925 71.96075 L 55.920625 72.109188 L 55.744844 72.257625 L 55.631563 72.351375 M 28.822969 66.781063 L 28.858125 66.722469 L 28.979219 66.574031 L 29.127656 66.425594 L 29.31125 66.27325 L 29.490938 66.144344 L 29.506563 66.124813 L 29.635469 65.976375 L 29.783906 65.827938 L 29.944063 65.675594 L 30.119844 65.527156 L 30.162813 65.495906 L 30.272188 65.378719 L 30.424531 65.226375 L 30.584688 65.077938 L 30.760469 64.9295 L 30.834688 64.870906 L 30.924531 64.777156 L 31.084688 64.628719 L 31.252656 64.480281 L 31.432344 64.331844 L 31.502656 64.27325 L 31.604219 64.1795 L 31.776094 64.031063 L 31.951875 63.882625 L 32.139375 63.730281 L 32.174531 63.706844 L 32.319063 63.581844 L 32.506563 63.433406 L 32.697969 63.281063 L 32.8425 63.171688 L 32.893281 63.132625 L 33.084688 62.984188 L 33.283906 62.83575 L 33.490938 62.683406 L 33.514375 62.667781 L 33.694063 62.534969 L 33.905 62.386531 L 34.12375 62.234188 L 34.182344 62.195125 L 34.3425 62.08575 L 34.569063 61.937313 L 34.799531 61.784969 L 34.854219 61.753719 L 35.037813 61.636531 L 35.28 61.488094 L 35.526094 61.339656 L 35.783906 61.187313 L 36.049531 61.038875 L 36.194063 60.956844 L 36.322969 60.890438 L 36.604219 60.738094 L 36.865938 60.605281 L 36.893281 60.589656 L 37.197969 60.441219 L 37.514375 60.288875 L 37.533906 60.281063 L 37.846406 60.140438 L 38.190156 59.992 L 38.205781 59.984188 L 38.56125 59.843563 L 38.87375 59.718563 L 38.947969 59.691219 L 39.365938 59.542781 L 39.545625 59.480281 L 39.819063 59.394344 L 40.2175 59.269344 L 40.31125 59.242 L 40.858125 59.093563 L 40.885469 59.08575 L 41.49875 58.945125 L 41.557344 58.933406 L 42.225313 58.8045 L 42.28 58.796688 L 42.897188 58.702938 L 43.405 58.644344 L 43.565156 58.628719 L 44.237031 58.577938 L 44.908906 58.558406 L 45.576875 58.562313 L 46.24875 58.593563 L 46.850313 58.644344 L 46.916719 58.652156 L 47.588594 58.734188 L 47.951875 58.796688 L 48.256563 58.847469 L 48.737031 58.945125 L 48.928438 58.984188 L 49.377656 59.093563 L 49.600313 59.14825 L 49.928438 59.242 L 50.268281 59.343563 L 50.420625 59.394344 L 50.869844 59.542781 L 50.940156 59.566219 L 51.276094 59.691219 L 51.608125 59.820125 L 51.662813 59.843563 M 19.483125 54.156063 L 19.569063 54.308406 L 19.651094 54.456844 L 19.737031 54.605281 L 19.819063 54.753719 L 19.901094 54.906063 L 19.983125 55.0545 L 20.06125 55.202938 L 20.108125 55.292781 L 20.147188 55.355281 L 20.233125 55.503719 L 20.322969 55.652156 L 20.408906 55.8045 L 20.580781 56.101375 L 20.662813 56.249813 L 20.744844 56.402156 L 20.78 56.464656 L 20.834688 56.550594 L 20.924531 56.699031 L 21.018281 56.851375 L 21.108125 56.999813 L 21.194063 57.14825 L 21.28 57.300594 L 21.365938 57.449031 L 21.451875 57.593563 L 21.451875 57.597469 L 21.549531 57.745906 L 21.643281 57.89825 L 21.737031 58.046688 L 21.826875 58.195125 L 21.920625 58.347469 L 22.006563 58.495906 L 22.096406 58.644344 L 22.119844 58.687313 L 22.194063 58.796688 L 22.389375 59.093563 L 22.483125 59.242 L 22.576875 59.394344 L 22.670625 59.542781 L 22.760469 59.691219 L 22.791719 59.742 L 22.862031 59.843563 L 23.065156 60.140438 L 23.162813 60.288875 L 23.260469 60.441219 L 23.447969 60.738094 L 23.459688 60.761531 L 23.557344 60.890438 L 23.768281 61.187313 L 23.869844 61.339656 L 24.065156 61.636531 L 24.131563 61.738094 L 24.166719 61.784969 L 24.28 61.937313 L 24.393281 62.08575 L 24.49875 62.234188 L 24.604219 62.386531 L 24.705781 62.534969 L 24.799531 62.6795 L 24.803438 62.683406 L 24.924531 62.83575 L 25.041719 62.984188 L 25.155 63.132625 L 25.264375 63.281063 L 25.365938 63.433406 L 25.4675 63.581844 L 25.471406 63.58575 L 25.596406 63.730281 L 25.7175 63.882625 L 25.834688 64.031063 L 25.947969 64.1795 L 26.057344 64.331844 L 26.143281 64.456844 L 26.162813 64.480281 L 26.303438 64.628719 L 26.432344 64.777156 L 26.553438 64.9295 L 26.666719 65.077938 L 26.772188 65.226375 L 26.81125 65.284969 L 26.908906 65.378719 L 27.053438 65.527156 L 27.18625 65.675594 L 27.31125 65.827938 L 27.420625 65.976375 L 27.483125 66.074031 L 27.553438 66.124813 L 27.737031 66.27325 L 27.893281 66.425594 L 28.022188 66.574031 L 28.12375 66.722469 L 28.151094 66.777156 L 28.822969 66.781063 M 13.256563 40.992 L 13.319063 41.140438 L 13.377656 41.292781 L 13.440156 41.441219 L 13.506563 41.589656 L 13.569063 41.738094 L 13.635469 41.890438 L 13.760469 42.187313 L 13.822969 42.339656 L 13.889375 42.488094 L 13.951875 42.636531 L 14.010469 42.788875 L 14.072969 42.937313 L 14.076875 42.945125 L 14.139375 43.08575 L 14.205781 43.234188 L 14.272188 43.386531 L 14.405 43.683406 L 14.471406 43.83575 L 14.533906 43.984188 L 14.600313 44.132625 L 14.662813 44.284969 L 14.725313 44.433406 L 14.74875 44.484188 L 14.791719 44.581844 L 14.862031 44.730281 L 14.928438 44.882625 L 14.99875 45.031063 L 15.065156 45.1795 L 15.131563 45.331844 L 15.264375 45.628719 L 15.330781 45.781063 L 15.397188 45.9295 L 15.416719 45.980281 L 15.463594 46.077938 L 15.533906 46.226375 L 15.604219 46.378719 L 15.744844 46.675594 L 15.815156 46.827938 L 15.947969 47.124813 L 16.018281 47.27325 L 16.084688 47.425594 L 16.088594 47.433406 L 16.155 47.574031 L 16.229219 47.722469 L 16.303438 47.874813 L 16.444063 48.171688 L 16.514375 48.324031 L 16.725313 48.769344 L 16.760469 48.847469 L 16.795625 48.921688 L 16.869844 49.070125 L 16.947969 49.218563 L 17.022188 49.370906 L 17.0925 49.519344 L 17.166719 49.667781 L 17.240938 49.820125 L 17.381563 50.117 L 17.428438 50.218563 L 17.455781 50.265438 L 17.533906 50.417781 L 17.612031 50.566219 L 17.68625 50.714656 L 17.764375 50.867 L 17.912813 51.163875 L 17.987031 51.316219 L 18.057344 51.464656 L 18.100313 51.546688 L 18.135469 51.613094 L 18.2175 51.761531 L 18.295625 51.913875 L 18.451875 52.21075 L 18.53 52.363094 L 18.604219 52.511531 L 18.682344 52.659969 L 18.756563 52.812313 L 18.768281 52.83575 L 18.838594 52.96075 L 19.002656 53.257625 L 19.084688 53.409969 L 19.162813 53.558406 L 19.244844 53.706844 L 19.322969 53.859188 L 19.401094 54.007625 L 19.440156 54.08575 L 19.483125 54.156063 M 8.139375 27.378719 L 8.194063 27.527156 L 8.244844 27.675594 L 8.295625 27.827938 L 8.350313 27.976375 L 8.401094 28.124813 L 8.451875 28.277156 L 8.604219 28.722469 L 8.655 28.874813 L 8.705781 29.02325 L 8.7175 29.050594 L 8.760469 29.171688 L 8.815156 29.324031 L 8.869844 29.472469 L 8.920625 29.620906 L 8.975313 29.77325 L 9.026094 29.921688 L 9.135469 30.218563 L 9.18625 30.370906 L 9.237031 30.519344 L 9.291719 30.667781 L 9.3425 30.820125 L 9.385469 30.945125 L 9.393281 30.968563 L 9.451875 31.117 L 9.506563 31.269344 L 9.670625 31.714656 L 9.725313 31.867 L 9.78 32.015438 L 9.830781 32.163875 L 9.885469 32.316219 L 9.940156 32.464656 L 9.990938 32.613094 L 10.045625 32.765438 L 10.057344 32.796688 L 10.100313 32.913875 L 10.158906 33.062313 L 10.213594 33.21075 L 10.272188 33.363094 L 10.381563 33.659969 L 10.43625 33.812313 L 10.494844 33.96075 L 10.604219 34.257625 L 10.658906 34.409969 L 10.713594 34.558406 L 10.725313 34.597469 L 10.768281 34.706844 L 10.826875 34.859188 L 10.944063 35.156063 L 11.002656 35.308406 L 11.057344 35.456844 L 11.115938 35.605281 L 11.170625 35.753719 L 11.229219 35.906063 L 11.338594 36.202938 L 11.397188 36.355281 L 11.397188 36.359188 L 11.455781 36.503719 L 11.514375 36.652156 L 11.572969 36.8045 L 11.635469 36.952938 L 11.752656 37.249813 L 11.81125 37.402156 L 11.865938 37.550594 L 11.924531 37.699031 L 11.983125 37.851375 L 12.041719 37.999813 L 12.065156 38.070125 L 12.100313 38.14825 L 12.162813 38.300594 L 12.221406 38.449031 L 12.283906 38.597469 L 12.3425 38.745906 L 12.405 38.89825 L 12.522188 39.195125 L 12.580781 39.347469 L 12.643281 39.495906 L 12.701875 39.644344 L 12.737031 39.738094 L 12.760469 39.796688 L 12.947969 40.242 L 13.010469 40.394344 L 13.135469 40.691219 L 13.197969 40.843563 L 13.256563 40.992 M 3.822969 13.765438 L 3.869844 13.913875 L 3.955781 14.21075 L 3.99875 14.363094 L 4.026094 14.452938 L 4.041719 14.511531 L 4.088594 14.659969 L 4.135469 14.812313 L 4.178438 14.96075 L 4.225313 15.109188 L 4.268281 15.261531 L 4.362031 15.558406 L 4.405 15.706844 L 4.447969 15.859188 L 4.494844 16.007625 L 4.537813 16.156063 L 4.584688 16.308406 L 4.670625 16.605281 L 4.694063 16.683406 L 4.858125 17.202938 L 4.905 17.355281 L 4.947969 17.503719 L 4.994844 17.652156 L 5.041719 17.8045 L 5.135469 18.101375 L 5.178438 18.253719 L 5.225313 18.402156 L 5.268281 18.550594 L 5.315156 18.699031 L 5.362031 18.851375 L 5.365938 18.867 L 5.408906 18.999813 L 5.455781 19.14825 L 5.502656 19.300594 L 5.549531 19.449031 L 5.600313 19.597469 L 5.647188 19.745906 L 5.694063 19.89825 L 5.787813 20.195125 L 5.834688 20.347469 L 5.881563 20.495906 L 5.924531 20.644344 L 5.971406 20.796688 L 6.018281 20.945125 L 6.033906 20.999813 L 6.065156 21.093563 L 6.115938 21.242 L 6.162813 21.394344 L 6.213594 21.542781 L 6.260469 21.691219 L 6.31125 21.843563 L 6.405 22.140438 L 6.455781 22.292781 L 6.596406 22.738094 L 6.643281 22.890438 L 6.690156 23.038875 L 6.705781 23.081844 L 6.791719 23.339656 L 6.8425 23.488094 L 6.889375 23.636531 L 6.940156 23.788875 L 6.990938 23.937313 L 7.037813 24.08575 L 7.088594 24.234188 L 7.139375 24.386531 L 7.18625 24.534969 L 7.237031 24.683406 L 7.283906 24.83575 L 7.330781 24.984188 L 7.37375 25.120906 L 7.381563 25.132625 L 7.432344 25.284969 L 7.584688 25.730281 L 7.635469 25.882625 L 7.737031 26.1795 L 7.787813 26.331844 L 7.838594 26.480281 L 7.885469 26.628719 L 7.93625 26.781063 L 8.037813 27.077938 L 8.045625 27.109188 L 8.088594 27.226375 L 8.139375 27.378719 M -0.00125 -0.0001875 L 0.00265625 0.0115313 L 0.0417188 0.14825 L 0.0807813 0.300594 L 0.158906 0.597469 L 0.201875 0.749813 L 0.319063 1.195125 L 0.358125 1.347469 L 0.43625 1.644344 L 0.475313 1.796688 L 0.518281 1.945125 L 0.557344 2.093563 L 0.596406 2.245906 L 0.631563 2.394344 L 0.670625 2.542781 L 0.674531 2.546688 L 0.713594 2.691219 L 0.752656 2.843563 L 0.795625 2.992 L 0.834688 3.140438 L 0.877656 3.292781 L 0.916719 3.441219 L 0.959688 3.589656 L 0.99875 3.742 L 1.037813 3.890438 L 1.080781 4.038875 L 1.119844 4.187313 L 1.158906 4.339656 L 1.197969 4.488094 L 1.240938 4.636531 L 1.28 4.788875 L 1.319063 4.937313 L 1.3425 5.031063 L 1.358125 5.08575 L 1.401094 5.238094 L 1.444063 5.386531 L 1.483125 5.534969 L 1.526094 5.683406 L 1.569063 5.83575 L 1.608125 5.984188 L 1.651094 6.132625 L 1.694063 6.284969 L 1.733125 6.433406 L 1.776094 6.581844 L 1.815156 6.730281 L 1.858125 6.882625 L 1.93625 7.1795 L 1.979219 7.331844 L 2.014375 7.464656 L 2.018281 7.480281 L 2.06125 7.628719 L 2.104219 7.781063 L 2.233125 8.226375 L 2.276094 8.378719 L 2.315156 8.527156 L 2.358125 8.675594 L 2.401094 8.827938 L 2.444063 8.976375 L 2.483125 9.124813 L 2.526094 9.277156 L 2.569063 9.425594 L 2.608125 9.574031 L 2.651094 9.722469 L 2.682344 9.843563 L 2.694063 9.874813 L 2.78 10.171688 L 2.822969 10.324031 L 2.865938 10.472469 L 2.912813 10.620906 L 2.955781 10.77325 L 3.084688 11.218563 L 3.127656 11.370906 L 3.170625 11.519344 L 3.209688 11.667781 L 3.252656 11.820125 L 3.338594 12.117 L 3.354219 12.175594 L 3.381563 12.269344 L 3.428438 12.417781 L 3.471406 12.566219 L 3.518281 12.714656 L 3.56125 12.867 L 3.604219 13.015438 L 3.651094 13.163875 L 3.694063 13.316219 L 3.78 13.613094 L 3.822969 13.765438 " transform="matrix(1,0,0,-1,0.72,135.492)"/>
</g>
</svg>
