<?xml version="1.0" encoding="UTF-8"?>
<svg xmlns="http://www.w3.org/2000/svg" xmlns:xlink="http://www.w3.org/1999/xlink" width="164pt" height="136pt" viewBox="0 0 164 136" version="1.1">
<g id="surface1">
<path style="fill:none;stroke-width:0.79701;stroke-linecap:butt;stroke-linejoin:miter;stroke:rgb(0%,0%,100%);stroke-opacity:1;stroke-miterlimit:10;" d="M 161.690156 59.713656 L 161.670625 59.326938 L 161.647188 58.940219 L 161.62375 58.557406 L 161.569063 57.783969 L 161.545625 57.39725 L 161.514375 57.010531 L 161.487031 56.623813 L 161.393281 55.463656 L 161.358125 55.080844 L 161.287813 54.307406 L 161.24875 53.920688 L 161.213594 53.533969 L 161.174531 53.14725 L 161.131563 52.760531 L 161.0925 52.373813 L 161.080781 52.27225 L 161.041719 51.987094 L 160.990938 51.604281 L 160.772188 50.057406 L 160.713594 49.670688 L 160.651094 49.283969 L 160.5925 48.89725 L 160.53 48.510531 L 160.4675 48.127719 L 160.334688 47.354281 L 160.276094 47.002719 L 160.182344 46.580844 L 160.100313 46.194125 L 160.010469 45.807406 L 159.924531 45.420688 L 159.834688 45.033969 L 159.744844 44.651156 L 159.557344 43.877719 L 159.4675 43.530063 L 159.455781 43.491 L 159.213594 42.717563 L 159.088594 42.330844 L 158.830781 41.557406 L 158.697969 41.170688 L 158.662813 41.069125 L 158.537813 40.787875 L 158.18625 40.014438 L 158.006563 39.627719 L 157.858125 39.315219 L 157.81125 39.241 L 157.56125 38.854281 L 157.053438 38.092563 L 157.041719 38.080844 L 156.651094 37.694125 L 156.252656 37.311313 L 156.24875 37.3035 L 155.526094 36.924594 L 155.444063 36.881625 L 154.635469 36.77225 M 157.858125 95.1785 L 158.006563 94.866 L 158.18625 94.479281 L 158.362031 94.092563 L 158.537813 93.70975 L 158.662813 93.424594 L 158.697969 93.323031 L 158.830781 92.936313 L 159.088594 92.162875 L 159.213594 91.776156 L 159.455781 91.002719 L 159.4675 90.967563 L 159.557344 90.616 L 159.651094 90.233188 L 159.744844 89.846469 L 159.924531 89.073031 L 160.010469 88.686313 L 160.100313 88.299594 L 160.182344 87.912875 L 160.276094 87.491 L 160.334688 87.139438 L 160.401094 86.756625 L 160.4675 86.369906 L 160.5925 85.596469 L 160.651094 85.20975 L 160.713594 84.823031 L 160.772188 84.436313 L 160.881563 83.662875 L 160.93625 83.280063 L 160.990938 82.893344 L 161.041719 82.506625 L 161.080781 82.221469 L 161.0925 82.119906 L 161.131563 81.733188 L 161.174531 81.346469 L 161.213594 80.95975 L 161.24875 80.573031 L 161.287813 80.186313 L 161.322969 79.799594 L 161.358125 79.416781 L 161.393281 79.030063 L 161.487031 77.869906 L 161.514375 77.483188 L 161.545625 77.096469 L 161.569063 76.70975 L 161.596406 76.323031 L 161.62375 75.940219 L 161.670625 75.166781 L 161.768281 73.233188 L 161.783906 72.846469 L 161.799531 72.463656 L 161.81125 72.076938 L 161.826875 71.690219 L 161.850313 70.916781 L 161.881563 69.369906 L 161.885469 69.057406 L 161.885469 68.987094 L 161.893281 68.213656 L 161.893281 67.826938 L 161.897188 67.440219 L 161.897188 67.0535 L 161.893281 66.666781 L 161.893281 66.280063 L 161.889375 65.893344 L 161.885469 65.510531 L 161.885469 65.436313 L 161.881563 65.123813 L 161.850313 63.576938 L 161.826875 62.8035 L 161.81125 62.416781 L 161.799531 62.033969 L 161.768281 61.260531 L 161.690156 59.713656 M 143.682344 69.369906 L 143.713594 70.143344 L 143.783906 71.3035 L 143.815156 71.690219 L 143.8425 72.076938 L 143.877656 72.463656 L 143.912813 72.846469 L 143.951875 73.233188 L 144.037813 74.006625 L 144.131563 74.780063 L 144.166719 75.033969 L 144.18625 75.166781 L 144.237031 75.5535 L 144.295625 75.940219 L 144.354219 76.323031 L 144.479219 77.096469 L 144.545625 77.483188 L 144.68625 78.256625 L 144.760469 78.643344 L 144.916719 79.416781 L 144.971406 79.670688 L 144.99875 79.799594 L 145.084688 80.186313 L 145.354219 81.346469 L 145.647188 82.506625 L 145.752656 82.893344 L 145.78 82.991 L 145.858125 83.280063 L 145.9675 83.662875 L 146.194063 84.436313 L 146.31125 84.823031 L 146.553438 85.596469 L 146.584688 85.686313 L 146.682344 85.983188 L 146.81125 86.369906 L 146.947969 86.756625 L 147.080781 87.139438 L 147.362031 87.912875 L 147.389375 87.983188 L 147.510469 88.299594 L 147.662813 88.686313 L 147.819063 89.073031 L 148.139375 89.846469 L 148.194063 89.975375 L 148.307344 90.233188 L 148.483125 90.616 L 148.662813 91.002719 L 148.846406 91.389438 L 148.99875 91.713656 L 149.033906 91.776156 L 149.233125 92.162875 L 149.647188 92.936313 L 149.803438 93.221469 L 149.865938 93.323031 L 150.100313 93.70975 L 150.3425 94.092563 L 150.584688 94.479281 L 150.612031 94.518344 L 150.865938 94.866 L 151.151094 95.252719 L 151.416719 95.604281 L 151.447969 95.639438 L 151.799531 96.026156 L 152.158906 96.412875 L 152.221406 96.479281 L 152.612031 96.799594 L 153.026094 97.135531 L 153.119844 97.186313 L 153.830781 97.557406 L 153.905 97.569125 L 154.635469 97.725375 L 155.444063 97.612094 L 155.526094 97.569125 L 156.24875 97.190219 L 156.252656 97.186313 L 156.651094 96.799594 L 157.041719 96.412875 L 157.053438 96.401156 L 157.56125 95.639438 L 157.81125 95.252719 L 157.858125 95.1785 M 154.635469 36.77225 L 153.905 36.924594 L 153.830781 36.940219 L 153.119844 37.311313 L 153.026094 37.358188 L 152.612031 37.694125 L 152.221406 38.014438 L 152.158906 38.080844 L 151.799531 38.467563 L 151.447969 38.854281 L 151.416719 38.889438 L 151.151094 39.241 L 150.865938 39.627719 L 150.612031 39.975375 L 150.584688 40.014438 L 150.100313 40.787875 L 149.865938 41.170688 L 149.803438 41.27225 L 149.647188 41.557406 L 149.233125 42.330844 L 149.033906 42.717563 L 148.99875 42.780063 L 148.846406 43.104281 L 148.662813 43.491 L 148.483125 43.877719 L 148.307344 44.264438 L 148.194063 44.518344 L 148.139375 44.651156 L 147.979219 45.033969 L 147.819063 45.420688 L 147.662813 45.807406 L 147.510469 46.194125 L 147.389375 46.510531 L 147.362031 46.580844 L 147.080781 47.354281 L 146.947969 47.741 L 146.81125 48.127719 L 146.682344 48.510531 L 146.584688 48.807406 L 146.553438 48.89725 L 146.31125 49.670688 L 146.194063 50.057406 L 145.9675 50.830844 L 145.858125 51.217563 L 145.78 51.502719 L 145.752656 51.604281 L 145.647188 51.987094 L 145.354219 53.14725 L 145.084688 54.307406 L 144.99875 54.694125 L 144.916719 55.080844 L 144.838594 55.463656 L 144.760469 55.850375 L 144.68625 56.237094 L 144.545625 57.010531 L 144.479219 57.39725 L 144.354219 58.170688 L 144.295625 58.557406 L 144.237031 58.940219 L 144.18625 59.326938 L 144.166719 59.45975 L 144.131563 59.713656 L 144.037813 60.487094 L 143.951875 61.260531 L 143.912813 61.64725 L 143.877656 62.033969 L 143.8425 62.416781 L 143.815156 62.8035 L 143.783906 63.190219 L 143.713594 64.350375 L 143.666719 65.510531 L 143.658906 65.893344 L 143.651094 66.280063 L 143.643281 67.0535 L 143.643281 67.440219 L 143.651094 68.213656 L 143.666719 68.987094 L 143.682344 69.369906 M 17.479219 57.783969 L 17.416719 57.39725 L 17.350313 57.010531 L 17.209688 56.237094 L 17.131563 55.850375 L 17.057344 55.463656 L 16.975313 55.080844 L 16.81125 54.307406 L 16.541719 53.14725 L 16.346406 52.373813 L 16.244844 51.987094 L 16.143281 51.604281 L 16.115938 51.502719 L 16.037813 51.217563 L 15.928438 50.830844 L 15.701875 50.057406 L 15.584688 49.670688 L 15.3425 48.89725 L 15.31125 48.807406 L 15.213594 48.510531 L 15.084688 48.127719 L 14.674531 46.967563 L 14.533906 46.580844 L 14.506563 46.510531 L 14.385469 46.194125 L 14.229219 45.807406 L 14.076875 45.420688 L 13.916719 45.033969 L 13.756563 44.651156 L 13.701875 44.518344 L 13.584688 44.264438 L 13.233125 43.491 L 13.049531 43.104281 L 12.897188 42.780063 L 12.862031 42.717563 L 12.662813 42.330844 L 12.24875 41.557406 L 12.088594 41.27225 L 12.03 41.170688 L 11.795625 40.787875 L 11.31125 40.014438 L 11.283906 39.975375 L 11.03 39.627719 L 10.744844 39.241 L 10.479219 38.889438 L 10.447969 38.854281 L 10.096406 38.467563 L 9.737031 38.080844 L 9.674531 38.014438 L 9.283906 37.694125 L 8.869844 37.358188 L 8.772188 37.311313 L 8.065156 36.940219 L 7.990938 36.924594 L 7.256563 36.77225 L 6.451875 36.881625 M 12.455781 92.549594 L 12.662813 92.162875 L 12.862031 91.776156 L 12.897188 91.713656 L 13.049531 91.389438 L 13.233125 91.002719 L 13.408906 90.616 L 13.584688 90.233188 L 13.701875 89.975375 L 13.756563 89.846469 L 14.076875 89.073031 L 14.229219 88.686313 L 14.385469 88.299594 L 14.506563 87.983188 L 14.533906 87.912875 L 14.674531 87.526156 L 14.81125 87.139438 L 14.947969 86.756625 L 15.084688 86.369906 L 15.213594 85.983188 L 15.31125 85.686313 L 15.3425 85.596469 L 15.584688 84.823031 L 15.701875 84.436313 L 15.928438 83.662875 L 16.037813 83.280063 L 16.115938 82.991 L 16.143281 82.893344 L 16.346406 82.119906 L 16.541719 81.346469 L 16.81125 80.186313 L 16.920625 79.670688 L 16.975313 79.416781 L 17.057344 79.030063 L 17.131563 78.643344 L 17.209688 78.256625 L 17.350313 77.483188 L 17.416719 77.096469 L 17.541719 76.323031 L 17.600313 75.940219 L 17.709688 75.166781 L 17.729219 75.033969 L 17.760469 74.780063 L 17.81125 74.393344 L 17.858125 74.006625 L 17.944063 73.233188 L 17.983125 72.846469 L 18.018281 72.463656 L 18.112031 71.3035 L 18.182344 70.143344 L 18.213594 69.369906 L 18.225313 68.987094 L 18.237031 68.600375 L 18.244844 68.213656 L 18.252656 67.440219 L 18.252656 67.0535 L 18.244844 66.280063 L 18.237031 65.893344 L 18.225313 65.510531 L 18.213594 65.123813 L 18.182344 64.350375 L 18.112031 63.190219 L 18.049531 62.416781 L 18.018281 62.033969 L 17.983125 61.64725 L 17.944063 61.260531 L 17.858125 60.487094 L 17.81125 60.100375 L 17.760469 59.713656 L 17.729219 59.45975 L 17.709688 59.326938 L 17.655 58.940219 L 17.600313 58.557406 L 17.541719 58.170688 L 17.479219 57.783969 M 0.045625 70.916781 L 0.0690625 71.690219 L 0.0846875 72.076938 L 0.0964063 72.463656 L 0.112031 72.846469 L 0.127656 73.233188 L 0.147188 73.619906 L 0.162813 74.006625 L 0.182344 74.393344 L 0.205781 74.780063 L 0.225313 75.166781 L 0.272188 75.940219 L 0.299531 76.323031 L 0.322969 76.70975 L 0.350313 77.096469 L 0.381563 77.483188 L 0.408906 77.869906 L 0.502656 79.030063 L 0.537813 79.416781 L 0.572969 79.799594 L 0.608125 80.186313 L 0.647188 80.573031 L 0.682344 80.95975 L 0.721406 81.346469 L 0.764375 81.733188 L 0.803438 82.119906 L 0.815156 82.221469 L 0.854219 82.506625 L 0.955781 83.280063 L 1.010469 83.662875 L 1.069063 84.049594 L 1.12375 84.436313 L 1.240938 85.20975 L 1.428438 86.369906 L 1.494844 86.756625 L 1.56125 87.139438 L 1.619844 87.491 L 1.713594 87.912875 L 1.795625 88.299594 L 1.885469 88.686313 L 1.971406 89.073031 L 2.151094 89.846469 L 2.244844 90.233188 L 2.338594 90.616 L 2.424531 90.967563 L 2.43625 91.002719 L 2.56125 91.389438 L 2.682344 91.776156 L 2.807344 92.162875 L 3.065156 92.936313 L 3.197969 93.323031 L 3.233125 93.424594 L 3.358125 93.70975 L 3.533906 94.092563 L 3.709688 94.479281 L 3.889375 94.866 L 4.037813 95.1785 L 4.084688 95.252719 L 4.334688 95.639438 L 4.8425 96.401156 L 4.854219 96.412875 L 5.244844 96.799594 L 5.643281 97.186313 L 5.647188 97.190219 L 6.369844 97.569125 L 6.451875 97.612094 L 7.256563 97.725375 L 7.990938 97.569125 L 8.065156 97.557406 L 8.772188 97.186313 L 8.869844 97.135531 L 9.283906 96.799594 L 9.674531 96.479281 L 9.737031 96.412875 L 10.096406 96.026156 L 10.447969 95.639438 L 10.479219 95.604281 L 10.744844 95.252719 L 11.03 94.866 L 11.283906 94.518344 L 11.31125 94.479281 L 11.553438 94.092563 L 11.795625 93.70975 L 12.03 93.323031 L 12.088594 93.221469 L 12.24875 92.936313 L 12.455781 92.549594 M 6.451875 36.881625 L 6.369844 36.924594 L 5.647188 37.3035 L 5.643281 37.311313 L 5.244844 37.694125 L 4.854219 38.080844 L 4.8425 38.092563 L 4.334688 38.854281 L 4.084688 39.241 L 4.037813 39.315219 L 3.889375 39.627719 L 3.709688 40.014438 L 3.358125 40.787875 L 3.233125 41.069125 L 3.197969 41.170688 L 3.065156 41.557406 L 2.807344 42.330844 L 2.682344 42.717563 L 2.56125 43.104281 L 2.43625 43.491 L 2.424531 43.530063 L 2.338594 43.877719 L 2.151094 44.651156 L 2.06125 45.033969 L 1.971406 45.420688 L 1.885469 45.807406 L 1.795625 46.194125 L 1.713594 46.580844 L 1.619844 47.002719 L 1.56125 47.354281 L 1.428438 48.127719 L 1.365938 48.510531 L 1.240938 49.283969 L 1.12375 50.057406 L 1.069063 50.444125 L 1.010469 50.830844 L 0.955781 51.217563 L 0.905 51.604281 L 0.854219 51.987094 L 0.815156 52.27225 L 0.803438 52.373813 L 0.764375 52.760531 L 0.721406 53.14725 L 0.682344 53.533969 L 0.647188 53.920688 L 0.608125 54.307406 L 0.537813 55.080844 L 0.502656 55.463656 L 0.408906 56.623813 L 0.381563 57.010531 L 0.350313 57.39725 L 0.322969 57.783969 L 0.299531 58.170688 L 0.272188 58.557406 L 0.24875 58.940219 L 0.225313 59.326938 L 0.205781 59.713656 L 0.182344 60.100375 L 0.162813 60.487094 L 0.147188 60.873813 L 0.127656 61.260531 L 0.0964063 62.033969 L 0.0846875 62.416781 L 0.0690625 62.8035 L 0.045625 63.576938 L 0.014375 65.123813 L 0.0104688 65.436313 L 0.0104688 65.510531 L 0.0065625 65.893344 L 0.00265625 66.280063 L 0.00265625 66.666781 L -0.00125 67.0535 L -0.00125 67.440219 L 0.00265625 67.826938 L 0.00265625 68.213656 L 0.0104688 68.987094 L 0.0104688 69.057406 L 0.014375 69.369906 L 0.045625 70.916781 M 104.651094 22.244906 L 104.447969 21.858188 L 104.240938 21.471469 L 104.037813 21.08475 L 103.901094 20.830844 L 103.826875 20.698031 L 103.615938 20.311313 L 103.405 19.9285 L 103.190156 19.541781 L 103.096406 19.373813 L 102.971406 19.155063 L 102.303438 17.994906 L 102.287813 17.971469 L 102.072969 17.608188 L 101.612031 16.83475 L 101.483125 16.627719 L 101.37375 16.451938 L 101.135469 16.065219 L 100.893281 15.6785 L 100.678438 15.338656 L 100.647188 15.291781 L 100.147188 14.518344 L 99.893281 14.131625 L 99.87375 14.104281 L 99.631563 13.744906 L 99.369844 13.358188 L 99.104219 12.975375 L 99.069063 12.920688 L 98.830781 12.588656 L 98.276094 11.815219 L 98.264375 11.795688 L 97.990938 11.4285 L 97.701875 11.041781 L 97.455781 10.717563 L 97.408906 10.655063 L 96.799531 9.881625 L 96.651094 9.698031 L 96.487031 9.498813 L 95.846406 8.725375 L 95.510469 8.338656 L 95.170625 7.951938 L 95.041719 7.807406 L 94.819063 7.565219 L 94.459688 7.1785 L 94.237031 6.936313 L 94.0925 6.791781 L 93.713594 6.405063 L 93.432344 6.119906 L 93.326875 6.02225 L 92.920625 5.635531 L 92.62375 5.354281 L 92.502656 5.248813 L 92.069063 4.862094 L 91.819063 4.643344 L 91.619844 4.475375 L 91.147188 4.088656 L 91.014375 3.979281 L 90.651094 3.701938 L 90.209688 3.366 L 90.135469 3.315219 L 89.584688 2.9285 L 89.405 2.807406 L 88.990938 2.541781 L 88.600313 2.295688 L 88.358125 2.158969 L 87.791719 1.83475 L 87.662813 1.77225 L 86.987031 1.4285 L 86.889375 1.385531 L 86.182344 1.073031 L 85.990938 0.998813 L 85.377656 0.764438 L 84.893281 0.612094 L 84.572969 0.510531 L 83.768281 0.307406 L 83.346406 0.225375 L 82.959688 0.151156 L 82.155 0.0495938 L 81.350313 -0.0011875 L 80.545625 -0.0011875 L 79.740938 0.0495938 L 78.93625 0.151156 M 115.979219 54.557406 L 115.93625 54.307406 L 115.865938 53.920688 L 115.643281 52.760531 L 115.56125 52.373813 L 115.483125 51.987094 L 115.401094 51.604281 L 115.229219 50.830844 L 115.174531 50.604281 L 115.139375 50.444125 L 114.869844 49.283969 L 114.776094 48.89725 L 114.678438 48.510531 L 114.580781 48.127719 L 114.377656 47.354281 L 114.369844 47.323031 L 114.276094 46.967563 L 114.174531 46.580844 L 113.963594 45.807406 L 113.854219 45.420688 L 113.740938 45.033969 L 113.627656 44.651156 L 113.565156 44.432406 L 113.514375 44.264438 L 113.287813 43.491 L 113.170625 43.104281 L 112.928438 42.330844 L 112.803438 41.944125 L 112.760469 41.8035 L 112.682344 41.557406 L 112.557344 41.170688 L 112.432344 40.787875 L 112.174531 40.014438 L 112.041719 39.627719 L 111.951875 39.369906 L 111.908906 39.241 L 111.643281 38.467563 L 111.369844 37.694125 L 111.229219 37.311313 L 111.147188 37.088656 L 111.088594 36.924594 L 110.947969 36.537875 L 110.514375 35.377719 L 110.365938 34.991 L 110.3425 34.936313 L 110.2175 34.604281 L 110.065156 34.217563 L 109.916719 33.83475 L 109.760469 33.448031 L 109.608125 33.061313 L 109.537813 32.893344 L 109.451875 32.674594 L 109.291719 32.287875 L 109.135469 31.901156 L 108.975313 31.514438 L 108.81125 31.127719 L 108.733125 30.940219 L 108.647188 30.741 L 108.483125 30.358188 L 108.319063 29.971469 L 108.151094 29.58475 L 107.979219 29.198031 L 107.928438 29.076938 L 107.81125 28.811313 L 107.635469 28.424594 L 107.463594 28.037875 L 107.287813 27.651156 L 107.119844 27.291781 L 107.108125 27.264438 L 106.932344 26.881625 L 106.752656 26.494906 L 106.385469 25.721469 L 106.315156 25.576938 L 106.197969 25.33475 L 105.822969 24.561313 L 105.631563 24.174594 L 105.510469 23.932406 L 105.440156 23.787875 L 105.244844 23.405063 L 105.049531 23.018344 L 104.850313 22.631625 L 104.705781 22.350375 L 104.651094 22.244906 M 113.565156 90.061313 L 113.627656 89.846469 L 113.854219 89.073031 L 113.963594 88.686313 L 114.174531 87.912875 L 114.276094 87.526156 L 114.369844 87.170688 L 114.377656 87.139438 L 114.479219 86.756625 L 114.580781 86.369906 L 114.776094 85.596469 L 114.869844 85.20975 L 115.139375 84.049594 L 115.174531 83.893344 L 115.229219 83.662875 L 115.315156 83.280063 L 115.401094 82.893344 L 115.483125 82.506625 L 115.56125 82.119906 L 115.643281 81.733188 L 115.865938 80.573031 L 115.93625 80.186313 L 115.979219 79.936313 L 116.006563 79.799594 L 116.072969 79.416781 L 116.205781 78.643344 L 116.268281 78.256625 L 116.444063 77.096469 L 116.494844 76.70975 L 116.549531 76.323031 L 116.596406 75.940219 L 116.690156 75.166781 L 116.733125 74.780063 L 116.772188 74.393344 L 116.783906 74.27225 L 116.815156 74.006625 L 116.850313 73.619906 L 116.889375 73.233188 L 116.920625 72.846469 L 116.951875 72.463656 L 116.983125 72.076938 L 117.010469 71.690219 L 117.057344 70.916781 L 117.076875 70.530063 L 117.12375 69.369906 L 117.135469 68.987094 L 117.151094 68.213656 L 117.155 67.826938 L 117.155 66.666781 L 117.151094 66.280063 L 117.143281 65.893344 L 117.135469 65.510531 L 117.12375 65.123813 L 117.076875 63.963656 L 117.057344 63.576938 L 117.010469 62.8035 L 116.983125 62.416781 L 116.951875 62.033969 L 116.889375 61.260531 L 116.850313 60.873813 L 116.815156 60.487094 L 116.783906 60.221469 L 116.772188 60.100375 L 116.733125 59.713656 L 116.690156 59.326938 L 116.643281 58.940219 L 116.596406 58.557406 L 116.549531 58.170688 L 116.494844 57.783969 L 116.444063 57.39725 L 116.268281 56.237094 L 116.205781 55.850375 L 116.139375 55.463656 L 116.072969 55.080844 L 116.006563 54.694125 L 115.979219 54.557406 M 99.369844 121.135531 L 99.631563 120.748813 L 99.87375 120.389438 L 99.893281 120.362094 L 100.147188 119.975375 L 100.647188 119.201938 L 100.678438 119.155063 L 100.893281 118.815219 L 101.135469 118.4285 L 101.37375 118.045688 L 101.483125 117.866 L 101.612031 117.658969 L 102.072969 116.885531 L 102.287813 116.52225 L 102.303438 116.498813 L 102.971406 115.338656 L 103.096406 115.119906 L 103.190156 114.951938 L 103.405 114.569125 L 103.826875 113.795688 L 103.901094 113.662875 L 104.037813 113.408969 L 104.240938 113.02225 L 104.447969 112.635531 L 104.651094 112.248813 L 104.705781 112.143344 L 104.850313 111.862094 L 105.049531 111.475375 L 105.244844 111.092563 L 105.440156 110.705844 L 105.510469 110.561313 L 105.631563 110.319125 L 105.822969 109.932406 L 106.197969 109.158969 L 106.315156 108.916781 L 106.385469 108.77225 L 106.752656 107.998813 L 106.932344 107.616 L 107.108125 107.229281 L 107.119844 107.201938 L 107.287813 106.842563 L 107.463594 106.455844 L 107.635469 106.069125 L 107.81125 105.682406 L 107.928438 105.416781 L 107.979219 105.295688 L 108.151094 104.908969 L 108.319063 104.52225 L 108.483125 104.139438 L 108.647188 103.752719 L 108.733125 103.5535 L 108.81125 103.366 L 108.975313 102.979281 L 109.135469 102.592563 L 109.291719 102.205844 L 109.451875 101.819125 L 109.537813 101.604281 L 109.608125 101.432406 L 109.760469 101.045688 L 109.916719 100.662875 L 110.065156 100.276156 L 110.2175 99.889438 L 110.3425 99.557406 L 110.365938 99.502719 L 110.514375 99.116 L 110.947969 97.955844 L 111.088594 97.569125 L 111.147188 97.405063 L 111.229219 97.186313 L 111.369844 96.799594 L 111.643281 96.026156 L 111.908906 95.252719 L 111.951875 95.123813 L 112.041719 94.866 L 112.174531 94.479281 L 112.303438 94.092563 L 112.432344 93.70975 L 112.682344 92.936313 L 112.760469 92.690219 L 112.803438 92.549594 L 112.928438 92.162875 L 113.170625 91.389438 L 113.287813 91.002719 L 113.401094 90.616 L 113.514375 90.233188 L 113.565156 90.061313 M 65.729219 125.385531 L 66.049531 125.768344 L 66.385469 126.155063 L 66.725313 126.541781 L 66.854219 126.690219 L 67.076875 126.9285 L 67.432344 127.315219 L 67.658906 127.557406 L 67.803438 127.701938 L 68.182344 128.088656 L 68.463594 128.373813 L 68.569063 128.475375 L 68.975313 128.862094 L 69.268281 129.139438 L 69.393281 129.244906 L 69.826875 129.631625 L 70.076875 129.850375 L 70.276094 130.018344 L 70.744844 130.405063 L 70.881563 130.514438 L 71.244844 130.791781 L 71.68625 131.127719 L 71.756563 131.1785 L 72.31125 131.565219 L 72.490938 131.690219 L 72.905 131.951938 L 73.295625 132.198031 L 73.537813 132.338656 L 74.104219 132.658969 L 74.229219 132.721469 L 74.908906 133.065219 L 75.006563 133.108188 L 75.713594 133.424594 L 75.905 133.494906 L 76.518281 133.729281 L 76.99875 133.881625 L 77.322969 133.983188 L 78.127656 134.186313 L 78.549531 134.268344 L 78.93625 134.342563 L 79.740938 134.444125 L 80.545625 134.494906 L 81.350313 134.494906 L 82.155 134.444125 L 82.959688 134.342563 L 83.346406 134.268344 L 83.768281 134.186313 L 84.572969 133.983188 L 84.893281 133.881625 L 85.377656 133.729281 L 85.990938 133.494906 L 86.182344 133.424594 L 86.889375 133.108188 L 86.987031 133.065219 L 87.662813 132.721469 L 87.791719 132.658969 L 88.358125 132.338656 L 88.600313 132.198031 L 88.990938 131.951938 L 89.405 131.690219 L 89.584688 131.565219 L 90.135469 131.1785 L 90.209688 131.127719 L 90.651094 130.791781 L 91.014375 130.514438 L 91.147188 130.405063 L 91.619844 130.018344 L 91.819063 129.850375 L 92.069063 129.631625 L 92.502656 129.244906 L 92.62375 129.139438 L 92.920625 128.862094 L 93.326875 128.475375 L 93.432344 128.373813 L 93.713594 128.088656 L 94.0925 127.701938 L 94.237031 127.557406 L 94.459688 127.315219 L 94.819063 126.9285 L 95.041719 126.690219 L 95.170625 126.541781 L 95.510469 126.155063 L 95.846406 125.768344 L 96.166719 125.385531 L 96.487031 124.998813 L 96.651094 124.799594 L 96.799531 124.612094 L 97.408906 123.838656 L 97.455781 123.776156 L 97.701875 123.451938 L 97.990938 123.065219 L 98.264375 122.698031 L 98.276094 122.6785 L 98.553438 122.291781 L 98.830781 121.908969 L 99.069063 121.573031 L 99.104219 121.52225 L 99.369844 121.135531 M 49.940156 95.123813 L 49.987031 95.252719 L 50.115938 95.639438 L 50.526094 96.799594 L 50.666719 97.186313 L 50.74875 97.405063 L 50.807344 97.569125 L 50.947969 97.955844 L 51.381563 99.116 L 51.53 99.502719 L 51.553438 99.557406 L 51.678438 99.889438 L 51.830781 100.276156 L 51.979219 100.662875 L 52.135469 101.045688 L 52.287813 101.432406 L 52.358125 101.604281 L 52.444063 101.819125 L 52.604219 102.205844 L 52.760469 102.592563 L 52.920625 102.979281 L 53.084688 103.366 L 53.162813 103.5535 L 53.24875 103.752719 L 53.412813 104.139438 L 53.576875 104.52225 L 53.744844 104.908969 L 53.916719 105.295688 L 53.9675 105.416781 L 54.084688 105.682406 L 54.256563 106.069125 L 54.608125 106.842563 L 54.772188 107.201938 L 54.783906 107.229281 L 54.963594 107.616 L 55.143281 107.998813 L 55.510469 108.77225 L 55.580781 108.916781 L 55.697969 109.158969 L 56.072969 109.932406 L 56.264375 110.319125 L 56.385469 110.561313 L 56.455781 110.705844 L 56.651094 111.092563 L 56.846406 111.475375 L 57.045625 111.862094 L 57.190156 112.143344 L 57.244844 112.248813 L 57.651094 113.02225 L 57.858125 113.408969 L 57.994844 113.662875 L 58.069063 113.795688 L 58.490938 114.569125 L 58.705781 114.951938 L 58.799531 115.119906 L 58.924531 115.338656 L 59.5925 116.498813 L 59.604219 116.52225 L 59.822969 116.885531 L 60.283906 117.658969 L 60.412813 117.866 L 60.522188 118.045688 L 60.760469 118.4285 L 61.002656 118.815219 L 61.2175 119.155063 L 61.24875 119.201938 L 61.74875 119.975375 L 62.002656 120.362094 L 62.022188 120.389438 L 62.264375 120.748813 L 62.526094 121.135531 L 62.791719 121.52225 L 62.826875 121.573031 L 63.065156 121.908969 L 63.338594 122.291781 L 63.619844 122.6785 L 63.631563 122.698031 L 63.905 123.065219 L 64.194063 123.451938 L 64.43625 123.776156 L 64.487031 123.838656 L 65.096406 124.612094 L 65.244844 124.799594 L 65.408906 124.998813 L 65.729219 125.385531 M 45.12375 60.100375 L 45.108125 60.221469 L 45.080781 60.487094 L 45.045625 60.873813 L 45.006563 61.260531 L 44.944063 62.033969 L 44.912813 62.416781 L 44.885469 62.8035 L 44.838594 63.576938 L 44.799531 64.350375 L 44.783906 64.737094 L 44.760469 65.510531 L 44.752656 65.893344 L 44.744844 66.280063 L 44.737031 67.0535 L 44.737031 67.440219 L 44.744844 68.213656 L 44.760469 68.987094 L 44.772188 69.369906 L 44.783906 69.756625 L 44.799531 70.143344 L 44.838594 70.916781 L 44.885469 71.690219 L 44.912813 72.076938 L 44.944063 72.463656 L 44.975313 72.846469 L 45.006563 73.233188 L 45.045625 73.619906 L 45.080781 74.006625 L 45.108125 74.27225 L 45.12375 74.393344 L 45.162813 74.780063 L 45.205781 75.166781 L 45.299531 75.940219 L 45.346406 76.323031 L 45.401094 76.70975 L 45.451875 77.096469 L 45.627656 78.256625 L 45.752656 79.030063 L 45.822969 79.416781 L 45.889375 79.799594 L 45.916719 79.936313 L 45.959688 80.186313 L 46.03 80.573031 L 46.252656 81.733188 L 46.330781 82.119906 L 46.494844 82.893344 L 46.580781 83.280063 L 46.666719 83.662875 L 46.721406 83.893344 L 46.756563 84.049594 L 46.8425 84.436313 L 46.932344 84.823031 L 47.119844 85.596469 L 47.315156 86.369906 L 47.416719 86.756625 L 47.518281 87.139438 L 47.526094 87.170688 L 47.619844 87.526156 L 47.721406 87.912875 L 47.932344 88.686313 L 48.041719 89.073031 L 48.155 89.45975 L 48.264375 89.846469 L 48.330781 90.061313 L 48.381563 90.233188 L 48.494844 90.616 L 48.608125 91.002719 L 48.725313 91.389438 L 49.088594 92.549594 L 49.135469 92.690219 L 49.213594 92.936313 L 49.463594 93.70975 L 49.5925 94.092563 L 49.721406 94.479281 L 49.854219 94.866 L 49.940156 95.123813 M 54.963594 26.881625 L 54.783906 27.264438 L 54.772188 27.291781 L 54.608125 27.651156 L 54.256563 28.424594 L 54.084688 28.811313 L 53.9675 29.076938 L 53.916719 29.198031 L 53.744844 29.58475 L 53.576875 29.971469 L 53.412813 30.358188 L 53.24875 30.741 L 53.162813 30.940219 L 53.084688 31.127719 L 52.920625 31.514438 L 52.760469 31.901156 L 52.604219 32.287875 L 52.444063 32.674594 L 52.358125 32.893344 L 52.287813 33.061313 L 52.135469 33.448031 L 51.979219 33.83475 L 51.830781 34.217563 L 51.678438 34.604281 L 51.553438 34.936313 L 51.53 34.991 L 51.381563 35.377719 L 50.947969 36.537875 L 50.807344 36.924594 L 50.74875 37.088656 L 50.666719 37.311313 L 50.526094 37.694125 L 50.115938 38.854281 L 49.987031 39.241 L 49.940156 39.369906 L 49.854219 39.627719 L 49.721406 40.014438 L 49.463594 40.787875 L 49.338594 41.170688 L 49.213594 41.557406 L 49.135469 41.8035 L 49.088594 41.944125 L 48.725313 43.104281 L 48.608125 43.491 L 48.381563 44.264438 L 48.330781 44.432406 L 48.264375 44.651156 L 48.155 45.033969 L 48.041719 45.420688 L 47.932344 45.807406 L 47.721406 46.580844 L 47.619844 46.967563 L 47.526094 47.323031 L 47.518281 47.354281 L 47.315156 48.127719 L 47.2175 48.510531 L 47.119844 48.89725 L 46.932344 49.670688 L 46.8425 50.057406 L 46.756563 50.444125 L 46.721406 50.604281 L 46.666719 50.830844 L 46.494844 51.604281 L 46.412813 51.987094 L 46.330781 52.373813 L 46.252656 52.760531 L 46.03 53.920688 L 45.959688 54.307406 L 45.916719 54.557406 L 45.889375 54.694125 L 45.822969 55.080844 L 45.752656 55.463656 L 45.627656 56.237094 L 45.451875 57.39725 L 45.401094 57.783969 L 45.346406 58.170688 L 45.299531 58.557406 L 45.252656 58.940219 L 45.205781 59.326938 L 45.162813 59.713656 L 45.12375 60.100375 M 78.93625 0.151156 L 78.549531 0.225375 L 78.127656 0.307406 L 77.322969 0.510531 L 76.99875 0.612094 L 76.518281 0.764438 L 75.905 0.998813 L 75.713594 1.073031 L 75.006563 1.385531 L 74.908906 1.4285 L 74.229219 1.77225 L 74.104219 1.83475 L 73.537813 2.158969 L 73.295625 2.295688 L 72.905 2.541781 L 72.490938 2.807406 L 72.31125 2.9285 L 71.756563 3.315219 L 71.68625 3.366 L 71.244844 3.701938 L 70.881563 3.979281 L 70.744844 4.088656 L 70.276094 4.475375 L 70.076875 4.643344 L 69.826875 4.862094 L 69.393281 5.248813 L 69.268281 5.354281 L 68.975313 5.635531 L 68.569063 6.02225 L 68.463594 6.119906 L 68.182344 6.405063 L 67.803438 6.791781 L 67.658906 6.936313 L 67.432344 7.1785 L 67.076875 7.565219 L 66.854219 7.807406 L 66.725313 7.951938 L 66.385469 8.338656 L 66.049531 8.725375 L 65.408906 9.498813 L 65.244844 9.698031 L 65.096406 9.881625 L 64.487031 10.655063 L 64.43625 10.717563 L 64.194063 11.041781 L 63.905 11.4285 L 63.631563 11.795688 L 63.619844 11.815219 L 63.338594 12.201938 L 63.065156 12.588656 L 62.826875 12.920688 L 62.791719 12.975375 L 62.526094 13.358188 L 62.264375 13.744906 L 62.022188 14.104281 L 62.002656 14.131625 L 61.74875 14.518344 L 61.24875 15.291781 L 61.2175 15.338656 L 61.002656 15.6785 L 60.760469 16.065219 L 60.522188 16.451938 L 60.412813 16.627719 L 60.283906 16.83475 L 59.822969 17.608188 L 59.604219 17.971469 L 59.5925 17.994906 L 58.924531 19.155063 L 58.799531 19.373813 L 58.705781 19.541781 L 58.490938 19.9285 L 58.28 20.311313 L 58.069063 20.698031 L 57.994844 20.830844 L 57.858125 21.08475 L 57.651094 21.471469 L 57.244844 22.244906 L 57.190156 22.350375 L 57.045625 22.631625 L 56.846406 23.018344 L 56.651094 23.405063 L 56.455781 23.787875 L 56.385469 23.932406 L 56.264375 24.174594 L 56.072969 24.561313 L 55.697969 25.33475 L 55.580781 25.576938 L 55.510469 25.721469 L 55.143281 26.494906 L 54.963594 26.881625 " transform="matrix(1,0,0,-1,0.72,135.491)"/>
</g>
</svg>
