<?xml version="1.0" encoding="UTF-8"?>
<svg xmlns="http://www.w3.org/2000/svg" xmlns:xlink="http://www.w3.org/1999/xlink" width="163pt" height="136pt" viewBox="0 0 163 136" version="1.1">
<g id="surface1">
<path style="fill:none;stroke-width:0.79701;stroke-linecap:butt;stroke-linejoin:miter;stroke:rgb(0%,0%,100%);stroke-opacity:1;stroke-miterlimit:10;" d="M 119.822969 44.062313 L 119.721406 43.921688 L 119.678438 43.870906 L 119.518281 43.675594 L 119.358125 43.484188 L 119.194063 43.292781 L 119.135469 43.222469 L 118.819063 42.906063 L 118.62375 42.714656 L 118.549531 42.644344 L 118.397188 42.52325 L 118.155 42.331844 L 117.963594 42.1795 L 117.893281 42.136531 L 117.572969 41.945125 L 117.377656 41.824031 L 117.209688 41.753719 L 116.791719 41.574031 L 116.740938 41.562313 L 116.201875 41.417781 L 115.682344 41.367 L 115.615938 41.363094 M 124.975313 61.378719 L 124.93625 60.995906 L 124.920625 60.800594 L 124.897188 60.609188 L 124.858125 60.226375 L 124.834688 60.031063 L 124.815156 59.839656 L 124.791719 59.64825 L 124.768281 59.452938 L 124.744844 59.261531 L 124.7175 59.070125 L 124.694063 58.878719 L 124.666719 58.683406 L 124.643281 58.492 L 124.588594 58.109188 L 124.56125 57.913875 L 124.53 57.722469 L 124.502656 57.531063 L 124.471406 57.339656 L 124.440156 57.144344 L 124.416719 56.988094 L 124.408906 56.952938 L 124.377656 56.761531 L 124.3425 56.570125 L 124.307344 56.374813 L 124.201875 55.800594 L 124.162813 55.605281 L 124.127656 55.413875 L 124.049531 55.031063 L 124.010469 54.83575 L 123.971406 54.644344 L 123.928438 54.452938 L 123.889375 54.261531 L 123.846406 54.066219 L 123.830781 53.988094 L 123.803438 53.874813 L 123.709688 53.492 L 123.662813 53.296688 L 123.615938 53.105281 L 123.565156 52.913875 L 123.518281 52.718563 L 123.365938 52.144344 L 123.315156 51.949031 L 123.264375 51.757625 L 123.240938 51.687313 L 123.205781 51.566219 L 123.151094 51.374813 L 123.0925 51.1795 L 122.975313 50.796688 L 122.912813 50.605281 L 122.854219 50.409969 L 122.666719 49.83575 L 122.655 49.8045 L 122.596406 49.640438 L 122.53 49.449031 L 122.459688 49.257625 L 122.385469 49.066219 L 122.315156 48.870906 L 122.240938 48.6795 L 122.170625 48.488094 L 122.096406 48.296688 L 122.069063 48.226375 L 122.018281 48.101375 L 121.93625 47.909969 L 121.850313 47.718563 L 121.768281 47.527156 L 121.682344 47.331844 L 121.510469 46.949031 L 121.483125 46.886531 L 121.416719 46.757625 L 121.322969 46.562313 L 121.225313 46.370906 L 121.12375 46.1795 L 121.026094 45.984188 L 120.924531 45.792781 L 120.897188 45.738094 L 120.815156 45.601375 L 120.701875 45.409969 L 120.588594 45.214656 L 120.354219 44.831844 L 120.31125 44.757625 L 120.229219 44.640438 L 120.096406 44.445125 L 119.822969 44.062313 M 124.010469 79.656063 L 124.127656 79.081844 L 124.162813 78.886531 L 124.201875 78.695125 L 124.272188 78.312313 L 124.307344 78.117 L 124.377656 77.734188 L 124.408906 77.542781 L 124.416719 77.507625 L 124.440156 77.347469 L 124.502656 76.964656 L 124.53 76.77325 L 124.56125 76.577938 L 124.643281 76.003719 L 124.666719 75.808406 L 124.694063 75.617 L 124.7175 75.425594 L 124.744844 75.234188 L 124.768281 75.038875 L 124.815156 74.656063 L 124.834688 74.464656 L 124.858125 74.269344 L 124.897188 73.886531 L 124.920625 73.695125 L 124.93625 73.499813 L 124.975313 73.117 L 124.990938 72.921688 L 125.002656 72.8045 L 125.010469 72.730281 L 125.026094 72.538875 L 125.037813 72.347469 L 125.053438 72.152156 L 125.069063 71.96075 L 125.0925 71.577938 L 125.108125 71.382625 L 125.119844 71.191219 L 125.127656 70.999813 L 125.139375 70.808406 L 125.151094 70.613094 L 125.166719 70.230281 L 125.178438 70.038875 L 125.18625 69.843563 L 125.190156 69.652156 L 125.205781 69.269344 L 125.209688 69.074031 L 125.213594 68.882625 L 125.221406 68.691219 L 125.225313 68.499813 L 125.225313 68.3045 L 125.233125 67.921688 L 125.233125 67.534969 L 125.237031 67.343563 L 125.237031 67.152156 L 125.233125 66.96075 L 125.233125 66.574031 L 125.229219 66.382625 L 125.225313 66.187313 L 125.225313 65.995906 L 125.221406 65.8045 L 125.213594 65.613094 L 125.209688 65.417781 L 125.205781 65.226375 L 125.190156 64.843563 L 125.18625 64.64825 L 125.178438 64.456844 L 125.166719 64.265438 L 125.158906 64.074031 L 125.151094 63.878719 L 125.127656 63.495906 L 125.119844 63.3045 L 125.108125 63.109188 L 125.0925 62.917781 L 125.069063 62.534969 L 125.053438 62.339656 L 125.037813 62.14825 L 125.026094 61.956844 L 125.010469 61.765438 L 124.990938 61.570125 L 124.975313 61.378719 M 112.381563 91.781063 L 112.608125 91.972469 L 112.682344 92.034969 L 112.869844 92.163875 L 113.151094 92.355281 L 113.268281 92.437313 L 113.479219 92.550594 L 113.8425 92.742 L 113.858125 92.749813 L 114.350313 92.933406 L 114.444063 92.968563 L 115.03 93.097469 L 115.514375 93.124813 L 115.615938 93.132625 L 115.682344 93.124813 L 116.201875 93.074031 L 116.740938 92.933406 L 116.791719 92.921688 L 117.209688 92.742 L 117.377656 92.667781 L 117.572969 92.550594 L 117.893281 92.355281 L 117.963594 92.312313 L 118.155 92.163875 L 118.397188 91.972469 L 118.549531 91.851375 L 118.62375 91.781063 L 118.819063 91.58575 L 119.014375 91.394344 L 119.135469 91.27325 L 119.194063 91.202938 L 119.358125 91.011531 L 119.518281 90.816219 L 119.678438 90.624813 L 119.721406 90.574031 L 119.822969 90.433406 L 119.959688 90.242 L 120.096406 90.046688 L 120.229219 89.855281 L 120.31125 89.738094 L 120.354219 89.663875 L 120.471406 89.472469 L 120.588594 89.277156 L 120.815156 88.894344 L 120.897188 88.757625 L 120.924531 88.702938 L 121.026094 88.507625 L 121.12375 88.316219 L 121.225313 88.124813 L 121.322969 87.933406 L 121.416719 87.738094 L 121.483125 87.609188 L 121.510469 87.546688 L 121.682344 87.163875 L 121.768281 86.968563 L 121.850313 86.777156 L 121.93625 86.58575 L 122.018281 86.390438 L 122.069063 86.265438 L 122.096406 86.199031 L 122.170625 86.007625 L 122.240938 85.816219 L 122.315156 85.620906 L 122.385469 85.4295 L 122.459688 85.238094 L 122.53 85.046688 L 122.596406 84.851375 L 122.655 84.687313 L 122.666719 84.659969 L 122.791719 84.277156 L 122.854219 84.081844 L 122.912813 83.890438 L 122.975313 83.699031 L 123.033906 83.507625 L 123.0925 83.312313 L 123.151094 83.120906 L 123.205781 82.9295 L 123.240938 82.808406 L 123.264375 82.738094 L 123.315156 82.542781 L 123.4675 81.968563 L 123.518281 81.77325 L 123.565156 81.581844 L 123.615938 81.390438 L 123.662813 81.199031 L 123.709688 81.003719 L 123.803438 80.620906 L 123.830781 80.503719 L 123.846406 80.4295 L 123.889375 80.234188 L 123.928438 80.042781 L 123.971406 79.851375 L 124.010469 79.656063 M 105.346406 75.234188 L 105.37375 75.425594 L 105.43625 75.808406 L 105.471406 76.003719 L 105.502656 76.195125 L 105.572969 76.577938 L 105.608125 76.77325 L 105.643281 76.964656 L 105.643281 76.968563 L 105.682344 77.156063 L 105.7175 77.347469 L 105.760469 77.542781 L 105.838594 77.925594 L 105.881563 78.117 L 105.924531 78.312313 L 106.053438 78.886531 L 106.100313 79.081844 L 106.194063 79.464656 L 106.229219 79.620906 L 106.240938 79.656063 L 106.291719 79.851375 L 106.393281 80.234188 L 106.444063 80.4295 L 106.553438 80.812313 L 106.604219 81.003719 L 106.662813 81.199031 L 106.7175 81.390438 L 106.776094 81.581844 L 106.815156 81.722469 L 106.830781 81.77325 L 106.893281 81.968563 L 107.080781 82.542781 L 107.143281 82.738094 L 107.3425 83.312313 L 107.405 83.492 L 107.408906 83.507625 L 107.479219 83.699031 L 107.627656 84.081844 L 107.701875 84.277156 L 107.850313 84.659969 L 107.928438 84.851375 L 107.990938 85.011531 L 108.006563 85.046688 L 108.252656 85.620906 L 108.338594 85.816219 L 108.424531 86.007625 L 108.514375 86.199031 L 108.576875 86.339656 L 108.600313 86.390438 L 108.694063 86.58575 L 108.791719 86.777156 L 108.885469 86.968563 L 108.983125 87.163875 L 109.080781 87.355281 L 109.162813 87.511531 L 109.182344 87.546688 L 109.291719 87.738094 L 109.397188 87.933406 L 109.615938 88.316219 L 109.729219 88.507625 L 109.74875 88.546688 L 109.850313 88.702938 L 109.971406 88.894344 L 110.221406 89.277156 L 110.338594 89.456844 L 110.346406 89.472469 L 110.627656 89.855281 L 110.772188 90.046688 L 110.912813 90.242 L 110.924531 90.253719 L 111.072969 90.433406 L 111.401094 90.816219 L 111.510469 90.945125 L 111.572969 91.011531 L 111.760469 91.202938 L 112.096406 91.538875 L 112.155 91.58575 L 112.381563 91.781063 M 105.760469 56.952938 L 105.7175 57.144344 L 105.682344 57.339656 L 105.643281 57.527156 L 105.643281 57.531063 L 105.572969 57.913875 L 105.537813 58.109188 L 105.502656 58.300594 L 105.471406 58.492 L 105.43625 58.683406 L 105.405 58.878719 L 105.37375 59.070125 L 105.346406 59.261531 L 105.315156 59.452938 L 105.287813 59.64825 L 105.233125 60.031063 L 105.205781 60.226375 L 105.178438 60.417781 L 105.131563 60.800594 L 105.104219 60.995906 L 105.084688 61.187313 L 105.06125 61.378719 L 105.057344 61.409969 L 105.037813 61.570125 L 105.018281 61.765438 L 104.979219 62.14825 L 104.963594 62.339656 L 104.944063 62.534969 L 104.897188 63.109188 L 104.881563 63.3045 L 104.869844 63.495906 L 104.854219 63.687313 L 104.8425 63.878719 L 104.830781 64.074031 L 104.807344 64.456844 L 104.799531 64.64825 L 104.787813 64.843563 L 104.772188 65.226375 L 104.768281 65.417781 L 104.760469 65.613094 L 104.752656 65.8045 L 104.744844 66.187313 L 104.740938 66.382625 L 104.740938 66.574031 L 104.737031 66.765438 L 104.737031 66.96075 L 104.733125 67.152156 L 104.733125 67.343563 L 104.737031 67.534969 L 104.737031 67.730281 L 104.740938 67.921688 L 104.740938 68.113094 L 104.744844 68.3045 L 104.74875 68.499813 L 104.752656 68.691219 L 104.768281 69.074031 L 104.772188 69.269344 L 104.787813 69.652156 L 104.799531 69.843563 L 104.807344 70.038875 L 104.8425 70.613094 L 104.854219 70.808406 L 104.869844 70.999813 L 104.881563 71.191219 L 104.897188 71.382625 L 104.912813 71.577938 L 104.944063 71.96075 L 104.963594 72.152156 L 104.979219 72.347469 L 105.037813 72.921688 L 105.057344 73.081844 L 105.06125 73.117 L 105.084688 73.308406 L 105.104219 73.499813 L 105.131563 73.695125 L 105.178438 74.077938 L 105.205781 74.269344 L 105.233125 74.464656 L 105.315156 75.038875 L 105.346406 75.234188 M 115.615938 41.363094 L 115.514375 41.367 L 115.03 41.39825 L 114.444063 41.527156 L 114.350313 41.562313 L 113.858125 41.745906 L 113.8425 41.753719 L 113.479219 41.945125 L 113.268281 42.058406 L 113.151094 42.136531 L 112.869844 42.331844 L 112.682344 42.46075 L 112.608125 42.52325 L 112.155 42.906063 L 112.096406 42.956844 L 111.760469 43.292781 L 111.572969 43.484188 L 111.510469 43.550594 L 111.401094 43.675594 L 111.237031 43.870906 L 111.072969 44.062313 L 110.924531 44.242 L 110.912813 44.253719 L 110.772188 44.445125 L 110.627656 44.640438 L 110.346406 45.02325 L 110.338594 45.038875 L 110.221406 45.214656 L 110.096406 45.409969 L 109.971406 45.601375 L 109.850313 45.792781 L 109.74875 45.949031 L 109.729219 45.984188 L 109.615938 46.1795 L 109.397188 46.562313 L 109.291719 46.757625 L 109.182344 46.949031 L 109.162813 46.984188 L 109.080781 47.140438 L 108.983125 47.331844 L 108.885469 47.527156 L 108.791719 47.718563 L 108.694063 47.909969 L 108.600313 48.101375 L 108.576875 48.152156 L 108.514375 48.296688 L 108.424531 48.488094 L 108.252656 48.870906 L 108.170625 49.066219 L 108.006563 49.449031 L 107.990938 49.484188 L 107.850313 49.83575 L 107.627656 50.409969 L 107.553438 50.605281 L 107.479219 50.796688 L 107.408906 50.988094 L 107.405 51.003719 L 107.3425 51.1795 L 107.276094 51.374813 L 107.143281 51.757625 L 107.080781 51.949031 L 107.018281 52.144344 L 106.830781 52.718563 L 106.815156 52.769344 L 106.776094 52.913875 L 106.7175 53.105281 L 106.662813 53.296688 L 106.604219 53.492 L 106.553438 53.683406 L 106.444063 54.066219 L 106.393281 54.261531 L 106.240938 54.83575 L 106.229219 54.874813 L 106.194063 55.031063 L 106.053438 55.605281 L 106.010469 55.800594 L 105.881563 56.374813 L 105.838594 56.570125 L 105.760469 56.952938 M 57.389375 44.062313 L 57.225313 43.870906 L 57.06125 43.675594 L 56.951875 43.550594 L 56.889375 43.484188 L 56.701875 43.292781 L 56.365938 42.956844 L 56.307344 42.906063 L 56.084688 42.714656 L 55.854219 42.52325 L 55.78 42.46075 L 55.5925 42.331844 L 55.31125 42.136531 L 55.194063 42.058406 L 54.983125 41.945125 L 54.619844 41.753719 L 54.608125 41.745906 L 54.112031 41.562313 L 54.018281 41.527156 L 53.432344 41.39825 L 52.951875 41.367 L 52.846406 41.363094 M 63.358125 60.995906 L 63.334688 60.800594 L 63.307344 60.609188 L 63.283906 60.417781 L 63.256563 60.226375 L 63.233125 60.031063 L 63.205781 59.839656 L 63.174531 59.64825 L 63.147188 59.452938 L 63.115938 59.261531 L 63.088594 59.070125 L 63.057344 58.878719 L 63.026094 58.683406 L 62.990938 58.492 L 62.959688 58.300594 L 62.924531 58.109188 L 62.889375 57.913875 L 62.819063 57.531063 L 62.819063 57.527156 L 62.783906 57.339656 L 62.744844 57.144344 L 62.705781 56.952938 L 62.662813 56.761531 L 62.62375 56.570125 L 62.580781 56.374813 L 62.451875 55.800594 L 62.408906 55.605281 L 62.362031 55.413875 L 62.319063 55.222469 L 62.272188 55.031063 L 62.233125 54.874813 L 62.221406 54.83575 L 62.174531 54.644344 L 62.12375 54.452938 L 62.069063 54.261531 L 62.018281 54.066219 L 61.963594 53.874813 L 61.912813 53.683406 L 61.858125 53.492 L 61.803438 53.296688 L 61.744844 53.105281 L 61.690156 52.913875 L 61.647188 52.769344 L 61.631563 52.718563 L 61.444063 52.144344 L 61.381563 51.949031 L 61.319063 51.757625 L 61.18625 51.374813 L 61.119844 51.1795 L 61.06125 51.003719 L 61.053438 50.988094 L 60.983125 50.796688 L 60.908906 50.605281 L 60.838594 50.409969 L 60.690156 50.027156 L 60.612031 49.83575 L 60.537813 49.640438 L 60.471406 49.484188 L 60.459688 49.449031 L 60.377656 49.257625 L 60.291719 49.066219 L 60.209688 48.870906 L 59.951875 48.296688 L 59.885469 48.152156 L 59.862031 48.101375 L 59.768281 47.909969 L 59.670625 47.718563 L 59.576875 47.527156 L 59.479219 47.331844 L 59.381563 47.140438 L 59.299531 46.984188 L 59.28 46.949031 L 59.174531 46.757625 L 59.065156 46.562313 L 58.846406 46.1795 L 58.733125 45.984188 L 58.713594 45.949031 L 58.615938 45.792781 L 58.365938 45.409969 L 58.240938 45.214656 L 58.127656 45.038875 L 58.115938 45.02325 L 57.834688 44.640438 L 57.694063 44.445125 L 57.549531 44.253719 L 57.537813 44.242 L 57.389375 44.062313 M 62.319063 79.27325 L 62.362031 79.081844 L 62.408906 78.886531 L 62.537813 78.312313 L 62.580781 78.117 L 62.62375 77.925594 L 62.662813 77.734188 L 62.705781 77.542781 L 62.744844 77.347469 L 62.783906 77.156063 L 62.819063 76.968563 L 62.819063 76.964656 L 62.854219 76.77325 L 62.889375 76.577938 L 62.959688 76.195125 L 62.990938 76.003719 L 63.026094 75.808406 L 63.088594 75.425594 L 63.115938 75.234188 L 63.147188 75.038875 L 63.174531 74.847469 L 63.205781 74.656063 L 63.233125 74.464656 L 63.256563 74.269344 L 63.283906 74.077938 L 63.307344 73.886531 L 63.334688 73.695125 L 63.358125 73.499813 L 63.381563 73.308406 L 63.401094 73.117 L 63.405 73.081844 L 63.424531 72.921688 L 63.483125 72.347469 L 63.49875 72.152156 L 63.518281 71.96075 L 63.549531 71.577938 L 63.565156 71.382625 L 63.596406 70.999813 L 63.608125 70.808406 L 63.619844 70.613094 L 63.655 70.038875 L 63.662813 69.843563 L 63.674531 69.652156 L 63.690156 69.269344 L 63.697969 69.074031 L 63.701875 68.882625 L 63.709688 68.691219 L 63.713594 68.499813 L 63.7175 68.3045 L 63.725313 67.921688 L 63.725313 67.730281 L 63.729219 67.534969 L 63.729219 66.96075 L 63.725313 66.765438 L 63.725313 66.574031 L 63.721406 66.382625 L 63.7175 66.187313 L 63.709688 65.8045 L 63.701875 65.613094 L 63.697969 65.417781 L 63.674531 64.843563 L 63.662813 64.64825 L 63.655 64.456844 L 63.631563 64.074031 L 63.619844 63.878719 L 63.596406 63.495906 L 63.580781 63.3045 L 63.565156 63.109188 L 63.518281 62.534969 L 63.49875 62.339656 L 63.483125 62.14825 L 63.444063 61.765438 L 63.424531 61.570125 L 63.405 61.409969 L 63.401094 61.378719 L 63.381563 61.187313 L 63.358125 60.995906 M 50.49875 92.312313 L 50.569063 92.355281 L 50.889375 92.550594 L 51.084688 92.667781 L 51.256563 92.742 L 51.674531 92.921688 L 51.721406 92.933406 L 52.260469 93.074031 L 52.78 93.124813 L 52.846406 93.132625 L 52.951875 93.124813 L 53.432344 93.097469 L 54.018281 92.968563 L 54.112031 92.933406 L 54.608125 92.749813 L 54.619844 92.742 L 54.983125 92.550594 L 55.194063 92.437313 L 55.31125 92.355281 L 55.5925 92.163875 L 55.78 92.034969 L 55.854219 91.972469 L 56.084688 91.781063 L 56.307344 91.58575 L 56.365938 91.538875 L 56.701875 91.202938 L 56.889375 91.011531 L 56.951875 90.945125 L 57.06125 90.816219 L 57.389375 90.433406 L 57.537813 90.253719 L 57.549531 90.242 L 57.694063 90.046688 L 58.115938 89.472469 L 58.127656 89.456844 L 58.240938 89.277156 L 58.615938 88.702938 L 58.713594 88.546688 L 58.733125 88.507625 L 58.846406 88.316219 L 59.065156 87.933406 L 59.174531 87.738094 L 59.28 87.546688 L 59.299531 87.511531 L 59.381563 87.355281 L 59.479219 87.163875 L 59.576875 86.968563 L 59.670625 86.777156 L 59.768281 86.58575 L 59.862031 86.390438 L 59.885469 86.339656 L 59.951875 86.199031 L 60.12375 85.816219 L 60.209688 85.620906 L 60.291719 85.4295 L 60.377656 85.238094 L 60.459688 85.046688 L 60.471406 85.011531 L 60.537813 84.851375 L 60.612031 84.659969 L 60.690156 84.468563 L 60.764375 84.277156 L 60.838594 84.081844 L 60.908906 83.890438 L 60.983125 83.699031 L 61.053438 83.507625 L 61.06125 83.492 L 61.119844 83.312313 L 61.319063 82.738094 L 61.381563 82.542781 L 61.569063 81.968563 L 61.631563 81.77325 L 61.647188 81.722469 L 61.690156 81.581844 L 61.744844 81.390438 L 61.803438 81.199031 L 61.858125 81.003719 L 61.912813 80.812313 L 61.963594 80.620906 L 62.018281 80.4295 L 62.069063 80.234188 L 62.12375 80.042781 L 62.174531 79.851375 L 62.221406 79.656063 L 62.233125 79.620906 L 62.272188 79.464656 L 62.319063 79.27325 M 43.768281 75.617 L 43.795625 75.808406 L 43.822969 76.003719 L 43.846406 76.195125 L 43.87375 76.386531 L 43.905 76.577938 L 43.932344 76.77325 L 43.959688 76.964656 L 44.022188 77.347469 L 44.045625 77.507625 L 44.053438 77.542781 L 44.084688 77.734188 L 44.155 78.117 L 44.190156 78.312313 L 44.260469 78.695125 L 44.299531 78.886531 L 44.334688 79.081844 L 44.451875 79.656063 L 44.490938 79.851375 L 44.533906 80.042781 L 44.572969 80.234188 L 44.615938 80.4295 L 44.635469 80.503719 L 44.658906 80.620906 L 44.752656 81.003719 L 44.799531 81.199031 L 44.846406 81.390438 L 44.897188 81.581844 L 44.944063 81.77325 L 44.994844 81.968563 L 45.147188 82.542781 L 45.201875 82.738094 L 45.221406 82.808406 L 45.256563 82.9295 L 45.31125 83.120906 L 45.369844 83.312313 L 45.428438 83.507625 L 45.490938 83.699031 L 45.549531 83.890438 L 45.612031 84.081844 L 45.670625 84.277156 L 45.795625 84.659969 L 45.807344 84.687313 L 45.865938 84.851375 L 45.93625 85.046688 L 46.147188 85.620906 L 46.221406 85.816219 L 46.291719 86.007625 L 46.365938 86.199031 L 46.393281 86.265438 L 46.447969 86.390438 L 46.53 86.58575 L 46.694063 86.968563 L 46.78 87.163875 L 46.951875 87.546688 L 46.979219 87.609188 L 47.045625 87.738094 L 47.143281 87.933406 L 47.237031 88.124813 L 47.338594 88.316219 L 47.43625 88.507625 L 47.537813 88.702938 L 47.565156 88.757625 L 47.647188 88.894344 L 47.87375 89.277156 L 47.990938 89.472469 L 48.108125 89.663875 L 48.155 89.738094 L 48.233125 89.855281 L 48.369844 90.046688 L 48.502656 90.242 L 48.639375 90.433406 L 48.740938 90.574031 L 48.783906 90.624813 L 48.944063 90.816219 L 49.104219 91.011531 L 49.268281 91.202938 L 49.326875 91.27325 L 49.447969 91.394344 L 49.643281 91.58575 L 49.8425 91.781063 L 49.912813 91.851375 L 50.065156 91.972469 L 50.31125 92.163875 L 50.49875 92.312313 M 44.022188 57.144344 L 43.990938 57.339656 L 43.959688 57.531063 L 43.905 57.913875 L 43.87375 58.109188 L 43.846406 58.300594 L 43.822969 58.492 L 43.795625 58.683406 L 43.768281 58.878719 L 43.721406 59.261531 L 43.694063 59.452938 L 43.670625 59.64825 L 43.651094 59.839656 L 43.627656 60.031063 L 43.604219 60.226375 L 43.545625 60.800594 L 43.526094 60.995906 L 43.487031 61.378719 L 43.471406 61.570125 L 43.459688 61.687313 L 43.455781 61.765438 L 43.408906 62.339656 L 43.393281 62.534969 L 43.358125 63.109188 L 43.346406 63.3045 L 43.31125 63.878719 L 43.303438 64.074031 L 43.28 64.64825 L 43.272188 64.843563 L 43.256563 65.226375 L 43.252656 65.417781 L 43.24875 65.613094 L 43.237031 66.187313 L 43.233125 66.382625 L 43.233125 66.574031 L 43.229219 66.765438 L 43.229219 67.730281 L 43.233125 67.921688 L 43.233125 68.113094 L 43.237031 68.3045 L 43.240938 68.499813 L 43.252656 69.074031 L 43.256563 69.269344 L 43.28 69.843563 L 43.287813 70.038875 L 43.31125 70.613094 L 43.322969 70.808406 L 43.358125 71.382625 L 43.369844 71.577938 L 43.393281 71.96075 L 43.408906 72.152156 L 43.424531 72.347469 L 43.455781 72.730281 L 43.459688 72.8045 L 43.471406 72.921688 L 43.487031 73.117 L 43.526094 73.499813 L 43.545625 73.695125 L 43.604219 74.269344 L 43.627656 74.464656 L 43.651094 74.656063 L 43.670625 74.847469 L 43.694063 75.038875 L 43.721406 75.234188 L 43.768281 75.617 M 52.846406 41.363094 L 52.78 41.367 L 52.260469 41.417781 L 51.721406 41.562313 L 51.674531 41.574031 L 51.256563 41.753719 L 51.084688 41.824031 L 50.889375 41.945125 L 50.569063 42.136531 L 50.49875 42.1795 L 50.31125 42.331844 L 50.065156 42.52325 L 49.912813 42.644344 L 49.8425 42.714656 L 49.643281 42.906063 L 49.326875 43.222469 L 49.268281 43.292781 L 49.104219 43.484188 L 48.944063 43.675594 L 48.783906 43.870906 L 48.740938 43.921688 L 48.639375 44.062313 L 48.502656 44.253719 L 48.369844 44.445125 L 48.233125 44.640438 L 48.155 44.757625 L 48.108125 44.831844 L 47.87375 45.214656 L 47.760469 45.409969 L 47.647188 45.601375 L 47.565156 45.738094 L 47.537813 45.792781 L 47.43625 45.984188 L 47.338594 46.1795 L 47.237031 46.370906 L 47.143281 46.562313 L 47.045625 46.757625 L 46.979219 46.886531 L 46.951875 46.949031 L 46.78 47.331844 L 46.694063 47.527156 L 46.447969 48.101375 L 46.393281 48.226375 L 46.365938 48.296688 L 46.291719 48.488094 L 46.221406 48.6795 L 46.147188 48.870906 L 46.076875 49.066219 L 45.865938 49.640438 L 45.807344 49.8045 L 45.795625 49.83575 L 45.670625 50.218563 L 45.612031 50.409969 L 45.549531 50.605281 L 45.490938 50.796688 L 45.428438 50.988094 L 45.369844 51.1795 L 45.31125 51.374813 L 45.256563 51.566219 L 45.221406 51.687313 L 45.201875 51.757625 L 45.147188 51.949031 L 45.096406 52.144344 L 44.944063 52.718563 L 44.897188 52.913875 L 44.846406 53.105281 L 44.799531 53.296688 L 44.752656 53.492 L 44.658906 53.874813 L 44.635469 53.988094 L 44.615938 54.066219 L 44.572969 54.261531 L 44.533906 54.452938 L 44.490938 54.644344 L 44.451875 54.83575 L 44.412813 55.031063 L 44.334688 55.413875 L 44.299531 55.605281 L 44.260469 55.800594 L 44.155 56.374813 L 44.119844 56.570125 L 44.084688 56.761531 L 44.053438 56.952938 L 44.045625 56.988094 L 44.022188 57.144344 M 150.322969 128.722469 L 150.3425 128.913875 L 150.362031 129.109188 L 150.420625 129.683406 L 150.440156 129.878719 L 150.463594 130.070125 L 150.502656 130.452938 L 150.522188 130.64825 L 150.541719 130.839656 L 150.565156 131.031063 L 150.584688 131.222469 L 150.604219 131.417781 L 150.62375 131.609188 L 150.647188 131.800594 L 150.666719 131.992 L 150.68625 132.187313 L 150.709688 132.378719 L 150.74875 132.761531 L 150.772188 132.956844 L 150.791719 133.14825 L 150.815156 133.339656 L 150.815156 133.351375 L 150.834688 133.531063 L 150.854219 133.726375 L 150.912813 134.300594 L 150.932344 134.495906 M 148.455781 110.636531 L 148.4675 110.745906 L 148.475313 110.827938 L 148.494844 111.019344 L 148.514375 111.214656 L 148.53 111.406063 L 148.569063 111.788875 L 148.588594 111.984188 L 148.604219 112.175594 L 148.643281 112.558406 L 148.662813 112.753719 L 148.721406 113.327938 L 148.740938 113.52325 L 148.799531 114.097469 L 148.819063 114.292781 L 148.858125 114.675594 L 148.877656 114.870906 L 148.916719 115.253719 L 148.940156 115.445125 L 148.959688 115.640438 L 149.018281 116.214656 L 149.041719 116.409969 L 149.053438 116.542781 L 149.06125 116.601375 L 149.100313 116.984188 L 149.115938 117.1795 L 149.174531 117.753719 L 149.194063 117.949031 L 149.252656 118.52325 L 149.272188 118.718563 L 149.330781 119.292781 L 149.350313 119.488094 L 149.37375 119.6795 L 149.412813 120.062313 L 149.432344 120.257625 L 149.471406 120.640438 L 149.494844 120.831844 L 149.514375 121.027156 L 149.533906 121.218563 L 149.557344 121.409969 L 149.576875 121.605281 L 149.615938 121.988094 L 149.639375 122.1795 L 149.643281 122.202938 L 149.658906 122.374813 L 149.7175 122.949031 L 149.737031 123.144344 L 149.795625 123.718563 L 149.815156 123.913875 L 149.87375 124.488094 L 149.893281 124.683406 L 149.912813 124.874813 L 149.93625 125.066219 L 149.955781 125.257625 L 149.975313 125.452938 L 150.014375 125.83575 L 150.037813 126.027156 L 150.057344 126.222469 L 150.076875 126.413875 L 150.100313 126.605281 L 150.119844 126.796688 L 150.139375 126.992 L 150.162813 127.183406 L 150.201875 127.566219 L 150.225313 127.761531 L 150.229219 127.792781 L 150.244844 127.952938 L 150.264375 128.144344 L 150.283906 128.339656 L 150.322969 128.722469 M 146.791719 92.163875 L 146.803438 92.355281 L 146.819063 92.550594 L 146.834688 92.742 L 146.846406 92.933406 L 146.862031 93.124813 L 146.877656 93.320125 L 146.893281 93.511531 L 146.905 93.702938 L 146.920625 93.89825 L 146.9675 94.472469 L 146.983125 94.667781 L 147.03 95.242 L 147.045625 95.437313 L 147.076875 95.820125 L 147.096406 96.011531 L 147.112031 96.206844 L 147.143281 96.589656 L 147.162813 96.781063 L 147.178438 96.976375 L 147.194063 97.167781 L 147.213594 97.359188 L 147.229219 97.550594 L 147.244844 97.745906 L 147.264375 97.937313 L 147.28 98.128719 L 147.295625 98.27325 L 147.299531 98.320125 L 147.315156 98.515438 L 147.362031 99.089656 L 147.377656 99.284969 L 147.397188 99.476375 L 147.428438 99.859188 L 147.444063 100.0545 L 147.463594 100.245906 L 147.479219 100.437313 L 147.494844 100.632625 L 147.514375 100.824031 L 147.53 101.015438 L 147.549531 101.206844 L 147.565156 101.402156 L 147.584688 101.593563 L 147.600313 101.784969 L 147.619844 101.976375 L 147.635469 102.171688 L 147.655 102.363094 L 147.670625 102.5545 L 147.690156 102.745906 L 147.709688 102.941219 L 147.725313 103.132625 L 147.764375 103.515438 L 147.783906 103.71075 L 147.799531 103.902156 L 147.838594 104.284969 L 147.858125 104.480281 L 147.877656 104.671688 L 147.881563 104.718563 L 147.893281 104.863094 L 147.912813 105.0545 L 147.928438 105.249813 L 147.947969 105.441219 L 147.963594 105.632625 L 147.983125 105.824031 L 147.99875 106.019344 L 148.037813 106.402156 L 148.053438 106.593563 L 148.072969 106.788875 L 148.0925 106.980281 L 148.108125 107.171688 L 148.127656 107.367 L 148.18625 107.941219 L 148.201875 108.136531 L 148.260469 108.71075 L 148.28 108.906063 L 148.338594 109.480281 L 148.358125 109.675594 L 148.416719 110.249813 L 148.43625 110.445125 L 148.455781 110.636531 M 145.807344 73.695125 L 145.815156 73.886531 L 145.822969 74.269344 L 145.826875 74.464656 L 145.834688 74.656063 L 145.838594 74.847469 L 145.846406 75.038875 L 145.850313 75.234188 L 145.854219 75.425594 L 145.869844 75.808406 L 145.87375 76.003719 L 145.881563 76.195125 L 145.885469 76.386531 L 145.893281 76.577938 L 145.901094 76.77325 L 145.908906 76.964656 L 145.912813 77.156063 L 145.920625 77.347469 L 145.928438 77.542781 L 145.951875 78.117 L 145.959688 78.312313 L 145.983125 78.886531 L 145.990938 79.081844 L 145.99875 79.27325 L 146.010469 79.464656 L 146.018281 79.656063 L 146.026094 79.851375 L 146.033906 80.042781 L 146.045625 80.234188 L 146.053438 80.4295 L 146.065156 80.620906 L 146.072969 80.812313 L 146.084688 81.003719 L 146.0925 81.199031 L 146.104219 81.390438 L 146.112031 81.581844 L 146.119844 81.742 L 146.12375 81.77325 L 146.131563 81.968563 L 146.143281 82.159969 L 146.151094 82.351375 L 146.162813 82.542781 L 146.170625 82.738094 L 146.182344 82.9295 L 146.190156 83.120906 L 146.201875 83.312313 L 146.209688 83.507625 L 146.233125 83.890438 L 146.240938 84.081844 L 146.252656 84.277156 L 146.287813 84.851375 L 146.299531 85.046688 L 146.307344 85.238094 L 146.330781 85.620906 L 146.3425 85.816219 L 146.365938 86.199031 L 146.381563 86.390438 L 146.393281 86.58575 L 146.416719 86.968563 L 146.428438 87.163875 L 146.444063 87.355281 L 146.4675 87.738094 L 146.479219 87.933406 L 146.494844 88.124813 L 146.506563 88.316219 L 146.522188 88.507625 L 146.533906 88.702938 L 146.549531 88.894344 L 146.56125 89.08575 L 146.576875 89.277156 L 146.588594 89.472469 L 146.619844 89.855281 L 146.631563 90.046688 L 146.647188 90.242 L 146.678438 90.624813 L 146.690156 90.816219 L 146.705781 91.011531 L 146.709688 91.027156 L 146.721406 91.202938 L 146.733125 91.394344 L 146.74875 91.58575 L 146.760469 91.781063 L 146.791719 92.163875 M 146.018281 54.83575 L 146.010469 55.031063 L 145.99875 55.222469 L 145.983125 55.605281 L 145.975313 55.800594 L 145.951875 56.374813 L 145.944063 56.570125 L 145.920625 57.144344 L 145.912813 57.339656 L 145.908906 57.531063 L 145.893281 57.913875 L 145.885469 58.109188 L 145.881563 58.300594 L 145.87375 58.492 L 145.869844 58.683406 L 145.862031 58.878719 L 145.854219 59.070125 L 145.846406 59.452938 L 145.838594 59.64825 L 145.834688 59.839656 L 145.826875 60.031063 L 145.822969 60.226375 L 145.815156 60.609188 L 145.807344 60.800594 L 145.803438 60.995906 L 145.791719 61.570125 L 145.787813 61.765438 L 145.776094 62.339656 L 145.772188 62.534969 L 145.768281 62.726375 L 145.768281 62.917781 L 145.764375 63.109188 L 145.760469 63.3045 L 145.756563 63.495906 L 145.756563 63.687313 L 145.752656 63.878719 L 145.74875 64.074031 L 145.74875 64.265438 L 145.744844 64.456844 L 145.744844 64.64825 L 145.740938 64.843563 L 145.740938 65.226375 L 145.737031 65.417781 L 145.737031 65.8045 L 145.733125 65.995906 L 145.733125 68.499813 L 145.737031 68.691219 L 145.737031 69.074031 L 145.740938 69.269344 L 145.740938 69.652156 L 145.744844 69.843563 L 145.744844 70.038875 L 145.74875 70.230281 L 145.74875 70.421688 L 145.752656 70.613094 L 145.756563 70.808406 L 145.756563 70.999813 L 145.764375 71.382625 L 145.768281 71.577938 L 145.768281 71.769344 L 145.776094 72.152156 L 145.78 72.347469 L 145.791719 72.921688 L 145.795625 73.117 L 145.803438 73.499813 L 145.807344 73.695125 M 147.28 36.367 L 147.264375 36.558406 L 147.244844 36.749813 L 147.229219 36.941219 L 147.213594 37.136531 L 147.194063 37.327938 L 147.162813 37.71075 L 147.143281 37.906063 L 147.096406 38.480281 L 147.076875 38.675594 L 147.03 39.249813 L 147.014375 39.445125 L 146.983125 39.827938 L 146.9675 40.02325 L 146.920625 40.597469 L 146.905 40.792781 L 146.893281 40.984188 L 146.862031 41.367 L 146.846406 41.562313 L 146.834688 41.753719 L 146.803438 42.136531 L 146.791719 42.331844 L 146.760469 42.714656 L 146.74875 42.906063 L 146.733125 43.101375 L 146.721406 43.292781 L 146.709688 43.468563 L 146.705781 43.484188 L 146.690156 43.675594 L 146.678438 43.870906 L 146.631563 44.445125 L 146.619844 44.640438 L 146.588594 45.02325 L 146.576875 45.214656 L 146.56125 45.409969 L 146.549531 45.601375 L 146.533906 45.792781 L 146.522188 45.984188 L 146.506563 46.1795 L 146.494844 46.370906 L 146.479219 46.562313 L 146.4675 46.757625 L 146.444063 47.140438 L 146.428438 47.331844 L 146.416719 47.527156 L 146.381563 48.101375 L 146.365938 48.296688 L 146.330781 48.870906 L 146.319063 49.066219 L 146.307344 49.257625 L 146.299531 49.449031 L 146.287813 49.640438 L 146.276094 49.83575 L 146.240938 50.409969 L 146.233125 50.605281 L 146.209688 50.988094 L 146.201875 51.1795 L 146.190156 51.374813 L 146.182344 51.566219 L 146.170625 51.757625 L 146.162813 51.949031 L 146.151094 52.144344 L 146.143281 52.33575 L 146.131563 52.527156 L 146.12375 52.718563 L 146.119844 52.753719 L 146.112031 52.913875 L 146.104219 53.105281 L 146.0925 53.296688 L 146.084688 53.492 L 146.072969 53.683406 L 146.065156 53.874813 L 146.053438 54.066219 L 146.045625 54.261531 L 146.033906 54.452938 L 146.018281 54.83575 M 149.041719 18.08575 L 149.018281 18.277156 L 148.99875 18.472469 L 148.940156 19.046688 L 148.916719 19.242 L 148.877656 19.624813 L 148.858125 19.820125 L 148.799531 20.394344 L 148.78 20.589656 L 148.721406 21.163875 L 148.701875 21.359188 L 148.643281 21.933406 L 148.62375 22.128719 L 148.604219 22.320125 L 148.588594 22.511531 L 148.569063 22.702938 L 148.549531 22.89825 L 148.53 23.089656 L 148.514375 23.281063 L 148.494844 23.472469 L 148.475313 23.667781 L 148.4675 23.749813 L 148.455781 23.859188 L 148.416719 24.242 L 148.397188 24.437313 L 148.338594 25.011531 L 148.319063 25.206844 L 148.260469 25.781063 L 148.240938 25.976375 L 148.201875 26.359188 L 148.18625 26.5545 L 148.127656 27.128719 L 148.108125 27.324031 L 148.0925 27.515438 L 148.053438 27.89825 L 148.037813 28.093563 L 147.99875 28.476375 L 147.983125 28.667781 L 147.963594 28.863094 L 147.947969 29.0545 L 147.928438 29.245906 L 147.912813 29.437313 L 147.893281 29.632625 L 147.881563 29.777156 L 147.877656 29.824031 L 147.838594 30.206844 L 147.819063 30.402156 L 147.799531 30.593563 L 147.783906 30.784969 L 147.764375 30.976375 L 147.744844 31.171688 L 147.725313 31.363094 L 147.709688 31.5545 L 147.690156 31.745906 L 147.670625 31.941219 L 147.655 32.132625 L 147.635469 32.324031 L 147.619844 32.515438 L 147.600313 32.71075 L 147.584688 32.902156 L 147.565156 33.093563 L 147.549531 33.288875 L 147.53 33.480281 L 147.514375 33.671688 L 147.494844 33.863094 L 147.479219 34.058406 L 147.463594 34.249813 L 147.444063 34.441219 L 147.428438 34.632625 L 147.412813 34.827938 L 147.397188 35.019344 L 147.377656 35.21075 L 147.362031 35.402156 L 147.346406 35.597469 L 147.299531 36.171688 L 147.295625 36.222469 L 147.28 36.367 M 150.932344 -0.0001875 L 150.912813 0.191219 L 150.893281 0.386531 L 150.834688 0.96075 L 150.815156 1.144344 L 150.815156 1.156063 L 150.791719 1.347469 L 150.772188 1.538875 L 150.74875 1.730281 L 150.729219 1.925594 L 150.709688 2.117 L 150.68625 2.308406 L 150.666719 2.499813 L 150.647188 2.695125 L 150.62375 2.886531 L 150.584688 3.269344 L 150.565156 3.464656 L 150.541719 3.656063 L 150.502656 4.038875 L 150.483125 4.234188 L 150.463594 4.425594 L 150.440156 4.617 L 150.420625 4.808406 L 150.401094 5.003719 L 150.3425 5.577938 L 150.322969 5.77325 L 150.283906 6.156063 L 150.264375 6.351375 L 150.244844 6.542781 L 150.229219 6.702938 L 150.225313 6.734188 L 150.201875 6.925594 L 150.182344 7.120906 L 150.162813 7.312313 L 150.139375 7.503719 L 150.119844 7.695125 L 150.100313 7.890438 L 150.076875 8.081844 L 150.037813 8.464656 L 150.014375 8.659969 L 149.955781 9.234188 L 149.93625 9.4295 L 149.912813 9.620906 L 149.87375 10.003719 L 149.854219 10.199031 L 149.795625 10.77325 L 149.776094 10.968563 L 149.7175 11.542781 L 149.697969 11.738094 L 149.658906 12.120906 L 149.643281 12.292781 L 149.639375 12.316219 L 149.615938 12.507625 L 149.576875 12.890438 L 149.557344 13.08575 L 149.533906 13.277156 L 149.494844 13.659969 L 149.471406 13.855281 L 149.412813 14.4295 L 149.393281 14.624813 L 149.37375 14.816219 L 149.350313 15.007625 L 149.330781 15.199031 L 149.31125 15.394344 L 149.252656 15.968563 L 149.233125 16.163875 L 149.174531 16.738094 L 149.155 16.933406 L 149.115938 17.316219 L 149.100313 17.507625 L 149.080781 17.702938 L 149.06125 17.894344 L 149.053438 17.952938 L 149.041719 18.08575 M 18.139375 128.722469 L 18.119844 128.913875 L 18.100313 129.109188 L 18.041719 129.683406 L 18.022188 129.878719 L 18.002656 130.070125 L 17.979219 130.261531 L 17.959688 130.452938 L 17.940156 130.64825 L 17.901094 131.031063 L 17.877656 131.222469 L 17.858125 131.417781 L 17.819063 131.800594 L 17.795625 131.992 L 17.776094 132.187313 L 17.756563 132.378719 L 17.733125 132.570125 L 17.713594 132.761531 L 17.690156 132.956844 L 17.651094 133.339656 L 17.647188 133.351375 L 17.631563 133.531063 L 17.612031 133.726375 L 17.572969 134.109188 L 17.549531 134.300594 L 17.53 134.495906 M 20.006563 110.636531 L 19.994844 110.745906 L 19.987031 110.827938 L 19.9675 111.019344 L 19.951875 111.214656 L 19.893281 111.788875 L 19.877656 111.984188 L 19.819063 112.558406 L 19.799531 112.753719 L 19.740938 113.327938 L 19.721406 113.52325 L 19.662813 114.097469 L 19.643281 114.292781 L 19.604219 114.675594 L 19.584688 114.870906 L 19.526094 115.445125 L 19.502656 115.640438 L 19.444063 116.214656 L 19.424531 116.409969 L 19.408906 116.542781 L 19.401094 116.601375 L 19.385469 116.792781 L 19.365938 116.984188 L 19.346406 117.1795 L 19.287813 117.753719 L 19.268281 117.949031 L 19.209688 118.52325 L 19.190156 118.718563 L 19.131563 119.292781 L 19.112031 119.488094 L 19.0925 119.6795 L 19.069063 119.870906 L 19.049531 120.062313 L 19.03 120.257625 L 18.990938 120.640438 L 18.9675 120.831844 L 18.947969 121.027156 L 18.908906 121.409969 L 18.885469 121.605281 L 18.846406 121.988094 L 18.822969 122.1795 L 18.822969 122.202938 L 18.803438 122.374813 L 18.744844 122.949031 L 18.725313 123.144344 L 18.666719 123.718563 L 18.647188 123.913875 L 18.588594 124.488094 L 18.569063 124.683406 L 18.53 125.066219 L 18.506563 125.257625 L 18.487031 125.452938 L 18.447969 125.83575 L 18.424531 126.027156 L 18.405 126.222469 L 18.365938 126.605281 L 18.3425 126.796688 L 18.322969 126.992 L 18.303438 127.183406 L 18.28 127.374813 L 18.260469 127.566219 L 18.237031 127.761531 L 18.233125 127.792781 L 18.2175 127.952938 L 18.197969 128.144344 L 18.178438 128.339656 L 18.139375 128.722469 M 21.674531 92.163875 L 21.658906 92.355281 L 21.643281 92.550594 L 21.631563 92.742 L 21.600313 93.124813 L 21.584688 93.320125 L 21.572969 93.511531 L 21.557344 93.702938 L 21.541719 93.89825 L 21.494844 94.472469 L 21.479219 94.667781 L 21.432344 95.242 L 21.416719 95.437313 L 21.369844 96.011531 L 21.350313 96.206844 L 21.303438 96.781063 L 21.283906 96.976375 L 21.252656 97.359188 L 21.233125 97.550594 L 21.2175 97.745906 L 21.197969 97.937313 L 21.182344 98.128719 L 21.166719 98.27325 L 21.162813 98.320125 L 21.147188 98.515438 L 21.100313 99.089656 L 21.084688 99.284969 L 21.069063 99.476375 L 21.049531 99.667781 L 21.033906 99.859188 L 21.018281 100.0545 L 20.99875 100.245906 L 20.983125 100.437313 L 20.9675 100.632625 L 20.947969 100.824031 L 20.916719 101.206844 L 20.897188 101.402156 L 20.881563 101.593563 L 20.862031 101.784969 L 20.846406 101.976375 L 20.826875 102.171688 L 20.807344 102.363094 L 20.791719 102.5545 L 20.772188 102.745906 L 20.752656 102.941219 L 20.737031 103.132625 L 20.697969 103.515438 L 20.682344 103.71075 L 20.62375 104.284969 L 20.604219 104.480281 L 20.584688 104.671688 L 20.580781 104.718563 L 20.569063 104.863094 L 20.549531 105.0545 L 20.533906 105.249813 L 20.514375 105.441219 L 20.49875 105.632625 L 20.479219 105.824031 L 20.463594 106.019344 L 20.424531 106.402156 L 20.408906 106.593563 L 20.389375 106.788875 L 20.369844 106.980281 L 20.354219 107.171688 L 20.334688 107.367 L 20.295625 107.749813 L 20.28 107.941219 L 20.260469 108.136531 L 20.201875 108.71075 L 20.182344 108.906063 L 20.12375 109.480281 L 20.104219 109.675594 L 20.045625 110.249813 L 20.026094 110.445125 L 20.006563 110.636531 M 22.655 73.695125 L 22.651094 73.886531 L 22.643281 74.077938 L 22.639375 74.269344 L 22.635469 74.464656 L 22.627656 74.656063 L 22.619844 75.038875 L 22.612031 75.234188 L 22.608125 75.425594 L 22.600313 75.617 L 22.596406 75.808406 L 22.588594 76.003719 L 22.580781 76.195125 L 22.576875 76.386531 L 22.569063 76.577938 L 22.56125 76.77325 L 22.557344 76.964656 L 22.541719 77.347469 L 22.533906 77.542781 L 22.510469 78.117 L 22.502656 78.312313 L 22.479219 78.886531 L 22.471406 79.081844 L 22.455781 79.464656 L 22.444063 79.656063 L 22.43625 79.851375 L 22.428438 80.042781 L 22.416719 80.234188 L 22.408906 80.4295 L 22.401094 80.620906 L 22.389375 80.812313 L 22.381563 81.003719 L 22.369844 81.199031 L 22.362031 81.390438 L 22.350313 81.581844 L 22.3425 81.742 L 22.338594 81.77325 L 22.330781 81.968563 L 22.322969 82.159969 L 22.31125 82.351375 L 22.303438 82.542781 L 22.291719 82.738094 L 22.283906 82.9295 L 22.260469 83.312313 L 22.252656 83.507625 L 22.229219 83.890438 L 22.221406 84.081844 L 22.209688 84.277156 L 22.18625 84.659969 L 22.178438 84.851375 L 22.166719 85.046688 L 22.131563 85.620906 L 22.119844 85.816219 L 22.084688 86.390438 L 22.072969 86.58575 L 22.057344 86.777156 L 22.045625 86.968563 L 22.033906 87.163875 L 22.022188 87.355281 L 22.006563 87.546688 L 21.994844 87.738094 L 21.983125 87.933406 L 21.9675 88.124813 L 21.944063 88.507625 L 21.928438 88.702938 L 21.916719 88.894344 L 21.885469 89.277156 L 21.87375 89.472469 L 21.858125 89.663875 L 21.846406 89.855281 L 21.830781 90.046688 L 21.815156 90.242 L 21.799531 90.433406 L 21.787813 90.624813 L 21.772188 90.816219 L 21.756563 91.011531 L 21.756563 91.027156 L 21.740938 91.202938 L 21.729219 91.394344 L 21.713594 91.58575 L 21.701875 91.781063 L 21.68625 91.972469 L 21.674531 92.163875 M 22.444063 54.83575 L 22.455781 55.031063 L 22.479219 55.605281 L 22.487031 55.800594 L 22.510469 56.374813 L 22.518281 56.570125 L 22.541719 57.144344 L 22.549531 57.339656 L 22.557344 57.531063 L 22.56125 57.722469 L 22.569063 57.913875 L 22.576875 58.109188 L 22.580781 58.300594 L 22.596406 58.683406 L 22.600313 58.878719 L 22.608125 59.070125 L 22.612031 59.261531 L 22.619844 59.452938 L 22.62375 59.64825 L 22.627656 59.839656 L 22.635469 60.031063 L 22.639375 60.226375 L 22.643281 60.417781 L 22.651094 60.609188 L 22.655 60.800594 L 22.658906 60.995906 L 22.670625 61.570125 L 22.674531 61.765438 L 22.68625 62.339656 L 22.690156 62.534969 L 22.697969 62.917781 L 22.697969 63.109188 L 22.701875 63.3045 L 22.705781 63.495906 L 22.705781 63.687313 L 22.709688 63.878719 L 22.713594 64.074031 L 22.713594 64.265438 L 22.7175 64.456844 L 22.7175 64.64825 L 22.721406 64.843563 L 22.721406 65.034969 L 22.725313 65.226375 L 22.725313 65.8045 L 22.729219 65.995906 L 22.729219 68.499813 L 22.725313 68.691219 L 22.725313 69.269344 L 22.721406 69.46075 L 22.721406 69.652156 L 22.7175 69.843563 L 22.7175 70.038875 L 22.713594 70.230281 L 22.713594 70.421688 L 22.709688 70.613094 L 22.705781 70.808406 L 22.705781 70.999813 L 22.697969 71.382625 L 22.697969 71.577938 L 22.68625 72.152156 L 22.682344 72.347469 L 22.670625 72.921688 L 22.666719 73.117 L 22.658906 73.499813 L 22.655 73.695125 M 21.182344 36.367 L 21.197969 36.558406 L 21.2175 36.749813 L 21.233125 36.941219 L 21.252656 37.136531 L 21.283906 37.519344 L 21.303438 37.71075 L 21.319063 37.906063 L 21.350313 38.288875 L 21.369844 38.480281 L 21.385469 38.675594 L 21.432344 39.249813 L 21.447969 39.445125 L 21.479219 39.827938 L 21.494844 40.02325 L 21.541719 40.597469 L 21.557344 40.792781 L 21.572969 40.984188 L 21.584688 41.175594 L 21.600313 41.367 L 21.615938 41.562313 L 21.631563 41.753719 L 21.643281 41.945125 L 21.658906 42.136531 L 21.674531 42.331844 L 21.68625 42.52325 L 21.701875 42.714656 L 21.713594 42.906063 L 21.729219 43.101375 L 21.740938 43.292781 L 21.756563 43.468563 L 21.756563 43.484188 L 21.772188 43.675594 L 21.787813 43.870906 L 21.799531 44.062313 L 21.830781 44.445125 L 21.846406 44.640438 L 21.858125 44.831844 L 21.87375 45.02325 L 21.885469 45.214656 L 21.901094 45.409969 L 21.916719 45.601375 L 21.928438 45.792781 L 21.944063 45.984188 L 21.955781 46.1795 L 21.9675 46.370906 L 21.983125 46.562313 L 21.994844 46.757625 L 22.006563 46.949031 L 22.022188 47.140438 L 22.033906 47.331844 L 22.045625 47.527156 L 22.057344 47.718563 L 22.072969 47.909969 L 22.084688 48.101375 L 22.096406 48.296688 L 22.131563 48.870906 L 22.143281 49.066219 L 22.178438 49.640438 L 22.18625 49.83575 L 22.221406 50.409969 L 22.229219 50.605281 L 22.252656 50.988094 L 22.260469 51.1795 L 22.272188 51.374813 L 22.283906 51.566219 L 22.291719 51.757625 L 22.303438 51.949031 L 22.31125 52.144344 L 22.322969 52.33575 L 22.338594 52.718563 L 22.3425 52.753719 L 22.350313 52.913875 L 22.362031 53.105281 L 22.369844 53.296688 L 22.381563 53.492 L 22.389375 53.683406 L 22.401094 53.874813 L 22.408906 54.066219 L 22.416719 54.261531 L 22.428438 54.452938 L 22.444063 54.83575 M 19.424531 18.08575 L 19.444063 18.277156 L 19.463594 18.472469 L 19.502656 18.855281 L 19.526094 19.046688 L 19.545625 19.242 L 19.584688 19.624813 L 19.604219 19.820125 L 19.662813 20.394344 L 19.682344 20.589656 L 19.740938 21.163875 L 19.760469 21.359188 L 19.819063 21.933406 L 19.838594 22.128719 L 19.877656 22.511531 L 19.893281 22.702938 L 19.912813 22.89825 L 19.951875 23.281063 L 19.9675 23.472469 L 19.987031 23.667781 L 19.994844 23.749813 L 20.006563 23.859188 L 20.045625 24.242 L 20.065156 24.437313 L 20.12375 25.011531 L 20.143281 25.206844 L 20.201875 25.781063 L 20.221406 25.976375 L 20.260469 26.359188 L 20.28 26.5545 L 20.295625 26.745906 L 20.334688 27.128719 L 20.354219 27.324031 L 20.369844 27.515438 L 20.408906 27.89825 L 20.424531 28.093563 L 20.463594 28.476375 L 20.479219 28.667781 L 20.49875 28.863094 L 20.514375 29.0545 L 20.533906 29.245906 L 20.549531 29.437313 L 20.569063 29.632625 L 20.580781 29.777156 L 20.584688 29.824031 L 20.62375 30.206844 L 20.643281 30.402156 L 20.682344 30.784969 L 20.697969 30.976375 L 20.7175 31.171688 L 20.737031 31.363094 L 20.752656 31.5545 L 20.772188 31.745906 L 20.791719 31.941219 L 20.807344 32.132625 L 20.846406 32.515438 L 20.862031 32.71075 L 20.881563 32.902156 L 20.897188 33.093563 L 20.916719 33.288875 L 20.947969 33.671688 L 20.9675 33.863094 L 20.983125 34.058406 L 20.99875 34.249813 L 21.018281 34.441219 L 21.033906 34.632625 L 21.049531 34.827938 L 21.069063 35.019344 L 21.100313 35.402156 L 21.115938 35.597469 L 21.162813 36.171688 L 21.166719 36.222469 L 21.182344 36.367 M 17.53 -0.0001875 L 17.549531 0.191219 L 17.572969 0.386531 L 17.631563 0.96075 L 17.647188 1.144344 L 17.651094 1.156063 L 17.690156 1.538875 L 17.713594 1.730281 L 17.733125 1.925594 L 17.756563 2.117 L 17.795625 2.499813 L 17.819063 2.695125 L 17.877656 3.269344 L 17.901094 3.464656 L 17.959688 4.038875 L 17.979219 4.234188 L 18.002656 4.425594 L 18.041719 4.808406 L 18.06125 5.003719 L 18.119844 5.577938 L 18.139375 5.77325 L 18.178438 6.156063 L 18.197969 6.351375 L 18.2175 6.542781 L 18.233125 6.702938 L 18.237031 6.734188 L 18.260469 6.925594 L 18.28 7.120906 L 18.303438 7.312313 L 18.3425 7.695125 L 18.365938 7.890438 L 18.424531 8.464656 L 18.447969 8.659969 L 18.506563 9.234188 L 18.53 9.4295 L 18.588594 10.003719 L 18.608125 10.199031 L 18.666719 10.77325 L 18.68625 10.968563 L 18.744844 11.542781 L 18.764375 11.738094 L 18.803438 12.120906 L 18.822969 12.292781 L 18.822969 12.316219 L 18.846406 12.507625 L 18.885469 12.890438 L 18.908906 13.08575 L 18.9675 13.659969 L 18.990938 13.855281 L 19.049531 14.4295 L 19.069063 14.624813 L 19.0925 14.816219 L 19.131563 15.199031 L 19.151094 15.394344 L 19.209688 15.968563 L 19.229219 16.163875 L 19.287813 16.738094 L 19.307344 16.933406 L 19.365938 17.507625 L 19.385469 17.702938 L 19.401094 17.894344 L 19.408906 17.952938 L 19.424531 18.08575 M 158.596406 126.222469 L 158.674531 126.413875 L 158.756563 126.605281 L 158.834688 126.796688 L 158.916719 126.992 L 158.994844 127.183406 L 159.026094 127.261531 L 159.072969 127.374813 L 159.155 127.566219 L 159.233125 127.761531 L 159.389375 128.144344 L 159.4675 128.339656 L 159.545625 128.531063 L 159.627656 128.722469 L 159.701875 128.913875 L 159.78 129.109188 L 160.014375 129.683406 L 160.0925 129.878719 L 160.166719 130.070125 L 160.201875 130.152156 L 160.244844 130.261531 L 160.322969 130.452938 L 160.397188 130.64825 L 160.475313 130.839656 L 160.549531 131.031063 L 160.627656 131.222469 L 160.701875 131.417781 L 160.78 131.609188 L 160.787813 131.632625 L 160.854219 131.800594 L 160.928438 131.992 L 161.002656 132.187313 L 161.151094 132.570125 L 161.229219 132.761531 L 161.303438 132.956844 L 161.37375 133.140438 L 161.377656 133.14825 L 161.526094 133.531063 L 161.600313 133.726375 L 161.670625 133.917781 L 161.819063 134.300594 L 161.893281 134.495906 M 150.932344 109.867 L 151.135469 110.249813 L 151.237031 110.445125 L 151.338594 110.636531 L 151.401094 110.753719 L 151.440156 110.827938 L 151.537813 111.019344 L 151.639375 111.214656 L 151.737031 111.406063 L 151.838594 111.597469 L 151.93625 111.788875 L 152.033906 111.984188 L 152.326875 112.558406 L 152.424531 112.753719 L 152.522188 112.945125 L 152.572969 113.046688 L 152.619844 113.136531 L 152.7175 113.327938 L 152.81125 113.52325 L 152.908906 113.714656 L 153.002656 113.906063 L 153.100313 114.097469 L 153.162813 114.222469 L 153.194063 114.292781 L 153.381563 114.675594 L 153.475313 114.870906 L 153.662813 115.253719 L 153.74875 115.425594 L 153.756563 115.445125 L 153.850313 115.640438 L 153.944063 115.831844 L 154.033906 116.02325 L 154.127656 116.214656 L 154.221406 116.409969 L 154.31125 116.601375 L 154.334688 116.64825 L 154.405 116.792781 L 154.494844 116.984188 L 154.584688 117.1795 L 154.854219 117.753719 L 154.920625 117.894344 L 154.947969 117.949031 L 155.033906 118.140438 L 155.213594 118.52325 L 155.303438 118.718563 L 155.389375 118.909969 L 155.479219 119.101375 L 155.506563 119.159969 L 155.569063 119.292781 L 155.655 119.488094 L 155.744844 119.6795 L 155.916719 120.062313 L 156.006563 120.257625 L 156.0925 120.449031 L 156.0925 120.452938 L 156.178438 120.640438 L 156.264375 120.831844 L 156.350313 121.027156 L 156.522188 121.409969 L 156.608125 121.605281 L 156.682344 121.765438 L 156.694063 121.796688 L 156.776094 121.988094 L 156.862031 122.1795 L 156.947969 122.374813 L 157.03 122.566219 L 157.115938 122.757625 L 157.197969 122.949031 L 157.268281 123.105281 L 157.283906 123.144344 L 157.447969 123.527156 L 157.533906 123.718563 L 157.615938 123.913875 L 157.78 124.296688 L 157.854219 124.464656 L 157.865938 124.488094 L 157.944063 124.683406 L 158.190156 125.257625 L 158.272188 125.452938 L 158.43625 125.83575 L 158.440156 125.851375 L 158.514375 126.027156 L 158.596406 126.222469 M 141.166719 94.281063 L 141.31125 94.472469 L 141.428438 94.624813 L 141.459688 94.667781 L 141.600313 94.859188 L 141.744844 95.050594 L 141.885469 95.242 L 142.014375 95.417781 L 142.026094 95.437313 L 142.307344 95.820125 L 142.444063 96.011531 L 142.584688 96.206844 L 142.600313 96.230281 L 142.721406 96.39825 L 142.994844 96.781063 L 143.127656 96.976375 L 143.190156 97.058406 L 143.264375 97.167781 L 143.53 97.550594 L 143.662813 97.745906 L 143.776094 97.906063 L 143.795625 97.937313 L 144.053438 98.320125 L 144.18625 98.515438 L 144.315156 98.706844 L 144.362031 98.777156 L 144.444063 98.89825 L 144.569063 99.089656 L 144.697969 99.284969 L 144.826875 99.476375 L 144.947969 99.663875 L 144.951875 99.667781 L 145.076875 99.859188 L 145.201875 100.0545 L 145.451875 100.437313 L 145.533906 100.570125 L 145.572969 100.632625 L 145.694063 100.824031 L 145.819063 101.015438 L 145.940156 101.206844 L 146.06125 101.402156 L 146.119844 101.495906 L 146.182344 101.593563 L 146.299531 101.784969 L 146.420625 101.976375 L 146.537813 102.171688 L 146.658906 102.363094 L 146.709688 102.441219 L 146.776094 102.5545 L 146.893281 102.745906 L 147.010469 102.941219 L 147.244844 103.324031 L 147.295625 103.409969 L 147.358125 103.515438 L 147.471406 103.71075 L 147.588594 103.902156 L 147.815156 104.284969 L 147.881563 104.394344 L 147.928438 104.480281 L 148.155 104.863094 L 148.264375 105.0545 L 148.377656 105.249813 L 148.4675 105.402156 L 148.490938 105.441219 L 148.709688 105.824031 L 148.819063 106.019344 L 149.037813 106.402156 L 149.053438 106.433406 L 149.147188 106.593563 L 149.252656 106.788875 L 149.362031 106.980281 L 149.4675 107.171688 L 149.576875 107.367 L 149.643281 107.480281 L 149.682344 107.558406 L 149.893281 107.941219 L 149.99875 108.136531 L 150.209688 108.519344 L 150.229219 108.550594 L 150.315156 108.71075 L 150.416719 108.906063 L 150.522188 109.097469 L 150.62375 109.288875 L 150.729219 109.480281 L 150.815156 109.640438 L 150.830781 109.675594 L 150.932344 109.867 M 126.631563 80.234188 L 126.764375 80.316219 L 126.928438 80.4295 L 127.2175 80.620906 L 127.350313 80.706844 L 127.502656 80.812313 L 127.783906 81.003719 L 127.93625 81.109188 L 128.06125 81.199031 L 128.330781 81.390438 L 128.522188 81.52325 L 128.600313 81.581844 L 128.862031 81.77325 L 129.108125 81.952938 L 129.12375 81.968563 L 129.631563 82.351375 L 129.694063 82.39825 L 129.881563 82.542781 L 130.12375 82.738094 L 130.283906 82.859188 L 130.369844 82.9295 L 130.608125 83.120906 L 130.8425 83.312313 L 130.869844 83.331844 L 131.076875 83.507625 L 131.307344 83.699031 L 131.455781 83.824031 L 131.533906 83.890438 L 131.756563 84.081844 L 131.983125 84.277156 L 132.041719 84.327938 L 132.201875 84.468563 L 132.416719 84.659969 L 132.627656 84.847469 L 132.635469 84.851375 L 132.846406 85.046688 L 133.057344 85.238094 L 133.2175 85.382625 L 133.264375 85.4295 L 133.471406 85.620906 L 133.674531 85.816219 L 133.803438 85.933406 L 133.877656 86.007625 L 134.276094 86.390438 L 134.471406 86.58575 L 134.666719 86.777156 L 134.975313 87.08575 L 135.049531 87.163875 L 135.424531 87.546688 L 135.56125 87.687313 L 135.612031 87.738094 L 135.795625 87.933406 L 135.979219 88.124813 L 136.147188 88.300594 L 136.162813 88.316219 L 136.338594 88.507625 L 136.518281 88.702938 L 136.697969 88.894344 L 136.737031 88.937313 L 136.869844 89.08575 L 137.045625 89.277156 L 137.2175 89.472469 L 137.322969 89.58575 L 137.389375 89.663875 L 137.56125 89.855281 L 137.729219 90.046688 L 137.897188 90.242 L 137.908906 90.253719 L 138.06125 90.433406 L 138.229219 90.624813 L 138.393281 90.816219 L 138.494844 90.937313 L 138.557344 91.011531 L 139.037813 91.58575 L 139.080781 91.640438 L 139.197969 91.781063 L 139.666719 92.355281 L 139.666719 92.359188 L 139.971406 92.742 L 140.127656 92.933406 L 140.256563 93.097469 L 140.28 93.124813 L 140.428438 93.320125 L 140.725313 93.702938 L 140.8425 93.851375 L 140.87375 93.89825 L 141.022188 94.089656 L 141.166719 94.281063 M 91.565156 75.300594 L 91.9675 75.234188 L 92.151094 75.202938 L 92.737031 75.105281 L 93.139375 75.038875 L 93.322969 75.011531 L 93.912813 74.917781 L 94.385469 74.847469 L 94.49875 74.831844 L 95.084688 74.745906 L 95.670625 74.663875 L 95.740938 74.656063 L 96.256563 74.58575 L 96.8425 74.511531 L 97.268281 74.464656 L 97.432344 74.445125 L 98.018281 74.378719 L 98.604219 74.316219 L 99.088594 74.269344 L 99.190156 74.261531 L 99.776094 74.21075 L 100.365938 74.163875 L 100.951875 74.120906 L 101.537813 74.08575 L 101.678438 74.077938 L 102.12375 74.0545 L 102.709688 74.031063 L 103.295625 74.011531 L 103.885469 73.999813 L 104.471406 73.992 L 105.057344 73.992 L 105.643281 73.999813 L 106.229219 74.015438 L 106.815156 74.034969 L 107.405 74.062313 L 107.990938 74.101375 L 108.576875 74.144344 L 109.162813 74.195125 L 109.74875 74.253719 L 109.897188 74.269344 L 110.338594 74.320125 L 110.924531 74.39825 L 111.381563 74.464656 L 111.510469 74.480281 L 112.096406 74.574031 L 112.557344 74.656063 L 112.682344 74.675594 L 113.268281 74.788875 L 113.557344 74.847469 L 113.858125 74.909969 L 114.444063 75.038875 L 115.03 75.1795 L 115.233125 75.234188 L 115.615938 75.331844 L 115.963594 75.425594 L 116.201875 75.492 L 116.639375 75.617 L 116.791719 75.659969 L 117.272188 75.808406 L 117.377656 75.843563 L 117.865938 76.003719 L 117.963594 76.034969 L 118.428438 76.195125 L 118.549531 76.234188 L 118.963594 76.386531 L 119.135469 76.449031 L 119.475313 76.577938 L 119.721406 76.675594 L 119.963594 76.77325 L 120.31125 76.909969 L 120.43625 76.964656 L 120.893281 77.156063 L 120.897188 77.159969 L 121.326875 77.347469 L 121.483125 77.417781 L 121.74875 77.542781 L 122.069063 77.691219 L 122.162813 77.734188 L 122.557344 77.925594 L 122.655 77.972469 L 122.944063 78.117 L 123.240938 78.269344 L 123.322969 78.312313 L 123.68625 78.503719 L 123.830781 78.577938 L 124.041719 78.695125 L 124.393281 78.886531 L 124.416719 78.89825 L 124.733125 79.081844 L 125.002656 79.234188 L 125.069063 79.27325 L 125.393281 79.464656 L 125.588594 79.581844 L 125.713594 79.656063 L 126.026094 79.851375 L 126.174531 79.945125 L 126.330781 80.042781 L 126.631563 80.234188 M 51.674531 77.702938 L 51.776094 77.734188 L 52.260469 77.874813 L 52.451875 77.925594 L 52.846406 78.034969 L 53.174531 78.117 L 53.432344 78.183406 L 53.963594 78.312313 L 54.018281 78.324031 L 54.608125 78.456844 L 55.194063 78.574031 L 55.78 78.687313 L 55.826875 78.695125 L 56.365938 78.788875 L 56.951875 78.882625 L 56.990938 78.886531 L 57.537813 78.968563 L 58.127656 79.042781 L 58.447969 79.081844 L 58.713594 79.109188 L 59.299531 79.171688 L 59.885469 79.222469 L 60.471406 79.265438 L 60.604219 79.27325 L 61.06125 79.300594 L 61.647188 79.327938 L 62.233125 79.351375 L 62.819063 79.363094 L 63.405 79.370906 L 63.990938 79.370906 L 64.580781 79.367 L 65.752656 79.33575 L 66.924531 79.281063 L 67.026094 79.27325 L 67.510469 79.242 L 68.100313 79.202938 L 68.68625 79.156063 L 69.272188 79.105281 L 69.514375 79.081844 L 69.858125 79.046688 L 70.444063 78.988094 L 71.033906 78.921688 L 71.307344 78.886531 L 71.619844 78.851375 L 72.205781 78.777156 L 72.791719 78.699031 L 72.819063 78.695125 L 73.377656 78.617 L 73.963594 78.534969 L 74.166719 78.503719 L 74.553438 78.445125 L 75.139375 78.355281 L 75.408906 78.312313 L 75.725313 78.261531 L 76.31125 78.163875 L 76.576875 78.117 L 76.897188 78.062313 L 77.487031 77.96075 L 77.68625 77.925594 L 78.072969 77.859188 L 78.658906 77.753719 L 78.756563 77.734188 L 79.244844 77.644344 L 79.795625 77.542781 L 79.830781 77.534969 L 80.416719 77.425594 L 80.81125 77.347469 L 81.006563 77.312313 L 81.5925 77.199031 L 81.81125 77.156063 L 82.178438 77.08575 L 82.764375 76.968563 L 82.795625 76.964656 L 83.350313 76.855281 L 83.776094 76.77325 L 83.93625 76.738094 L 84.526094 76.624813 L 84.756563 76.577938 L 85.112031 76.507625 L 85.697969 76.394344 L 85.733125 76.386531 L 86.283906 76.281063 L 86.721406 76.195125 L 86.869844 76.163875 L 87.459688 76.0545 L 87.721406 76.003719 L 88.045625 75.941219 L 88.631563 75.827938 L 88.737031 75.808406 L 89.2175 75.718563 L 89.78 75.617 L 89.803438 75.613094 L 90.389375 75.507625 L 90.850313 75.425594 L 90.979219 75.402156 L 91.565156 75.300594 M 32.315156 65.062313 L 32.471406 65.226375 L 32.655 65.417781 L 32.838594 65.613094 L 32.901094 65.6795 L 33.022188 65.8045 L 33.213594 65.995906 L 33.401094 66.187313 L 33.487031 66.277156 L 33.783906 66.574031 L 33.979219 66.765438 L 34.072969 66.863094 L 34.174531 66.96075 L 34.572969 67.343563 L 34.658906 67.4295 L 34.772188 67.534969 L 34.979219 67.730281 L 35.182344 67.921688 L 35.24875 67.980281 L 35.393281 68.113094 L 35.604219 68.3045 L 35.815156 68.499813 L 35.834688 68.515438 L 36.03 68.691219 L 36.24875 68.882625 L 36.420625 69.034969 L 36.4675 69.074031 L 36.690156 69.269344 L 36.912813 69.46075 L 37.006563 69.542781 L 37.139375 69.652156 L 37.369844 69.843563 L 37.5925 70.031063 L 37.600313 70.038875 L 38.076875 70.421688 L 38.182344 70.503719 L 38.319063 70.613094 L 38.565156 70.808406 L 38.768281 70.964656 L 38.81125 70.999813 L 39.319063 71.382625 L 39.354219 71.409969 L 39.580781 71.577938 L 39.8425 71.769344 L 39.940156 71.839656 L 40.112031 71.96075 L 40.381563 72.152156 L 40.526094 72.257625 L 40.658906 72.347469 L 40.940156 72.538875 L 41.112031 72.659969 L 41.225313 72.730281 L 41.514375 72.921688 L 41.807344 73.117 L 42.112031 73.308406 L 42.287813 73.421688 L 42.416719 73.499813 L 42.729219 73.695125 L 42.87375 73.781063 L 43.049531 73.886531 L 43.37375 74.077938 L 43.459688 74.128719 L 43.705781 74.269344 L 44.045625 74.464656 L 44.393281 74.656063 L 44.635469 74.784969 L 44.752656 74.847469 L 45.115938 75.038875 L 45.221406 75.093563 L 45.494844 75.234188 L 45.877656 75.425594 L 46.276094 75.617 L 46.393281 75.675594 L 46.68625 75.808406 L 46.979219 75.945125 L 47.104219 76.003719 L 47.541719 76.195125 L 47.565156 76.206844 L 47.994844 76.386531 L 48.155 76.452938 L 48.463594 76.577938 L 48.740938 76.691219 L 48.951875 76.77325 L 49.326875 76.913875 L 49.459688 76.964656 L 49.912813 77.128719 L 49.994844 77.156063 L 50.49875 77.331844 L 50.553438 77.347469 L 51.084688 77.52325 L 51.147188 77.542781 L 51.674531 77.702938 M 21.096406 49.83575 L 21.166719 49.956844 L 21.209688 50.027156 L 21.444063 50.409969 L 21.56125 50.605281 L 21.678438 50.796688 L 21.756563 50.921688 L 21.795625 50.988094 L 21.916719 51.1795 L 22.033906 51.374813 L 22.155 51.566219 L 22.272188 51.757625 L 22.3425 51.867 L 22.393281 51.949031 L 22.514375 52.144344 L 22.635469 52.33575 L 22.760469 52.527156 L 22.881563 52.718563 L 22.928438 52.796688 L 23.002656 52.913875 L 23.252656 53.296688 L 23.377656 53.492 L 23.502656 53.683406 L 23.514375 53.702938 L 23.627656 53.874813 L 23.756563 54.066219 L 23.881563 54.261531 L 24.010469 54.452938 L 24.100313 54.589656 L 24.139375 54.644344 L 24.268281 54.83575 L 24.397188 55.031063 L 24.53 55.222469 L 24.658906 55.413875 L 24.68625 55.456844 L 24.791719 55.605281 L 24.924531 55.800594 L 25.190156 56.183406 L 25.276094 56.3045 L 25.322969 56.374813 L 25.459688 56.570125 L 25.733125 56.952938 L 25.862031 57.136531 L 25.869844 57.144344 L 26.006563 57.339656 L 26.287813 57.722469 L 26.424531 57.913875 L 26.447969 57.945125 L 26.569063 58.109188 L 26.709688 58.300594 L 26.854219 58.492 L 26.994844 58.683406 L 27.033906 58.738094 L 27.139375 58.878719 L 27.283906 59.070125 L 27.432344 59.261531 L 27.576875 59.452938 L 27.619844 59.511531 L 27.725313 59.64825 L 27.87375 59.839656 L 28.026094 60.031063 L 28.174531 60.226375 L 28.209688 60.269344 L 28.326875 60.417781 L 28.631563 60.800594 L 28.783906 60.995906 L 28.795625 61.003719 L 28.940156 61.187313 L 29.100313 61.378719 L 29.256563 61.570125 L 29.412813 61.765438 L 29.733125 62.14825 L 29.897188 62.339656 L 29.9675 62.425594 L 30.057344 62.534969 L 30.225313 62.726375 L 30.553438 63.109188 L 30.721406 63.3045 L 30.893281 63.495906 L 31.06125 63.687313 L 31.139375 63.777156 L 31.233125 63.878719 L 31.405 64.074031 L 31.580781 64.265438 L 31.729219 64.4295 L 31.752656 64.456844 L 31.932344 64.64825 L 32.112031 64.843563 L 32.287813 65.034969 L 32.315156 65.062313 M 12.713594 33.671688 L 12.799531 33.863094 L 12.889375 34.058406 L 12.955781 34.202938 L 12.975313 34.249813 L 13.155 34.632625 L 13.244844 34.827938 L 13.330781 35.019344 L 13.510469 35.402156 L 13.541719 35.472469 L 13.600313 35.597469 L 13.78 35.980281 L 13.87375 36.171688 L 13.963594 36.367 L 14.053438 36.558406 L 14.127656 36.718563 L 14.143281 36.749813 L 14.237031 36.941219 L 14.330781 37.136531 L 14.420625 37.327938 L 14.514375 37.519344 L 14.604219 37.71075 L 14.697969 37.906063 L 14.713594 37.941219 L 14.791719 38.097469 L 14.979219 38.480281 L 15.072969 38.675594 L 15.260469 39.058406 L 15.303438 39.140438 L 15.358125 39.249813 L 15.451875 39.445125 L 15.549531 39.636531 L 15.643281 39.827938 L 15.740938 40.02325 L 15.834688 40.214656 L 15.889375 40.320125 L 15.932344 40.406063 L 16.03 40.597469 L 16.127656 40.792781 L 16.420625 41.367 L 16.518281 41.562313 L 16.619844 41.753719 L 16.7175 41.945125 L 16.819063 42.136531 L 16.916719 42.331844 L 17.018281 42.52325 L 17.06125 42.609188 L 17.115938 42.714656 L 17.2175 42.906063 L 17.319063 43.101375 L 17.62375 43.675594 L 17.647188 43.722469 L 17.729219 43.870906 L 17.830781 44.062313 L 17.93625 44.253719 L 18.037813 44.445125 L 18.139375 44.640438 L 18.233125 44.812313 L 18.244844 44.831844 L 18.455781 45.214656 L 18.56125 45.409969 L 18.772188 45.792781 L 18.822969 45.882625 L 18.877656 45.984188 L 18.987031 46.1795 L 19.0925 46.370906 L 19.201875 46.562313 L 19.307344 46.757625 L 19.408906 46.933406 L 19.416719 46.949031 L 19.635469 47.331844 L 19.744844 47.527156 L 19.854219 47.718563 L 19.9675 47.909969 L 19.994844 47.96075 L 20.076875 48.101375 L 20.190156 48.296688 L 20.299531 48.488094 L 20.526094 48.870906 L 20.580781 48.968563 L 20.639375 49.066219 L 20.865938 49.449031 L 20.983125 49.640438 L 21.096406 49.83575 M 5.838594 16.933406 L 5.908906 17.124813 L 5.916719 17.136531 L 5.983125 17.316219 L 6.057344 17.507625 L 6.127656 17.702938 L 6.201875 17.894344 L 6.272188 18.08575 L 6.346406 18.277156 L 6.416719 18.472469 L 6.490938 18.663875 L 6.502656 18.695125 L 6.565156 18.855281 L 6.639375 19.046688 L 6.713594 19.242 L 6.783906 19.433406 L 6.858125 19.624813 L 6.932344 19.820125 L 7.080781 20.202938 L 7.088594 20.226375 L 7.155 20.394344 L 7.229219 20.589656 L 7.303438 20.781063 L 7.381563 20.972469 L 7.455781 21.163875 L 7.53 21.359188 L 7.604219 21.550594 L 7.674531 21.734188 L 7.678438 21.742 L 7.756563 21.933406 L 7.830781 22.128719 L 7.908906 22.320125 L 7.983125 22.511531 L 8.06125 22.702938 L 8.135469 22.89825 L 8.213594 23.089656 L 8.260469 23.214656 L 8.287813 23.281063 L 8.365938 23.472469 L 8.444063 23.667781 L 8.678438 24.242 L 8.752656 24.437313 L 8.830781 24.628719 L 8.850313 24.671688 L 8.908906 24.820125 L 8.987031 25.011531 L 9.069063 25.206844 L 9.303438 25.781063 L 9.381563 25.976375 L 9.43625 26.105281 L 9.463594 26.167781 L 9.541719 26.359188 L 9.62375 26.5545 L 9.701875 26.745906 L 9.783906 26.937313 L 9.862031 27.128719 L 9.944063 27.324031 L 10.022188 27.511531 L 10.104219 27.706844 L 10.18625 27.89825 L 10.268281 28.093563 L 10.350313 28.284969 L 10.428438 28.476375 L 10.510469 28.667781 L 10.5925 28.863094 L 10.608125 28.89825 L 10.674531 29.0545 L 10.760469 29.245906 L 10.8425 29.437313 L 10.924531 29.632625 L 11.088594 30.015438 L 11.174531 30.206844 L 11.194063 30.261531 L 11.256563 30.402156 L 11.3425 30.593563 L 11.424531 30.784969 L 11.510469 30.976375 L 11.596406 31.171688 L 11.678438 31.363094 L 11.764375 31.5545 L 11.783906 31.597469 L 11.850313 31.745906 L 11.93625 31.941219 L 12.194063 32.515438 L 12.28 32.71075 L 12.365938 32.902156 L 12.369844 32.909969 L 12.451875 33.093563 L 12.537813 33.288875 L 12.627656 33.480281 L 12.713594 33.671688 M -0.00125 -0.0001875 L 0.0495313 0.156063 L 0.06125 0.191219 L 0.12375 0.386531 L 0.31125 0.96075 L 0.37375 1.156063 L 0.432344 1.347469 L 0.557344 1.730281 L 0.619844 1.925594 L 0.635469 1.972469 L 0.682344 2.117 L 0.744844 2.308406 L 0.81125 2.499813 L 0.87375 2.695125 L 1.06125 3.269344 L 1.12375 3.464656 L 1.18625 3.656063 L 1.221406 3.761531 L 1.252656 3.847469 L 1.315156 4.038875 L 1.377656 4.234188 L 1.444063 4.425594 L 1.506563 4.617 L 1.572969 4.808406 L 1.635469 5.003719 L 1.697969 5.195125 L 1.764375 5.386531 L 1.807344 5.527156 L 1.826875 5.577938 L 1.893281 5.77325 L 1.955781 5.964656 L 2.022188 6.156063 L 2.088594 6.351375 L 2.151094 6.542781 L 2.283906 6.925594 L 2.346406 7.120906 L 2.397188 7.261531 L 2.412813 7.312313 L 2.545625 7.695125 L 2.612031 7.890438 L 2.674531 8.081844 L 2.807344 8.464656 L 2.87375 8.659969 L 2.940156 8.851375 L 2.983125 8.972469 L 3.006563 9.042781 L 3.072969 9.234188 L 3.139375 9.4295 L 3.205781 9.620906 L 3.276094 9.812313 L 3.3425 10.003719 L 3.408906 10.199031 L 3.541719 10.581844 L 3.569063 10.659969 L 3.612031 10.77325 L 3.678438 10.968563 L 3.744844 11.159969 L 3.815156 11.351375 L 3.881563 11.542781 L 3.951875 11.738094 L 4.018281 11.9295 L 4.088594 12.120906 L 4.155 12.316219 L 4.225313 12.507625 L 4.291719 12.699031 L 4.362031 12.890438 L 4.432344 13.08575 L 4.49875 13.277156 L 4.639375 13.659969 L 4.709688 13.855281 L 4.740938 13.949031 L 4.776094 14.046688 L 4.916719 14.4295 L 4.987031 14.624813 L 5.197969 15.199031 L 5.268281 15.394344 L 5.330781 15.5545 L 5.338594 15.58575 L 5.412813 15.777156 L 5.483125 15.968563 L 5.553438 16.163875 L 5.62375 16.355281 L 5.697969 16.546688 L 5.768281 16.738094 L 5.838594 16.933406 " transform="matrix(1,0,0,-1,0.72,135.492)"/>
</g>
</svg>
