<?xml version="1.0" encoding="UTF-8"?>
<svg xmlns="http://www.w3.org/2000/svg" xmlns:xlink="http://www.w3.org/1999/xlink" width="163pt" height="136pt" viewBox="0 0 163 136" version="1.1">
<g id="surface1">
<path style="fill:none;stroke-width:0.79701;stroke-linecap:butt;stroke-linejoin:miter;stroke:rgb(0%,0%,100%);stroke-opacity:1;stroke-miterlimit:10;" d="M 28.432344 67.113094 L 28.3425 66.843563 L 28.158906 66.574031 L 27.951875 66.370906 L 27.885469 66.3045 L 27.522188 66.034969 L 27.143281 65.812313 L 27.065156 65.765438 L 26.510469 65.495906 L 26.330781 65.421688 L 25.862031 65.226375 L 25.522188 65.101375 L 25.112031 64.956844 L 24.709688 64.831844 L 24.24875 64.687313 L 23.901094 64.589656 L 23.260469 64.417781 L 23.088594 64.374813 L 22.28 64.183406 L 22.119844 64.14825 L 21.4675 64.011531 L 20.787813 63.878719 L 20.658906 63.855281 L 19.846406 63.714656 L 19.182344 63.609188 L 19.037813 63.58575 L 18.225313 63.476375 L 17.416719 63.374813 L 17.080781 63.339656 L 16.604219 63.288875 L 15.795625 63.218563 L 14.983125 63.159969 L 14.174531 63.113094 L 13.362031 63.081844 L 12.881563 63.070125 L 12.553438 63.062313 L 11.740938 63.058406 M 11.740938 63.058406 L 11.12375 63.070125 L 10.932344 63.074031 L 10.119844 63.101375 L 9.31125 63.152156 L 8.49875 63.218563 L 7.68625 63.3045 L 7.412813 63.339656 L 6.877656 63.413875 L 6.065156 63.550594 L 5.764375 63.609188 L 5.256563 63.714656 L 4.584688 63.878719 L 4.444063 63.913875 L 3.666719 64.14825 L 3.635469 64.159969 L 2.928438 64.417781 L 2.822969 64.46075 L 2.315156 64.687313 L 2.014375 64.839656 L 1.799531 64.956844 L 1.362031 65.226375 L 1.201875 65.339656 L 1.002656 65.495906 L 0.705781 65.765438 L 0.459688 66.034969 L 0.393281 66.124813 L 0.272188 66.3045 L 0.135469 66.574031 L 0.045625 66.843563 L -0.00125 67.113094 L -0.00125 67.382625 L 0.045625 67.652156 L 0.135469 67.921688 L 0.272188 68.191219 L 0.393281 68.370906 L 0.459688 68.46075 L 0.705781 68.730281 L 1.002656 68.999813 L 1.201875 69.156063 L 1.362031 69.269344 L 1.799531 69.538875 L 2.014375 69.656063 L 2.315156 69.808406 L 2.822969 70.034969 L 2.928438 70.077938 L 3.635469 70.33575 L 3.666719 70.347469 L 4.444063 70.577938 L 4.584688 70.617 L 5.256563 70.781063 L 5.764375 70.886531 L 6.065156 70.945125 L 6.877656 71.081844 L 7.412813 71.156063 L 7.68625 71.191219 L 8.49875 71.277156 L 9.31125 71.343563 L 10.119844 71.390438 L 10.932344 71.421688 L 11.12375 71.425594 L 11.740938 71.433406 L 12.553438 71.433406 L 12.881563 71.425594 L 13.362031 71.413875 L 14.174531 71.382625 L 14.983125 71.33575 L 15.795625 71.277156 L 16.604219 71.202938 L 17.080781 71.156063 L 17.416719 71.120906 L 18.225313 71.019344 L 19.037813 70.906063 L 19.182344 70.886531 L 19.846406 70.781063 L 20.658906 70.640438 L 20.787813 70.617 L 21.4675 70.484188 L 22.119844 70.347469 L 22.28 70.312313 L 23.088594 70.120906 L 23.260469 70.077938 L 23.901094 69.906063 L 24.24875 69.808406 L 24.709688 69.663875 L 25.112031 69.538875 L 25.522188 69.394344 L 25.862031 69.269344 L 26.330781 69.074031 L 26.510469 68.999813 L 27.065156 68.730281 L 27.143281 68.683406 L 27.522188 68.46075 L 27.885469 68.191219 L 27.951875 68.124813 L 28.158906 67.921688 L 28.3425 67.652156 L 28.432344 67.382625 L 28.432344 67.113094 M 143.869844 120.921688 L 144.002656 121.019344 L 144.369844 121.288875 L 144.678438 121.511531 L 144.740938 121.558406 L 145.108125 121.827938 L 145.479219 122.097469 L 145.490938 122.105281 L 145.846406 122.367 L 146.213594 122.636531 L 146.299531 122.699031 L 146.580781 122.906063 L 146.947969 123.175594 L 147.112031 123.292781 L 147.315156 123.445125 L 147.678438 123.714656 L 147.920625 123.890438 L 148.045625 123.984188 L 148.408906 124.253719 L 148.733125 124.492 L 148.772188 124.52325 L 149.49875 125.062313 L 149.541719 125.093563 L 149.862031 125.331844 L 150.225313 125.601375 L 150.354219 125.695125 L 150.584688 125.870906 L 150.944063 126.140438 L 151.162813 126.300594 L 151.307344 126.409969 L 151.666719 126.6795 L 151.975313 126.909969 L 152.026094 126.949031 L 152.381563 127.218563 L 152.740938 127.488094 L 152.783906 127.519344 L 153.100313 127.757625 L 153.455781 128.027156 L 153.596406 128.132625 L 153.81125 128.296688 L 154.170625 128.566219 L 154.405 128.745906 L 154.526094 128.83575 L 154.881563 129.105281 L 155.2175 129.359188 L 155.237031 129.374813 L 155.588594 129.644344 L 155.944063 129.913875 L 156.026094 129.976375 L 156.295625 130.183406 L 156.651094 130.452938 L 156.838594 130.593563 L 157.002656 130.722469 L 157.354219 130.992 L 157.647188 131.214656 L 157.705781 131.261531 L 158.408906 131.800594 L 158.459688 131.839656 L 158.756563 132.070125 L 159.108125 132.339656 L 159.268281 132.464656 L 159.455781 132.609188 L 159.803438 132.878719 L 160.080781 133.089656 L 160.155 133.14825 L 160.850313 133.687313 L 160.889375 133.718563 L 161.194063 133.956844 L 161.541719 134.226375 L 161.701875 134.347469 L 161.889375 134.495906 M 117.928438 103.113094 L 118.108125 103.230281 L 118.526094 103.499813 L 118.740938 103.636531 L 118.940156 103.769344 L 119.358125 104.038875 L 119.549531 104.163875 L 119.772188 104.308406 L 120.18625 104.577938 L 120.362031 104.691219 L 120.596406 104.847469 L 121.010469 105.117 L 121.170625 105.222469 L 121.420625 105.386531 L 121.830781 105.656063 L 121.983125 105.753719 L 122.237031 105.925594 L 122.647188 106.195125 L 122.791719 106.288875 L 123.053438 106.464656 L 123.463594 106.734188 L 123.604219 106.827938 L 123.869844 107.003719 L 124.272188 107.27325 L 124.412813 107.367 L 124.678438 107.542781 L 125.080781 107.812313 L 125.225313 107.906063 L 125.483125 108.081844 L 125.885469 108.351375 L 126.033906 108.449031 L 126.287813 108.620906 L 126.690156 108.890438 L 126.846406 108.995906 L 127.088594 109.159969 L 127.487031 109.4295 L 127.655 109.542781 L 127.885469 109.699031 L 128.283906 109.968563 L 128.4675 110.093563 L 128.678438 110.238094 L 129.076875 110.507625 L 129.276094 110.644344 L 129.471406 110.777156 L 129.865938 111.046688 L 130.088594 111.195125 L 130.260469 111.316219 L 130.655 111.58575 L 130.897188 111.753719 L 131.045625 111.855281 L 131.43625 112.124813 L 131.709688 112.312313 L 131.830781 112.394344 L 132.2175 112.663875 L 132.522188 112.870906 L 132.608125 112.933406 L 132.99875 113.202938 L 133.330781 113.433406 L 133.385469 113.472469 L 133.772188 113.742 L 134.143281 113.995906 L 134.162813 114.011531 L 134.545625 114.281063 L 134.932344 114.550594 L 134.951875 114.562313 L 135.319063 114.820125 L 135.701875 115.089656 L 135.764375 115.128719 L 136.084688 115.359188 L 136.4675 115.628719 L 136.572969 115.699031 L 136.850313 115.89825 L 137.233125 116.167781 L 137.385469 116.27325 L 137.615938 116.437313 L 137.994844 116.706844 L 138.194063 116.847469 L 138.37375 116.976375 L 138.752656 117.245906 L 139.006563 117.421688 L 139.131563 117.515438 L 139.510469 117.784969 L 139.815156 117.999813 L 139.889375 118.0545 L 140.264375 118.324031 L 140.627656 118.581844 L 140.643281 118.593563 L 141.393281 119.132625 L 141.43625 119.163875 L 141.764375 119.402156 L 142.139375 119.671688 L 142.24875 119.745906 L 142.514375 119.941219 L 142.885469 120.21075 L 143.057344 120.331844 L 143.256563 120.480281 L 143.631563 120.749813 L 143.869844 120.921688 M 89.557344 86.175594 L 89.690156 86.249813 L 90.178438 86.519344 L 90.369844 86.620906 L 90.666719 86.788875 L 91.158906 87.058406 L 91.178438 87.070125 L 91.639375 87.327938 L 91.990938 87.519344 L 92.127656 87.597469 L 92.608125 87.867 L 92.799531 87.972469 L 93.0925 88.136531 L 93.572969 88.406063 L 93.612031 88.425594 L 94.049531 88.675594 L 94.420625 88.882625 L 94.53 88.945125 L 95.002656 89.214656 L 95.233125 89.343563 L 95.479219 89.484188 L 95.951875 89.753719 L 96.041719 89.8045 L 96.424531 90.02325 L 96.854219 90.265438 L 96.897188 90.292781 L 97.365938 90.562313 L 97.662813 90.734188 L 97.834688 90.831844 L 98.299531 91.101375 L 98.475313 91.202938 L 98.764375 91.370906 L 99.229219 91.640438 L 99.283906 91.671688 L 99.690156 91.909969 L 100.096406 92.144344 L 100.155 92.1795 L 100.612031 92.449031 L 100.908906 92.620906 L 101.072969 92.718563 L 101.53 92.988094 L 101.7175 93.097469 L 101.987031 93.257625 L 102.444063 93.527156 L 102.53 93.577938 L 102.897188 93.796688 L 103.338594 94.058406 L 103.350313 94.066219 L 103.799531 94.33575 L 104.151094 94.542781 L 104.252656 94.605281 L 104.701875 94.874813 L 104.959688 95.027156 L 105.151094 95.144344 L 105.596406 95.413875 L 105.772188 95.515438 L 106.041719 95.683406 L 106.487031 95.952938 L 106.580781 96.007625 L 106.932344 96.222469 L 107.37375 96.492 L 107.393281 96.499813 L 107.815156 96.761531 L 108.201875 96.995906 L 108.256563 97.031063 L 108.694063 97.300594 L 109.014375 97.492 L 109.135469 97.570125 L 109.569063 97.839656 L 109.822969 97.992 L 110.006563 98.109188 L 110.444063 98.378719 L 110.635469 98.495906 L 110.877656 98.64825 L 111.31125 98.917781 L 111.444063 98.999813 L 111.740938 99.187313 L 112.174531 99.456844 L 112.256563 99.507625 L 112.604219 99.726375 L 113.033906 99.995906 L 113.065156 100.015438 L 113.459688 100.265438 L 113.877656 100.527156 L 113.889375 100.534969 L 114.315156 100.8045 L 114.68625 101.038875 L 114.740938 101.074031 L 115.162813 101.343563 L 115.49875 101.5545 L 115.588594 101.613094 L 116.010469 101.882625 L 116.307344 102.070125 L 116.432344 102.152156 L 116.850313 102.421688 L 117.119844 102.589656 L 117.272188 102.691219 L 117.690156 102.96075 L 117.928438 103.113094 M 58.756563 69.976375 L 58.889375 70.077938 L 59.28 70.347469 L 59.565156 70.527156 L 59.697969 70.617 L 60.131563 70.886531 L 60.377656 71.027156 L 60.584688 71.156063 L 61.049531 71.425594 L 61.18625 71.499813 L 61.522188 71.695125 L 61.99875 71.952938 L 62.018281 71.964656 L 62.510469 72.234188 L 62.807344 72.390438 L 63.014375 72.503719 L 63.53 72.77325 L 63.619844 72.816219 L 64.041719 73.042781 L 64.428438 73.238094 L 64.569063 73.312313 L 65.096406 73.581844 L 65.240938 73.652156 L 65.62375 73.851375 L 66.049531 74.062313 L 66.158906 74.120906 L 66.694063 74.390438 L 66.862031 74.472469 L 67.229219 74.659969 L 67.670625 74.878719 L 68.31125 75.199031 L 68.483125 75.281063 L 68.850313 75.468563 L 69.291719 75.687313 L 69.393281 75.738094 L 69.93625 76.007625 L 70.104219 76.089656 L 70.475313 76.277156 L 70.916719 76.492 L 71.018281 76.546688 L 71.557344 76.816219 L 71.725313 76.89825 L 72.096406 77.08575 L 72.537813 77.300594 L 72.639375 77.355281 L 73.178438 77.624813 L 73.346406 77.706844 L 73.713594 77.894344 L 74.158906 78.113094 L 74.252656 78.163875 L 74.787813 78.433406 L 74.9675 78.519344 L 75.322969 78.702938 L 75.78 78.9295 L 75.858125 78.972469 L 76.389375 79.242 L 76.588594 79.339656 L 76.916719 79.511531 L 77.401094 79.753719 L 77.447969 79.781063 L 77.975313 80.050594 L 78.209688 80.167781 L 78.502656 80.320125 L 79.022188 80.58575 L 79.03 80.589656 L 79.549531 80.859188 L 79.830781 80.999813 L 80.072969 81.128719 L 80.5925 81.39825 L 80.643281 81.421688 L 81.112031 81.667781 L 81.451875 81.843563 L 81.627656 81.937313 L 82.143281 82.206844 L 82.264375 82.265438 L 82.658906 82.476375 L 83.072969 82.691219 L 83.170625 82.745906 L 83.682344 83.015438 L 83.885469 83.120906 L 84.190156 83.284969 L 84.694063 83.550594 L 84.701875 83.5545 L 85.201875 83.824031 L 85.506563 83.984188 L 85.709688 84.093563 L 86.213594 84.363094 L 86.315156 84.417781 L 86.713594 84.632625 L 87.127656 84.855281 L 87.213594 84.902156 L 87.709688 85.171688 L 87.93625 85.292781 L 88.205781 85.441219 L 88.705781 85.71075 L 88.74875 85.734188 L 89.194063 85.980281 L 89.557344 86.175594 M 81.627656 52.558406 L 81.451875 52.652156 L 81.112031 52.827938 L 80.643281 53.074031 L 80.5925 53.097469 L 80.072969 53.367 L 79.830781 53.492 L 79.549531 53.636531 L 79.03 53.906063 L 79.022188 53.909969 L 78.502656 54.175594 L 78.209688 54.327938 L 77.975313 54.445125 L 77.447969 54.714656 L 77.401094 54.742 L 76.916719 54.984188 L 76.588594 55.152156 L 76.389375 55.253719 L 75.858125 55.52325 L 75.78 55.562313 L 75.322969 55.792781 L 74.9675 55.972469 L 74.787813 56.062313 L 74.252656 56.331844 L 74.158906 56.382625 L 73.713594 56.601375 L 73.346406 56.788875 L 73.178438 56.870906 L 72.639375 57.140438 L 72.537813 57.195125 L 72.096406 57.409969 L 71.725313 57.597469 L 71.557344 57.6795 L 71.018281 57.949031 L 70.916719 58.003719 L 70.475313 58.218563 L 70.104219 58.406063 L 69.93625 58.488094 L 69.393281 58.757625 L 69.291719 58.808406 L 68.850313 59.027156 L 68.483125 59.214656 L 68.31125 59.296688 L 67.670625 59.617 L 67.229219 59.83575 L 66.862031 60.02325 L 66.694063 60.105281 L 66.158906 60.374813 L 66.049531 60.4295 L 65.62375 60.644344 L 65.240938 60.843563 L 65.096406 60.913875 L 64.569063 61.183406 L 64.428438 61.257625 L 64.041719 61.452938 L 63.619844 61.675594 L 63.53 61.722469 L 63.014375 61.992 L 62.807344 62.105281 L 62.510469 62.261531 L 62.018281 62.531063 L 61.99875 62.542781 L 61.522188 62.800594 L 61.18625 62.995906 L 61.049531 63.070125 L 60.584688 63.339656 L 60.377656 63.468563 L 60.131563 63.609188 L 59.697969 63.878719 L 59.565156 63.968563 L 59.28 64.14825 L 58.889375 64.417781 L 58.756563 64.515438 L 58.510469 64.687313 L 58.166719 64.956844 L 57.944063 65.14825 L 57.850313 65.226375 L 57.557344 65.495906 L 57.307344 65.765438 L 57.135469 65.988094 L 57.096406 66.034969 L 56.916719 66.3045 L 56.78 66.574031 L 56.690156 66.843563 L 56.643281 67.113094 L 56.643281 67.382625 L 56.690156 67.652156 L 56.78 67.921688 L 56.916719 68.191219 L 57.096406 68.46075 L 57.135469 68.503719 L 57.307344 68.730281 L 57.557344 68.999813 L 57.850313 69.269344 L 57.944063 69.347469 L 58.166719 69.538875 L 58.510469 69.808406 L 58.756563 69.976375 M 110.877656 35.847469 L 110.635469 35.999813 L 110.444063 36.117 L 110.006563 36.386531 L 109.822969 36.499813 L 109.569063 36.656063 L 109.135469 36.925594 L 109.014375 36.999813 L 108.694063 37.195125 L 108.256563 37.464656 L 108.201875 37.499813 L 107.815156 37.734188 L 107.393281 37.992 L 107.37375 38.003719 L 106.932344 38.27325 L 106.580781 38.488094 L 106.487031 38.542781 L 106.041719 38.812313 L 105.772188 38.976375 L 105.596406 39.081844 L 105.151094 39.351375 L 104.959688 39.464656 L 104.701875 39.620906 L 104.252656 39.890438 L 104.151094 39.952938 L 103.799531 40.159969 L 103.350313 40.4295 L 103.338594 40.437313 L 102.897188 40.699031 L 102.53 40.917781 L 102.444063 40.968563 L 101.987031 41.238094 L 101.7175 41.39825 L 101.53 41.507625 L 101.072969 41.777156 L 100.908906 41.874813 L 100.612031 42.046688 L 100.155 42.316219 L 100.096406 42.351375 L 99.690156 42.58575 L 99.283906 42.824031 L 99.229219 42.855281 L 98.764375 43.124813 L 98.475313 43.292781 L 98.299531 43.394344 L 97.834688 43.663875 L 97.662813 43.761531 L 97.365938 43.933406 L 96.897188 44.202938 L 96.854219 44.226375 L 96.424531 44.472469 L 96.041719 44.691219 L 95.951875 44.742 L 95.479219 45.011531 L 95.233125 45.152156 L 95.002656 45.281063 L 94.53 45.550594 L 94.420625 45.613094 L 94.049531 45.820125 L 93.612031 46.070125 L 93.572969 46.089656 L 93.0925 46.359188 L 92.799531 46.52325 L 92.608125 46.628719 L 92.127656 46.89825 L 91.990938 46.976375 L 91.639375 47.167781 L 91.178438 47.425594 L 91.158906 47.437313 L 90.666719 47.706844 L 90.369844 47.874813 L 90.178438 47.976375 L 89.690156 48.245906 L 89.557344 48.320125 L 89.194063 48.515438 L 88.74875 48.761531 L 88.705781 48.784969 L 88.205781 49.0545 L 87.93625 49.202938 L 87.709688 49.324031 L 87.213594 49.593563 L 87.127656 49.640438 L 86.713594 49.863094 L 86.315156 50.077938 L 86.213594 50.132625 L 85.709688 50.402156 L 85.506563 50.511531 L 85.201875 50.671688 L 84.701875 50.941219 L 84.694063 50.945125 L 84.190156 51.21075 L 83.885469 51.374813 L 83.682344 51.480281 L 83.170625 51.749813 L 83.072969 51.800594 L 82.658906 52.019344 L 82.264375 52.226375 L 82.143281 52.288875 L 81.627656 52.558406 M 137.385469 18.222469 L 137.233125 18.327938 L 136.850313 18.597469 L 136.572969 18.792781 L 136.4675 18.867 L 136.084688 19.136531 L 135.764375 19.363094 L 135.701875 19.406063 L 135.319063 19.675594 L 134.951875 19.933406 L 134.932344 19.945125 L 134.545625 20.214656 L 134.162813 20.484188 L 134.143281 20.499813 L 133.772188 20.753719 L 133.385469 21.02325 L 133.330781 21.062313 L 132.99875 21.292781 L 132.608125 21.562313 L 132.522188 21.624813 L 132.2175 21.831844 L 131.830781 22.101375 L 131.709688 22.183406 L 131.43625 22.370906 L 131.045625 22.640438 L 130.897188 22.742 L 130.655 22.909969 L 130.260469 23.1795 L 130.088594 23.296688 L 129.865938 23.449031 L 129.471406 23.718563 L 129.276094 23.851375 L 129.076875 23.988094 L 128.678438 24.257625 L 128.4675 24.402156 L 128.283906 24.527156 L 127.885469 24.796688 L 127.655 24.952938 L 127.487031 25.066219 L 127.088594 25.33575 L 126.846406 25.499813 L 126.690156 25.605281 L 126.287813 25.874813 L 126.033906 26.046688 L 125.885469 26.144344 L 125.483125 26.413875 L 125.225313 26.589656 L 125.080781 26.683406 L 124.678438 26.952938 L 124.412813 27.128719 L 124.272188 27.222469 L 123.869844 27.492 L 123.604219 27.667781 L 123.463594 27.761531 L 123.053438 28.031063 L 122.791719 28.206844 L 122.647188 28.300594 L 122.237031 28.570125 L 121.983125 28.742 L 121.830781 28.839656 L 121.420625 29.109188 L 121.170625 29.27325 L 121.010469 29.378719 L 120.596406 29.64825 L 120.362031 29.8045 L 120.18625 29.917781 L 119.772188 30.187313 L 119.549531 30.331844 L 119.358125 30.456844 L 118.940156 30.726375 L 118.740938 30.859188 L 118.526094 30.995906 L 118.108125 31.265438 L 117.928438 31.382625 L 117.690156 31.534969 L 117.272188 31.8045 L 117.119844 31.902156 L 116.850313 32.074031 L 116.432344 32.343563 L 116.307344 32.421688 L 116.010469 32.613094 L 115.588594 32.882625 L 115.49875 32.941219 L 115.162813 33.152156 L 114.740938 33.421688 L 114.68625 33.456844 L 114.315156 33.691219 L 113.889375 33.96075 L 113.877656 33.968563 L 113.459688 34.230281 L 113.065156 34.480281 L 113.033906 34.499813 L 112.604219 34.769344 L 112.256563 34.988094 L 112.174531 35.038875 L 111.740938 35.308406 L 111.444063 35.495906 L 111.31125 35.577938 L 110.877656 35.847469 M 161.889375 -0.0001875 L 161.701875 0.14825 L 161.541719 0.269344 L 161.194063 0.538875 L 160.889375 0.777156 L 160.850313 0.808406 L 160.155 1.347469 L 160.080781 1.406063 L 159.803438 1.617 L 159.455781 1.886531 L 159.268281 2.031063 L 159.108125 2.156063 L 158.756563 2.425594 L 158.459688 2.656063 L 158.408906 2.695125 L 157.705781 3.234188 L 157.647188 3.277156 L 157.354219 3.503719 L 157.002656 3.77325 L 156.838594 3.89825 L 156.651094 4.042781 L 156.295625 4.312313 L 156.026094 4.519344 L 155.944063 4.581844 L 155.588594 4.851375 L 155.237031 5.120906 L 155.2175 5.136531 L 154.881563 5.390438 L 154.526094 5.659969 L 154.405 5.749813 L 154.170625 5.9295 L 153.81125 6.199031 L 153.596406 6.363094 L 153.455781 6.468563 L 153.100313 6.738094 L 152.783906 6.976375 L 152.740938 7.007625 L 152.381563 7.277156 L 152.026094 7.546688 L 151.975313 7.58575 L 151.666719 7.816219 L 151.307344 8.08575 L 151.162813 8.191219 L 150.584688 8.624813 L 150.354219 8.796688 L 150.225313 8.894344 L 149.862031 9.163875 L 149.541719 9.402156 L 149.49875 9.433406 L 148.772188 9.972469 L 148.733125 10.003719 L 148.408906 10.242 L 148.045625 10.511531 L 147.920625 10.605281 L 147.678438 10.781063 L 147.315156 11.050594 L 147.112031 11.202938 L 146.947969 11.320125 L 146.580781 11.589656 L 146.299531 11.796688 L 146.213594 11.859188 L 145.846406 12.128719 L 145.490938 12.390438 L 145.479219 12.39825 L 145.108125 12.667781 L 144.740938 12.937313 L 144.678438 12.984188 L 144.369844 13.206844 L 144.002656 13.476375 L 143.869844 13.574031 L 143.631563 13.745906 L 143.256563 14.015438 L 143.057344 14.159969 L 142.885469 14.284969 L 142.514375 14.5545 L 142.24875 14.745906 L 142.139375 14.824031 L 141.764375 15.093563 L 141.43625 15.331844 L 141.393281 15.363094 L 140.643281 15.902156 L 140.627656 15.913875 L 140.264375 16.171688 L 139.889375 16.441219 L 139.815156 16.492 L 139.510469 16.71075 L 139.131563 16.980281 L 139.006563 17.074031 L 138.752656 17.249813 L 138.37375 17.519344 L 138.194063 17.64825 L 137.994844 17.788875 L 137.615938 18.058406 L 137.385469 18.222469 " transform="matrix(1,0,0,-1,0.72,135.492)"/>
</g>
</svg>
