<?xml version="1.0" encoding="UTF-8"?>
<svg xmlns="http://www.w3.org/2000/svg" xmlns:xlink="http://www.w3.org/1999/xlink" width="163pt" height="136pt" viewBox="0 0 163 136" version="1.1">
<g id="surface1">
<path style="fill:none;stroke-width:0.79701;stroke-linecap:butt;stroke-linejoin:miter;stroke:rgb(0%,0%,100%);stroke-opacity:1;stroke-miterlimit:10;" d="M 157.108125 122.675594 L 157.170625 122.824031 L 157.237031 122.976375 L 157.303438 123.124813 L 157.365938 123.27325 L 157.432344 123.425594 L 157.49875 123.574031 L 157.510469 123.597469 L 157.56125 123.722469 L 157.62375 123.874813 L 157.81125 124.320125 L 157.87375 124.472469 L 157.93625 124.620906 L 158.002656 124.769344 L 158.065156 124.921688 L 158.190156 125.218563 L 158.256563 125.370906 L 158.319063 125.519344 L 158.322969 125.527156 L 158.381563 125.667781 L 158.444063 125.816219 L 158.502656 125.968563 L 158.627656 126.265438 L 158.68625 126.417781 L 158.81125 126.714656 L 158.87375 126.867 L 159.06125 127.312313 L 159.12375 127.464656 L 159.139375 127.495906 L 159.18625 127.613094 L 159.244844 127.761531 L 159.303438 127.913875 L 159.362031 128.062313 L 159.424531 128.21075 L 159.483125 128.359188 L 159.545625 128.511531 L 159.604219 128.659969 L 159.666719 128.808406 L 159.725313 128.96075 L 159.850313 129.257625 L 159.908906 129.409969 L 159.951875 129.507625 L 159.971406 129.558406 L 160.088594 129.855281 L 160.147188 130.007625 L 160.264375 130.3045 L 160.322969 130.456844 L 160.381563 130.605281 L 160.444063 130.753719 L 160.502656 130.906063 L 160.619844 131.202938 L 160.682344 131.351375 L 160.740938 131.503719 L 160.764375 131.562313 L 160.799531 131.652156 L 160.858125 131.800594 L 160.912813 131.952938 L 161.03 132.249813 L 161.088594 132.402156 L 161.143281 132.550594 L 161.260469 132.847469 L 161.319063 132.999813 L 161.43625 133.296688 L 161.494844 133.449031 L 161.553438 133.597469 L 161.580781 133.663875 L 161.612031 133.745906 L 161.666719 133.89825 L 161.725313 134.046688 L 161.834688 134.343563 L 161.893281 134.495906 M 150.768281 109.21075 L 150.846406 109.363094 L 150.924531 109.511531 L 150.994844 109.644344 L 151.076875 109.808406 L 151.155 109.96075 L 151.303438 110.257625 L 151.377656 110.409969 L 151.455781 110.558406 L 151.53 110.706844 L 151.608125 110.859188 L 151.68625 111.007625 L 151.807344 111.249813 L 151.838594 111.3045 L 151.908906 111.456844 L 152.057344 111.753719 L 152.131563 111.906063 L 152.28 112.202938 L 152.354219 112.355281 L 152.62375 112.894344 L 152.651094 112.952938 L 152.721406 113.101375 L 152.795625 113.249813 L 152.865938 113.402156 L 152.93625 113.550594 L 153.010469 113.699031 L 153.080781 113.851375 L 153.229219 114.14825 L 153.299531 114.296688 L 153.37375 114.449031 L 153.43625 114.577938 L 153.447969 114.597469 L 153.518281 114.745906 L 153.584688 114.89825 L 153.795625 115.343563 L 153.865938 115.495906 L 153.940156 115.644344 L 154.010469 115.792781 L 154.080781 115.945125 L 154.151094 116.093563 L 154.225313 116.242 L 154.252656 116.300594 L 154.295625 116.394344 L 154.428438 116.691219 L 154.49875 116.839656 L 154.569063 116.992 L 154.635469 117.140438 L 154.705781 117.288875 L 154.776094 117.441219 L 154.846406 117.589656 L 154.912813 117.738094 L 154.983125 117.890438 L 155.053438 118.038875 L 155.065156 118.062313 L 155.119844 118.187313 L 155.18625 118.33575 L 155.256563 118.488094 L 155.389375 118.784969 L 155.455781 118.937313 L 155.522188 119.08575 L 155.5925 119.234188 L 155.658906 119.386531 L 155.729219 119.534969 L 155.795625 119.683406 L 155.865938 119.831844 L 155.881563 119.867 L 155.932344 119.984188 L 155.994844 120.132625 L 156.06125 120.281063 L 156.127656 120.433406 L 156.194063 120.581844 L 156.256563 120.730281 L 156.322969 120.882625 L 156.522188 121.327938 L 156.588594 121.480281 L 156.658906 121.628719 L 156.694063 121.71075 L 156.721406 121.777156 L 156.787813 121.9295 L 156.912813 122.226375 L 156.979219 122.378719 L 157.041719 122.527156 L 157.108125 122.675594 M 143.033906 95.89825 L 143.229219 96.195125 L 143.326875 96.347469 L 143.424531 96.495906 L 143.526094 96.644344 L 143.62375 96.792781 L 143.666719 96.855281 L 143.721406 96.945125 L 143.908906 97.242 L 144.002656 97.394344 L 144.100313 97.542781 L 144.194063 97.691219 L 144.291719 97.843563 L 144.385469 97.992 L 144.479219 98.136531 L 144.483125 98.140438 L 144.576875 98.288875 L 144.666719 98.441219 L 144.760469 98.589656 L 144.850313 98.738094 L 144.944063 98.890438 L 145.131563 99.187313 L 145.225313 99.339656 L 145.295625 99.449031 L 145.319063 99.488094 L 145.408906 99.636531 L 145.494844 99.784969 L 145.584688 99.937313 L 145.674531 100.08575 L 145.768281 100.234188 L 145.858125 100.386531 L 145.947969 100.534969 L 146.041719 100.683406 L 146.108125 100.796688 L 146.131563 100.831844 L 146.2175 100.984188 L 146.303438 101.132625 L 146.393281 101.281063 L 146.479219 101.433406 L 146.569063 101.581844 L 146.655 101.730281 L 146.744844 101.882625 L 146.924531 102.1795 L 147.010469 102.327938 L 147.0925 102.480281 L 147.264375 102.777156 L 147.350313 102.9295 L 147.522188 103.226375 L 147.608125 103.378719 L 147.697969 103.527156 L 147.737031 103.597469 L 147.78 103.675594 L 147.862031 103.824031 L 147.947969 103.976375 L 148.112031 104.27325 L 148.197969 104.425594 L 148.28 104.574031 L 148.365938 104.722469 L 148.447969 104.874813 L 148.533906 105.02325 L 148.553438 105.050594 L 148.615938 105.171688 L 148.697969 105.320125 L 148.776094 105.472469 L 148.940156 105.769344 L 149.022188 105.921688 L 149.18625 106.218563 L 149.268281 106.370906 L 149.350313 106.519344 L 149.365938 106.546688 L 149.432344 106.667781 L 149.510469 106.816219 L 149.588594 106.968563 L 149.744844 107.265438 L 149.826875 107.417781 L 149.905 107.566219 L 149.987031 107.714656 L 150.065156 107.867 L 150.147188 108.015438 L 150.182344 108.074031 L 150.225313 108.163875 L 150.303438 108.312313 L 150.377656 108.464656 L 150.533906 108.761531 L 150.612031 108.913875 L 150.768281 109.21075 M 133.057344 83.1795 L 133.080781 83.202938 L 133.197969 83.331844 L 133.334688 83.480281 L 133.615938 83.777156 L 133.756563 83.9295 L 133.893281 84.070125 L 133.901094 84.077938 L 134.033906 84.226375 L 134.166719 84.378719 L 134.440156 84.675594 L 134.576875 84.827938 L 134.709688 84.968563 L 134.7175 84.976375 L 134.975313 85.27325 L 135.108125 85.425594 L 135.37375 85.722469 L 135.506563 85.874813 L 135.522188 85.890438 L 135.631563 86.02325 L 135.756563 86.171688 L 135.885469 86.324031 L 136.272188 86.769344 L 136.338594 86.847469 L 136.397188 86.921688 L 136.639375 87.218563 L 136.764375 87.370906 L 137.139375 87.816219 L 137.151094 87.831844 L 137.256563 87.968563 L 137.377656 88.117 L 137.494844 88.265438 L 137.615938 88.417781 L 137.858125 88.714656 L 137.9675 88.847469 L 137.979219 88.867 L 138.0925 89.015438 L 138.209688 89.163875 L 138.322969 89.312313 L 138.440156 89.464656 L 138.674531 89.761531 L 138.78 89.894344 L 138.791719 89.913875 L 138.905 90.062313 L 139.014375 90.21075 L 139.127656 90.363094 L 139.4675 90.808406 L 139.584688 90.96075 L 139.596406 90.972469 L 139.694063 91.109188 L 139.799531 91.257625 L 139.908906 91.409969 L 140.127656 91.706844 L 140.240938 91.859188 L 140.350313 92.007625 L 140.408906 92.08575 L 140.459688 92.156063 L 140.565156 92.3045 L 140.670625 92.456844 L 140.881563 92.753719 L 140.990938 92.906063 L 141.096406 93.0545 L 141.205781 93.202938 L 141.225313 93.226375 L 141.307344 93.355281 L 141.408906 93.503719 L 141.514375 93.652156 L 141.615938 93.800594 L 141.721406 93.952938 L 141.822969 94.101375 L 141.928438 94.249813 L 142.033906 94.402156 L 142.037813 94.406063 L 142.135469 94.550594 L 142.233125 94.699031 L 142.334688 94.851375 L 142.432344 94.999813 L 142.635469 95.296688 L 142.737031 95.449031 L 142.8425 95.597469 L 142.850313 95.613094 L 142.93625 95.745906 L 143.033906 95.89825 M 116.971406 71.363094 L 117.291719 71.511531 L 117.608125 71.656063 L 117.619844 71.659969 L 117.916719 71.812313 L 118.225313 71.96075 L 118.424531 72.0545 L 118.526094 72.109188 L 118.81125 72.257625 L 119.104219 72.409969 L 119.237031 72.472469 L 119.389375 72.558406 L 119.658906 72.706844 L 119.940156 72.859188 L 120.053438 72.913875 L 120.205781 73.007625 L 120.4675 73.156063 L 120.733125 73.308406 L 120.865938 73.378719 L 120.990938 73.456844 L 121.240938 73.605281 L 121.494844 73.753719 L 121.682344 73.863094 L 121.744844 73.906063 L 121.979219 74.0545 L 122.221406 74.202938 L 122.4675 74.355281 L 122.494844 74.370906 L 122.694063 74.503719 L 122.920625 74.652156 L 123.151094 74.800594 L 123.307344 74.902156 L 123.381563 74.952938 L 123.596406 75.101375 L 123.819063 75.249813 L 124.041719 75.402156 L 124.12375 75.452938 L 124.252656 75.550594 L 124.463594 75.699031 L 124.674531 75.851375 L 124.889375 75.999813 L 124.93625 76.031063 L 125.0925 76.14825 L 125.291719 76.296688 L 125.494844 76.449031 L 125.701875 76.597469 L 125.752656 76.632625 L 125.897188 76.745906 L 126.088594 76.89825 L 126.283906 77.046688 L 126.483125 77.195125 L 126.565156 77.257625 L 126.670625 77.347469 L 126.854219 77.495906 L 127.041719 77.644344 L 127.233125 77.792781 L 127.381563 77.909969 L 127.420625 77.945125 L 127.596406 78.093563 L 127.776094 78.242 L 127.955781 78.394344 L 128.139375 78.542781 L 128.194063 78.58575 L 128.315156 78.691219 L 128.483125 78.843563 L 129.010469 79.288875 L 129.174531 79.441219 L 129.338594 79.589656 L 129.506563 79.738094 L 129.674531 79.890438 L 129.822969 80.019344 L 129.846406 80.038875 L 130.002656 80.187313 L 130.162813 80.339656 L 130.322969 80.488094 L 130.487031 80.636531 L 130.639375 80.77325 L 130.803438 80.937313 L 130.955781 81.08575 L 131.112031 81.234188 L 131.272188 81.386531 L 131.428438 81.534969 L 131.451875 81.5545 L 131.576875 81.683406 L 131.725313 81.83575 L 131.877656 81.984188 L 132.026094 82.132625 L 132.182344 82.281063 L 132.268281 82.367 L 132.330781 82.433406 L 132.471406 82.581844 L 132.615938 82.730281 L 132.760469 82.882625 L 133.057344 83.1795 M 113.694063 64.480281 L 113.537813 64.542781 L 113.272188 64.628719 L 112.846406 64.777156 L 112.725313 64.824031 L 112.393281 64.9295 L 111.944063 65.077938 L 111.908906 65.089656 L 111.444063 65.226375 L 111.096406 65.339656 L 110.947969 65.378719 L 110.416719 65.527156 L 110.28 65.570125 L 109.850313 65.675594 L 109.4675 65.781063 L 109.268281 65.827938 L 108.655 65.976375 L 107.9675 66.124813 L 107.838594 66.156063 L 107.229219 66.27325 L 107.022188 66.320125 L 106.412813 66.425594 L 106.209688 66.464656 L 105.490938 66.574031 L 105.393281 66.593563 L 104.580781 66.702938 L 104.338594 66.722469 L 103.768281 66.792781 L 102.951875 66.859188 L 102.643281 66.874813 L 102.139375 66.909969 L 101.322969 66.941219 L 100.510469 66.952938 L 99.694063 66.956844 L 98.065156 66.956844 L 97.252656 66.964656 L 96.43625 66.984188 L 95.62375 67.011531 L 95.334688 67.02325 L 94.81125 67.070125 L 93.994844 67.167781 L 93.975313 67.171688 L 93.975313 67.324031 L 93.994844 67.324031 L 94.81125 67.421688 L 95.334688 67.472469 L 95.62375 67.484188 L 96.43625 67.511531 L 97.252656 67.527156 L 98.065156 67.534969 L 98.881563 67.538875 L 99.694063 67.538875 L 100.510469 67.542781 L 101.322969 67.5545 L 102.139375 67.58575 L 102.643281 67.620906 L 102.951875 67.636531 L 103.768281 67.699031 L 104.338594 67.769344 L 104.580781 67.792781 L 105.393281 67.902156 L 105.490938 67.921688 L 106.209688 68.027156 L 106.412813 68.070125 L 107.022188 68.175594 L 107.229219 68.218563 L 107.838594 68.33575 L 107.9675 68.370906 L 108.651094 68.519344 L 109.268281 68.667781 L 109.4675 68.71075 L 109.850313 68.820125 L 110.28 68.925594 L 110.416719 68.968563 L 110.947969 69.117 L 111.096406 69.156063 L 111.444063 69.265438 L 111.908906 69.406063 L 111.944063 69.417781 L 112.393281 69.566219 L 112.725313 69.667781 L 112.846406 69.714656 L 113.272188 69.867 L 113.537813 69.952938 L 113.694063 70.015438 L 114.096406 70.163875 L 114.350313 70.253719 L 114.494844 70.316219 L 114.869844 70.464656 L 115.166719 70.574031 L 115.252656 70.613094 L 115.604219 70.761531 L 115.971406 70.913875 L 115.979219 70.917781 L 116.303438 71.062313 L 116.647188 71.21075 L 116.795625 71.27325 L 116.971406 71.363094 M 131.428438 52.96075 L 131.272188 53.109188 L 131.112031 53.257625 L 130.955781 53.409969 L 130.651094 53.706844 L 130.639375 53.722469 L 130.487031 53.859188 L 130.322969 54.007625 L 130.162813 54.156063 L 130.002656 54.308406 L 129.846406 54.456844 L 129.822969 54.476375 L 129.674531 54.605281 L 129.506563 54.753719 L 129.338594 54.906063 L 129.010469 55.202938 L 129.010469 55.206844 L 128.483125 55.652156 L 128.315156 55.8045 L 128.194063 55.909969 L 128.139375 55.952938 L 127.955781 56.101375 L 127.776094 56.249813 L 127.596406 56.402156 L 127.420625 56.550594 L 127.381563 56.58575 L 127.233125 56.699031 L 127.041719 56.851375 L 126.854219 56.999813 L 126.670625 57.14825 L 126.565156 57.234188 L 126.483125 57.300594 L 126.283906 57.449031 L 126.088594 57.597469 L 125.897188 57.745906 L 125.752656 57.863094 L 125.701875 57.89825 L 125.494844 58.046688 L 125.291719 58.195125 L 125.0925 58.347469 L 124.93625 58.464656 L 124.889375 58.495906 L 124.674531 58.644344 L 124.463594 58.796688 L 124.252656 58.945125 L 124.12375 59.038875 L 123.819063 59.242 L 123.596406 59.394344 L 123.381563 59.542781 L 123.307344 59.593563 L 123.151094 59.691219 L 122.920625 59.843563 L 122.694063 59.992 L 122.494844 60.124813 L 122.4675 60.140438 L 122.221406 60.288875 L 121.979219 60.441219 L 121.744844 60.589656 L 121.682344 60.632625 L 121.494844 60.738094 L 121.240938 60.890438 L 120.990938 61.038875 L 120.865938 61.117 L 120.733125 61.187313 L 120.4675 61.339656 L 120.205781 61.488094 L 120.053438 61.577938 L 119.940156 61.636531 L 119.658906 61.784969 L 119.389375 61.937313 L 119.237031 62.019344 L 119.104219 62.08575 L 118.81125 62.234188 L 118.526094 62.386531 L 118.424531 62.441219 L 118.225313 62.534969 L 117.916719 62.683406 L 117.619844 62.83575 L 117.608125 62.839656 L 117.291719 62.984188 L 116.971406 63.132625 L 116.795625 63.218563 L 116.647188 63.281063 L 116.303438 63.433406 L 115.979219 63.577938 L 115.971406 63.581844 L 115.604219 63.730281 L 115.252656 63.882625 L 115.166719 63.917781 L 114.869844 64.031063 L 114.494844 64.1795 L 114.350313 64.238094 L 114.096406 64.331844 L 113.694063 64.480281 M 141.928438 40.242 L 141.822969 40.394344 L 141.721406 40.542781 L 141.615938 40.691219 L 141.514375 40.843563 L 141.408906 40.992 L 141.307344 41.140438 L 141.225313 41.265438 L 141.205781 41.292781 L 141.096406 41.441219 L 140.990938 41.589656 L 140.881563 41.738094 L 140.776094 41.890438 L 140.565156 42.187313 L 140.459688 42.339656 L 140.408906 42.409969 L 140.350313 42.488094 L 140.240938 42.636531 L 140.127656 42.788875 L 139.799531 43.234188 L 139.694063 43.386531 L 139.596406 43.519344 L 139.584688 43.534969 L 139.4675 43.683406 L 139.354219 43.83575 L 139.127656 44.132625 L 139.014375 44.284969 L 138.905 44.433406 L 138.791719 44.581844 L 138.78 44.601375 L 138.674531 44.730281 L 138.557344 44.882625 L 138.322969 45.1795 L 138.209688 45.331844 L 138.0925 45.480281 L 137.979219 45.628719 L 137.9675 45.64825 L 137.858125 45.781063 L 137.494844 46.226375 L 137.377656 46.378719 L 137.256563 46.527156 L 137.151094 46.663875 L 137.139375 46.675594 L 137.014375 46.827938 L 136.639375 47.27325 L 136.518281 47.425594 L 136.397188 47.574031 L 136.338594 47.64825 L 136.272188 47.722469 L 136.143281 47.874813 L 135.885469 48.171688 L 135.756563 48.324031 L 135.631563 48.472469 L 135.522188 48.601375 L 135.506563 48.620906 L 135.37375 48.769344 L 135.240938 48.921688 L 134.975313 49.218563 L 134.846406 49.370906 L 134.7175 49.519344 L 134.709688 49.527156 L 134.576875 49.667781 L 134.440156 49.820125 L 134.166719 50.117 L 134.033906 50.265438 L 133.901094 50.417781 L 133.893281 50.425594 L 133.756563 50.566219 L 133.615938 50.714656 L 133.475313 50.867 L 133.334688 51.015438 L 133.197969 51.163875 L 133.080781 51.288875 L 133.057344 51.316219 L 132.760469 51.613094 L 132.615938 51.761531 L 132.471406 51.913875 L 132.330781 52.062313 L 132.268281 52.128719 L 132.182344 52.21075 L 132.026094 52.363094 L 131.877656 52.511531 L 131.725313 52.659969 L 131.576875 52.812313 L 131.451875 52.941219 L 131.428438 52.96075 M 149.826875 27.077938 L 149.744844 27.226375 L 149.666719 27.378719 L 149.510469 27.675594 L 149.432344 27.827938 L 149.365938 27.949031 L 149.350313 27.976375 L 149.268281 28.124813 L 149.18625 28.277156 L 148.940156 28.722469 L 148.858125 28.874813 L 148.776094 29.02325 L 148.697969 29.171688 L 148.615938 29.324031 L 148.553438 29.441219 L 148.533906 29.472469 L 148.447969 29.620906 L 148.365938 29.77325 L 148.28 29.921688 L 148.197969 30.070125 L 148.112031 30.218563 L 148.03 30.370906 L 147.947969 30.519344 L 147.862031 30.667781 L 147.78 30.820125 L 147.737031 30.89825 L 147.697969 30.968563 L 147.608125 31.117 L 147.522188 31.269344 L 147.264375 31.714656 L 147.178438 31.867 L 147.0925 32.015438 L 147.010469 32.163875 L 146.924531 32.316219 L 146.744844 32.613094 L 146.655 32.765438 L 146.569063 32.913875 L 146.479219 33.062313 L 146.393281 33.21075 L 146.303438 33.363094 L 146.131563 33.659969 L 146.108125 33.699031 L 146.041719 33.812313 L 145.947969 33.96075 L 145.768281 34.257625 L 145.674531 34.409969 L 145.494844 34.706844 L 145.408906 34.859188 L 145.319063 35.007625 L 145.295625 35.046688 L 145.225313 35.156063 L 145.131563 35.308406 L 144.850313 35.753719 L 144.760469 35.906063 L 144.666719 36.0545 L 144.576875 36.202938 L 144.483125 36.355281 L 144.479219 36.359188 L 144.385469 36.503719 L 144.291719 36.652156 L 144.194063 36.8045 L 144.100313 36.952938 L 144.002656 37.101375 L 143.908906 37.249813 L 143.815156 37.402156 L 143.721406 37.550594 L 143.666719 37.636531 L 143.62375 37.699031 L 143.526094 37.851375 L 143.424531 37.999813 L 143.326875 38.14825 L 143.229219 38.300594 L 142.93625 38.745906 L 142.850313 38.882625 L 142.8425 38.89825 L 142.737031 39.046688 L 142.635469 39.195125 L 142.533906 39.347469 L 142.432344 39.495906 L 142.334688 39.644344 L 142.233125 39.796688 L 142.135469 39.945125 L 142.037813 40.089656 L 142.033906 40.093563 L 141.928438 40.242 M 156.322969 13.613094 L 156.256563 13.765438 L 156.194063 13.913875 L 156.06125 14.21075 L 155.994844 14.363094 L 155.932344 14.511531 L 155.881563 14.628719 L 155.865938 14.659969 L 155.795625 14.812313 L 155.729219 14.96075 L 155.658906 15.109188 L 155.5925 15.261531 L 155.522188 15.409969 L 155.389375 15.706844 L 155.322969 15.859188 L 155.256563 16.007625 L 155.18625 16.156063 L 155.119844 16.308406 L 155.065156 16.433406 L 155.053438 16.456844 L 154.983125 16.605281 L 154.912813 16.757625 L 154.846406 16.906063 L 154.705781 17.202938 L 154.635469 17.355281 L 154.569063 17.503719 L 154.49875 17.652156 L 154.428438 17.8045 L 154.295625 18.101375 L 154.252656 18.195125 L 154.225313 18.253719 L 154.151094 18.402156 L 154.010469 18.699031 L 153.940156 18.851375 L 153.865938 18.999813 L 153.795625 19.14825 L 153.725313 19.300594 L 153.584688 19.597469 L 153.518281 19.745906 L 153.447969 19.89825 L 153.43625 19.917781 L 153.37375 20.046688 L 153.299531 20.195125 L 153.229219 20.347469 L 153.080781 20.644344 L 153.010469 20.796688 L 152.93625 20.945125 L 152.795625 21.242 L 152.721406 21.394344 L 152.651094 21.542781 L 152.62375 21.601375 L 152.576875 21.691219 L 152.502656 21.843563 L 152.354219 22.140438 L 152.28 22.292781 L 152.057344 22.738094 L 151.983125 22.890438 L 151.908906 23.038875 L 151.838594 23.187313 L 151.807344 23.245906 L 151.68625 23.488094 L 151.608125 23.636531 L 151.53 23.788875 L 151.455781 23.937313 L 151.377656 24.08575 L 151.303438 24.234188 L 151.229219 24.386531 L 151.155 24.534969 L 151.076875 24.683406 L 151.002656 24.83575 L 150.994844 24.851375 L 150.924531 24.984188 L 150.846406 25.132625 L 150.768281 25.284969 L 150.533906 25.730281 L 150.455781 25.882625 L 150.377656 26.031063 L 150.303438 26.1795 L 150.225313 26.331844 L 150.182344 26.421688 L 150.147188 26.480281 L 150.065156 26.628719 L 149.987031 26.781063 L 149.905 26.9295 L 149.826875 27.077938 M 161.893281 -0.0001875 L 161.834688 0.14825 L 161.78 0.300594 L 161.725313 0.449031 L 161.666719 0.597469 L 161.612031 0.749813 L 161.580781 0.831844 L 161.553438 0.89825 L 161.43625 1.195125 L 161.377656 1.347469 L 161.260469 1.644344 L 161.201875 1.796688 L 161.143281 1.945125 L 161.088594 2.093563 L 161.03 2.245906 L 160.912813 2.542781 L 160.858125 2.691219 L 160.799531 2.843563 L 160.764375 2.9295 L 160.740938 2.992 L 160.682344 3.140438 L 160.619844 3.292781 L 160.502656 3.589656 L 160.444063 3.742 L 160.381563 3.890438 L 160.264375 4.187313 L 160.205781 4.339656 L 160.088594 4.636531 L 160.03 4.788875 L 159.971406 4.937313 L 159.951875 4.988094 L 159.908906 5.08575 L 159.850313 5.238094 L 159.725313 5.534969 L 159.666719 5.683406 L 159.604219 5.83575 L 159.545625 5.984188 L 159.483125 6.132625 L 159.424531 6.284969 L 159.362031 6.433406 L 159.244844 6.730281 L 159.18625 6.882625 L 159.139375 6.999813 L 159.12375 7.031063 L 159.06125 7.1795 L 158.99875 7.331844 L 158.87375 7.628719 L 158.81125 7.781063 L 158.68625 8.077938 L 158.627656 8.226375 L 158.565156 8.378719 L 158.502656 8.527156 L 158.444063 8.675594 L 158.381563 8.827938 L 158.322969 8.968563 L 158.319063 8.976375 L 158.256563 9.124813 L 158.190156 9.277156 L 158.002656 9.722469 L 157.93625 9.874813 L 157.81125 10.171688 L 157.74875 10.324031 L 157.62375 10.620906 L 157.56125 10.77325 L 157.510469 10.89825 L 157.49875 10.921688 L 157.365938 11.218563 L 157.303438 11.370906 L 157.170625 11.667781 L 157.108125 11.820125 L 157.041719 11.968563 L 156.979219 12.117 L 156.912813 12.269344 L 156.787813 12.566219 L 156.721406 12.714656 L 156.694063 12.784969 L 156.658906 12.867 L 156.588594 13.015438 L 156.522188 13.163875 L 156.455781 13.316219 L 156.322969 13.613094 M 4.655 122.976375 L 4.588594 123.124813 L 4.526094 123.27325 L 4.459688 123.425594 L 4.424531 123.503719 L 4.393281 123.574031 L 4.330781 123.722469 L 4.268281 123.874813 L 4.080781 124.320125 L 4.018281 124.472469 L 3.893281 124.769344 L 3.826875 124.921688 L 3.701875 125.218563 L 3.635469 125.370906 L 3.612031 125.4295 L 3.572969 125.519344 L 3.514375 125.667781 L 3.451875 125.816219 L 3.389375 125.968563 L 3.326875 126.117 L 3.268281 126.265438 L 3.205781 126.417781 L 3.080781 126.714656 L 3.018281 126.867 L 2.830781 127.312313 L 2.795625 127.394344 L 2.768281 127.464656 L 2.651094 127.761531 L 2.588594 127.913875 L 2.53 128.062313 L 2.4675 128.21075 L 2.408906 128.359188 L 2.346406 128.511531 L 2.287813 128.659969 L 2.225313 128.808406 L 2.166719 128.96075 L 2.041719 129.257625 L 1.983125 129.406063 L 1.979219 129.409969 L 1.924531 129.558406 L 1.807344 129.855281 L 1.744844 130.007625 L 1.627656 130.3045 L 1.569063 130.456844 L 1.451875 130.753719 L 1.389375 130.906063 L 1.272188 131.202938 L 1.209688 131.351375 L 1.166719 131.46075 L 1.151094 131.503719 L 1.0925 131.652156 L 1.037813 131.800594 L 0.979219 131.952938 L 0.862031 132.249813 L 0.807344 132.402156 L 0.631563 132.847469 L 0.572969 132.999813 L 0.455781 133.296688 L 0.397188 133.449031 L 0.354219 133.558406 L 0.338594 133.597469 L 0.283906 133.745906 L 0.225313 133.89825 L 0.170625 134.046688 L 0.112031 134.195125 L 0.0573438 134.343563 L -0.00125 134.495906 M 10.9675 109.511531 L 10.940156 109.562313 L 10.889375 109.659969 L 10.815156 109.808406 L 10.740938 109.96075 L 10.666719 110.109188 L 10.588594 110.257625 L 10.514375 110.409969 L 10.43625 110.558406 L 10.362031 110.706844 L 10.283906 110.859188 L 10.205781 111.007625 L 10.131563 111.156063 L 10.12375 111.167781 L 10.057344 111.3045 L 9.983125 111.456844 L 9.908906 111.605281 L 9.838594 111.753719 L 9.764375 111.906063 L 9.615938 112.202938 L 9.537813 112.355281 L 9.31125 112.808406 L 9.240938 112.952938 L 9.100313 113.249813 L 9.026094 113.402156 L 8.955781 113.550594 L 8.881563 113.699031 L 8.81125 113.851375 L 8.662813 114.14825 L 8.5925 114.296688 L 8.518281 114.449031 L 8.494844 114.492 L 8.447969 114.597469 L 8.377656 114.745906 L 8.307344 114.89825 L 8.096406 115.343563 L 8.026094 115.495906 L 7.951875 115.644344 L 7.881563 115.792781 L 7.81125 115.945125 L 7.740938 116.093563 L 7.682344 116.214656 L 7.666719 116.242 L 7.600313 116.394344 L 7.53 116.542781 L 7.463594 116.691219 L 7.393281 116.839656 L 7.326875 116.992 L 7.18625 117.288875 L 7.115938 117.441219 L 7.049531 117.589656 L 6.979219 117.738094 L 6.908906 117.890438 L 6.865938 117.972469 L 6.838594 118.038875 L 6.705781 118.33575 L 6.639375 118.488094 L 6.572969 118.636531 L 6.502656 118.784969 L 6.43625 118.937313 L 6.369844 119.08575 L 6.299531 119.234188 L 6.233125 119.386531 L 6.162813 119.534969 L 6.096406 119.683406 L 6.053438 119.777156 L 6.03 119.831844 L 5.963594 119.984188 L 5.830781 120.281063 L 5.768281 120.433406 L 5.635469 120.730281 L 5.569063 120.882625 L 5.369844 121.327938 L 5.299531 121.480281 L 5.237031 121.617 L 5.233125 121.628719 L 5.170625 121.777156 L 5.108125 121.9295 L 5.041719 122.077938 L 4.979219 122.226375 L 4.912813 122.378719 L 4.850313 122.527156 L 4.783906 122.675594 L 4.721406 122.824031 L 4.655 122.976375 M 18.760469 96.046688 L 18.662813 96.195125 L 18.565156 96.347469 L 18.4675 96.495906 L 18.365938 96.644344 L 18.268281 96.792781 L 18.174531 96.945125 L 18.080781 97.093563 L 17.983125 97.242 L 17.889375 97.394344 L 17.795625 97.542781 L 17.697969 97.691219 L 17.600313 97.843563 L 17.502656 97.992 L 17.451875 98.070125 L 17.408906 98.140438 L 17.319063 98.288875 L 17.225313 98.441219 L 17.135469 98.589656 L 17.041719 98.738094 L 16.947969 98.890438 L 16.760469 99.187313 L 16.666719 99.339656 L 16.639375 99.382625 L 16.576875 99.488094 L 16.397188 99.784969 L 16.307344 99.937313 L 16.2175 100.08575 L 16.12375 100.234188 L 16.033906 100.386531 L 15.944063 100.534969 L 15.850313 100.683406 L 15.822969 100.726375 L 15.764375 100.831844 L 15.674531 100.984188 L 15.502656 101.281063 L 15.412813 101.433406 L 15.322969 101.581844 L 15.237031 101.730281 L 15.147188 101.882625 L 15.057344 102.031063 L 15.010469 102.109188 L 14.971406 102.1795 L 14.885469 102.327938 L 14.799531 102.480281 L 14.627656 102.777156 L 14.541719 102.9295 L 14.369844 103.226375 L 14.283906 103.378719 L 14.194063 103.52325 L 14.194063 103.527156 L 14.03 103.824031 L 13.947969 103.976375 L 13.862031 104.124813 L 13.78 104.27325 L 13.697969 104.425594 L 13.526094 104.722469 L 13.440156 104.874813 L 13.381563 104.980281 L 13.358125 105.02325 L 13.276094 105.171688 L 13.197969 105.320125 L 13.115938 105.472469 L 12.951875 105.769344 L 12.869844 105.921688 L 12.705781 106.218563 L 12.62375 106.370906 L 12.569063 106.468563 L 12.541719 106.519344 L 12.385469 106.816219 L 12.307344 106.968563 L 12.225313 107.117 L 12.147188 107.265438 L 12.065156 107.417781 L 11.987031 107.566219 L 11.905 107.714656 L 11.822969 107.867 L 11.752656 107.995906 L 11.744844 108.015438 L 11.666719 108.163875 L 11.5925 108.312313 L 11.514375 108.464656 L 11.358125 108.761531 L 11.28 108.913875 L 11.12375 109.21075 L 11.045625 109.363094 L 10.9675 109.511531 M 28.834688 83.1795 L 28.697969 83.331844 L 28.276094 83.777156 L 28.135469 83.9295 L 28.037813 84.027156 L 27.994844 84.077938 L 27.858125 84.226375 L 27.725313 84.378719 L 27.451875 84.675594 L 27.31125 84.827938 L 27.225313 84.921688 L 27.178438 84.976375 L 27.049531 85.124813 L 26.916719 85.27325 L 26.787813 85.425594 L 26.655 85.574031 L 26.518281 85.722469 L 26.408906 85.843563 L 26.385469 85.874813 L 26.135469 86.171688 L 26.006563 86.324031 L 25.619844 86.769344 L 25.596406 86.796688 L 25.49875 86.921688 L 25.37375 87.070125 L 25.252656 87.218563 L 25.127656 87.370906 L 24.877656 87.667781 L 24.78 87.781063 L 24.752656 87.816219 L 24.635469 87.968563 L 24.518281 88.117 L 24.397188 88.265438 L 24.276094 88.417781 L 24.033906 88.714656 L 23.9675 88.796688 L 23.916719 88.867 L 23.799531 89.015438 L 23.68625 89.163875 L 23.569063 89.312313 L 23.451875 89.464656 L 23.2175 89.761531 L 23.155 89.843563 L 23.100313 89.913875 L 22.990938 90.062313 L 22.877656 90.21075 L 22.764375 90.363094 L 22.424531 90.808406 L 22.338594 90.917781 L 22.31125 90.96075 L 22.0925 91.257625 L 21.983125 91.409969 L 21.764375 91.706844 L 21.651094 91.859188 L 21.541719 92.007625 L 21.526094 92.027156 L 21.43625 92.156063 L 21.330781 92.3045 L 21.225313 92.456844 L 21.115938 92.605281 L 21.010469 92.753719 L 20.901094 92.906063 L 20.795625 93.0545 L 20.709688 93.171688 L 20.68625 93.202938 L 20.584688 93.355281 L 20.381563 93.652156 L 20.276094 93.800594 L 20.170625 93.952938 L 20.069063 94.101375 L 19.963594 94.249813 L 19.897188 94.343563 L 19.858125 94.402156 L 19.760469 94.550594 L 19.658906 94.699031 L 19.56125 94.851375 L 19.256563 95.296688 L 19.155 95.449031 L 19.080781 95.550594 L 19.053438 95.597469 L 18.955781 95.745906 L 18.858125 95.89825 L 18.760469 96.046688 M 44.600313 71.511531 L 44.322969 71.636531 L 44.276094 71.659969 L 43.975313 71.812313 L 43.666719 71.96075 L 43.510469 72.034969 L 43.365938 72.109188 L 43.080781 72.257625 L 42.783906 72.409969 L 42.694063 72.452938 L 42.506563 72.558406 L 42.233125 72.706844 L 41.951875 72.859188 L 41.881563 72.894344 L 41.68625 73.007625 L 41.424531 73.156063 L 41.155 73.308406 L 41.069063 73.355281 L 40.901094 73.456844 L 40.655 73.605281 L 40.397188 73.753719 L 40.252656 73.839656 L 40.151094 73.906063 L 39.912813 74.0545 L 39.670625 74.202938 L 39.440156 74.343563 L 39.424531 74.355281 L 39.201875 74.503719 L 38.971406 74.652156 L 38.737031 74.800594 L 38.62375 74.874813 L 38.514375 74.952938 L 38.076875 75.249813 L 37.850313 75.402156 L 37.81125 75.425594 L 37.639375 75.550594 L 37.432344 75.699031 L 37.2175 75.851375 L 37.002656 75.999813 L 36.994844 76.003719 L 36.803438 76.14825 L 36.600313 76.296688 L 36.397188 76.449031 L 36.190156 76.597469 L 36.182344 76.601375 L 35.99875 76.745906 L 35.803438 76.89825 L 35.608125 77.046688 L 35.408906 77.195125 L 35.365938 77.226375 L 35.221406 77.347469 L 35.037813 77.495906 L 34.850313 77.644344 L 34.658906 77.792781 L 34.553438 77.878719 L 34.475313 77.945125 L 34.115938 78.242 L 33.93625 78.394344 L 33.752656 78.542781 L 33.737031 78.550594 L 33.580781 78.691219 L 33.408906 78.843563 L 33.057344 79.140438 L 32.924531 79.253719 L 32.885469 79.288875 L 32.721406 79.441219 L 32.385469 79.738094 L 32.213594 79.890438 L 32.112031 79.980281 L 32.049531 80.038875 L 31.889375 80.187313 L 31.729219 80.339656 L 31.569063 80.488094 L 31.405 80.636531 L 31.295625 80.734188 L 31.244844 80.784969 L 31.088594 80.937313 L 30.93625 81.08575 L 30.78 81.234188 L 30.619844 81.386531 L 30.483125 81.515438 L 30.315156 81.683406 L 30.166719 81.83575 L 30.014375 81.984188 L 29.865938 82.132625 L 29.709688 82.281063 L 29.666719 82.324031 L 29.565156 82.433406 L 29.276094 82.730281 L 29.131563 82.882625 L 28.834688 83.1795 M 48.397188 64.558406 L 48.615938 64.628719 L 49.045625 64.777156 L 49.209688 64.839656 L 49.49875 64.9295 L 49.951875 65.077938 L 50.026094 65.105281 L 50.447969 65.226375 L 50.838594 65.351375 L 50.944063 65.378719 L 51.479219 65.527156 L 51.651094 65.581844 L 52.041719 65.675594 L 52.4675 65.792781 L 52.62375 65.827938 L 53.240938 65.976375 L 53.28 65.988094 L 53.928438 66.124813 L 54.096406 66.167781 L 54.666719 66.27325 L 54.908906 66.327938 L 55.483125 66.425594 L 55.725313 66.472469 L 56.408906 66.574031 L 56.537813 66.597469 L 57.354219 66.706844 L 57.549531 66.722469 L 58.166719 66.796688 L 58.983125 66.863094 L 59.244844 66.874813 L 59.795625 66.909969 L 60.608125 66.941219 L 61.424531 66.952938 L 62.237031 66.956844 L 63.865938 66.956844 L 64.682344 66.968563 L 65.494844 66.984188 L 66.31125 67.011531 L 66.557344 67.02325 L 67.12375 67.077938 L 67.916719 67.171688 L 67.916719 67.324031 L 67.12375 67.417781 L 66.557344 67.472469 L 66.31125 67.484188 L 65.494844 67.511531 L 64.682344 67.527156 L 63.865938 67.534969 L 63.053438 67.538875 L 62.237031 67.538875 L 61.424531 67.542781 L 60.608125 67.5545 L 59.795625 67.581844 L 59.244844 67.620906 L 58.983125 67.632625 L 58.166719 67.695125 L 57.549531 67.769344 L 57.354219 67.788875 L 56.537813 67.89825 L 56.408906 67.921688 L 55.725313 68.02325 L 55.483125 68.070125 L 54.908906 68.167781 L 54.666719 68.218563 L 54.096406 68.327938 L 53.928438 68.370906 L 53.28 68.507625 L 53.240938 68.519344 L 52.62375 68.667781 L 52.4675 68.702938 L 52.041719 68.820125 L 51.651094 68.913875 L 51.479219 68.968563 L 50.944063 69.117 L 50.838594 69.144344 L 50.447969 69.265438 L 50.026094 69.390438 L 49.951875 69.417781 L 49.49875 69.566219 L 49.209688 69.656063 L 49.045625 69.714656 L 48.615938 69.867 L 48.397188 69.937313 L 48.197969 70.015438 L 47.795625 70.163875 L 47.580781 70.238094 L 47.401094 70.316219 L 47.022188 70.464656 L 46.768281 70.558406 L 46.643281 70.613094 L 46.287813 70.761531 L 45.951875 70.89825 L 45.924531 70.913875 L 45.5925 71.062313 L 45.244844 71.21075 L 45.139375 71.257625 L 44.920625 71.363094 L 44.600313 71.511531 M 30.619844 53.109188 L 30.78 53.257625 L 30.93625 53.409969 L 31.088594 53.558406 L 31.244844 53.706844 L 31.295625 53.761531 L 31.405 53.859188 L 31.569063 54.007625 L 31.729219 54.156063 L 31.889375 54.308406 L 32.049531 54.456844 L 32.112031 54.515438 L 32.213594 54.605281 L 32.385469 54.753719 L 32.553438 54.906063 L 32.721406 55.0545 L 32.885469 55.202938 L 32.924531 55.242 L 33.057344 55.355281 L 33.408906 55.652156 L 33.580781 55.8045 L 33.737031 55.941219 L 33.752656 55.952938 L 33.93625 56.101375 L 34.115938 56.249813 L 34.295625 56.402156 L 34.475313 56.550594 L 34.553438 56.617 L 34.658906 56.699031 L 34.850313 56.851375 L 35.037813 56.999813 L 35.221406 57.14825 L 35.365938 57.269344 L 35.408906 57.300594 L 35.608125 57.449031 L 35.99875 57.745906 L 36.182344 57.890438 L 36.190156 57.89825 L 36.397188 58.046688 L 36.600313 58.195125 L 36.803438 58.347469 L 36.994844 58.492 L 37.002656 58.495906 L 37.2175 58.644344 L 37.432344 58.796688 L 37.639375 58.945125 L 37.81125 59.070125 L 37.850313 59.093563 L 38.076875 59.242 L 38.295625 59.394344 L 38.514375 59.542781 L 38.62375 59.620906 L 38.737031 59.691219 L 38.971406 59.843563 L 39.201875 59.992 L 39.424531 60.140438 L 39.440156 60.14825 L 39.670625 60.288875 L 39.912813 60.441219 L 40.151094 60.589656 L 40.252656 60.656063 L 40.397188 60.738094 L 40.655 60.890438 L 40.901094 61.038875 L 41.069063 61.140438 L 41.155 61.187313 L 41.424531 61.339656 L 41.68625 61.488094 L 41.881563 61.601375 L 41.951875 61.636531 L 42.233125 61.784969 L 42.506563 61.937313 L 42.694063 62.042781 L 42.783906 62.08575 L 43.080781 62.234188 L 43.365938 62.386531 L 43.510469 62.46075 L 43.666719 62.534969 L 43.975313 62.683406 L 44.276094 62.83575 L 44.322969 62.859188 L 44.600313 62.984188 L 44.920625 63.132625 L 45.139375 63.238094 L 45.244844 63.281063 L 45.5925 63.433406 L 45.924531 63.581844 L 45.951875 63.597469 L 46.287813 63.730281 L 46.643281 63.882625 L 46.768281 63.937313 L 47.022188 64.031063 L 47.401094 64.1795 L 47.580781 64.253719 L 47.795625 64.331844 L 48.197969 64.480281 L 48.397188 64.558406 M 20.069063 40.394344 L 20.170625 40.542781 L 20.276094 40.691219 L 20.381563 40.843563 L 20.584688 41.140438 L 20.68625 41.292781 L 20.709688 41.324031 L 20.795625 41.441219 L 20.901094 41.589656 L 21.010469 41.738094 L 21.115938 41.890438 L 21.225313 42.038875 L 21.330781 42.187313 L 21.43625 42.339656 L 21.526094 42.464656 L 21.541719 42.488094 L 21.651094 42.636531 L 21.764375 42.788875 L 22.0925 43.234188 L 22.201875 43.386531 L 22.31125 43.534969 L 22.338594 43.574031 L 22.424531 43.683406 L 22.537813 43.83575 L 22.764375 44.132625 L 22.877656 44.284969 L 22.990938 44.433406 L 23.100313 44.581844 L 23.155 44.652156 L 23.2175 44.730281 L 23.334688 44.882625 L 23.569063 45.1795 L 23.68625 45.331844 L 23.799531 45.480281 L 23.916719 45.628719 L 23.9675 45.699031 L 24.033906 45.781063 L 24.397188 46.226375 L 24.518281 46.378719 L 24.752656 46.675594 L 24.78 46.714656 L 24.877656 46.827938 L 25.252656 47.27325 L 25.37375 47.425594 L 25.49875 47.574031 L 25.596406 47.695125 L 25.619844 47.722469 L 25.74875 47.874813 L 26.006563 48.171688 L 26.135469 48.324031 L 26.385469 48.620906 L 26.408906 48.64825 L 26.518281 48.769344 L 26.655 48.921688 L 26.787813 49.070125 L 26.916719 49.218563 L 27.049531 49.370906 L 27.178438 49.519344 L 27.225313 49.574031 L 27.31125 49.667781 L 27.451875 49.820125 L 27.725313 50.117 L 27.858125 50.265438 L 27.994844 50.417781 L 28.037813 50.468563 L 28.135469 50.566219 L 28.276094 50.714656 L 28.416719 50.867 L 28.697969 51.163875 L 28.834688 51.316219 L 28.854219 51.331844 L 28.983125 51.464656 L 29.131563 51.613094 L 29.276094 51.761531 L 29.420625 51.913875 L 29.565156 52.062313 L 29.666719 52.171688 L 29.709688 52.21075 L 29.865938 52.363094 L 30.014375 52.511531 L 30.166719 52.659969 L 30.315156 52.812313 L 30.483125 52.980281 L 30.619844 53.109188 M 12.065156 27.077938 L 12.147188 27.226375 L 12.225313 27.378719 L 12.307344 27.527156 L 12.385469 27.675594 L 12.463594 27.827938 L 12.541719 27.976375 L 12.569063 28.027156 L 12.62375 28.124813 L 12.705781 28.277156 L 12.951875 28.722469 L 13.033906 28.874813 L 13.197969 29.171688 L 13.276094 29.324031 L 13.358125 29.472469 L 13.381563 29.515438 L 13.440156 29.620906 L 13.526094 29.77325 L 13.697969 30.070125 L 13.78 30.218563 L 13.862031 30.370906 L 13.947969 30.519344 L 14.03 30.667781 L 14.112031 30.820125 L 14.194063 30.968563 L 14.283906 31.117 L 14.369844 31.269344 L 14.627656 31.714656 L 14.713594 31.867 L 14.885469 32.163875 L 14.971406 32.316219 L 15.010469 32.386531 L 15.057344 32.464656 L 15.147188 32.613094 L 15.237031 32.765438 L 15.322969 32.913875 L 15.502656 33.21075 L 15.588594 33.363094 L 15.674531 33.511531 L 15.764375 33.659969 L 15.822969 33.769344 L 15.850313 33.812313 L 15.944063 33.96075 L 16.12375 34.257625 L 16.2175 34.409969 L 16.397188 34.706844 L 16.487031 34.859188 L 16.576875 35.007625 L 16.639375 35.113094 L 16.666719 35.156063 L 16.760469 35.308406 L 17.041719 35.753719 L 17.135469 35.906063 L 17.225313 36.0545 L 17.319063 36.202938 L 17.408906 36.355281 L 17.451875 36.425594 L 17.502656 36.503719 L 17.600313 36.652156 L 17.697969 36.8045 L 17.795625 36.952938 L 17.983125 37.249813 L 18.080781 37.402156 L 18.268281 37.699031 L 18.365938 37.851375 L 18.4675 37.999813 L 18.565156 38.14825 L 18.662813 38.300594 L 18.955781 38.745906 L 19.053438 38.89825 L 19.080781 38.941219 L 19.155 39.046688 L 19.256563 39.195125 L 19.358125 39.347469 L 19.56125 39.644344 L 19.658906 39.796688 L 19.760469 39.945125 L 19.858125 40.093563 L 19.897188 40.152156 L 19.963594 40.242 L 20.069063 40.394344 M 5.569063 13.613094 L 5.635469 13.765438 L 5.768281 14.062313 L 5.830781 14.21075 L 5.897188 14.363094 L 6.03 14.659969 L 6.053438 14.718563 L 6.096406 14.812313 L 6.162813 14.96075 L 6.233125 15.109188 L 6.299531 15.261531 L 6.369844 15.409969 L 6.502656 15.706844 L 6.572969 15.859188 L 6.705781 16.156063 L 6.772188 16.308406 L 6.838594 16.456844 L 6.865938 16.519344 L 6.908906 16.605281 L 6.979219 16.757625 L 7.049531 16.906063 L 7.115938 17.0545 L 7.18625 17.202938 L 7.256563 17.355281 L 7.326875 17.503719 L 7.393281 17.652156 L 7.463594 17.8045 L 7.53 17.952938 L 7.600313 18.101375 L 7.666719 18.253719 L 7.682344 18.281063 L 7.740938 18.402156 L 7.881563 18.699031 L 7.951875 18.851375 L 8.026094 18.999813 L 8.096406 19.14825 L 8.166719 19.300594 L 8.377656 19.745906 L 8.447969 19.89825 L 8.494844 20.003719 L 8.518281 20.046688 L 8.5925 20.195125 L 8.662813 20.347469 L 8.81125 20.644344 L 8.881563 20.796688 L 8.955781 20.945125 L 9.026094 21.093563 L 9.100313 21.242 L 9.170625 21.394344 L 9.240938 21.542781 L 9.315156 21.691219 L 9.389375 21.843563 L 9.537813 22.140438 L 9.615938 22.292781 L 9.838594 22.738094 L 9.908906 22.890438 L 10.057344 23.187313 L 10.12375 23.327938 L 10.131563 23.339656 L 10.205781 23.488094 L 10.283906 23.636531 L 10.362031 23.788875 L 10.43625 23.937313 L 10.514375 24.08575 L 10.588594 24.234188 L 10.666719 24.386531 L 10.815156 24.683406 L 10.889375 24.83575 L 10.940156 24.933406 L 10.9675 24.984188 L 11.045625 25.132625 L 11.12375 25.284969 L 11.358125 25.730281 L 11.43625 25.882625 L 11.5925 26.1795 L 11.666719 26.331844 L 11.744844 26.480281 L 11.752656 26.495906 L 11.822969 26.628719 L 11.905 26.781063 L 11.987031 26.9295 L 12.065156 27.077938 M -0.00125 -0.0001875 L 0.0573438 0.14825 L 0.112031 0.300594 L 0.170625 0.449031 L 0.225313 0.597469 L 0.283906 0.749813 L 0.338594 0.89825 L 0.354219 0.937313 L 0.397188 1.046688 L 0.455781 1.195125 L 0.514375 1.347469 L 0.631563 1.644344 L 0.690156 1.796688 L 0.807344 2.093563 L 0.862031 2.245906 L 1.037813 2.691219 L 1.0925 2.843563 L 1.151094 2.992 L 1.166719 3.034969 L 1.209688 3.140438 L 1.272188 3.292781 L 1.389375 3.589656 L 1.451875 3.742 L 1.627656 4.187313 L 1.68625 4.339656 L 1.744844 4.488094 L 1.807344 4.636531 L 1.865938 4.788875 L 1.924531 4.937313 L 1.979219 5.08575 L 1.983125 5.089656 L 2.041719 5.238094 L 2.166719 5.534969 L 2.225313 5.683406 L 2.287813 5.83575 L 2.346406 5.984188 L 2.408906 6.132625 L 2.4675 6.284969 L 2.53 6.433406 L 2.588594 6.581844 L 2.651094 6.730281 L 2.709688 6.882625 L 2.768281 7.031063 L 2.795625 7.097469 L 2.830781 7.1795 L 2.893281 7.331844 L 3.018281 7.628719 L 3.080781 7.781063 L 3.268281 8.226375 L 3.326875 8.378719 L 3.451875 8.675594 L 3.514375 8.827938 L 3.572969 8.976375 L 3.612031 9.066219 L 3.635469 9.124813 L 3.701875 9.277156 L 3.826875 9.574031 L 3.893281 9.722469 L 3.955781 9.874813 L 4.080781 10.171688 L 4.143281 10.324031 L 4.268281 10.620906 L 4.330781 10.77325 L 4.393281 10.921688 L 4.424531 10.992 L 4.459688 11.070125 L 4.526094 11.218563 L 4.588594 11.370906 L 4.721406 11.667781 L 4.783906 11.820125 L 4.850313 11.968563 L 4.912813 12.117 L 4.979219 12.269344 L 5.041719 12.417781 L 5.108125 12.566219 L 5.170625 12.714656 L 5.233125 12.867 L 5.237031 12.874813 L 5.299531 13.015438 L 5.369844 13.163875 L 5.43625 13.316219 L 5.569063 13.613094 " transform="matrix(1,0,0,-1,0.72,135.492)"/>
</g>
</svg>
