<?xml version="1.0" encoding="UTF-8"?>
<svg xmlns="http://www.w3.org/2000/svg" xmlns:xlink="http://www.w3.org/1999/xlink" width="164pt" height="136pt" viewBox="0 0 164 136" version="1.1">
<g id="surface1">
<path style="fill:none;stroke-width:0.79701;stroke-linecap:butt;stroke-linejoin:miter;stroke:rgb(0%,0%,100%);stroke-opacity:1;stroke-miterlimit:10;" d="M 160.569063 127.613094 L 160.596406 127.761531 L 160.62375 127.913875 L 160.651094 128.062313 L 160.682344 128.21075 L 160.709688 128.359188 L 160.737031 128.511531 L 160.764375 128.659969 L 160.795625 128.808406 L 160.822969 128.96075 L 160.850313 129.109188 L 160.881563 129.257625 L 160.908906 129.409969 L 160.940156 129.558406 L 160.9675 129.706844 L 160.99875 129.855281 L 161.026094 130.007625 L 161.053438 130.156063 L 161.084688 130.3045 L 161.115938 130.456844 L 161.143281 130.605281 L 161.174531 130.753719 L 161.201875 130.906063 L 161.225313 131.02325 L 161.233125 131.0545 L 161.287813 131.351375 L 161.315156 131.503719 L 161.3425 131.652156 L 161.37375 131.800594 L 161.401094 131.952938 L 161.455781 132.249813 L 161.487031 132.402156 L 161.541719 132.699031 L 161.572969 132.847469 L 161.600313 132.999813 L 161.627656 133.14825 L 161.658906 133.296688 L 161.68625 133.449031 L 161.7175 133.597469 L 161.744844 133.745906 L 161.772188 133.89825 L 161.803438 134.046688 L 161.830781 134.195125 L 161.862031 134.343563 L 161.889375 134.495906 M 157.850313 113.699031 L 157.881563 113.851375 L 157.901094 113.945125 L 157.912813 113.999813 L 157.9675 114.296688 L 157.994844 114.449031 L 158.026094 114.597469 L 158.053438 114.745906 L 158.080781 114.89825 L 158.112031 115.046688 L 158.139375 115.195125 L 158.170625 115.343563 L 158.197969 115.495906 L 158.229219 115.644344 L 158.256563 115.792781 L 158.287813 115.945125 L 158.315156 116.093563 L 158.346406 116.242 L 158.37375 116.394344 L 158.43625 116.691219 L 158.463594 116.839656 L 158.494844 116.992 L 158.526094 117.140438 L 158.553438 117.288875 L 158.565156 117.347469 L 158.584688 117.441219 L 158.639375 117.738094 L 158.670625 117.890438 L 158.725313 118.187313 L 158.756563 118.33575 L 158.783906 118.488094 L 158.815156 118.636531 L 158.8425 118.784969 L 158.869844 118.937313 L 158.901094 119.08575 L 158.928438 119.234188 L 158.959688 119.386531 L 158.990938 119.534969 L 159.018281 119.683406 L 159.049531 119.831844 L 159.076875 119.984188 L 159.139375 120.281063 L 159.166719 120.433406 L 159.229219 120.730281 L 159.229219 120.745906 L 159.256563 120.882625 L 159.283906 121.031063 L 159.315156 121.1795 L 159.3425 121.327938 L 159.369844 121.480281 L 159.401094 121.628719 L 159.428438 121.777156 L 159.455781 121.9295 L 159.487031 122.077938 L 159.514375 122.226375 L 159.545625 122.378719 L 159.572969 122.527156 L 159.604219 122.675594 L 159.631563 122.824031 L 159.662813 122.976375 L 159.690156 123.124813 L 159.721406 123.27325 L 159.74875 123.425594 L 159.81125 123.722469 L 159.838594 123.874813 L 159.869844 124.02325 L 159.897188 124.156063 L 159.901094 124.171688 L 159.928438 124.320125 L 159.955781 124.472469 L 159.983125 124.620906 L 160.014375 124.769344 L 160.041719 124.921688 L 160.069063 125.070125 L 160.100313 125.218563 L 160.127656 125.370906 L 160.155 125.519344 L 160.18625 125.667781 L 160.213594 125.816219 L 160.244844 125.968563 L 160.272188 126.117 L 160.303438 126.265438 L 160.330781 126.417781 L 160.362031 126.566219 L 160.389375 126.714656 L 160.420625 126.867 L 160.447969 127.015438 L 160.479219 127.163875 L 160.506563 127.312313 L 160.537813 127.464656 L 160.56125 127.577938 L 160.569063 127.613094 M 155.162813 99.636531 L 155.190156 99.784969 L 155.2175 99.937313 L 155.240938 100.050594 L 155.24875 100.08575 L 155.272188 100.234188 L 155.299531 100.386531 L 155.381563 100.831844 L 155.408906 100.984188 L 155.463594 101.281063 L 155.490938 101.433406 L 155.545625 101.730281 L 155.572969 101.882625 L 155.600313 102.031063 L 155.631563 102.1795 L 155.658906 102.327938 L 155.68625 102.480281 L 155.7175 102.628719 L 155.744844 102.777156 L 155.772188 102.9295 L 155.803438 103.077938 L 155.830781 103.226375 L 155.858125 103.378719 L 155.889375 103.527156 L 155.905 103.609188 L 155.916719 103.675594 L 155.944063 103.824031 L 155.971406 103.976375 L 156.026094 104.27325 L 156.057344 104.425594 L 156.112031 104.722469 L 156.139375 104.874813 L 156.166719 105.02325 L 156.197969 105.171688 L 156.225313 105.320125 L 156.252656 105.472469 L 156.283906 105.620906 L 156.31125 105.769344 L 156.338594 105.921688 L 156.369844 106.070125 L 156.397188 106.218563 L 156.428438 106.370906 L 156.455781 106.519344 L 156.487031 106.667781 L 156.514375 106.816219 L 156.545625 106.968563 L 156.569063 107.097469 L 156.572969 107.117 L 156.604219 107.265438 L 156.631563 107.417781 L 156.68625 107.714656 L 156.713594 107.867 L 156.744844 108.015438 L 156.799531 108.312313 L 156.826875 108.464656 L 156.858125 108.613094 L 156.885469 108.761531 L 156.916719 108.913875 L 156.944063 109.062313 L 156.975313 109.21075 L 157.002656 109.363094 L 157.033906 109.511531 L 157.06125 109.659969 L 157.0925 109.808406 L 157.119844 109.96075 L 157.182344 110.257625 L 157.209688 110.409969 L 157.237031 110.534969 L 157.240938 110.558406 L 157.268281 110.706844 L 157.295625 110.859188 L 157.326875 111.007625 L 157.381563 111.3045 L 157.408906 111.456844 L 157.440156 111.605281 L 157.4675 111.753719 L 157.49875 111.906063 L 157.553438 112.202938 L 157.584688 112.355281 L 157.612031 112.503719 L 157.643281 112.652156 L 157.670625 112.800594 L 157.701875 112.952938 L 157.733125 113.101375 L 157.760469 113.249813 L 157.791719 113.402156 L 157.822969 113.550594 L 157.850313 113.699031 M 152.819063 85.425594 L 152.858125 85.722469 L 152.877656 85.874813 L 152.901094 86.02325 L 152.920625 86.171688 L 152.944063 86.324031 L 152.963594 86.472469 L 152.987031 86.620906 L 153.006563 86.769344 L 153.03 86.921688 L 153.053438 87.070125 L 153.072969 87.218563 L 153.096406 87.370906 L 153.166719 87.816219 L 153.190156 87.968563 L 153.237031 88.265438 L 153.244844 88.331844 L 153.256563 88.417781 L 153.303438 88.714656 L 153.322969 88.867 L 153.369844 89.163875 L 153.389375 89.312313 L 153.412813 89.464656 L 153.459688 89.761531 L 153.483125 89.913875 L 153.53 90.21075 L 153.553438 90.363094 L 153.600313 90.659969 L 153.627656 90.808406 L 153.651094 90.96075 L 153.697969 91.257625 L 153.725313 91.409969 L 153.74875 91.558406 L 153.776094 91.706844 L 153.799531 91.859188 L 153.822969 92.007625 L 153.877656 92.3045 L 153.901094 92.456844 L 153.908906 92.503719 L 153.928438 92.605281 L 153.951875 92.753719 L 153.975313 92.906063 L 154.022188 93.202938 L 154.049531 93.355281 L 154.096406 93.652156 L 154.12375 93.800594 L 154.147188 93.952938 L 154.174531 94.101375 L 154.197969 94.249813 L 154.225313 94.402156 L 154.24875 94.550594 L 154.276094 94.699031 L 154.303438 94.851375 L 154.326875 94.999813 L 154.381563 95.296688 L 154.408906 95.449031 L 154.463594 95.745906 L 154.487031 95.89825 L 154.541719 96.195125 L 154.569063 96.347469 L 154.576875 96.370906 L 154.596406 96.495906 L 154.62375 96.644344 L 154.647188 96.792781 L 154.674531 96.945125 L 154.701875 97.093563 L 154.725313 97.242 L 154.752656 97.394344 L 154.78 97.542781 L 154.803438 97.691219 L 154.830781 97.843563 L 154.912813 98.288875 L 154.940156 98.441219 L 154.994844 98.738094 L 155.022188 98.890438 L 155.076875 99.187313 L 155.104219 99.339656 L 155.135469 99.488094 L 155.162813 99.636531 M 151.506563 71.062313 L 151.514375 71.21075 L 151.518281 71.363094 L 151.526094 71.511531 L 151.53 71.659969 L 151.537813 71.812313 L 151.541719 71.96075 L 151.557344 72.257625 L 151.56125 72.409969 L 151.576875 72.706844 L 151.584688 72.859188 L 151.600313 73.156063 L 151.608125 73.308406 L 151.631563 73.753719 L 151.643281 73.906063 L 151.658906 74.202938 L 151.670625 74.355281 L 151.678438 74.503719 L 151.690156 74.652156 L 151.697969 74.800594 L 151.709688 74.952938 L 151.733125 75.249813 L 151.740938 75.402156 L 151.764375 75.699031 L 151.776094 75.851375 L 151.81125 76.296688 L 151.822969 76.449031 L 151.834688 76.597469 L 151.850313 76.745906 L 151.862031 76.89825 L 151.87375 77.046688 L 151.889375 77.195125 L 151.901094 77.347469 L 151.916719 77.492 L 151.916719 77.495906 L 151.940156 77.792781 L 151.955781 77.945125 L 151.979219 78.242 L 151.994844 78.394344 L 152.006563 78.542781 L 152.022188 78.691219 L 152.037813 78.843563 L 152.049531 78.992 L 152.080781 79.288875 L 152.096406 79.441219 L 152.108125 79.589656 L 152.12375 79.738094 L 152.139375 79.890438 L 152.170625 80.187313 L 152.18625 80.339656 L 152.201875 80.488094 L 152.221406 80.636531 L 152.237031 80.784969 L 152.252656 80.937313 L 152.272188 81.08575 L 152.287813 81.234188 L 152.303438 81.386531 L 152.322969 81.534969 L 152.338594 81.683406 L 152.358125 81.83575 L 152.37375 81.984188 L 152.412813 82.281063 L 152.432344 82.433406 L 152.447969 82.581844 L 152.4675 82.730281 L 152.487031 82.882625 L 152.526094 83.1795 L 152.545625 83.331844 L 152.565156 83.480281 L 152.580781 83.593563 L 152.584688 83.628719 L 152.604219 83.777156 L 152.62375 83.9295 L 152.639375 84.077938 L 152.658906 84.226375 L 152.678438 84.378719 L 152.7175 84.675594 L 152.737031 84.827938 L 152.795625 85.27325 L 152.819063 85.425594 M 151.955781 56.550594 L 151.940156 56.699031 L 151.928438 56.851375 L 151.916719 56.999813 L 151.916719 57.003719 L 151.901094 57.14825 L 151.889375 57.300594 L 151.87375 57.449031 L 151.850313 57.745906 L 151.834688 57.89825 L 151.81125 58.195125 L 151.799531 58.347469 L 151.776094 58.644344 L 151.764375 58.796688 L 151.740938 59.093563 L 151.733125 59.242 L 151.721406 59.394344 L 151.697969 59.691219 L 151.690156 59.843563 L 151.678438 59.992 L 151.670625 60.140438 L 151.658906 60.288875 L 151.651094 60.441219 L 151.643281 60.589656 L 151.631563 60.738094 L 151.62375 60.890438 L 151.608125 61.187313 L 151.600313 61.339656 L 151.576875 61.784969 L 151.569063 61.937313 L 151.56125 62.08575 L 151.557344 62.234188 L 151.549531 62.386531 L 151.541719 62.534969 L 151.537813 62.683406 L 151.53 62.83575 L 151.526094 62.984188 L 151.518281 63.132625 L 151.514375 63.281063 L 151.506563 63.433406 L 151.49875 63.730281 L 151.494844 63.882625 L 151.487031 64.1795 L 151.479219 64.331844 L 151.479219 64.480281 L 151.471406 64.777156 L 151.4675 64.9295 L 151.459688 65.226375 L 151.459688 65.378719 L 151.455781 65.527156 L 151.455781 65.675594 L 151.451875 65.827938 L 151.451875 65.976375 L 151.447969 66.124813 L 151.447969 66.27325 L 151.444063 66.425594 L 151.444063 68.070125 L 151.447969 68.218563 L 151.447969 68.370906 L 151.451875 68.519344 L 151.451875 68.667781 L 151.455781 68.820125 L 151.455781 68.968563 L 151.459688 69.117 L 151.459688 69.265438 L 151.463594 69.417781 L 151.471406 69.714656 L 151.475313 69.867 L 151.479219 70.015438 L 151.479219 70.163875 L 151.487031 70.316219 L 151.49875 70.761531 L 151.502656 70.913875 L 151.506563 71.062313 M 153.877656 42.187313 L 153.850313 42.339656 L 153.822969 42.488094 L 153.799531 42.636531 L 153.776094 42.788875 L 153.74875 42.937313 L 153.725313 43.08575 L 153.697969 43.234188 L 153.674531 43.386531 L 153.627656 43.683406 L 153.600313 43.83575 L 153.553438 44.132625 L 153.53 44.284969 L 153.459688 44.730281 L 153.43625 44.882625 L 153.389375 45.1795 L 153.369844 45.331844 L 153.322969 45.628719 L 153.303438 45.781063 L 153.256563 46.077938 L 153.244844 46.163875 L 153.237031 46.226375 L 153.213594 46.378719 L 153.166719 46.675594 L 153.143281 46.827938 L 153.072969 47.27325 L 153.053438 47.425594 L 153.006563 47.722469 L 152.987031 47.874813 L 152.963594 48.02325 L 152.944063 48.171688 L 152.920625 48.324031 L 152.901094 48.472469 L 152.877656 48.620906 L 152.858125 48.769344 L 152.838594 48.921688 L 152.819063 49.070125 L 152.795625 49.218563 L 152.776094 49.370906 L 152.737031 49.667781 L 152.7175 49.820125 L 152.658906 50.265438 L 152.639375 50.417781 L 152.62375 50.566219 L 152.604219 50.714656 L 152.584688 50.867 L 152.580781 50.902156 L 152.565156 51.015438 L 152.545625 51.163875 L 152.526094 51.316219 L 152.4675 51.761531 L 152.447969 51.913875 L 152.432344 52.062313 L 152.412813 52.21075 L 152.393281 52.363094 L 152.37375 52.511531 L 152.358125 52.659969 L 152.338594 52.812313 L 152.322969 52.96075 L 152.303438 53.109188 L 152.287813 53.257625 L 152.272188 53.409969 L 152.252656 53.558406 L 152.237031 53.706844 L 152.221406 53.859188 L 152.201875 54.007625 L 152.18625 54.156063 L 152.170625 54.308406 L 152.12375 54.753719 L 152.108125 54.906063 L 152.096406 55.0545 L 152.080781 55.202938 L 152.065156 55.355281 L 152.049531 55.503719 L 152.037813 55.652156 L 152.022188 55.8045 L 152.006563 55.952938 L 151.994844 56.101375 L 151.979219 56.249813 L 151.9675 56.402156 L 151.955781 56.550594 M 156.428438 28.124813 L 156.397188 28.277156 L 156.369844 28.425594 L 156.338594 28.574031 L 156.31125 28.722469 L 156.283906 28.874813 L 156.252656 29.02325 L 156.225313 29.171688 L 156.197969 29.324031 L 156.166719 29.472469 L 156.139375 29.620906 L 156.112031 29.77325 L 156.057344 30.070125 L 156.026094 30.218563 L 155.99875 30.370906 L 155.944063 30.667781 L 155.916719 30.820125 L 155.905 30.882625 L 155.889375 30.968563 L 155.858125 31.117 L 155.830781 31.269344 L 155.803438 31.417781 L 155.772188 31.566219 L 155.744844 31.714656 L 155.7175 31.867 L 155.68625 32.015438 L 155.658906 32.163875 L 155.631563 32.316219 L 155.600313 32.464656 L 155.572969 32.613094 L 155.545625 32.765438 L 155.463594 33.21075 L 155.43625 33.363094 L 155.381563 33.659969 L 155.354219 33.812313 L 155.272188 34.257625 L 155.24875 34.409969 L 155.240938 34.445125 L 155.2175 34.558406 L 155.190156 34.706844 L 155.162813 34.859188 L 155.135469 35.007625 L 155.104219 35.156063 L 155.076875 35.308406 L 154.994844 35.753719 L 154.9675 35.906063 L 154.912813 36.202938 L 154.885469 36.355281 L 154.830781 36.652156 L 154.803438 36.8045 L 154.78 36.952938 L 154.725313 37.249813 L 154.701875 37.402156 L 154.647188 37.699031 L 154.62375 37.851375 L 154.596406 37.999813 L 154.576875 38.124813 L 154.569063 38.14825 L 154.541719 38.300594 L 154.487031 38.597469 L 154.463594 38.745906 L 154.43625 38.89825 L 154.381563 39.195125 L 154.354219 39.347469 L 154.326875 39.495906 L 154.303438 39.644344 L 154.276094 39.796688 L 154.24875 39.945125 L 154.225313 40.093563 L 154.197969 40.242 L 154.174531 40.394344 L 154.147188 40.542781 L 154.12375 40.691219 L 154.096406 40.843563 L 154.049531 41.140438 L 154.022188 41.292781 L 153.951875 41.738094 L 153.928438 41.890438 L 153.908906 41.988094 L 153.901094 42.038875 L 153.877656 42.187313 M 159.166719 14.062313 L 159.139375 14.21075 L 159.108125 14.363094 L 159.076875 14.511531 L 159.049531 14.659969 L 159.018281 14.812313 L 158.990938 14.96075 L 158.959688 15.109188 L 158.928438 15.261531 L 158.901094 15.409969 L 158.869844 15.558406 L 158.8425 15.706844 L 158.815156 15.859188 L 158.783906 16.007625 L 158.756563 16.156063 L 158.725313 16.308406 L 158.670625 16.605281 L 158.639375 16.757625 L 158.584688 17.0545 L 158.565156 17.14825 L 158.553438 17.202938 L 158.526094 17.355281 L 158.463594 17.652156 L 158.43625 17.8045 L 158.37375 18.101375 L 158.346406 18.253719 L 158.315156 18.402156 L 158.287813 18.550594 L 158.256563 18.699031 L 158.229219 18.851375 L 158.197969 18.999813 L 158.170625 19.14825 L 158.139375 19.300594 L 158.112031 19.449031 L 158.080781 19.597469 L 158.053438 19.745906 L 158.026094 19.89825 L 157.994844 20.046688 L 157.9675 20.195125 L 157.940156 20.347469 L 157.912813 20.495906 L 157.901094 20.550594 L 157.881563 20.644344 L 157.850313 20.796688 L 157.822969 20.945125 L 157.760469 21.242 L 157.733125 21.394344 L 157.670625 21.691219 L 157.643281 21.843563 L 157.612031 21.992 L 157.584688 22.140438 L 157.553438 22.292781 L 157.49875 22.589656 L 157.4675 22.738094 L 157.440156 22.890438 L 157.408906 23.038875 L 157.381563 23.187313 L 157.354219 23.339656 L 157.326875 23.488094 L 157.295625 23.636531 L 157.268281 23.788875 L 157.240938 23.937313 L 157.237031 23.96075 L 157.209688 24.08575 L 157.182344 24.234188 L 157.151094 24.386531 L 157.119844 24.534969 L 157.0925 24.683406 L 157.06125 24.83575 L 157.033906 24.984188 L 157.002656 25.132625 L 156.975313 25.284969 L 156.944063 25.433406 L 156.916719 25.581844 L 156.885469 25.730281 L 156.858125 25.882625 L 156.826875 26.031063 L 156.799531 26.1795 L 156.772188 26.331844 L 156.744844 26.480281 L 156.713594 26.628719 L 156.68625 26.781063 L 156.604219 27.226375 L 156.572969 27.378719 L 156.569063 27.39825 L 156.545625 27.527156 L 156.514375 27.675594 L 156.487031 27.827938 L 156.455781 27.976375 L 156.428438 28.124813 M 161.889375 -0.0001875 L 161.862031 0.14825 L 161.830781 0.300594 L 161.803438 0.449031 L 161.772188 0.597469 L 161.744844 0.749813 L 161.7175 0.89825 L 161.68625 1.046688 L 161.658906 1.195125 L 161.627656 1.347469 L 161.572969 1.644344 L 161.541719 1.796688 L 161.487031 2.093563 L 161.455781 2.245906 L 161.37375 2.691219 L 161.3425 2.843563 L 161.287813 3.140438 L 161.260469 3.292781 L 161.233125 3.441219 L 161.225313 3.472469 L 161.201875 3.589656 L 161.174531 3.742 L 161.143281 3.890438 L 161.115938 4.038875 L 161.084688 4.187313 L 161.053438 4.339656 L 160.99875 4.636531 L 160.9675 4.788875 L 160.940156 4.937313 L 160.908906 5.08575 L 160.881563 5.238094 L 160.850313 5.386531 L 160.795625 5.683406 L 160.764375 5.83575 L 160.709688 6.132625 L 160.682344 6.284969 L 160.651094 6.433406 L 160.596406 6.730281 L 160.569063 6.882625 L 160.56125 6.917781 L 160.537813 7.031063 L 160.506563 7.1795 L 160.479219 7.331844 L 160.447969 7.480281 L 160.420625 7.628719 L 160.389375 7.781063 L 160.362031 7.9295 L 160.330781 8.077938 L 160.303438 8.226375 L 160.272188 8.378719 L 160.244844 8.527156 L 160.213594 8.675594 L 160.18625 8.827938 L 160.155 8.976375 L 160.127656 9.124813 L 160.100313 9.277156 L 160.069063 9.425594 L 160.014375 9.722469 L 159.983125 9.874813 L 159.928438 10.171688 L 159.901094 10.324031 L 159.897188 10.339656 L 159.869844 10.472469 L 159.838594 10.620906 L 159.81125 10.77325 L 159.74875 11.070125 L 159.721406 11.218563 L 159.690156 11.370906 L 159.662813 11.519344 L 159.631563 11.667781 L 159.604219 11.820125 L 159.572969 11.968563 L 159.545625 12.117 L 159.514375 12.269344 L 159.487031 12.417781 L 159.455781 12.566219 L 159.428438 12.714656 L 159.401094 12.867 L 159.369844 13.015438 L 159.3425 13.163875 L 159.315156 13.316219 L 159.283906 13.464656 L 159.256563 13.613094 L 159.229219 13.749813 L 159.229219 13.765438 L 159.166719 14.062313 M 0.201875 133.745906 L 0.158906 133.89825 L 0.0417188 134.343563 L -0.00125 134.495906 M 4.194063 119.984188 L 4.147188 120.132625 L 4.104219 120.281063 L 4.057344 120.433406 L 3.963594 120.730281 L 3.920625 120.882625 L 3.78 121.327938 L 3.733125 121.480281 L 3.639375 121.777156 L 3.604219 121.890438 L 3.5925 121.9295 L 3.506563 122.226375 L 3.459688 122.378719 L 3.37375 122.675594 L 3.326875 122.824031 L 3.283906 122.976375 L 3.237031 123.124813 L 3.194063 123.27325 L 3.147188 123.425594 L 3.100313 123.574031 L 3.057344 123.722469 L 3.010469 123.874813 L 2.963594 124.02325 L 2.940156 124.101375 L 2.920625 124.171688 L 2.877656 124.320125 L 2.834688 124.472469 L 2.791719 124.620906 L 2.744844 124.769344 L 2.701875 124.921688 L 2.615938 125.218563 L 2.572969 125.370906 L 2.526094 125.519344 L 2.440156 125.816219 L 2.393281 125.968563 L 2.350313 126.117 L 2.303438 126.265438 L 2.276094 126.363094 L 2.260469 126.417781 L 2.174531 126.714656 L 2.131563 126.867 L 2.0925 127.015438 L 2.006563 127.312313 L 1.963594 127.464656 L 1.877656 127.761531 L 1.830781 127.913875 L 1.701875 128.359188 L 1.658906 128.511531 L 1.615938 128.659969 L 1.612031 128.671688 L 1.572969 128.808406 L 1.53 128.96075 L 1.490938 129.109188 L 1.447969 129.257625 L 1.405 129.409969 L 1.365938 129.558406 L 1.28 129.855281 L 1.237031 130.007625 L 1.194063 130.156063 L 1.155 130.3045 L 1.112031 130.456844 L 1.026094 130.753719 L 0.983125 130.906063 L 0.944063 131.034969 L 0.940156 131.0545 L 0.901094 131.202938 L 0.858125 131.351375 L 0.819063 131.503719 L 0.776094 131.652156 L 0.737031 131.800594 L 0.694063 131.952938 L 0.655 132.101375 L 0.612031 132.249813 L 0.572969 132.402156 L 0.487031 132.699031 L 0.447969 132.847469 L 0.405 132.999813 L 0.362031 133.14825 L 0.322969 133.296688 L 0.28 133.445125 L 0.28 133.449031 L 0.201875 133.745906 M 8.764375 106.370906 L 8.600313 106.816219 L 8.545625 106.968563 L 8.494844 107.117 L 8.440156 107.265438 L 8.381563 107.417781 L 8.272188 107.714656 L 8.260469 107.745906 L 8.221406 107.867 L 8.166719 108.015438 L 8.065156 108.312313 L 8.010469 108.464656 L 7.959688 108.613094 L 7.905 108.761531 L 7.854219 108.913875 L 7.744844 109.21075 L 7.690156 109.363094 L 7.639375 109.511531 L 7.596406 109.624813 L 7.584688 109.659969 L 7.533906 109.808406 L 7.483125 109.96075 L 7.381563 110.257625 L 7.330781 110.409969 L 7.28 110.558406 L 7.225313 110.706844 L 7.174531 110.859188 L 7.12375 111.007625 L 7.069063 111.156063 L 7.018281 111.3045 L 6.963594 111.456844 L 6.932344 111.5545 L 6.912813 111.605281 L 6.865938 111.753719 L 6.815156 111.906063 L 6.713594 112.202938 L 6.662813 112.355281 L 6.615938 112.503719 L 6.514375 112.800594 L 6.463594 112.952938 L 6.362031 113.249813 L 6.307344 113.402156 L 6.264375 113.52325 L 6.256563 113.550594 L 6.209688 113.699031 L 6.162813 113.851375 L 6.112031 113.999813 L 6.065156 114.14825 L 6.014375 114.296688 L 5.9675 114.449031 L 5.865938 114.745906 L 5.819063 114.89825 L 5.666719 115.343563 L 5.600313 115.542781 L 5.569063 115.644344 L 5.522188 115.792781 L 5.475313 115.945125 L 5.428438 116.093563 L 5.377656 116.242 L 5.330781 116.394344 L 5.237031 116.691219 L 5.18625 116.839656 L 5.139375 116.992 L 5.088594 117.140438 L 5.041719 117.288875 L 4.990938 117.441219 L 4.944063 117.589656 L 4.93625 117.613094 L 4.897188 117.738094 L 4.850313 117.890438 L 4.709688 118.33575 L 4.662813 118.488094 L 4.569063 118.784969 L 4.522188 118.937313 L 4.428438 119.234188 L 4.381563 119.386531 L 4.330781 119.534969 L 4.283906 119.683406 L 4.272188 119.726375 L 4.237031 119.831844 L 4.194063 119.984188 M 14.213594 92.906063 L 14.080781 93.202938 L 14.014375 93.355281 L 13.815156 93.800594 L 13.744844 93.952938 L 13.678438 94.101375 L 13.608125 94.249813 L 13.580781 94.312313 L 13.545625 94.402156 L 13.479219 94.550594 L 13.416719 94.699031 L 13.350313 94.851375 L 13.287813 94.999813 L 13.155 95.296688 L 13.0925 95.449031 L 12.959688 95.745906 L 12.916719 95.839656 L 12.893281 95.89825 L 12.768281 96.195125 L 12.705781 96.347469 L 12.518281 96.792781 L 12.451875 96.945125 L 12.389375 97.093563 L 12.322969 97.242 L 12.260469 97.394344 L 12.252656 97.409969 L 12.197969 97.542781 L 12.139375 97.691219 L 12.076875 97.843563 L 12.014375 97.992 L 11.955781 98.140438 L 11.893281 98.288875 L 11.830781 98.441219 L 11.705781 98.738094 L 11.643281 98.890438 L 11.584688 99.02325 L 11.580781 99.038875 L 11.522188 99.187313 L 11.463594 99.339656 L 11.405 99.488094 L 11.3425 99.636531 L 11.283906 99.784969 L 11.225313 99.937313 L 11.162813 100.08575 L 11.104219 100.234188 L 11.041719 100.386531 L 10.979219 100.534969 L 10.920625 100.6795 L 10.920625 100.683406 L 10.862031 100.831844 L 10.803438 100.984188 L 10.74875 101.132625 L 10.690156 101.281063 L 10.631563 101.433406 L 10.514375 101.730281 L 10.455781 101.882625 L 10.397188 102.031063 L 10.334688 102.1795 L 10.276094 102.327938 L 10.2175 102.480281 L 10.108125 102.777156 L 10.049531 102.9295 L 9.994844 103.077938 L 9.93625 103.226375 L 9.881563 103.378719 L 9.705781 103.824031 L 9.647188 103.976375 L 9.537813 104.27325 L 9.483125 104.425594 L 9.428438 104.574031 L 9.369844 104.722469 L 9.315156 104.874813 L 9.151094 105.320125 L 9.0925 105.472469 L 9.037813 105.620906 L 8.979219 105.769344 L 8.924531 105.913875 L 8.924531 105.921688 L 8.815156 106.218563 L 8.764375 106.370906 M 21.0925 79.890438 L 20.99875 80.038875 L 20.901094 80.187313 L 20.897188 80.191219 L 20.81125 80.339656 L 20.541719 80.784969 L 20.447969 80.937313 L 20.260469 81.234188 L 20.233125 81.281063 L 20.174531 81.386531 L 20.088594 81.534969 L 19.99875 81.683406 L 19.912813 81.83575 L 19.643281 82.281063 L 19.569063 82.406063 L 19.553438 82.433406 L 19.471406 82.581844 L 19.385469 82.730281 L 19.303438 82.882625 L 19.131563 83.1795 L 19.045625 83.331844 L 18.955781 83.480281 L 18.901094 83.570125 L 18.869844 83.628719 L 18.791719 83.777156 L 18.709688 83.9295 L 18.545625 84.226375 L 18.463594 84.378719 L 18.291719 84.675594 L 18.237031 84.77325 L 18.209688 84.827938 L 17.975313 85.27325 L 17.893281 85.425594 L 17.815156 85.574031 L 17.733125 85.722469 L 17.651094 85.874813 L 17.572969 86.015438 L 17.494844 86.171688 L 17.416719 86.324031 L 17.3425 86.472469 L 17.18625 86.769344 L 17.108125 86.921688 L 17.03 87.070125 L 16.947969 87.218563 L 16.908906 87.296688 L 16.87375 87.370906 L 16.651094 87.816219 L 16.576875 87.968563 L 16.49875 88.117 L 16.424531 88.265438 L 16.346406 88.417781 L 16.268281 88.566219 L 16.240938 88.620906 L 16.197969 88.714656 L 16.12375 88.867 L 16.053438 89.015438 L 15.979219 89.163875 L 15.908906 89.312313 L 15.834688 89.464656 L 15.68625 89.761531 L 15.612031 89.913875 L 15.576875 89.980281 L 15.537813 90.062313 L 15.471406 90.21075 L 15.401094 90.363094 L 15.190156 90.808406 L 15.115938 90.96075 L 15.045625 91.109188 L 14.971406 91.257625 L 14.912813 91.382625 L 14.901094 91.409969 L 14.834688 91.558406 L 14.764375 91.706844 L 14.697969 91.859188 L 14.627656 92.007625 L 14.56125 92.156063 L 14.490938 92.3045 L 14.420625 92.456844 L 14.28 92.753719 L 14.24875 92.827938 L 14.213594 92.906063 M 32.365938 67.769344 L 32.201875 67.640438 L 31.537813 67.644344 L 31.408906 67.769344 L 31.205781 67.921688 L 30.955781 68.070125 L 30.87375 68.109188 L 30.772188 68.218563 L 30.608125 68.370906 L 30.420625 68.519344 L 30.209688 68.667781 L 30.065156 68.820125 L 29.905 68.968563 L 29.733125 69.117 L 29.545625 69.265438 L 29.541719 69.269344 L 29.405 69.417781 L 29.256563 69.566219 L 29.096406 69.714656 L 28.924531 69.867 L 28.877656 69.906063 L 28.78 70.015438 L 28.639375 70.163875 L 28.490938 70.316219 L 28.334688 70.464656 L 28.213594 70.574031 L 28.178438 70.613094 L 28.045625 70.761531 L 27.908906 70.913875 L 27.764375 71.062313 L 27.549531 71.277156 L 27.479219 71.363094 L 27.350313 71.511531 L 27.213594 71.659969 L 27.076875 71.812313 L 26.93625 71.96075 L 26.881563 72.011531 L 26.803438 72.109188 L 26.682344 72.257625 L 26.553438 72.409969 L 26.287813 72.706844 L 26.2175 72.781063 L 26.158906 72.859188 L 26.041719 73.007625 L 25.920625 73.156063 L 25.795625 73.308406 L 25.666719 73.456844 L 25.553438 73.58575 L 25.537813 73.605281 L 25.424531 73.753719 L 25.31125 73.906063 L 25.069063 74.202938 L 24.947969 74.355281 L 24.889375 74.421688 L 24.830781 74.503719 L 24.721406 74.652156 L 24.608125 74.800594 L 24.494844 74.952938 L 24.260469 75.249813 L 24.221406 75.296688 L 24.151094 75.402156 L 24.041719 75.550594 L 23.93625 75.699031 L 23.826875 75.851375 L 23.600313 76.14825 L 23.557344 76.202938 L 23.494844 76.296688 L 23.389375 76.449031 L 23.287813 76.597469 L 23.182344 76.745906 L 23.072969 76.89825 L 22.9675 77.046688 L 22.893281 77.144344 L 22.858125 77.195125 L 22.760469 77.347469 L 22.662813 77.495906 L 22.459688 77.792781 L 22.354219 77.945125 L 22.24875 78.093563 L 22.229219 78.124813 L 22.151094 78.242 L 22.057344 78.394344 L 21.862031 78.691219 L 21.764375 78.843563 L 21.56125 79.140438 L 21.471406 79.288875 L 21.377656 79.441219 L 21.190156 79.738094 L 21.0925 79.890438 M 60.135469 68.163875 L 60.037813 68.218563 L 59.740938 68.370906 L 59.471406 68.488094 L 59.412813 68.519344 L 59.112031 68.667781 L 58.807344 68.8045 L 58.783906 68.820125 L 58.475313 68.968563 L 58.139375 69.117 L 58.135469 69.117 L 57.815156 69.265438 L 57.475313 69.413875 L 57.471406 69.417781 L 57.131563 69.566219 L 56.81125 69.699031 L 56.776094 69.714656 L 56.420625 69.867 L 56.147188 69.972469 L 56.049531 70.015438 L 55.670625 70.163875 L 55.479219 70.234188 L 55.28 70.316219 L 54.87375 70.464656 L 54.815156 70.484188 L 54.455781 70.613094 L 54.151094 70.718563 L 54.018281 70.761531 L 53.565156 70.913875 L 53.487031 70.937313 L 53.084688 71.062313 L 52.819063 71.140438 L 52.580781 71.21075 L 52.155 71.331844 L 52.041719 71.363094 L 51.490938 71.503719 L 51.463594 71.511531 L 50.826875 71.659969 L 50.158906 71.800594 L 50.108125 71.812313 L 49.494844 71.921688 L 49.260469 71.96075 L 48.830781 72.027156 L 48.194063 72.109188 L 48.166719 72.113094 L 47.49875 72.1795 L 46.834688 72.226375 L 46.170625 72.257625 L 45.99875 72.257625 L 45.506563 72.265438 L 45.166719 72.257625 L 44.838594 72.253719 L 44.174531 72.218563 L 43.510469 72.163875 L 43.026094 72.109188 L 42.846406 72.089656 L 42.178438 71.988094 L 42.014375 71.96075 L 41.514375 71.867 L 41.244844 71.812313 L 40.850313 71.722469 L 40.600313 71.659969 L 40.18625 71.5545 L 40.03 71.511531 L 39.518281 71.363094 L 39.053438 71.21075 L 38.854219 71.144344 L 38.62375 71.062313 L 38.213594 70.913875 L 38.190156 70.902156 L 37.834688 70.761531 L 37.522188 70.636531 L 37.471406 70.613094 L 37.127656 70.464656 L 36.858125 70.343563 L 36.795625 70.316219 L 36.479219 70.163875 L 36.194063 70.02325 L 36.174531 70.015438 L 35.877656 69.867 L 35.596406 69.714656 L 35.53 69.675594 L 35.315156 69.566219 L 35.049531 69.417781 L 34.862031 69.3045 L 34.791719 69.265438 L 34.53 69.117 L 34.287813 68.968563 L 34.197969 68.906063 L 34.037813 68.820125 L 33.795625 68.667781 L 33.576875 68.519344 L 33.533906 68.488094 L 33.326875 68.370906 L 33.0925 68.218563 L 32.893281 68.070125 L 32.869844 68.046688 L 32.608125 67.921688 L 32.365938 67.769344 M 77.612031 77.644344 L 77.428438 77.515438 L 77.397188 77.495906 L 77.178438 77.347469 L 76.963594 77.195125 L 76.764375 77.0545 L 76.752656 77.046688 L 76.533906 76.89825 L 76.319063 76.745906 L 76.108125 76.597469 L 76.096406 76.589656 L 75.889375 76.449031 L 75.674531 76.296688 L 75.463594 76.14825 L 75.432344 76.124813 L 75.24875 75.999813 L 75.033906 75.851375 L 74.822969 75.699031 L 74.768281 75.659969 L 74.604219 75.550594 L 74.389375 75.402156 L 74.178438 75.249813 L 74.104219 75.199031 L 73.959688 75.101375 L 73.744844 74.952938 L 73.53 74.800594 L 73.43625 74.734188 L 73.315156 74.652156 L 73.096406 74.503719 L 72.885469 74.355281 L 72.772188 74.27325 L 72.666719 74.202938 L 72.447969 74.0545 L 72.233125 73.906063 L 72.108125 73.816219 L 72.018281 73.753719 L 71.795625 73.605281 L 71.580781 73.456844 L 71.444063 73.359188 L 71.365938 73.308406 L 71.143281 73.156063 L 70.924531 73.007625 L 70.776094 72.902156 L 70.705781 72.859188 L 70.483125 72.706844 L 70.264375 72.558406 L 70.112031 72.452938 L 70.045625 72.409969 L 69.815156 72.257625 L 69.596406 72.109188 L 69.447969 72.003719 L 69.37375 71.96075 L 69.143281 71.812313 L 68.924531 71.659969 L 68.783906 71.562313 L 68.697969 71.511531 L 68.4675 71.363094 L 68.240938 71.21075 L 68.115938 71.124813 L 68.014375 71.062313 L 67.78 70.913875 L 67.553438 70.761531 L 67.451875 70.691219 L 67.319063 70.613094 L 67.084688 70.464656 L 66.854219 70.316219 L 66.787813 70.265438 L 66.615938 70.163875 L 66.37375 70.015438 L 66.147188 69.867 L 66.12375 69.847469 L 65.897188 69.714656 L 65.655 69.566219 L 65.455781 69.433406 L 65.424531 69.417781 L 65.162813 69.265438 L 64.920625 69.117 L 64.791719 69.031063 L 64.674531 68.968563 L 64.412813 68.820125 L 64.174531 68.667781 L 64.127656 68.636531 L 63.897188 68.519344 L 63.635469 68.370906 L 63.463594 68.253719 L 63.377656 68.218563 L 63.076875 68.070125 L 62.826875 67.921688 L 62.795625 67.89825 L 62.451875 67.769344 L 62.151094 67.620906 L 62.131563 67.609188 L 61.4675 67.581844 L 61.405 67.620906 L 61.041719 67.769344 L 60.799531 67.843563 L 60.674531 67.921688 L 60.365938 68.070125 L 60.135469 68.163875 M 96.666719 88.265438 L 96.201875 88.117 L 96.049531 88.066219 L 95.760469 87.968563 L 95.385469 87.83575 L 95.334688 87.816219 L 94.932344 87.667781 L 94.721406 87.589656 L 94.537813 87.519344 L 94.158906 87.370906 L 94.053438 87.327938 L 93.791719 87.218563 L 93.432344 87.070125 L 93.389375 87.050594 L 93.088594 86.921688 L 92.744844 86.769344 L 92.725313 86.761531 L 92.416719 86.620906 L 92.088594 86.472469 L 92.06125 86.456844 L 91.772188 86.324031 L 91.455781 86.171688 L 91.393281 86.140438 L 91.151094 86.02325 L 90.846406 85.874813 L 90.729219 85.812313 L 90.549531 85.722469 L 90.256563 85.574031 L 90.065156 85.472469 L 89.9675 85.425594 L 89.68625 85.27325 L 89.401094 85.124813 L 89.12375 84.976375 L 88.850313 84.827938 L 88.733125 84.761531 L 88.580781 84.675594 L 88.31125 84.527156 L 88.069063 84.390438 L 88.045625 84.378719 L 87.78 84.226375 L 87.522188 84.077938 L 87.405 84.011531 L 87.264375 83.9295 L 87.006563 83.777156 L 86.752656 83.628719 L 86.740938 83.620906 L 86.502656 83.480281 L 86.252656 83.331844 L 86.072969 83.222469 L 86.002656 83.1795 L 85.756563 83.031063 L 85.514375 82.882625 L 85.408906 82.816219 L 85.268281 82.730281 L 85.03 82.581844 L 84.787813 82.433406 L 84.744844 82.402156 L 84.549531 82.281063 L 84.31125 82.132625 L 83.8425 81.83575 L 83.608125 81.683406 L 83.412813 81.558406 L 83.377656 81.534969 L 83.147188 81.386531 L 82.916719 81.234188 L 82.74875 81.124813 L 82.68625 81.08575 L 82.459688 80.937313 L 82.233125 80.784969 L 82.084688 80.687313 L 82.006563 80.636531 L 81.78 80.488094 L 81.416719 80.245906 L 81.330781 80.187313 L 80.885469 79.890438 L 80.752656 79.796688 L 80.666719 79.738094 L 80.221406 79.441219 L 80.088594 79.347469 L 80.002656 79.288875 L 79.565156 78.992 L 79.424531 78.894344 L 79.346406 78.843563 L 79.127656 78.691219 L 78.908906 78.542781 L 78.756563 78.437313 L 78.694063 78.394344 L 78.475313 78.242 L 78.260469 78.093563 L 78.0925 77.976375 L 78.045625 77.945125 L 77.826875 77.792781 L 77.612031 77.644344 M 117.944063 80.636531 L 117.850313 80.784969 L 117.756563 80.937313 L 117.569063 81.234188 L 117.471406 81.386531 L 117.37375 81.534969 L 117.330781 81.597469 L 117.272188 81.683406 L 117.166719 81.83575 L 116.955781 82.132625 L 116.846406 82.281063 L 116.737031 82.433406 L 116.666719 82.531063 L 116.627656 82.581844 L 116.510469 82.730281 L 116.389375 82.882625 L 116.272188 83.031063 L 116.151094 83.1795 L 116.03 83.331844 L 116.002656 83.363094 L 115.901094 83.480281 L 115.772188 83.628719 L 115.639375 83.777156 L 115.506563 83.9295 L 115.369844 84.077938 L 115.338594 84.117 L 115.229219 84.226375 L 115.084688 84.378719 L 114.670625 84.792781 L 114.639375 84.827938 L 114.475313 84.976375 L 114.315156 85.124813 L 114.151094 85.27325 L 114.006563 85.406063 L 113.987031 85.425594 L 113.627656 85.722469 L 113.447969 85.874813 L 113.3425 85.96075 L 113.260469 86.02325 L 113.065156 86.171688 L 112.865938 86.324031 L 112.678438 86.46075 L 112.662813 86.472469 L 112.444063 86.620906 L 112.221406 86.769344 L 112.010469 86.913875 L 111.99875 86.921688 L 111.756563 87.070125 L 111.510469 87.218563 L 111.346406 87.316219 L 111.252656 87.370906 L 110.979219 87.519344 L 110.701875 87.667781 L 110.682344 87.6795 L 110.397188 87.816219 L 110.084688 87.968563 L 110.014375 87.999813 L 109.744844 88.117 L 109.393281 88.265438 L 109.350313 88.284969 L 108.994844 88.417781 L 108.68625 88.531063 L 108.576875 88.566219 L 108.112031 88.714656 L 108.022188 88.745906 L 107.572969 88.867 L 107.354219 88.925594 L 106.947969 89.015438 L 106.690156 89.074031 L 106.174531 89.163875 L 106.026094 89.191219 L 105.362031 89.281063 L 105.002656 89.312313 L 104.694063 89.343563 L 104.03 89.378719 L 103.365938 89.390438 L 102.701875 89.374813 L 102.033906 89.33575 L 101.78 89.312313 L 101.369844 89.277156 L 100.705781 89.195125 L 100.514375 89.163875 L 100.041719 89.089656 L 99.631563 89.015438 L 99.37375 88.968563 L 98.901094 88.867 L 98.709688 88.824031 L 98.268281 88.714656 L 98.045625 88.659969 L 97.694063 88.566219 L 97.381563 88.480281 L 97.162813 88.417781 L 96.713594 88.281063 L 96.666719 88.265438 M 121.553438 66.874813 L 121.553438 67.620906 L 121.549531 67.769344 L 121.545625 67.921688 L 121.537813 68.218563 L 121.53 68.370906 L 121.526094 68.519344 L 121.518281 68.667781 L 121.510469 68.820125 L 121.49875 68.968563 L 121.490938 69.117 L 121.479219 69.265438 L 121.4675 69.417781 L 121.444063 69.714656 L 121.428438 69.867 L 121.397188 70.163875 L 121.381563 70.316219 L 121.365938 70.464656 L 121.326875 70.761531 L 121.322969 70.812313 L 121.307344 70.913875 L 121.287813 71.062313 L 121.264375 71.21075 L 121.240938 71.363094 L 121.194063 71.659969 L 121.170625 71.812313 L 121.088594 72.257625 L 121.06125 72.409969 L 120.99875 72.706844 L 120.9675 72.859188 L 120.905 73.156063 L 120.869844 73.308406 L 120.764375 73.753719 L 120.725313 73.906063 L 120.690156 74.0545 L 120.658906 74.175594 L 120.651094 74.202938 L 120.608125 74.355281 L 120.479219 74.800594 L 120.43625 74.952938 L 120.3425 75.249813 L 120.295625 75.402156 L 120.24875 75.550594 L 120.197969 75.699031 L 120.151094 75.851375 L 120.049531 76.14825 L 119.994844 76.296688 L 119.990938 76.308406 L 119.940156 76.449031 L 119.885469 76.597469 L 119.826875 76.745906 L 119.768281 76.89825 L 119.651094 77.195125 L 119.588594 77.347469 L 119.53 77.495906 L 119.405 77.792781 L 119.338594 77.945125 L 119.326875 77.972469 L 119.272188 78.093563 L 119.201875 78.242 L 119.131563 78.394344 L 118.990938 78.691219 L 118.920625 78.843563 L 118.772188 79.140438 L 118.694063 79.288875 L 118.662813 79.355281 L 118.615938 79.441219 L 118.537813 79.589656 L 118.455781 79.738094 L 118.37375 79.890438 L 118.291719 80.038875 L 118.205781 80.187313 L 118.119844 80.339656 L 118.033906 80.488094 L 117.99875 80.550594 L 117.944063 80.636531 M 117.471406 53.109188 L 117.569063 53.257625 L 117.662813 53.409969 L 117.850313 53.706844 L 117.944063 53.859188 L 117.99875 53.945125 L 118.033906 54.007625 L 118.119844 54.156063 L 118.205781 54.308406 L 118.291719 54.456844 L 118.455781 54.753719 L 118.537813 54.906063 L 118.615938 55.0545 L 118.662813 55.136531 L 118.694063 55.202938 L 118.772188 55.355281 L 118.920625 55.652156 L 118.990938 55.8045 L 119.201875 56.249813 L 119.272188 56.402156 L 119.326875 56.52325 L 119.338594 56.550594 L 119.405 56.699031 L 119.4675 56.851375 L 119.53 56.999813 L 119.588594 57.14825 L 119.651094 57.300594 L 119.826875 57.745906 L 119.885469 57.89825 L 119.940156 58.046688 L 119.990938 58.187313 L 119.994844 58.195125 L 120.049531 58.347469 L 120.151094 58.644344 L 120.197969 58.796688 L 120.24875 58.945125 L 120.3425 59.242 L 120.389375 59.394344 L 120.43625 59.542781 L 120.479219 59.691219 L 120.522188 59.843563 L 120.651094 60.288875 L 120.658906 60.320125 L 120.690156 60.441219 L 120.725313 60.589656 L 120.764375 60.738094 L 120.799531 60.890438 L 120.869844 61.187313 L 120.905 61.339656 L 120.99875 61.784969 L 121.03 61.937313 L 121.06125 62.08575 L 121.088594 62.234188 L 121.115938 62.386531 L 121.170625 62.683406 L 121.194063 62.83575 L 121.264375 63.281063 L 121.287813 63.433406 L 121.307344 63.581844 L 121.322969 63.683406 L 121.326875 63.730281 L 121.346406 63.882625 L 121.365938 64.031063 L 121.381563 64.1795 L 121.397188 64.331844 L 121.444063 64.777156 L 121.455781 64.9295 L 121.479219 65.226375 L 121.490938 65.378719 L 121.49875 65.527156 L 121.510469 65.675594 L 121.518281 65.827938 L 121.526094 65.976375 L 121.53 66.124813 L 121.537813 66.27325 L 121.541719 66.425594 L 121.549531 66.722469 L 121.553438 66.874813 M 95.334688 46.675594 L 95.385469 46.659969 L 95.760469 46.527156 L 96.049531 46.425594 L 96.201875 46.378719 L 96.666719 46.226375 L 96.713594 46.21075 L 97.162813 46.077938 L 97.381563 46.015438 L 97.694063 45.9295 L 98.045625 45.831844 L 98.268281 45.781063 L 98.709688 45.671688 L 98.901094 45.628719 L 99.37375 45.527156 L 99.631563 45.480281 L 100.041719 45.402156 L 100.514375 45.331844 L 100.705781 45.300594 L 101.369844 45.218563 L 101.78 45.1795 L 102.033906 45.156063 L 102.701875 45.120906 L 103.365938 45.105281 L 104.03 45.117 L 104.694063 45.152156 L 105.002656 45.1795 L 105.362031 45.214656 L 106.026094 45.3045 L 106.174531 45.331844 L 106.690156 45.421688 L 106.947969 45.480281 L 107.354219 45.570125 L 107.572969 45.628719 L 108.022188 45.749813 L 108.112031 45.781063 L 108.576875 45.9295 L 108.68625 45.964656 L 108.994844 46.077938 L 109.350313 46.21075 L 109.393281 46.226375 L 109.744844 46.378719 L 110.014375 46.492 L 110.084688 46.527156 L 110.397188 46.675594 L 110.682344 46.816219 L 110.701875 46.827938 L 110.979219 46.976375 L 111.252656 47.124813 L 111.346406 47.175594 L 111.510469 47.27325 L 111.756563 47.425594 L 111.99875 47.574031 L 112.221406 47.722469 L 112.444063 47.874813 L 112.662813 48.02325 L 112.678438 48.031063 L 112.865938 48.171688 L 113.065156 48.324031 L 113.260469 48.472469 L 113.3425 48.534969 L 113.447969 48.620906 L 113.627656 48.769344 L 113.807344 48.921688 L 113.987031 49.070125 L 114.006563 49.08575 L 114.151094 49.218563 L 114.315156 49.370906 L 114.475313 49.519344 L 114.639375 49.667781 L 114.670625 49.699031 L 114.787813 49.820125 L 115.084688 50.117 L 115.229219 50.265438 L 115.338594 50.378719 L 115.369844 50.417781 L 115.506563 50.566219 L 115.639375 50.714656 L 115.772188 50.867 L 115.901094 51.015438 L 116.002656 51.128719 L 116.03 51.163875 L 116.151094 51.316219 L 116.272188 51.464656 L 116.389375 51.613094 L 116.510469 51.761531 L 116.666719 51.964656 L 116.737031 52.062313 L 116.846406 52.21075 L 116.955781 52.363094 L 117.166719 52.659969 L 117.272188 52.812313 L 117.330781 52.89825 L 117.37375 52.96075 L 117.471406 53.109188 M 76.764375 57.441219 L 76.963594 57.300594 L 77.178438 57.14825 L 77.397188 56.999813 L 77.428438 56.980281 L 77.612031 56.851375 L 77.826875 56.699031 L 78.045625 56.550594 L 78.0925 56.519344 L 78.260469 56.402156 L 78.475313 56.249813 L 78.694063 56.101375 L 78.756563 56.058406 L 78.908906 55.952938 L 79.127656 55.8045 L 79.346406 55.652156 L 79.424531 55.601375 L 79.565156 55.503719 L 79.783906 55.355281 L 80.002656 55.202938 L 80.088594 55.14825 L 80.221406 55.0545 L 80.444063 54.906063 L 80.666719 54.753719 L 80.752656 54.695125 L 80.885469 54.605281 L 81.330781 54.308406 L 81.416719 54.249813 L 81.78 54.007625 L 82.006563 53.859188 L 82.084688 53.808406 L 82.233125 53.706844 L 82.68625 53.409969 L 82.74875 53.370906 L 82.916719 53.257625 L 83.377656 52.96075 L 83.412813 52.937313 L 83.608125 52.812313 L 83.8425 52.659969 L 84.31125 52.363094 L 84.549531 52.21075 L 84.744844 52.089656 L 84.787813 52.062313 L 85.03 51.913875 L 85.268281 51.761531 L 85.408906 51.6795 L 85.514375 51.613094 L 85.756563 51.464656 L 86.002656 51.316219 L 86.072969 51.27325 L 86.252656 51.163875 L 86.502656 51.015438 L 86.740938 50.874813 L 86.752656 50.867 L 87.006563 50.714656 L 87.264375 50.566219 L 87.405 50.484188 L 87.522188 50.417781 L 87.78 50.265438 L 88.045625 50.117 L 88.069063 50.105281 L 88.31125 49.968563 L 88.580781 49.820125 L 88.733125 49.734188 L 88.850313 49.667781 L 89.12375 49.519344 L 89.401094 49.370906 L 89.68625 49.218563 L 89.9675 49.070125 L 90.065156 49.019344 L 90.256563 48.921688 L 90.549531 48.769344 L 90.846406 48.620906 L 91.151094 48.472469 L 91.393281 48.351375 L 91.455781 48.324031 L 91.772188 48.171688 L 92.06125 48.034969 L 92.088594 48.02325 L 92.416719 47.874813 L 92.725313 47.734188 L 92.744844 47.722469 L 93.088594 47.574031 L 93.389375 47.441219 L 93.432344 47.425594 L 93.791719 47.27325 L 94.053438 47.167781 L 94.158906 47.124813 L 94.537813 46.976375 L 94.721406 46.906063 L 94.932344 46.827938 L 95.334688 46.675594 M 59.112031 65.827938 L 59.412813 65.976375 L 59.471406 66.007625 L 59.740938 66.124813 L 60.037813 66.27325 L 60.135469 66.331844 L 60.365938 66.425594 L 60.674531 66.574031 L 60.799531 66.652156 L 61.041719 66.722469 L 61.405 66.874813 L 61.4675 66.909969 L 62.131563 66.886531 L 62.151094 66.874813 L 62.451875 66.722469 L 62.795625 66.597469 L 62.826875 66.574031 L 63.076875 66.425594 L 63.377656 66.27325 L 63.463594 66.238094 L 63.635469 66.124813 L 63.897188 65.976375 L 64.127656 65.859188 L 64.174531 65.827938 L 64.412813 65.675594 L 64.674531 65.527156 L 64.791719 65.464656 L 64.920625 65.378719 L 65.162813 65.226375 L 65.424531 65.077938 L 65.455781 65.058406 L 65.655 64.9295 L 65.897188 64.777156 L 66.12375 64.64825 L 66.147188 64.628719 L 66.37375 64.480281 L 66.615938 64.331844 L 66.787813 64.226375 L 66.854219 64.1795 L 67.084688 64.031063 L 67.319063 63.882625 L 67.451875 63.800594 L 67.553438 63.730281 L 67.78 63.581844 L 68.014375 63.433406 L 68.115938 63.370906 L 68.240938 63.281063 L 68.4675 63.132625 L 68.697969 62.984188 L 68.783906 62.933406 L 68.924531 62.83575 L 69.143281 62.683406 L 69.37375 62.534969 L 69.447969 62.488094 L 69.596406 62.386531 L 69.815156 62.234188 L 70.045625 62.08575 L 70.112031 62.042781 L 70.264375 61.937313 L 70.483125 61.784969 L 70.776094 61.589656 L 70.924531 61.488094 L 71.143281 61.339656 L 71.365938 61.187313 L 71.444063 61.136531 L 71.580781 61.038875 L 71.795625 60.890438 L 72.018281 60.738094 L 72.108125 60.6795 L 72.233125 60.589656 L 72.447969 60.441219 L 72.666719 60.288875 L 72.772188 60.222469 L 72.885469 60.140438 L 73.096406 59.992 L 73.315156 59.843563 L 73.43625 59.761531 L 73.53 59.691219 L 73.959688 59.394344 L 74.104219 59.296688 L 74.178438 59.242 L 74.389375 59.093563 L 74.604219 58.945125 L 74.768281 58.831844 L 74.822969 58.796688 L 75.033906 58.644344 L 75.24875 58.495906 L 75.432344 58.370906 L 75.463594 58.347469 L 75.674531 58.195125 L 75.889375 58.046688 L 76.096406 57.906063 L 76.108125 57.89825 L 76.319063 57.745906 L 76.533906 57.597469 L 76.752656 57.449031 L 76.764375 57.441219 M 30.955781 66.425594 L 31.205781 66.574031 L 31.408906 66.722469 L 31.537813 66.851375 L 32.201875 66.855281 L 32.365938 66.722469 L 32.608125 66.574031 L 32.869844 66.445125 L 32.893281 66.425594 L 33.0925 66.27325 L 33.326875 66.124813 L 33.533906 66.007625 L 33.576875 65.976375 L 33.795625 65.827938 L 34.037813 65.675594 L 34.197969 65.58575 L 34.287813 65.527156 L 34.53 65.378719 L 34.791719 65.226375 L 34.862031 65.187313 L 35.049531 65.077938 L 35.315156 64.9295 L 35.53 64.816219 L 35.596406 64.777156 L 35.877656 64.628719 L 36.174531 64.480281 L 36.194063 64.472469 L 36.479219 64.331844 L 36.795625 64.1795 L 36.858125 64.152156 L 37.127656 64.031063 L 37.471406 63.882625 L 37.522188 63.859188 L 37.834688 63.730281 L 38.190156 63.593563 L 38.213594 63.581844 L 38.62375 63.433406 L 38.854219 63.351375 L 39.053438 63.281063 L 39.518281 63.132625 L 40.03 62.984188 L 40.18625 62.941219 L 40.600313 62.83575 L 40.850313 62.77325 L 41.244844 62.683406 L 41.514375 62.628719 L 42.014375 62.534969 L 42.178438 62.503719 L 42.846406 62.406063 L 43.026094 62.386531 L 43.510469 62.331844 L 44.174531 62.277156 L 44.838594 62.242 L 45.166719 62.234188 L 45.506563 62.230281 L 45.99875 62.234188 L 46.170625 62.238094 L 46.834688 62.265438 L 47.49875 62.316219 L 48.166719 62.382625 L 48.194063 62.386531 L 48.830781 62.468563 L 49.260469 62.534969 L 49.494844 62.574031 L 50.108125 62.683406 L 50.158906 62.695125 L 50.826875 62.83575 L 51.463594 62.984188 L 51.490938 62.992 L 52.041719 63.132625 L 52.155 63.163875 L 52.580781 63.281063 L 52.819063 63.351375 L 53.084688 63.433406 L 53.487031 63.558406 L 53.565156 63.581844 L 54.018281 63.730281 L 54.151094 63.777156 L 54.455781 63.882625 L 54.815156 64.011531 L 54.87375 64.031063 L 55.28 64.1795 L 55.479219 64.257625 L 55.670625 64.331844 L 56.049531 64.480281 L 56.420625 64.628719 L 56.776094 64.777156 L 56.81125 64.792781 L 57.131563 64.9295 L 57.471406 65.077938 L 57.475313 65.081844 L 57.815156 65.226375 L 58.135469 65.378719 L 58.139375 65.378719 L 58.475313 65.527156 L 58.783906 65.675594 L 58.807344 65.687313 L 59.112031 65.827938 M 20.721406 54.007625 L 20.81125 54.156063 L 20.897188 54.3045 L 20.901094 54.308406 L 20.99875 54.456844 L 21.0925 54.605281 L 21.190156 54.753719 L 21.283906 54.906063 L 21.471406 55.202938 L 21.56125 55.355281 L 21.764375 55.652156 L 21.862031 55.8045 L 22.057344 56.101375 L 22.151094 56.249813 L 22.229219 56.370906 L 22.24875 56.402156 L 22.459688 56.699031 L 22.56125 56.851375 L 22.662813 56.999813 L 22.760469 57.14825 L 22.858125 57.300594 L 22.893281 57.347469 L 22.9675 57.449031 L 23.072969 57.597469 L 23.182344 57.745906 L 23.287813 57.89825 L 23.389375 58.046688 L 23.494844 58.195125 L 23.557344 58.292781 L 23.600313 58.347469 L 23.826875 58.644344 L 23.93625 58.796688 L 24.041719 58.945125 L 24.151094 59.093563 L 24.221406 59.199031 L 24.260469 59.242 L 24.377656 59.394344 L 24.494844 59.542781 L 24.608125 59.691219 L 24.721406 59.843563 L 24.830781 59.992 L 24.889375 60.070125 L 24.947969 60.140438 L 25.069063 60.288875 L 25.190156 60.441219 L 25.31125 60.589656 L 25.424531 60.738094 L 25.537813 60.890438 L 25.553438 60.909969 L 25.666719 61.038875 L 25.795625 61.187313 L 25.920625 61.339656 L 26.041719 61.488094 L 26.158906 61.636531 L 26.2175 61.714656 L 26.287813 61.784969 L 26.420625 61.937313 L 26.553438 62.08575 L 26.682344 62.234188 L 26.803438 62.386531 L 26.881563 62.484188 L 26.93625 62.534969 L 27.076875 62.683406 L 27.213594 62.83575 L 27.350313 62.984188 L 27.479219 63.132625 L 27.549531 63.218563 L 27.615938 63.281063 L 27.764375 63.433406 L 27.908906 63.581844 L 28.045625 63.730281 L 28.178438 63.882625 L 28.213594 63.921688 L 28.334688 64.031063 L 28.490938 64.1795 L 28.639375 64.331844 L 28.78 64.480281 L 28.877656 64.589656 L 28.924531 64.628719 L 29.096406 64.777156 L 29.256563 64.9295 L 29.405 65.077938 L 29.541719 65.226375 L 29.545625 65.226375 L 29.733125 65.378719 L 29.905 65.527156 L 30.065156 65.675594 L 30.209688 65.824031 L 30.420625 65.976375 L 30.608125 66.124813 L 30.772188 66.27325 L 30.87375 66.386531 L 30.955781 66.425594 M 13.881563 40.843563 L 14.014375 41.140438 L 14.080781 41.292781 L 14.213594 41.589656 L 14.24875 41.667781 L 14.28 41.738094 L 14.350313 41.890438 L 14.490938 42.187313 L 14.56125 42.339656 L 14.627656 42.488094 L 14.697969 42.636531 L 14.764375 42.788875 L 14.834688 42.937313 L 14.901094 43.08575 L 14.912813 43.113094 L 14.971406 43.234188 L 15.045625 43.386531 L 15.115938 43.534969 L 15.190156 43.683406 L 15.260469 43.83575 L 15.401094 44.132625 L 15.471406 44.284969 L 15.537813 44.433406 L 15.576875 44.515438 L 15.612031 44.581844 L 15.68625 44.730281 L 15.760469 44.882625 L 15.908906 45.1795 L 15.979219 45.331844 L 16.053438 45.480281 L 16.12375 45.628719 L 16.197969 45.781063 L 16.240938 45.874813 L 16.268281 45.9295 L 16.424531 46.226375 L 16.49875 46.378719 L 16.576875 46.527156 L 16.651094 46.675594 L 16.725313 46.827938 L 16.947969 47.27325 L 17.03 47.425594 L 17.18625 47.722469 L 17.264375 47.874813 L 17.3425 48.02325 L 17.416719 48.171688 L 17.494844 48.324031 L 17.569063 48.472469 L 17.572969 48.476375 L 17.651094 48.620906 L 17.733125 48.769344 L 17.815156 48.921688 L 17.893281 49.070125 L 17.975313 49.218563 L 18.053438 49.370906 L 18.209688 49.667781 L 18.291719 49.820125 L 18.463594 50.117 L 18.545625 50.265438 L 18.627656 50.417781 L 18.791719 50.714656 L 18.869844 50.867 L 18.901094 50.925594 L 18.955781 51.015438 L 19.045625 51.163875 L 19.131563 51.316219 L 19.303438 51.613094 L 19.385469 51.761531 L 19.471406 51.913875 L 19.553438 52.062313 L 19.569063 52.089656 L 19.643281 52.21075 L 19.733125 52.363094 L 19.912813 52.659969 L 19.99875 52.812313 L 20.088594 52.96075 L 20.174531 53.109188 L 20.233125 53.214656 L 20.260469 53.257625 L 20.354219 53.409969 L 20.541719 53.706844 L 20.631563 53.859188 L 20.721406 54.007625 M 8.494844 27.378719 L 8.545625 27.527156 L 8.600313 27.675594 L 8.655 27.827938 L 8.764375 28.124813 L 8.815156 28.277156 L 8.924531 28.574031 L 8.924531 28.581844 L 8.979219 28.722469 L 9.037813 28.874813 L 9.0925 29.02325 L 9.151094 29.171688 L 9.205781 29.324031 L 9.315156 29.620906 L 9.369844 29.77325 L 9.428438 29.921688 L 9.537813 30.218563 L 9.5925 30.370906 L 9.647188 30.519344 L 9.705781 30.667781 L 9.764375 30.820125 L 9.881563 31.117 L 9.93625 31.269344 L 9.994844 31.417781 L 10.049531 31.566219 L 10.108125 31.714656 L 10.162813 31.867 L 10.2175 32.015438 L 10.256563 32.117 L 10.276094 32.163875 L 10.334688 32.316219 L 10.397188 32.464656 L 10.455781 32.613094 L 10.514375 32.765438 L 10.690156 33.21075 L 10.74875 33.363094 L 10.803438 33.511531 L 10.862031 33.659969 L 10.920625 33.812313 L 10.920625 33.816219 L 10.979219 33.96075 L 11.104219 34.257625 L 11.162813 34.409969 L 11.225313 34.558406 L 11.283906 34.706844 L 11.3425 34.859188 L 11.405 35.007625 L 11.463594 35.156063 L 11.522188 35.308406 L 11.580781 35.456844 L 11.584688 35.472469 L 11.643281 35.605281 L 11.705781 35.753719 L 11.768281 35.906063 L 11.893281 36.202938 L 11.955781 36.355281 L 12.014375 36.503719 L 12.076875 36.652156 L 12.139375 36.8045 L 12.197969 36.952938 L 12.252656 37.08575 L 12.260469 37.101375 L 12.322969 37.249813 L 12.389375 37.402156 L 12.451875 37.550594 L 12.518281 37.699031 L 12.580781 37.851375 L 12.705781 38.14825 L 12.768281 38.300594 L 12.893281 38.597469 L 12.916719 38.656063 L 12.959688 38.745906 L 13.026094 38.89825 L 13.0925 39.046688 L 13.155 39.195125 L 13.221406 39.347469 L 13.287813 39.495906 L 13.350313 39.644344 L 13.416719 39.796688 L 13.479219 39.945125 L 13.545625 40.093563 L 13.580781 40.183406 L 13.608125 40.242 L 13.678438 40.394344 L 13.744844 40.542781 L 13.815156 40.691219 L 13.881563 40.843563 M 3.963594 13.765438 L 4.104219 14.21075 L 4.147188 14.363094 L 4.194063 14.511531 L 4.237031 14.659969 L 4.272188 14.769344 L 4.283906 14.812313 L 4.330781 14.96075 L 4.381563 15.109188 L 4.428438 15.261531 L 4.569063 15.706844 L 4.615938 15.859188 L 4.709688 16.156063 L 4.756563 16.308406 L 4.850313 16.605281 L 4.897188 16.757625 L 4.93625 16.882625 L 4.944063 16.906063 L 4.990938 17.0545 L 5.041719 17.202938 L 5.088594 17.355281 L 5.139375 17.503719 L 5.18625 17.652156 L 5.237031 17.8045 L 5.330781 18.101375 L 5.377656 18.253719 L 5.428438 18.402156 L 5.522188 18.699031 L 5.569063 18.851375 L 5.600313 18.949031 L 5.615938 18.999813 L 5.666719 19.14825 L 5.7175 19.300594 L 5.819063 19.597469 L 5.865938 19.745906 L 5.916719 19.89825 L 5.9675 20.046688 L 6.014375 20.195125 L 6.065156 20.347469 L 6.112031 20.495906 L 6.162813 20.644344 L 6.209688 20.796688 L 6.256563 20.945125 L 6.264375 20.968563 L 6.307344 21.093563 L 6.362031 21.242 L 6.412813 21.394344 L 6.514375 21.691219 L 6.565156 21.843563 L 6.615938 21.992 L 6.662813 22.140438 L 6.713594 22.292781 L 6.865938 22.738094 L 6.912813 22.890438 L 6.932344 22.941219 L 6.963594 23.038875 L 7.018281 23.187313 L 7.069063 23.339656 L 7.12375 23.488094 L 7.174531 23.636531 L 7.225313 23.788875 L 7.28 23.937313 L 7.381563 24.234188 L 7.432344 24.386531 L 7.533906 24.683406 L 7.584688 24.83575 L 7.596406 24.867 L 7.639375 24.984188 L 7.690156 25.132625 L 7.744844 25.284969 L 7.854219 25.581844 L 7.905 25.730281 L 7.959688 25.882625 L 8.010469 26.031063 L 8.065156 26.1795 L 8.115938 26.331844 L 8.166719 26.480281 L 8.221406 26.628719 L 8.260469 26.749813 L 8.272188 26.781063 L 8.381563 27.077938 L 8.440156 27.226375 L 8.494844 27.378719 M -0.00125 -0.0001875 L 0.0417188 0.14825 L 0.0807813 0.300594 L 0.158906 0.597469 L 0.201875 0.749813 L 0.28 1.046688 L 0.28 1.050594 L 0.322969 1.195125 L 0.362031 1.347469 L 0.447969 1.644344 L 0.487031 1.796688 L 0.572969 2.093563 L 0.612031 2.245906 L 0.655 2.394344 L 0.694063 2.542781 L 0.737031 2.691219 L 0.776094 2.843563 L 0.819063 2.992 L 0.858125 3.140438 L 0.901094 3.292781 L 0.940156 3.441219 L 0.944063 3.46075 L 0.983125 3.589656 L 1.026094 3.742 L 1.155 4.187313 L 1.194063 4.339656 L 1.28 4.636531 L 1.322969 4.788875 L 1.365938 4.937313 L 1.405 5.08575 L 1.447969 5.238094 L 1.490938 5.386531 L 1.53 5.534969 L 1.572969 5.683406 L 1.612031 5.820125 L 1.615938 5.83575 L 1.701875 6.132625 L 1.744844 6.284969 L 1.830781 6.581844 L 1.877656 6.730281 L 1.920625 6.882625 L 2.006563 7.1795 L 2.049531 7.331844 L 2.0925 7.480281 L 2.131563 7.628719 L 2.174531 7.781063 L 2.260469 8.077938 L 2.276094 8.132625 L 2.303438 8.226375 L 2.350313 8.378719 L 2.393281 8.527156 L 2.440156 8.675594 L 2.483125 8.827938 L 2.526094 8.976375 L 2.572969 9.124813 L 2.615938 9.277156 L 2.744844 9.722469 L 2.791719 9.874813 L 2.877656 10.171688 L 2.920625 10.324031 L 2.940156 10.394344 L 2.963594 10.472469 L 3.010469 10.620906 L 3.057344 10.77325 L 3.100313 10.921688 L 3.194063 11.218563 L 3.237031 11.370906 L 3.283906 11.519344 L 3.326875 11.667781 L 3.37375 11.820125 L 3.459688 12.117 L 3.506563 12.269344 L 3.5925 12.566219 L 3.604219 12.605281 L 3.639375 12.714656 L 3.68625 12.867 L 3.78 13.163875 L 3.826875 13.316219 L 3.920625 13.613094 L 3.963594 13.765438 " transform="matrix(1,0,0,-1,0.72,135.492)"/>
</g>
</svg>
