<?xml version="1.0" encoding="UTF-8"?>
<svg xmlns="http://www.w3.org/2000/svg" xmlns:xlink="http://www.w3.org/1999/xlink" width="164pt" height="136pt" viewBox="0 0 164 136" version="1.1">
<g id="surface1">
<path style="fill:none;stroke-width:0.79701;stroke-linecap:butt;stroke-linejoin:miter;stroke:rgb(0%,0%,100%);stroke-opacity:1;stroke-miterlimit:10;" d="M 130.651094 65.827938 L 130.631563 65.675594 L 130.584688 65.378719 L 130.557344 65.226375 L 130.53 65.077938 L 130.49875 64.9295 L 130.463594 64.777156 L 130.393281 64.480281 L 130.350313 64.331844 L 130.31125 64.1795 L 130.268281 64.031063 L 130.221406 63.882625 L 130.174531 63.730281 L 130.12375 63.581844 L 130.069063 63.433406 L 130.018281 63.281063 L 129.901094 62.984188 L 129.87375 62.913875 L 129.8425 62.83575 L 129.776094 62.683406 L 129.643281 62.386531 L 129.572969 62.234188 L 129.424531 61.937313 L 129.346406 61.784969 L 129.268281 61.636531 L 129.233125 61.574031 L 129.18625 61.488094 L 129.100313 61.339656 L 129.010469 61.187313 L 128.920625 61.038875 L 128.826875 60.890438 L 128.733125 60.738094 L 128.635469 60.589656 L 128.596406 60.531063 L 128.533906 60.441219 L 128.428438 60.288875 L 128.319063 60.140438 L 128.205781 59.992 L 128.096406 59.843563 L 127.979219 59.691219 L 127.955781 59.663875 L 127.858125 59.542781 L 127.729219 59.394344 L 127.600313 59.242 L 127.471406 59.093563 L 127.334688 58.945125 L 127.315156 58.921688 L 127.194063 58.796688 L 127.045625 58.644344 L 126.897188 58.495906 L 126.740938 58.347469 L 126.674531 58.281063 L 126.580781 58.195125 L 126.237031 57.89825 L 126.06125 57.745906 L 126.037813 57.726375 L 125.869844 57.597469 L 125.674531 57.449031 L 125.471406 57.300594 L 125.397188 57.242 L 125.256563 57.14825 L 124.795625 56.851375 L 124.756563 56.827938 L 124.533906 56.699031 L 124.264375 56.550594 L 124.119844 56.468563 L 123.971406 56.402156 L 123.651094 56.249813 L 123.479219 56.171688 L 123.299531 56.101375 L 122.908906 55.952938 L 122.838594 55.925594 L 122.43625 55.8045 L 122.197969 55.730281 L 121.850313 55.652156 L 121.56125 55.589656 L 120.987031 55.503719 L 120.920625 55.492 L 120.28 55.449031 L 119.639375 55.452938 L 119.002656 55.503719 M 122.838594 78.570125 L 122.908906 78.542781 L 123.299531 78.394344 L 123.479219 78.324031 L 123.651094 78.242 L 123.971406 78.093563 L 124.119844 78.02325 L 124.264375 77.945125 L 124.533906 77.792781 L 124.756563 77.667781 L 124.795625 77.644344 L 125.256563 77.347469 L 125.397188 77.249813 L 125.471406 77.195125 L 125.674531 77.046688 L 125.869844 76.89825 L 126.037813 76.769344 L 126.06125 76.745906 L 126.237031 76.597469 L 126.408906 76.449031 L 126.580781 76.296688 L 126.674531 76.214656 L 126.740938 76.14825 L 126.897188 75.999813 L 127.045625 75.851375 L 127.194063 75.699031 L 127.315156 75.574031 L 127.334688 75.550594 L 127.471406 75.402156 L 127.600313 75.249813 L 127.858125 74.952938 L 127.955781 74.831844 L 127.979219 74.800594 L 128.096406 74.652156 L 128.205781 74.503719 L 128.319063 74.355281 L 128.428438 74.202938 L 128.533906 74.0545 L 128.596406 73.964656 L 128.635469 73.906063 L 128.733125 73.753719 L 128.920625 73.456844 L 129.010469 73.308406 L 129.100313 73.156063 L 129.18625 73.007625 L 129.233125 72.917781 L 129.268281 72.859188 L 129.346406 72.706844 L 129.424531 72.558406 L 129.49875 72.409969 L 129.572969 72.257625 L 129.643281 72.109188 L 129.776094 71.812313 L 129.8425 71.659969 L 129.87375 71.577938 L 129.901094 71.511531 L 129.959688 71.363094 L 130.018281 71.21075 L 130.069063 71.062313 L 130.12375 70.913875 L 130.174531 70.761531 L 130.268281 70.464656 L 130.31125 70.316219 L 130.350313 70.163875 L 130.393281 70.015438 L 130.428438 69.867 L 130.463594 69.714656 L 130.49875 69.566219 L 130.53 69.417781 L 130.557344 69.265438 L 130.584688 69.117 L 130.631563 68.820125 L 130.651094 68.667781 L 130.670625 68.519344 L 130.68625 68.370906 L 130.701875 68.218563 L 130.725313 67.921688 L 130.733125 67.769344 L 130.744844 67.324031 L 130.744844 67.171688 L 130.737031 66.874813 L 130.733125 66.722469 L 130.725313 66.574031 L 130.713594 66.425594 L 130.701875 66.27325 L 130.670625 65.976375 L 130.651094 65.827938 M 109.713594 67.921688 L 109.721406 68.070125 L 109.733125 68.218563 L 109.744844 68.370906 L 109.776094 68.667781 L 109.795625 68.820125 L 109.834688 69.117 L 109.858125 69.265438 L 109.881563 69.417781 L 109.908906 69.566219 L 109.940156 69.714656 L 109.9675 69.867 L 110.002656 70.015438 L 110.033906 70.163875 L 110.049531 70.218563 L 110.072969 70.316219 L 110.151094 70.613094 L 110.194063 70.761531 L 110.240938 70.913875 L 110.334688 71.21075 L 110.385469 71.363094 L 110.43625 71.511531 L 110.490938 71.659969 L 110.549531 71.812313 L 110.604219 71.96075 L 110.666719 72.109188 L 110.68625 72.159969 L 110.729219 72.257625 L 110.795625 72.409969 L 110.93625 72.706844 L 111.010469 72.859188 L 111.084688 73.007625 L 111.162813 73.156063 L 111.240938 73.308406 L 111.319063 73.456844 L 111.326875 73.468563 L 111.408906 73.605281 L 111.49875 73.753719 L 111.588594 73.906063 L 111.682344 74.0545 L 111.78 74.202938 L 111.877656 74.355281 L 111.9675 74.484188 L 111.979219 74.503719 L 112.088594 74.652156 L 112.201875 74.800594 L 112.315156 74.952938 L 112.549531 75.249813 L 112.604219 75.320125 L 112.674531 75.402156 L 112.940156 75.699031 L 113.076875 75.851375 L 113.2175 75.999813 L 113.244844 76.027156 L 113.369844 76.14825 L 113.526094 76.296688 L 113.68625 76.449031 L 113.846406 76.597469 L 113.885469 76.632625 L 114.026094 76.745906 L 114.209688 76.89825 L 114.397188 77.046688 L 114.526094 77.14825 L 114.5925 77.195125 L 114.807344 77.347469 L 115.022188 77.495906 L 115.162813 77.589656 L 115.256563 77.644344 L 115.506563 77.792781 L 115.764375 77.945125 L 116.06125 78.093563 L 116.365938 78.242 L 116.444063 78.281063 L 116.721406 78.394344 L 117.084688 78.538875 L 117.100313 78.542781 L 117.569063 78.691219 L 117.721406 78.742 L 118.151094 78.843563 L 118.362031 78.890438 L 118.994844 78.992 L 119.002656 78.992 L 119.639375 79.042781 L 120.28 79.046688 L 120.920625 78.999813 L 120.987031 78.992 L 121.56125 78.906063 L 121.850313 78.843563 L 122.197969 78.765438 L 122.43625 78.691219 L 122.838594 78.570125 M 119.002656 55.503719 L 118.994844 55.503719 L 118.362031 55.605281 L 118.151094 55.652156 L 117.721406 55.753719 L 117.569063 55.8045 L 117.100313 55.952938 L 117.084688 55.956844 L 116.721406 56.101375 L 116.444063 56.214656 L 116.365938 56.249813 L 116.06125 56.402156 L 115.803438 56.527156 L 115.764375 56.550594 L 115.506563 56.699031 L 115.256563 56.851375 L 115.162813 56.906063 L 115.022188 56.999813 L 114.807344 57.14825 L 114.5925 57.300594 L 114.526094 57.347469 L 114.397188 57.449031 L 114.209688 57.597469 L 114.026094 57.745906 L 113.885469 57.863094 L 113.846406 57.89825 L 113.526094 58.195125 L 113.369844 58.347469 L 113.244844 58.464656 L 113.2175 58.495906 L 113.076875 58.644344 L 112.940156 58.796688 L 112.674531 59.093563 L 112.604219 59.171688 L 112.549531 59.242 L 112.432344 59.394344 L 112.315156 59.542781 L 112.201875 59.691219 L 112.088594 59.843563 L 111.979219 59.992 L 111.9675 60.011531 L 111.877656 60.140438 L 111.78 60.288875 L 111.682344 60.441219 L 111.588594 60.589656 L 111.49875 60.738094 L 111.408906 60.890438 L 111.326875 61.027156 L 111.319063 61.038875 L 111.240938 61.187313 L 111.162813 61.339656 L 111.084688 61.488094 L 110.93625 61.784969 L 110.865938 61.937313 L 110.795625 62.08575 L 110.729219 62.234188 L 110.68625 62.331844 L 110.666719 62.386531 L 110.604219 62.534969 L 110.549531 62.683406 L 110.490938 62.83575 L 110.43625 62.984188 L 110.334688 63.281063 L 110.287813 63.433406 L 110.194063 63.730281 L 110.151094 63.882625 L 110.072969 64.1795 L 110.049531 64.277156 L 110.033906 64.331844 L 110.002656 64.480281 L 109.9675 64.628719 L 109.940156 64.777156 L 109.908906 64.9295 L 109.881563 65.077938 L 109.858125 65.226375 L 109.834688 65.378719 L 109.795625 65.675594 L 109.776094 65.827938 L 109.744844 66.124813 L 109.733125 66.27325 L 109.721406 66.425594 L 109.705781 66.722469 L 109.701875 66.874813 L 109.694063 67.171688 L 109.694063 67.324031 L 109.705781 67.769344 L 109.713594 67.921688 M 52.135469 65.976375 L 52.119844 65.827938 L 52.100313 65.675594 L 52.06125 65.378719 L 52.037813 65.226375 L 51.983125 64.9295 L 51.955781 64.777156 L 51.893281 64.480281 L 51.858125 64.331844 L 51.846406 64.277156 L 51.822969 64.1795 L 51.783906 64.031063 L 51.740938 63.882625 L 51.697969 63.730281 L 51.655 63.581844 L 51.608125 63.433406 L 51.56125 63.281063 L 51.510469 63.132625 L 51.401094 62.83575 L 51.346406 62.683406 L 51.229219 62.386531 L 51.205781 62.331844 L 51.166719 62.234188 L 51.096406 62.08575 L 51.03 61.937313 L 50.959688 61.784969 L 50.81125 61.488094 L 50.733125 61.339656 L 50.655 61.187313 L 50.572969 61.038875 L 50.569063 61.027156 L 50.487031 60.890438 L 50.397188 60.738094 L 50.209688 60.441219 L 50.115938 60.288875 L 50.014375 60.140438 L 49.928438 60.011531 L 49.916719 59.992 L 49.807344 59.843563 L 49.694063 59.691219 L 49.580781 59.542781 L 49.463594 59.394344 L 49.346406 59.242 L 49.287813 59.171688 L 49.221406 59.093563 L 49.088594 58.945125 L 48.951875 58.796688 L 48.815156 58.644344 L 48.678438 58.495906 L 48.651094 58.464656 L 48.526094 58.347469 L 48.369844 58.195125 L 48.209688 58.046688 L 48.045625 57.89825 L 48.010469 57.863094 L 47.869844 57.745906 L 47.68625 57.597469 L 47.49875 57.449031 L 47.369844 57.347469 L 47.303438 57.300594 L 47.088594 57.14825 L 46.869844 56.999813 L 46.729219 56.906063 L 46.639375 56.851375 L 46.385469 56.699031 L 46.127656 56.550594 L 46.0925 56.527156 L 45.834688 56.402156 L 45.526094 56.249813 L 45.451875 56.214656 L 45.174531 56.101375 L 44.81125 55.956844 L 44.795625 55.952938 L 44.326875 55.8045 L 44.170625 55.753719 L 43.744844 55.652156 L 43.533906 55.605281 L 42.901094 55.503719 L 42.893281 55.503719 L 42.252656 55.452938 L 41.615938 55.449031 L 40.975313 55.492 M 44.170625 78.742 L 44.326875 78.691219 L 44.795625 78.542781 L 44.81125 78.538875 L 45.174531 78.394344 L 45.451875 78.281063 L 45.526094 78.242 L 45.834688 78.093563 L 46.0925 77.964656 L 46.127656 77.945125 L 46.385469 77.792781 L 46.639375 77.644344 L 46.729219 77.589656 L 46.869844 77.495906 L 47.088594 77.347469 L 47.303438 77.195125 L 47.369844 77.14825 L 47.49875 77.046688 L 47.68625 76.89825 L 47.869844 76.745906 L 48.010469 76.632625 L 48.045625 76.597469 L 48.209688 76.449031 L 48.369844 76.296688 L 48.526094 76.14825 L 48.651094 76.027156 L 48.678438 75.999813 L 48.815156 75.851375 L 48.951875 75.699031 L 49.088594 75.550594 L 49.221406 75.402156 L 49.287813 75.320125 L 49.346406 75.249813 L 49.580781 74.952938 L 49.694063 74.800594 L 49.807344 74.652156 L 49.916719 74.503719 L 49.928438 74.484188 L 50.115938 74.202938 L 50.303438 73.906063 L 50.397188 73.753719 L 50.487031 73.605281 L 50.569063 73.468563 L 50.572969 73.456844 L 50.655 73.308406 L 50.733125 73.156063 L 50.81125 73.007625 L 50.885469 72.859188 L 50.959688 72.706844 L 51.03 72.558406 L 51.096406 72.409969 L 51.166719 72.257625 L 51.205781 72.159969 L 51.229219 72.109188 L 51.346406 71.812313 L 51.401094 71.659969 L 51.510469 71.363094 L 51.56125 71.21075 L 51.655 70.913875 L 51.697969 70.761531 L 51.783906 70.464656 L 51.822969 70.316219 L 51.846406 70.218563 L 51.858125 70.163875 L 51.893281 70.015438 L 51.924531 69.867 L 51.955781 69.714656 L 52.010469 69.417781 L 52.037813 69.265438 L 52.06125 69.117 L 52.100313 68.820125 L 52.119844 68.667781 L 52.135469 68.519344 L 52.147188 68.370906 L 52.162813 68.218563 L 52.170625 68.070125 L 52.182344 67.921688 L 52.18625 67.769344 L 52.194063 67.620906 L 52.197969 67.472469 L 52.197969 67.02325 L 52.194063 66.874813 L 52.18625 66.722469 L 52.182344 66.574031 L 52.170625 66.425594 L 52.162813 66.27325 L 52.147188 66.124813 L 52.135469 65.976375 M 31.162813 67.769344 L 31.170625 67.921688 L 31.194063 68.218563 L 31.209688 68.370906 L 31.240938 68.667781 L 31.264375 68.820125 L 31.31125 69.117 L 31.338594 69.265438 L 31.365938 69.417781 L 31.428438 69.714656 L 31.4675 69.867 L 31.502656 70.015438 L 31.541719 70.163875 L 31.584688 70.316219 L 31.627656 70.464656 L 31.721406 70.761531 L 31.772188 70.913875 L 31.822969 71.062313 L 31.877656 71.21075 L 31.93625 71.363094 L 31.994844 71.511531 L 32.022188 71.577938 L 32.053438 71.659969 L 32.119844 71.812313 L 32.252656 72.109188 L 32.322969 72.257625 L 32.397188 72.409969 L 32.471406 72.558406 L 32.549531 72.706844 L 32.627656 72.859188 L 32.658906 72.917781 L 32.709688 73.007625 L 32.795625 73.156063 L 32.885469 73.308406 L 32.975313 73.456844 L 33.162813 73.753719 L 33.260469 73.906063 L 33.299531 73.964656 L 33.362031 74.0545 L 33.4675 74.202938 L 33.576875 74.355281 L 33.68625 74.503719 L 33.799531 74.652156 L 33.916719 74.800594 L 33.940156 74.831844 L 34.037813 74.952938 L 34.162813 75.101375 L 34.291719 75.249813 L 34.424531 75.402156 L 34.557344 75.550594 L 34.580781 75.574031 L 34.701875 75.699031 L 34.850313 75.851375 L 34.99875 75.999813 L 35.151094 76.14825 L 35.2175 76.214656 L 35.315156 76.296688 L 35.483125 76.449031 L 35.655 76.597469 L 35.830781 76.745906 L 35.858125 76.769344 L 36.026094 76.89825 L 36.221406 77.046688 L 36.420625 77.195125 L 36.49875 77.249813 L 36.639375 77.347469 L 37.100313 77.644344 L 37.135469 77.667781 L 37.362031 77.792781 L 37.631563 77.945125 L 37.776094 78.02325 L 37.920625 78.093563 L 38.240938 78.242 L 38.416719 78.324031 L 38.5925 78.394344 L 38.983125 78.542781 L 39.057344 78.570125 L 39.459688 78.691219 L 39.694063 78.765438 L 40.041719 78.843563 L 40.334688 78.906063 L 40.905 78.992 L 40.975313 78.999813 L 41.615938 79.046688 L 42.252656 79.042781 L 42.893281 78.992 L 42.901094 78.992 L 43.533906 78.890438 L 43.744844 78.843563 L 44.170625 78.742 M 40.975313 55.492 L 40.905 55.503719 L 40.334688 55.589656 L 40.041719 55.652156 L 39.694063 55.730281 L 39.459688 55.8045 L 39.057344 55.925594 L 38.983125 55.952938 L 38.5925 56.101375 L 38.416719 56.171688 L 38.240938 56.249813 L 37.920625 56.402156 L 37.776094 56.468563 L 37.631563 56.550594 L 37.362031 56.699031 L 37.135469 56.827938 L 37.100313 56.851375 L 36.639375 57.14825 L 36.49875 57.242 L 36.420625 57.300594 L 36.221406 57.449031 L 36.026094 57.597469 L 35.858125 57.726375 L 35.830781 57.745906 L 35.655 57.89825 L 35.483125 58.046688 L 35.315156 58.195125 L 35.2175 58.281063 L 35.151094 58.347469 L 34.99875 58.495906 L 34.850313 58.644344 L 34.701875 58.796688 L 34.580781 58.921688 L 34.557344 58.945125 L 34.291719 59.242 L 34.162813 59.394344 L 34.037813 59.542781 L 33.940156 59.663875 L 33.916719 59.691219 L 33.799531 59.843563 L 33.68625 59.992 L 33.4675 60.288875 L 33.362031 60.441219 L 33.299531 60.531063 L 33.260469 60.589656 L 33.162813 60.738094 L 33.069063 60.890438 L 32.975313 61.038875 L 32.885469 61.187313 L 32.795625 61.339656 L 32.709688 61.488094 L 32.658906 61.574031 L 32.627656 61.636531 L 32.549531 61.784969 L 32.471406 61.937313 L 32.322969 62.234188 L 32.252656 62.386531 L 32.119844 62.683406 L 32.053438 62.83575 L 32.022188 62.913875 L 31.994844 62.984188 L 31.877656 63.281063 L 31.822969 63.433406 L 31.721406 63.730281 L 31.674531 63.882625 L 31.627656 64.031063 L 31.584688 64.1795 L 31.541719 64.331844 L 31.502656 64.480281 L 31.4675 64.628719 L 31.428438 64.777156 L 31.397188 64.9295 L 31.365938 65.077938 L 31.338594 65.226375 L 31.31125 65.378719 L 31.264375 65.675594 L 31.240938 65.827938 L 31.194063 66.27325 L 31.182344 66.425594 L 31.170625 66.574031 L 31.162813 66.722469 L 31.155 66.874813 L 31.151094 67.02325 L 31.151094 67.472469 L 31.155 67.620906 L 31.162813 67.769344 M 159.74875 125.070125 L 159.783906 125.218563 L 159.819063 125.370906 L 159.854219 125.519344 L 159.893281 125.667781 L 159.928438 125.816219 L 159.932344 125.843563 L 159.963594 125.968563 L 159.994844 126.117 L 160.03 126.265438 L 160.065156 126.417781 L 160.096406 126.566219 L 160.131563 126.714656 L 160.166719 126.867 L 160.237031 127.163875 L 160.268281 127.312313 L 160.303438 127.464656 L 160.37375 127.761531 L 160.408906 127.913875 L 160.514375 128.359188 L 160.549531 128.511531 L 160.572969 128.609188 L 160.584688 128.659969 L 160.619844 128.808406 L 160.651094 128.96075 L 160.68625 129.109188 L 160.7175 129.257625 L 160.752656 129.409969 L 160.783906 129.558406 L 160.854219 129.855281 L 160.885469 130.007625 L 160.955781 130.3045 L 160.990938 130.456844 L 161.022188 130.605281 L 161.057344 130.753719 L 161.0925 130.906063 L 161.162813 131.202938 L 161.194063 131.351375 L 161.213594 131.425594 L 161.229219 131.503719 L 161.260469 131.652156 L 161.295625 131.800594 L 161.326875 131.952938 L 161.362031 132.101375 L 161.393281 132.249813 L 161.428438 132.402156 L 161.459688 132.550594 L 161.494844 132.699031 L 161.526094 132.847469 L 161.56125 132.999813 L 161.5925 133.14825 L 161.627656 133.296688 L 161.658906 133.449031 L 161.729219 133.745906 L 161.760469 133.89825 L 161.830781 134.195125 L 161.854219 134.296688 L 161.862031 134.343563 L 161.893281 134.495906 M 156.315156 111.156063 L 156.354219 111.3045 L 156.389375 111.456844 L 156.4675 111.753719 L 156.506563 111.906063 L 156.584688 112.202938 L 156.62375 112.355281 L 156.662813 112.503719 L 156.705781 112.652156 L 156.737031 112.769344 L 156.744844 112.800594 L 156.78 112.952938 L 156.819063 113.101375 L 156.854219 113.249813 L 156.893281 113.402156 L 156.928438 113.550594 L 156.9675 113.699031 L 157.006563 113.851375 L 157.041719 113.999813 L 157.119844 114.296688 L 157.158906 114.449031 L 157.197969 114.597469 L 157.233125 114.745906 L 157.272188 114.89825 L 157.350313 115.195125 L 157.37375 115.288875 L 157.389375 115.343563 L 157.424531 115.495906 L 157.463594 115.644344 L 157.49875 115.792781 L 157.533906 115.945125 L 157.572969 116.093563 L 157.608125 116.242 L 157.647188 116.394344 L 157.682344 116.542781 L 157.760469 116.839656 L 157.795625 116.992 L 157.87375 117.288875 L 157.908906 117.441219 L 157.987031 117.738094 L 158.014375 117.851375 L 158.022188 117.890438 L 158.06125 118.038875 L 158.131563 118.33575 L 158.166719 118.488094 L 158.201875 118.636531 L 158.240938 118.784969 L 158.276094 118.937313 L 158.31125 119.08575 L 158.350313 119.234188 L 158.385469 119.386531 L 158.424531 119.534969 L 158.494844 119.831844 L 158.533906 119.984188 L 158.572969 120.132625 L 158.608125 120.281063 L 158.647188 120.433406 L 158.655 120.464656 L 158.682344 120.581844 L 158.7175 120.730281 L 158.752656 120.882625 L 158.858125 121.327938 L 158.893281 121.480281 L 158.928438 121.628719 L 158.9675 121.777156 L 159.002656 121.9295 L 159.072969 122.226375 L 159.112031 122.378719 L 159.182344 122.675594 L 159.221406 122.824031 L 159.256563 122.976375 L 159.291719 123.124813 L 159.295625 123.128719 L 159.326875 123.27325 L 159.362031 123.425594 L 159.432344 123.722469 L 159.4675 123.874813 L 159.572969 124.320125 L 159.608125 124.472469 L 159.678438 124.769344 L 159.713594 124.921688 L 159.74875 125.070125 M 152.549531 97.394344 L 152.635469 97.691219 L 152.678438 97.843563 L 152.721406 97.992 L 152.768281 98.140438 L 152.81125 98.288875 L 152.854219 98.441219 L 152.897188 98.58575 L 152.901094 98.589656 L 152.940156 98.738094 L 152.983125 98.890438 L 153.022188 99.038875 L 153.065156 99.187313 L 153.104219 99.339656 L 153.233125 99.784969 L 153.276094 99.937313 L 153.319063 100.08575 L 153.358125 100.234188 L 153.401094 100.386531 L 153.447969 100.534969 L 153.533906 100.831844 L 153.537813 100.851375 L 153.572969 100.984188 L 153.615938 101.132625 L 153.655 101.281063 L 153.694063 101.433406 L 153.737031 101.581844 L 153.776094 101.730281 L 153.819063 101.882625 L 153.862031 102.031063 L 153.901094 102.1795 L 153.944063 102.327938 L 153.987031 102.480281 L 154.072969 102.777156 L 154.112031 102.9295 L 154.155 103.077938 L 154.178438 103.152156 L 154.197969 103.226375 L 154.237031 103.378719 L 154.276094 103.527156 L 154.319063 103.675594 L 154.358125 103.824031 L 154.397188 103.976375 L 154.440156 104.124813 L 154.479219 104.27325 L 154.522188 104.425594 L 154.56125 104.574031 L 154.604219 104.722469 L 154.643281 104.874813 L 154.729219 105.171688 L 154.768281 105.320125 L 154.81125 105.472469 L 154.819063 105.492 L 154.850313 105.620906 L 154.889375 105.769344 L 154.928438 105.921688 L 155.006563 106.218563 L 155.049531 106.370906 L 155.166719 106.816219 L 155.209688 106.968563 L 155.24875 107.117 L 155.291719 107.265438 L 155.330781 107.417781 L 155.37375 107.566219 L 155.412813 107.714656 L 155.455781 107.867 L 155.455781 107.874813 L 155.490938 108.015438 L 155.569063 108.312313 L 155.608125 108.464656 L 155.68625 108.761531 L 155.725313 108.913875 L 155.803438 109.21075 L 155.8425 109.363094 L 155.885469 109.511531 L 155.963594 109.808406 L 156.002656 109.96075 L 156.045625 110.109188 L 156.084688 110.257625 L 156.096406 110.300594 L 156.12375 110.409969 L 156.162813 110.558406 L 156.197969 110.706844 L 156.237031 110.859188 L 156.315156 111.156063 M 148.490938 83.628719 L 148.533906 83.777156 L 148.576875 83.9295 L 148.662813 84.226375 L 148.705781 84.378719 L 148.752656 84.527156 L 148.795625 84.675594 L 148.838594 84.827938 L 148.979219 85.27325 L 149.026094 85.425594 L 149.06125 85.542781 L 149.069063 85.574031 L 149.112031 85.722469 L 149.155 85.874813 L 149.240938 86.171688 L 149.283906 86.324031 L 149.330781 86.472469 L 149.37375 86.620906 L 149.420625 86.769344 L 149.463594 86.921688 L 149.557344 87.218563 L 149.600313 87.370906 L 149.694063 87.667781 L 149.701875 87.683406 L 149.737031 87.816219 L 149.78 87.968563 L 149.822969 88.117 L 149.869844 88.265438 L 149.912813 88.417781 L 149.99875 88.714656 L 150.045625 88.867 L 150.088594 89.015438 L 150.182344 89.312313 L 150.225313 89.464656 L 150.319063 89.761531 L 150.338594 89.827938 L 150.365938 89.913875 L 150.405 90.062313 L 150.447969 90.21075 L 150.494844 90.363094 L 150.62375 90.808406 L 150.670625 90.96075 L 150.756563 91.257625 L 150.803438 91.409969 L 150.850313 91.558406 L 150.893281 91.706844 L 150.940156 91.859188 L 150.979219 91.984188 L 150.987031 92.007625 L 151.072969 92.3045 L 151.115938 92.456844 L 151.201875 92.753719 L 151.244844 92.906063 L 151.330781 93.202938 L 151.377656 93.355281 L 151.420625 93.503719 L 151.4675 93.652156 L 151.510469 93.800594 L 151.557344 93.952938 L 151.604219 94.101375 L 151.619844 94.156063 L 151.647188 94.249813 L 151.68625 94.402156 L 151.772188 94.699031 L 151.815156 94.851375 L 151.944063 95.296688 L 151.987031 95.449031 L 152.033906 95.597469 L 152.076875 95.745906 L 152.119844 95.89825 L 152.166719 96.046688 L 152.209688 96.195125 L 152.256563 96.347469 L 152.260469 96.355281 L 152.295625 96.495906 L 152.381563 96.792781 L 152.424531 96.945125 L 152.463594 97.093563 L 152.506563 97.242 L 152.549531 97.394344 M 145.319063 69.566219 L 145.330781 69.714656 L 145.3425 69.867 L 145.354219 70.015438 L 145.369844 70.163875 L 145.385469 70.316219 L 145.397188 70.464656 L 145.416719 70.613094 L 145.432344 70.761531 L 145.451875 70.913875 L 145.4675 71.062313 L 145.487031 71.21075 L 145.506563 71.363094 L 145.526094 71.511531 L 145.549531 71.659969 L 145.572969 71.812313 L 145.5925 71.96075 L 145.615938 72.109188 L 145.643281 72.257625 L 145.666719 72.409969 L 145.721406 72.706844 L 145.74875 72.859188 L 145.803438 73.156063 L 145.834688 73.308406 L 145.916719 73.753719 L 145.944063 73.906063 L 145.975313 74.0545 L 146.002656 74.202938 L 146.033906 74.355281 L 146.127656 74.800594 L 146.158906 74.952938 L 146.190156 75.101375 L 146.225313 75.249813 L 146.260469 75.402156 L 146.330781 75.699031 L 146.365938 75.851375 L 146.405 75.999813 L 146.440156 76.14825 L 146.479219 76.296688 L 146.502656 76.390438 L 146.514375 76.449031 L 146.584688 76.745906 L 146.619844 76.89825 L 146.655 77.046688 L 146.694063 77.195125 L 146.729219 77.347469 L 146.846406 77.792781 L 146.885469 77.945125 L 146.963594 78.242 L 147.006563 78.394344 L 147.049531 78.542781 L 147.088594 78.691219 L 147.131563 78.843563 L 147.143281 78.874813 L 147.170625 78.992 L 147.24875 79.288875 L 147.287813 79.441219 L 147.326875 79.589656 L 147.369844 79.738094 L 147.408906 79.890438 L 147.494844 80.187313 L 147.537813 80.339656 L 147.666719 80.784969 L 147.709688 80.937313 L 147.756563 81.08575 L 147.78 81.175594 L 147.799531 81.234188 L 147.838594 81.386531 L 147.881563 81.534969 L 147.920625 81.683406 L 147.963594 81.83575 L 148.0925 82.281063 L 148.135469 82.433406 L 148.178438 82.581844 L 148.225313 82.730281 L 148.268281 82.882625 L 148.315156 83.031063 L 148.358125 83.1795 L 148.405 83.331844 L 148.420625 83.378719 L 148.447969 83.480281 L 148.490938 83.628719 M 147.24875 55.202938 L 147.209688 55.355281 L 147.170625 55.503719 L 147.143281 55.620906 L 147.131563 55.652156 L 147.088594 55.8045 L 147.049531 55.952938 L 146.963594 56.249813 L 146.924531 56.402156 L 146.846406 56.699031 L 146.807344 56.851375 L 146.729219 57.14825 L 146.694063 57.300594 L 146.655 57.449031 L 146.584688 57.745906 L 146.549531 57.89825 L 146.514375 58.046688 L 146.502656 58.105281 L 146.479219 58.195125 L 146.440156 58.347469 L 146.405 58.495906 L 146.365938 58.644344 L 146.330781 58.796688 L 146.225313 59.242 L 146.190156 59.394344 L 146.127656 59.691219 L 146.096406 59.843563 L 146.002656 60.288875 L 145.975313 60.441219 L 145.944063 60.589656 L 145.916719 60.738094 L 145.889375 60.890438 L 145.834688 61.187313 L 145.803438 61.339656 L 145.721406 61.784969 L 145.694063 61.937313 L 145.666719 62.08575 L 145.643281 62.234188 L 145.615938 62.386531 L 145.5925 62.534969 L 145.572969 62.683406 L 145.549531 62.83575 L 145.526094 62.984188 L 145.487031 63.281063 L 145.4675 63.433406 L 145.451875 63.581844 L 145.432344 63.730281 L 145.416719 63.882625 L 145.397188 64.031063 L 145.385469 64.1795 L 145.369844 64.331844 L 145.354219 64.480281 L 145.330781 64.777156 L 145.319063 64.9295 L 145.295625 65.226375 L 145.287813 65.378719 L 145.276094 65.527156 L 145.268281 65.675594 L 145.260469 65.827938 L 145.256563 65.976375 L 145.24875 66.124813 L 145.244844 66.27325 L 145.240938 66.425594 L 145.233125 66.722469 L 145.229219 66.874813 L 145.229219 67.620906 L 145.233125 67.769344 L 145.237031 67.921688 L 145.244844 68.218563 L 145.24875 68.370906 L 145.256563 68.519344 L 145.260469 68.667781 L 145.268281 68.820125 L 145.276094 68.968563 L 145.287813 69.117 L 145.295625 69.265438 L 145.307344 69.417781 L 145.319063 69.566219 M 151.287813 41.441219 L 151.201875 41.738094 L 151.158906 41.890438 L 151.072969 42.187313 L 151.03 42.339656 L 150.987031 42.488094 L 150.979219 42.511531 L 150.940156 42.636531 L 150.893281 42.788875 L 150.850313 42.937313 L 150.756563 43.234188 L 150.713594 43.386531 L 150.670625 43.534969 L 150.62375 43.683406 L 150.580781 43.83575 L 150.494844 44.132625 L 150.447969 44.284969 L 150.405 44.433406 L 150.365938 44.581844 L 150.338594 44.667781 L 150.319063 44.730281 L 150.272188 44.882625 L 150.225313 45.031063 L 150.182344 45.1795 L 150.135469 45.331844 L 150.088594 45.480281 L 150.045625 45.628719 L 149.99875 45.781063 L 149.869844 46.226375 L 149.822969 46.378719 L 149.737031 46.675594 L 149.701875 46.808406 L 149.694063 46.827938 L 149.600313 47.124813 L 149.557344 47.27325 L 149.510469 47.425594 L 149.463594 47.574031 L 149.420625 47.722469 L 149.37375 47.874813 L 149.330781 48.02325 L 149.283906 48.171688 L 149.240938 48.324031 L 149.112031 48.769344 L 149.069063 48.921688 L 149.06125 48.952938 L 149.026094 49.070125 L 148.979219 49.218563 L 148.932344 49.370906 L 148.838594 49.667781 L 148.795625 49.820125 L 148.752656 49.968563 L 148.705781 50.117 L 148.662813 50.265438 L 148.619844 50.417781 L 148.533906 50.714656 L 148.490938 50.867 L 148.447969 51.015438 L 148.420625 51.113094 L 148.358125 51.316219 L 148.315156 51.464656 L 148.268281 51.613094 L 148.225313 51.761531 L 148.178438 51.913875 L 148.0925 52.21075 L 148.049531 52.363094 L 147.963594 52.659969 L 147.920625 52.812313 L 147.881563 52.96075 L 147.838594 53.109188 L 147.799531 53.257625 L 147.78 53.320125 L 147.756563 53.409969 L 147.709688 53.558406 L 147.666719 53.706844 L 147.62375 53.859188 L 147.537813 54.156063 L 147.494844 54.308406 L 147.408906 54.605281 L 147.369844 54.753719 L 147.326875 54.906063 L 147.24875 55.202938 M 155.166719 27.675594 L 155.127656 27.827938 L 155.049531 28.124813 L 155.006563 28.277156 L 154.889375 28.722469 L 154.850313 28.874813 L 154.819063 29.003719 L 154.81125 29.02325 L 154.768281 29.171688 L 154.729219 29.324031 L 154.643281 29.620906 L 154.604219 29.77325 L 154.56125 29.921688 L 154.522188 30.070125 L 154.479219 30.218563 L 154.440156 30.370906 L 154.397188 30.519344 L 154.358125 30.667781 L 154.319063 30.820125 L 154.276094 30.968563 L 154.237031 31.117 L 154.197969 31.269344 L 154.178438 31.343563 L 154.155 31.417781 L 154.112031 31.566219 L 154.072969 31.714656 L 154.03 31.867 L 153.944063 32.163875 L 153.901094 32.316219 L 153.862031 32.464656 L 153.819063 32.613094 L 153.776094 32.765438 L 153.737031 32.913875 L 153.694063 33.062313 L 153.655 33.21075 L 153.615938 33.363094 L 153.572969 33.511531 L 153.537813 33.644344 L 153.533906 33.659969 L 153.490938 33.812313 L 153.447969 33.96075 L 153.401094 34.109188 L 153.358125 34.257625 L 153.319063 34.409969 L 153.233125 34.706844 L 153.190156 34.859188 L 153.104219 35.156063 L 153.065156 35.308406 L 153.022188 35.456844 L 152.983125 35.605281 L 152.940156 35.753719 L 152.901094 35.906063 L 152.897188 35.909969 L 152.854219 36.0545 L 152.81125 36.202938 L 152.768281 36.355281 L 152.721406 36.503719 L 152.678438 36.652156 L 152.635469 36.8045 L 152.506563 37.249813 L 152.463594 37.402156 L 152.424531 37.550594 L 152.381563 37.699031 L 152.338594 37.851375 L 152.295625 37.999813 L 152.260469 38.140438 L 152.256563 38.14825 L 152.209688 38.300594 L 152.166719 38.449031 L 152.119844 38.597469 L 152.076875 38.745906 L 152.033906 38.89825 L 151.987031 39.046688 L 151.944063 39.195125 L 151.901094 39.347469 L 151.815156 39.644344 L 151.772188 39.796688 L 151.68625 40.093563 L 151.647188 40.242 L 151.619844 40.339656 L 151.604219 40.394344 L 151.510469 40.691219 L 151.4675 40.843563 L 151.420625 40.992 L 151.377656 41.140438 L 151.330781 41.292781 L 151.287813 41.441219 M 158.682344 13.913875 L 158.655 14.027156 L 158.647188 14.062313 L 158.608125 14.21075 L 158.572969 14.363094 L 158.494844 14.659969 L 158.459688 14.812313 L 158.424531 14.96075 L 158.385469 15.109188 L 158.350313 15.261531 L 158.31125 15.409969 L 158.240938 15.706844 L 158.201875 15.859188 L 158.131563 16.156063 L 158.096406 16.308406 L 158.06125 16.456844 L 158.022188 16.605281 L 158.014375 16.640438 L 157.987031 16.757625 L 157.908906 17.0545 L 157.87375 17.202938 L 157.834688 17.355281 L 157.795625 17.503719 L 157.760469 17.652156 L 157.721406 17.8045 L 157.682344 17.952938 L 157.647188 18.101375 L 157.608125 18.253719 L 157.572969 18.402156 L 157.533906 18.550594 L 157.49875 18.699031 L 157.463594 18.851375 L 157.424531 18.999813 L 157.389375 19.14825 L 157.37375 19.206844 L 157.350313 19.300594 L 157.233125 19.745906 L 157.197969 19.89825 L 157.119844 20.195125 L 157.080781 20.347469 L 157.041719 20.495906 L 157.006563 20.644344 L 156.9675 20.796688 L 156.928438 20.945125 L 156.893281 21.093563 L 156.854219 21.242 L 156.819063 21.394344 L 156.78 21.542781 L 156.744844 21.691219 L 156.737031 21.722469 L 156.705781 21.843563 L 156.662813 21.992 L 156.62375 22.140438 L 156.584688 22.292781 L 156.4675 22.738094 L 156.428438 22.890438 L 156.389375 23.038875 L 156.354219 23.187313 L 156.315156 23.339656 L 156.237031 23.636531 L 156.197969 23.788875 L 156.162813 23.937313 L 156.12375 24.08575 L 156.096406 24.195125 L 156.084688 24.234188 L 156.045625 24.386531 L 156.002656 24.534969 L 155.963594 24.683406 L 155.924531 24.83575 L 155.885469 24.984188 L 155.8425 25.132625 L 155.803438 25.284969 L 155.68625 25.730281 L 155.647188 25.882625 L 155.569063 26.1795 L 155.53 26.331844 L 155.490938 26.480281 L 155.455781 26.620906 L 155.455781 26.628719 L 155.412813 26.781063 L 155.37375 26.9295 L 155.330781 27.077938 L 155.291719 27.226375 L 155.24875 27.378719 L 155.209688 27.527156 L 155.166719 27.675594 M 161.893281 -0.0001875 L 161.862031 0.14825 L 161.854219 0.199031 L 161.830781 0.300594 L 161.760469 0.597469 L 161.729219 0.749813 L 161.658906 1.046688 L 161.627656 1.195125 L 161.5925 1.347469 L 161.56125 1.495906 L 161.526094 1.644344 L 161.494844 1.796688 L 161.459688 1.945125 L 161.428438 2.093563 L 161.393281 2.245906 L 161.362031 2.394344 L 161.326875 2.542781 L 161.295625 2.691219 L 161.260469 2.843563 L 161.229219 2.992 L 161.213594 3.070125 L 161.194063 3.140438 L 161.162813 3.292781 L 161.0925 3.589656 L 161.057344 3.742 L 161.022188 3.890438 L 160.990938 4.038875 L 160.955781 4.187313 L 160.920625 4.339656 L 160.885469 4.488094 L 160.854219 4.636531 L 160.819063 4.788875 L 160.783906 4.937313 L 160.752656 5.08575 L 160.7175 5.238094 L 160.68625 5.386531 L 160.651094 5.534969 L 160.619844 5.683406 L 160.572969 5.886531 L 160.549531 5.984188 L 160.514375 6.132625 L 160.479219 6.284969 L 160.37375 6.730281 L 160.338594 6.882625 L 160.268281 7.1795 L 160.237031 7.331844 L 160.166719 7.628719 L 160.131563 7.781063 L 160.096406 7.9295 L 160.065156 8.077938 L 160.03 8.226375 L 159.994844 8.378719 L 159.963594 8.527156 L 159.932344 8.652156 L 159.928438 8.675594 L 159.893281 8.827938 L 159.854219 8.976375 L 159.819063 9.124813 L 159.783906 9.277156 L 159.678438 9.722469 L 159.643281 9.874813 L 159.572969 10.171688 L 159.537813 10.324031 L 159.4675 10.620906 L 159.432344 10.77325 L 159.326875 11.218563 L 159.295625 11.367 L 159.291719 11.370906 L 159.221406 11.667781 L 159.182344 11.820125 L 159.112031 12.117 L 159.072969 12.269344 L 158.9675 12.714656 L 158.928438 12.867 L 158.858125 13.163875 L 158.822969 13.316219 L 158.752656 13.613094 L 158.7175 13.765438 L 158.682344 13.913875 M 2.147188 125.070125 L 2.112031 125.218563 L 2.076875 125.370906 L 2.037813 125.519344 L 1.9675 125.816219 L 1.959688 125.843563 L 1.932344 125.968563 L 1.897188 126.117 L 1.865938 126.265438 L 1.830781 126.417781 L 1.795625 126.566219 L 1.764375 126.714656 L 1.729219 126.867 L 1.62375 127.312313 L 1.588594 127.464656 L 1.553438 127.613094 L 1.522188 127.761531 L 1.487031 127.913875 L 1.381563 128.359188 L 1.346406 128.511531 L 1.322969 128.609188 L 1.31125 128.659969 L 1.276094 128.808406 L 1.244844 128.96075 L 1.209688 129.109188 L 1.178438 129.257625 L 1.143281 129.409969 L 1.108125 129.558406 L 1.076875 129.706844 L 1.041719 129.855281 L 1.006563 130.007625 L 0.975313 130.156063 L 0.940156 130.3045 L 0.905 130.456844 L 0.869844 130.605281 L 0.838594 130.753719 L 0.803438 130.906063 L 0.697969 131.351375 L 0.682344 131.425594 L 0.666719 131.503719 L 0.631563 131.652156 L 0.600313 131.800594 L 0.565156 131.952938 L 0.502656 132.249813 L 0.4675 132.402156 L 0.43625 132.550594 L 0.401094 132.699031 L 0.369844 132.847469 L 0.334688 132.999813 L 0.303438 133.14825 L 0.268281 133.296688 L 0.233125 133.449031 L 0.201875 133.597469 L 0.166719 133.745906 L 0.131563 133.89825 L 0.100313 134.046688 L 0.0651563 134.195125 L 0.0417188 134.296688 L 0.0339063 134.343563 L -0.00125 134.495906 M 5.580781 111.156063 L 5.541719 111.3045 L 5.502656 111.456844 L 5.424531 111.753719 L 5.385469 111.906063 L 5.307344 112.202938 L 5.268281 112.355281 L 5.190156 112.652156 L 5.158906 112.769344 L 5.151094 112.800594 L 5.115938 112.952938 L 5.037813 113.249813 L 5.002656 113.402156 L 4.963594 113.550594 L 4.928438 113.699031 L 4.889375 113.851375 L 4.81125 114.14825 L 4.776094 114.296688 L 4.737031 114.449031 L 4.658906 114.745906 L 4.619844 114.89825 L 4.541719 115.195125 L 4.518281 115.288875 L 4.506563 115.343563 L 4.4675 115.495906 L 4.397188 115.792781 L 4.358125 115.945125 L 4.322969 116.093563 L 4.283906 116.242 L 4.24875 116.394344 L 4.209688 116.542781 L 4.174531 116.691219 L 4.135469 116.839656 L 4.100313 116.992 L 4.022188 117.288875 L 3.983125 117.441219 L 3.947969 117.589656 L 3.908906 117.738094 L 3.881563 117.851375 L 3.869844 117.890438 L 3.764375 118.33575 L 3.729219 118.488094 L 3.690156 118.636531 L 3.655 118.784969 L 3.619844 118.937313 L 3.580781 119.08575 L 3.545625 119.234188 L 3.510469 119.386531 L 3.471406 119.534969 L 3.43625 119.683406 L 3.397188 119.831844 L 3.362031 119.984188 L 3.322969 120.132625 L 3.287813 120.281063 L 3.24875 120.433406 L 3.240938 120.464656 L 3.213594 120.581844 L 3.178438 120.730281 L 3.143281 120.882625 L 3.037813 121.327938 L 2.99875 121.480281 L 2.928438 121.777156 L 2.893281 121.9295 L 2.858125 122.077938 L 2.819063 122.226375 L 2.783906 122.378719 L 2.713594 122.675594 L 2.674531 122.824031 L 2.639375 122.976375 L 2.600313 123.124813 L 2.600313 123.128719 L 2.569063 123.27325 L 2.533906 123.425594 L 2.463594 123.722469 L 2.428438 123.874813 L 2.322969 124.320125 L 2.287813 124.472469 L 2.2175 124.769344 L 2.182344 124.921688 L 2.147188 125.070125 M 9.3425 97.394344 L 9.256563 97.691219 L 9.213594 97.843563 L 9.084688 98.288875 L 9.037813 98.441219 L 8.994844 98.58575 L 8.994844 98.589656 L 8.955781 98.738094 L 8.912813 98.890438 L 8.87375 99.038875 L 8.830781 99.187313 L 8.787813 99.339656 L 8.74875 99.488094 L 8.662813 99.784969 L 8.619844 99.937313 L 8.533906 100.234188 L 8.490938 100.386531 L 8.362031 100.831844 L 8.358125 100.851375 L 8.319063 100.984188 L 8.240938 101.281063 L 8.197969 101.433406 L 8.158906 101.581844 L 8.115938 101.730281 L 8.076875 101.882625 L 7.990938 102.1795 L 7.951875 102.327938 L 7.908906 102.480281 L 7.822969 102.777156 L 7.78 102.9295 L 7.737031 103.077938 L 7.697969 103.226375 L 7.658906 103.378719 L 7.615938 103.527156 L 7.537813 103.824031 L 7.494844 103.976375 L 7.416719 104.27325 L 7.37375 104.425594 L 7.334688 104.574031 L 7.291719 104.722469 L 7.24875 104.874813 L 7.209688 105.02325 L 7.12375 105.320125 L 7.084688 105.472469 L 7.076875 105.492 L 7.045625 105.620906 L 7.006563 105.769344 L 6.963594 105.921688 L 6.885469 106.218563 L 6.846406 106.370906 L 6.768281 106.667781 L 6.725313 106.816219 L 6.68625 106.968563 L 6.647188 107.117 L 6.604219 107.265438 L 6.565156 107.417781 L 6.522188 107.566219 L 6.483125 107.714656 L 6.440156 107.867 L 6.43625 107.874813 L 6.401094 108.015438 L 6.322969 108.312313 L 6.287813 108.464656 L 6.209688 108.761531 L 6.170625 108.913875 L 6.127656 109.062313 L 6.088594 109.21075 L 6.049531 109.363094 L 5.932344 109.808406 L 5.889375 109.96075 L 5.81125 110.257625 L 5.799531 110.300594 L 5.772188 110.409969 L 5.694063 110.706844 L 5.658906 110.859188 L 5.580781 111.156063 M 13.405 83.628719 L 13.362031 83.777156 L 13.319063 83.9295 L 13.233125 84.226375 L 13.18625 84.378719 L 13.100313 84.675594 L 13.053438 84.827938 L 13.010469 84.976375 L 12.916719 85.27325 L 12.869844 85.425594 L 12.834688 85.542781 L 12.822969 85.574031 L 12.783906 85.722469 L 12.740938 85.874813 L 12.697969 86.02325 L 12.651094 86.171688 L 12.608125 86.324031 L 12.522188 86.620906 L 12.475313 86.769344 L 12.428438 86.921688 L 12.385469 87.070125 L 12.338594 87.218563 L 12.291719 87.370906 L 12.197969 87.667781 L 12.194063 87.683406 L 12.155 87.816219 L 12.112031 87.968563 L 12.026094 88.265438 L 11.983125 88.417781 L 11.940156 88.566219 L 11.893281 88.714656 L 11.850313 88.867 L 11.803438 89.015438 L 11.760469 89.163875 L 11.713594 89.312313 L 11.666719 89.464656 L 11.572969 89.761531 L 11.553438 89.827938 L 11.53 89.913875 L 11.444063 90.21075 L 11.401094 90.363094 L 11.315156 90.659969 L 11.268281 90.808406 L 11.225313 90.96075 L 11.182344 91.109188 L 11.135469 91.257625 L 11.0925 91.409969 L 10.99875 91.706844 L 10.951875 91.859188 L 10.916719 91.984188 L 10.908906 92.007625 L 10.822969 92.3045 L 10.78 92.456844 L 10.694063 92.753719 L 10.651094 92.906063 L 10.608125 93.0545 L 10.56125 93.202938 L 10.518281 93.355281 L 10.471406 93.503719 L 10.428438 93.652156 L 10.381563 93.800594 L 10.338594 93.952938 L 10.291719 94.101375 L 10.276094 94.156063 L 10.24875 94.249813 L 10.205781 94.402156 L 10.162813 94.550594 L 10.12375 94.699031 L 10.080781 94.851375 L 9.994844 95.14825 L 9.947969 95.296688 L 9.905 95.449031 L 9.819063 95.745906 L 9.772188 95.89825 L 9.729219 96.046688 L 9.682344 96.195125 L 9.639375 96.347469 L 9.635469 96.355281 L 9.596406 96.495906 L 9.557344 96.644344 L 9.514375 96.792781 L 9.471406 96.945125 L 9.385469 97.242 L 9.3425 97.394344 M 16.576875 69.566219 L 16.565156 69.714656 L 16.553438 69.867 L 16.541719 70.015438 L 16.526094 70.163875 L 16.510469 70.316219 L 16.463594 70.761531 L 16.444063 70.913875 L 16.424531 71.062313 L 16.408906 71.21075 L 16.385469 71.363094 L 16.346406 71.659969 L 16.322969 71.812313 L 16.252656 72.257625 L 16.229219 72.409969 L 16.174531 72.706844 L 16.147188 72.859188 L 16.0925 73.156063 L 16.06125 73.308406 L 16.03 73.456844 L 16.006563 73.605281 L 15.979219 73.753719 L 15.947969 73.906063 L 15.893281 74.202938 L 15.862031 74.355281 L 15.768281 74.800594 L 15.737031 74.952938 L 15.701875 75.101375 L 15.670625 75.249813 L 15.635469 75.402156 L 15.565156 75.699031 L 15.526094 75.851375 L 15.490938 75.999813 L 15.451875 76.14825 L 15.416719 76.296688 L 15.393281 76.390438 L 15.377656 76.449031 L 15.307344 76.745906 L 15.272188 76.89825 L 15.201875 77.195125 L 15.162813 77.347469 L 15.127656 77.495906 L 15.049531 77.792781 L 15.010469 77.945125 L 14.971406 78.093563 L 14.928438 78.242 L 14.889375 78.394344 L 14.803438 78.691219 L 14.760469 78.843563 L 14.752656 78.874813 L 14.721406 78.992 L 14.68625 79.140438 L 14.647188 79.288875 L 14.604219 79.441219 L 14.526094 79.738094 L 14.483125 79.890438 L 14.444063 80.038875 L 14.401094 80.187313 L 14.358125 80.339656 L 14.229219 80.784969 L 14.18625 80.937313 L 14.139375 81.08575 L 14.112031 81.175594 L 14.096406 81.234188 L 14.057344 81.386531 L 13.971406 81.683406 L 13.932344 81.83575 L 13.803438 82.281063 L 13.760469 82.433406 L 13.713594 82.581844 L 13.670625 82.730281 L 13.627656 82.882625 L 13.533906 83.1795 L 13.487031 83.331844 L 13.471406 83.378719 L 13.444063 83.480281 L 13.405 83.628719 M 14.647188 55.202938 L 14.68625 55.355281 L 14.721406 55.503719 L 14.752656 55.620906 L 14.760469 55.652156 L 14.803438 55.8045 L 14.889375 56.101375 L 14.928438 56.249813 L 14.971406 56.402156 L 15.049531 56.699031 L 15.088594 56.851375 L 15.127656 56.999813 L 15.162813 57.14825 L 15.201875 57.300594 L 15.307344 57.745906 L 15.3425 57.89825 L 15.377656 58.046688 L 15.393281 58.105281 L 15.416719 58.195125 L 15.451875 58.347469 L 15.490938 58.495906 L 15.526094 58.644344 L 15.565156 58.796688 L 15.670625 59.242 L 15.701875 59.394344 L 15.737031 59.542781 L 15.768281 59.691219 L 15.799531 59.843563 L 15.893281 60.288875 L 15.920625 60.441219 L 15.947969 60.589656 L 15.979219 60.738094 L 16.006563 60.890438 L 16.03 61.038875 L 16.06125 61.187313 L 16.0925 61.339656 L 16.174531 61.784969 L 16.201875 61.937313 L 16.229219 62.08575 L 16.252656 62.234188 L 16.276094 62.386531 L 16.322969 62.683406 L 16.346406 62.83575 L 16.385469 63.132625 L 16.408906 63.281063 L 16.424531 63.433406 L 16.463594 63.730281 L 16.479219 63.882625 L 16.510469 64.1795 L 16.526094 64.331844 L 16.541719 64.480281 L 16.565156 64.777156 L 16.576875 64.9295 L 16.600313 65.226375 L 16.608125 65.378719 L 16.62375 65.675594 L 16.631563 65.827938 L 16.639375 65.976375 L 16.643281 66.124813 L 16.651094 66.27325 L 16.655 66.425594 L 16.662813 66.722469 L 16.662813 66.874813 L 16.666719 67.02325 L 16.666719 67.472469 L 16.662813 67.620906 L 16.662813 67.769344 L 16.658906 67.921688 L 16.651094 68.218563 L 16.643281 68.370906 L 16.639375 68.519344 L 16.631563 68.667781 L 16.62375 68.820125 L 16.600313 69.265438 L 16.588594 69.417781 L 16.576875 69.566219 M 10.608125 41.441219 L 10.694063 41.738094 L 10.737031 41.890438 L 10.822969 42.187313 L 10.865938 42.339656 L 10.908906 42.488094 L 10.916719 42.511531 L 10.951875 42.636531 L 10.99875 42.788875 L 11.0925 43.08575 L 11.135469 43.234188 L 11.182344 43.386531 L 11.268281 43.683406 L 11.315156 43.83575 L 11.401094 44.132625 L 11.444063 44.284969 L 11.53 44.581844 L 11.553438 44.667781 L 11.572969 44.730281 L 11.619844 44.882625 L 11.713594 45.1795 L 11.760469 45.331844 L 11.803438 45.480281 L 11.850313 45.628719 L 11.893281 45.781063 L 11.940156 45.9295 L 12.026094 46.226375 L 12.069063 46.378719 L 12.155 46.675594 L 12.194063 46.808406 L 12.197969 46.827938 L 12.338594 47.27325 L 12.385469 47.425594 L 12.428438 47.574031 L 12.475313 47.722469 L 12.522188 47.874813 L 12.608125 48.171688 L 12.651094 48.324031 L 12.697969 48.472469 L 12.783906 48.769344 L 12.822969 48.921688 L 12.834688 48.952938 L 12.869844 49.070125 L 12.916719 49.218563 L 12.963594 49.370906 L 13.010469 49.519344 L 13.053438 49.667781 L 13.100313 49.820125 L 13.18625 50.117 L 13.233125 50.265438 L 13.276094 50.417781 L 13.362031 50.714656 L 13.405 50.867 L 13.444063 51.015438 L 13.471406 51.113094 L 13.533906 51.316219 L 13.627656 51.613094 L 13.670625 51.761531 L 13.713594 51.913875 L 13.760469 52.062313 L 13.803438 52.21075 L 13.846406 52.363094 L 13.932344 52.659969 L 13.971406 52.812313 L 14.057344 53.109188 L 14.096406 53.257625 L 14.112031 53.320125 L 14.139375 53.409969 L 14.18625 53.558406 L 14.229219 53.706844 L 14.272188 53.859188 L 14.358125 54.156063 L 14.401094 54.308406 L 14.444063 54.456844 L 14.483125 54.605281 L 14.526094 54.753719 L 14.565156 54.906063 L 14.604219 55.0545 L 14.647188 55.202938 M 6.725313 27.675594 L 6.768281 27.827938 L 6.846406 28.124813 L 6.885469 28.277156 L 6.963594 28.574031 L 7.006563 28.722469 L 7.045625 28.874813 L 7.076875 29.003719 L 7.084688 29.02325 L 7.12375 29.171688 L 7.166719 29.324031 L 7.209688 29.472469 L 7.24875 29.620906 L 7.291719 29.77325 L 7.334688 29.921688 L 7.37375 30.070125 L 7.416719 30.218563 L 7.455781 30.370906 L 7.494844 30.519344 L 7.537813 30.667781 L 7.576875 30.820125 L 7.615938 30.968563 L 7.658906 31.117 L 7.697969 31.269344 L 7.737031 31.417781 L 7.822969 31.714656 L 7.865938 31.867 L 7.951875 32.163875 L 7.990938 32.316219 L 8.076875 32.613094 L 8.115938 32.765438 L 8.158906 32.913875 L 8.197969 33.062313 L 8.240938 33.21075 L 8.28 33.363094 L 8.319063 33.511531 L 8.358125 33.644344 L 8.362031 33.659969 L 8.405 33.812313 L 8.533906 34.257625 L 8.576875 34.409969 L 8.662813 34.706844 L 8.705781 34.859188 L 8.74875 35.007625 L 8.787813 35.156063 L 8.830781 35.308406 L 8.87375 35.456844 L 8.912813 35.605281 L 8.955781 35.753719 L 8.994844 35.906063 L 8.994844 35.909969 L 9.037813 36.0545 L 9.084688 36.202938 L 9.127656 36.355281 L 9.213594 36.652156 L 9.256563 36.8045 L 9.385469 37.249813 L 9.428438 37.402156 L 9.514375 37.699031 L 9.557344 37.851375 L 9.596406 37.999813 L 9.635469 38.140438 L 9.639375 38.14825 L 9.682344 38.300594 L 9.729219 38.449031 L 9.772188 38.597469 L 9.819063 38.745906 L 9.862031 38.89825 L 9.947969 39.195125 L 9.994844 39.347469 L 10.080781 39.644344 L 10.12375 39.796688 L 10.162813 39.945125 L 10.24875 40.242 L 10.276094 40.339656 L 10.291719 40.394344 L 10.338594 40.542781 L 10.381563 40.691219 L 10.428438 40.843563 L 10.471406 40.992 L 10.518281 41.140438 L 10.56125 41.292781 L 10.608125 41.441219 M 3.213594 13.913875 L 3.240938 14.027156 L 3.24875 14.062313 L 3.287813 14.21075 L 3.322969 14.363094 L 3.362031 14.511531 L 3.397188 14.659969 L 3.43625 14.812313 L 3.471406 14.96075 L 3.510469 15.109188 L 3.545625 15.261531 L 3.580781 15.409969 L 3.619844 15.558406 L 3.655 15.706844 L 3.690156 15.859188 L 3.729219 16.007625 L 3.764375 16.156063 L 3.799531 16.308406 L 3.869844 16.605281 L 3.881563 16.640438 L 3.908906 16.757625 L 3.947969 16.906063 L 3.983125 17.0545 L 4.022188 17.202938 L 4.06125 17.355281 L 4.100313 17.503719 L 4.135469 17.652156 L 4.174531 17.8045 L 4.209688 17.952938 L 4.24875 18.101375 L 4.283906 18.253719 L 4.322969 18.402156 L 4.358125 18.550594 L 4.397188 18.699031 L 4.432344 18.851375 L 4.4675 18.999813 L 4.506563 19.14825 L 4.518281 19.206844 L 4.541719 19.300594 L 4.658906 19.745906 L 4.697969 19.89825 L 4.776094 20.195125 L 4.81125 20.347469 L 4.889375 20.644344 L 4.928438 20.796688 L 4.963594 20.945125 L 5.002656 21.093563 L 5.037813 21.242 L 5.076875 21.394344 L 5.115938 21.542781 L 5.151094 21.691219 L 5.158906 21.722469 L 5.190156 21.843563 L 5.268281 22.140438 L 5.307344 22.292781 L 5.424531 22.738094 L 5.463594 22.890438 L 5.541719 23.187313 L 5.580781 23.339656 L 5.658906 23.636531 L 5.694063 23.788875 L 5.772188 24.08575 L 5.799531 24.195125 L 5.81125 24.234188 L 5.850313 24.386531 L 5.889375 24.534969 L 5.932344 24.683406 L 5.971406 24.83575 L 6.049531 25.132625 L 6.088594 25.284969 L 6.127656 25.433406 L 6.170625 25.581844 L 6.209688 25.730281 L 6.24875 25.882625 L 6.287813 26.031063 L 6.322969 26.1795 L 6.362031 26.331844 L 6.401094 26.480281 L 6.43625 26.620906 L 6.440156 26.628719 L 6.483125 26.781063 L 6.522188 26.9295 L 6.565156 27.077938 L 6.604219 27.226375 L 6.647188 27.378719 L 6.725313 27.675594 M -0.00125 -0.0001875 L 0.0339063 0.14825 L 0.0417188 0.199031 L 0.0651563 0.300594 L 0.100313 0.449031 L 0.131563 0.597469 L 0.166719 0.749813 L 0.201875 0.89825 L 0.233125 1.046688 L 0.268281 1.195125 L 0.303438 1.347469 L 0.334688 1.495906 L 0.369844 1.644344 L 0.401094 1.796688 L 0.43625 1.945125 L 0.4675 2.093563 L 0.502656 2.245906 L 0.565156 2.542781 L 0.600313 2.691219 L 0.631563 2.843563 L 0.666719 2.992 L 0.682344 3.070125 L 0.697969 3.140438 L 0.733125 3.292781 L 0.803438 3.589656 L 0.838594 3.742 L 0.869844 3.890438 L 0.940156 4.187313 L 0.975313 4.339656 L 1.006563 4.488094 L 1.041719 4.636531 L 1.076875 4.788875 L 1.108125 4.937313 L 1.143281 5.08575 L 1.178438 5.238094 L 1.209688 5.386531 L 1.244844 5.534969 L 1.276094 5.683406 L 1.322969 5.886531 L 1.346406 5.984188 L 1.381563 6.132625 L 1.416719 6.284969 L 1.522188 6.730281 L 1.553438 6.882625 L 1.62375 7.1795 L 1.658906 7.331844 L 1.729219 7.628719 L 1.764375 7.781063 L 1.795625 7.9295 L 1.865938 8.226375 L 1.897188 8.378719 L 1.932344 8.527156 L 1.959688 8.652156 L 1.9675 8.675594 L 2.002656 8.827938 L 2.037813 8.976375 L 2.076875 9.124813 L 2.112031 9.277156 L 2.2175 9.722469 L 2.252656 9.874813 L 2.322969 10.171688 L 2.358125 10.324031 L 2.428438 10.620906 L 2.463594 10.77325 L 2.569063 11.218563 L 2.600313 11.367 L 2.600313 11.370906 L 2.639375 11.519344 L 2.674531 11.667781 L 2.713594 11.820125 L 2.783906 12.117 L 2.819063 12.269344 L 2.858125 12.417781 L 2.928438 12.714656 L 2.963594 12.867 L 2.99875 13.015438 L 3.037813 13.163875 L 3.072969 13.316219 L 3.143281 13.613094 L 3.178438 13.765438 L 3.213594 13.913875 " transform="matrix(1,0,0,-1,0.72,135.492)"/>
</g>
</svg>
