<?xml version="1.0" encoding="UTF-8"?>
<svg xmlns="http://www.w3.org/2000/svg" xmlns:xlink="http://www.w3.org/1999/xlink" width="164pt" height="136pt" viewBox="0 0 164 136" version="1.1">
<g id="surface1">
<path style="fill:none;stroke-width:0.79701;stroke-linecap:butt;stroke-linejoin:miter;stroke:rgb(0%,0%,100%);stroke-opacity:1;stroke-miterlimit:10;" d="M 101.987031 59.542781 L 101.358125 59.46075 L 100.635469 59.394344 L 99.905 59.351375 L 99.178438 59.33575 L 98.451875 59.339656 L 97.729219 59.367 M 109.006563 71.812313 L 109.158906 71.659969 L 109.303438 71.511531 L 109.3425 71.472469 L 109.43625 71.363094 L 109.56125 71.21075 L 109.682344 71.062313 L 109.799531 70.913875 L 109.908906 70.761531 L 110.014375 70.613094 L 110.069063 70.538875 L 110.112031 70.464656 L 110.201875 70.316219 L 110.287813 70.163875 L 110.369844 70.015438 L 110.447969 69.867 L 110.522188 69.714656 L 110.655 69.417781 L 110.713594 69.265438 L 110.772188 69.117 L 110.791719 69.0545 L 110.819063 68.968563 L 110.865938 68.820125 L 110.905 68.667781 L 110.940156 68.519344 L 110.971406 68.370906 L 111.002656 68.218563 L 111.026094 68.070125 L 111.045625 67.921688 L 111.06125 67.769344 L 111.072969 67.620906 L 111.080781 67.472469 L 111.084688 67.324031 L 111.084688 67.171688 L 111.080781 67.02325 L 111.072969 66.874813 L 111.06125 66.722469 L 111.045625 66.574031 L 111.026094 66.425594 L 111.002656 66.27325 L 110.940156 65.976375 L 110.905 65.827938 L 110.865938 65.675594 L 110.819063 65.527156 L 110.791719 65.441219 L 110.772188 65.378719 L 110.713594 65.226375 L 110.655 65.077938 L 110.588594 64.9295 L 110.522188 64.777156 L 110.447969 64.628719 L 110.369844 64.480281 L 110.287813 64.331844 L 110.201875 64.1795 L 110.112031 64.031063 L 110.069063 63.956844 L 110.014375 63.882625 L 109.908906 63.730281 L 109.799531 63.581844 L 109.682344 63.433406 L 109.56125 63.281063 L 109.43625 63.132625 L 109.3425 63.02325 L 109.303438 62.984188 L 109.158906 62.83575 L 109.006563 62.683406 L 108.854219 62.534969 L 108.694063 62.386531 L 108.615938 62.316219 L 108.518281 62.234188 L 108.330781 62.08575 L 108.139375 61.937313 L 107.944063 61.784969 L 107.889375 61.745906 L 107.725313 61.636531 L 107.49875 61.488094 L 107.264375 61.339656 L 107.162813 61.277156 L 107.006563 61.187313 L 106.733125 61.038875 L 106.451875 60.890438 L 106.43625 60.882625 L 106.131563 60.738094 L 105.803438 60.589656 L 105.713594 60.550594 L 105.43625 60.441219 L 105.045625 60.288875 L 104.987031 60.269344 L 104.596406 60.140438 L 104.260469 60.034969 L 104.104219 59.992 L 103.545625 59.843563 L 103.533906 59.839656 L 102.862031 59.691219 L 102.807344 59.6795 L 102.084688 59.5545 L 101.987031 59.542781 M 80.307344 69.620906 L 80.444063 69.714656 L 80.678438 69.867 L 80.920625 70.015438 L 81.033906 70.077938 L 81.174531 70.163875 L 81.43625 70.316219 L 81.709688 70.464656 L 81.760469 70.492 L 81.987031 70.613094 L 82.272188 70.761531 L 82.487031 70.867 L 82.572969 70.913875 L 82.877656 71.062313 L 83.190156 71.21075 L 83.209688 71.222469 L 83.510469 71.363094 L 83.8425 71.511531 L 83.93625 71.550594 L 84.178438 71.659969 L 84.526094 71.812313 L 84.662813 71.867 L 84.881563 71.96075 L 85.244844 72.109188 L 85.389375 72.167781 L 85.619844 72.257625 L 86.002656 72.409969 L 86.115938 72.449031 L 86.397188 72.558406 L 86.799531 72.706844 L 86.838594 72.722469 L 87.2175 72.859188 L 87.565156 72.980281 L 87.643281 73.007625 L 88.084688 73.156063 L 88.291719 73.226375 L 88.537813 73.308406 L 89.010469 73.456844 L 89.018281 73.456844 L 89.49875 73.605281 L 89.744844 73.6795 L 90.010469 73.753719 L 90.471406 73.886531 L 90.541719 73.906063 L 91.104219 74.0545 L 91.194063 74.077938 L 91.701875 74.202938 L 91.920625 74.257625 L 92.3425 74.355281 L 92.647188 74.421688 L 93.033906 74.503719 L 93.37375 74.574031 L 93.799531 74.652156 L 94.100313 74.706844 L 94.674531 74.800594 L 94.822969 74.827938 L 95.549531 74.9295 L 95.740938 74.952938 L 96.276094 75.015438 L 97.002656 75.081844 L 97.319063 75.101375 L 97.729219 75.128719 L 98.451875 75.156063 L 99.178438 75.159969 L 99.905 75.144344 L 100.631563 75.101375 L 101.358125 75.034969 L 101.987031 74.952938 L 102.084688 74.937313 L 102.807344 74.812313 L 102.862031 74.800594 L 103.533906 74.656063 L 103.545625 74.652156 L 104.104219 74.503719 L 104.260469 74.46075 L 104.596406 74.355281 L 104.987031 74.226375 L 105.045625 74.202938 L 105.43625 74.0545 L 105.713594 73.945125 L 105.803438 73.906063 L 106.131563 73.753719 L 106.43625 73.613094 L 106.451875 73.605281 L 106.733125 73.456844 L 107.006563 73.308406 L 107.162813 73.218563 L 107.264375 73.156063 L 107.49875 73.007625 L 107.725313 72.859188 L 107.889375 72.749813 L 107.944063 72.706844 L 108.139375 72.558406 L 108.330781 72.409969 L 108.518281 72.257625 L 108.615938 72.1795 L 108.694063 72.109188 L 108.854219 71.96075 L 109.006563 71.812313 M 97.729219 59.367 L 97.319063 59.394344 L 97.002656 59.413875 L 96.276094 59.480281 L 95.740938 59.542781 L 95.549531 59.566219 L 94.822969 59.667781 L 94.674531 59.691219 L 94.100313 59.788875 L 93.799531 59.843563 L 93.37375 59.921688 L 93.033906 59.992 L 92.647188 60.074031 L 92.3425 60.140438 L 91.920625 60.238094 L 91.701875 60.288875 L 91.194063 60.417781 L 91.104219 60.441219 L 90.541719 60.589656 L 90.471406 60.609188 L 90.010469 60.738094 L 89.744844 60.816219 L 89.49875 60.890438 L 89.018281 61.034969 L 89.010469 61.038875 L 88.537813 61.187313 L 88.291719 61.269344 L 88.084688 61.339656 L 87.643281 61.488094 L 87.565156 61.515438 L 87.2175 61.636531 L 86.838594 61.77325 L 86.799531 61.784969 L 86.397188 61.937313 L 86.115938 62.042781 L 86.002656 62.08575 L 85.619844 62.234188 L 85.389375 62.327938 L 85.244844 62.386531 L 84.881563 62.534969 L 84.662813 62.628719 L 84.526094 62.683406 L 84.178438 62.83575 L 83.93625 62.941219 L 83.8425 62.984188 L 83.510469 63.132625 L 83.209688 63.27325 L 83.190156 63.281063 L 82.877656 63.433406 L 82.572969 63.581844 L 82.487031 63.628719 L 82.272188 63.730281 L 81.987031 63.882625 L 81.760469 64.003719 L 81.709688 64.031063 L 81.43625 64.1795 L 81.174531 64.331844 L 81.033906 64.413875 L 80.920625 64.480281 L 80.678438 64.628719 L 80.444063 64.777156 L 80.307344 64.874813 L 80.225313 64.9295 L 80.010469 65.077938 L 79.81125 65.226375 L 79.62375 65.378719 L 79.580781 65.413875 L 79.444063 65.527156 L 79.28 65.675594 L 79.127656 65.827938 L 78.990938 65.976375 L 78.869844 66.124813 L 78.854219 66.144344 L 78.756563 66.27325 L 78.662813 66.425594 L 78.580781 66.574031 L 78.518281 66.722469 L 78.4675 66.874813 L 78.43625 67.02325 L 78.420625 67.171688 L 78.420625 67.324031 L 78.43625 67.472469 L 78.4675 67.620906 L 78.518281 67.769344 L 78.580781 67.921688 L 78.662813 68.070125 L 78.756563 68.218563 L 78.854219 68.351375 L 78.869844 68.370906 L 78.990938 68.519344 L 79.127656 68.667781 L 79.28 68.820125 L 79.444063 68.968563 L 79.580781 69.081844 L 79.62375 69.117 L 79.81125 69.265438 L 80.010469 69.417781 L 80.225313 69.566219 L 80.307344 69.620906 M 159.420625 125.370906 L 159.424531 125.386531 L 159.459688 125.519344 L 159.502656 125.667781 L 159.541719 125.816219 L 159.580781 125.968563 L 159.666719 126.265438 L 159.705781 126.417781 L 159.74875 126.566219 L 159.787813 126.714656 L 159.830781 126.867 L 159.87375 127.015438 L 159.912813 127.163875 L 159.955781 127.312313 L 159.99875 127.464656 L 160.037813 127.613094 L 160.080781 127.761531 L 160.12375 127.913875 L 160.151094 128.003719 L 160.166719 128.062313 L 160.244844 128.359188 L 160.287813 128.511531 L 160.365938 128.808406 L 160.408906 128.96075 L 160.487031 129.257625 L 160.53 129.409969 L 160.569063 129.558406 L 160.612031 129.706844 L 160.651094 129.855281 L 160.694063 130.007625 L 160.733125 130.156063 L 160.776094 130.3045 L 160.819063 130.456844 L 160.858125 130.605281 L 160.877656 130.663875 L 160.901094 130.753719 L 160.940156 130.906063 L 161.057344 131.351375 L 161.096406 131.503719 L 161.139375 131.652156 L 161.178438 131.800594 L 161.2175 131.952938 L 161.256563 132.101375 L 161.299531 132.249813 L 161.338594 132.402156 L 161.377656 132.550594 L 161.420625 132.699031 L 161.459688 132.847469 L 161.49875 132.999813 L 161.541719 133.14825 L 161.600313 133.370906 L 161.62375 133.449031 L 161.662813 133.597469 L 161.697969 133.745906 L 161.737031 133.89825 L 161.854219 134.343563 L 161.897188 134.495906 M 155.354219 111.456844 L 155.401094 111.605281 L 155.444063 111.753719 L 155.490938 111.906063 L 155.537813 112.0545 L 155.580781 112.202938 L 155.627656 112.355281 L 155.768281 112.800594 L 155.795625 112.890438 L 155.81125 112.952938 L 155.858125 113.101375 L 155.901094 113.249813 L 155.944063 113.402156 L 155.987031 113.550594 L 156.033906 113.699031 L 156.076875 113.851375 L 156.119844 113.999813 L 156.166719 114.14825 L 156.209688 114.296688 L 156.256563 114.449031 L 156.303438 114.597469 L 156.346406 114.745906 L 156.393281 114.89825 L 156.43625 115.046688 L 156.483125 115.195125 L 156.522188 115.316219 L 156.53 115.343563 L 156.572969 115.495906 L 156.658906 115.792781 L 156.701875 115.945125 L 156.744844 116.093563 L 156.791719 116.242 L 156.834688 116.394344 L 156.920625 116.691219 L 156.9675 116.839656 L 157.010469 116.992 L 157.057344 117.140438 L 157.100313 117.288875 L 157.147188 117.441219 L 157.190156 117.589656 L 157.237031 117.738094 L 157.244844 117.777156 L 157.28 117.890438 L 157.322969 118.038875 L 157.362031 118.187313 L 157.405 118.33575 L 157.447969 118.488094 L 157.490938 118.636531 L 157.537813 118.784969 L 157.580781 118.937313 L 157.666719 119.234188 L 157.709688 119.386531 L 157.752656 119.534969 L 157.799531 119.683406 L 157.8425 119.831844 L 157.885469 119.984188 L 157.932344 120.132625 L 157.971406 120.27325 L 157.975313 120.281063 L 158.018281 120.433406 L 158.057344 120.581844 L 158.100313 120.730281 L 158.143281 120.882625 L 158.272188 121.327938 L 158.315156 121.480281 L 158.401094 121.777156 L 158.444063 121.9295 L 158.53 122.226375 L 158.572969 122.378719 L 158.658906 122.675594 L 158.697969 122.808406 L 158.701875 122.824031 L 158.744844 122.976375 L 158.783906 123.124813 L 158.826875 123.27325 L 158.869844 123.425594 L 158.908906 123.574031 L 158.951875 123.722469 L 158.994844 123.874813 L 159.037813 124.02325 L 159.076875 124.171688 L 159.119844 124.320125 L 159.162813 124.472469 L 159.24875 124.769344 L 159.291719 124.921688 L 159.377656 125.218563 L 159.420625 125.370906 M 151.026094 97.691219 L 151.072969 97.843563 L 151.12375 97.992 L 151.2175 98.288875 L 151.268281 98.441219 L 151.319063 98.589656 L 151.365938 98.738094 L 151.416719 98.890438 L 151.440156 98.956844 L 151.463594 99.038875 L 151.510469 99.187313 L 151.557344 99.339656 L 151.697969 99.784969 L 151.74875 99.937313 L 151.8425 100.234188 L 151.893281 100.386531 L 151.987031 100.683406 L 152.037813 100.831844 L 152.084688 100.984188 L 152.135469 101.132625 L 152.166719 101.222469 L 152.182344 101.281063 L 152.229219 101.433406 L 152.322969 101.730281 L 152.369844 101.882625 L 152.510469 102.327938 L 152.56125 102.480281 L 152.655 102.777156 L 152.701875 102.9295 L 152.752656 103.077938 L 152.799531 103.226375 L 152.893281 103.507625 L 152.897188 103.527156 L 152.990938 103.824031 L 153.033906 103.976375 L 153.127656 104.27325 L 153.174531 104.425594 L 153.268281 104.722469 L 153.315156 104.874813 L 153.365938 105.02325 L 153.459688 105.320125 L 153.506563 105.472469 L 153.557344 105.620906 L 153.604219 105.769344 L 153.615938 105.812313 L 153.651094 105.921688 L 153.694063 106.070125 L 153.740938 106.218563 L 153.787813 106.370906 L 153.834688 106.519344 L 153.877656 106.667781 L 153.924531 106.816219 L 153.971406 106.968563 L 154.065156 107.265438 L 154.112031 107.417781 L 154.205781 107.714656 L 154.256563 107.867 L 154.303438 108.015438 L 154.3425 108.140438 L 154.350313 108.163875 L 154.393281 108.312313 L 154.440156 108.464656 L 154.487031 108.613094 L 154.53 108.761531 L 154.576875 108.913875 L 154.619844 109.062313 L 154.666719 109.21075 L 154.713594 109.363094 L 154.854219 109.808406 L 154.897188 109.96075 L 154.990938 110.257625 L 155.041719 110.409969 L 155.069063 110.499813 L 155.084688 110.558406 L 155.131563 110.706844 L 155.174531 110.859188 L 155.2175 111.007625 L 155.264375 111.156063 L 155.307344 111.3045 L 155.354219 111.456844 M 146.678438 83.9295 L 146.721406 84.077938 L 146.768281 84.226375 L 146.81125 84.378719 L 146.858125 84.527156 L 146.901094 84.675594 L 146.947969 84.827938 L 147.041719 85.124813 L 147.084688 85.265438 L 147.088594 85.27325 L 147.131563 85.425594 L 147.2175 85.722469 L 147.264375 85.874813 L 147.307344 86.02325 L 147.354219 86.171688 L 147.397188 86.324031 L 147.537813 86.769344 L 147.584688 86.921688 L 147.678438 87.218563 L 147.725313 87.370906 L 147.776094 87.519344 L 147.81125 87.628719 L 147.822969 87.667781 L 147.865938 87.816219 L 147.912813 87.968563 L 147.959688 88.117 L 148.002656 88.265438 L 148.049531 88.417781 L 148.143281 88.714656 L 148.190156 88.867 L 148.283906 89.163875 L 148.334688 89.312313 L 148.381563 89.464656 L 148.432344 89.613094 L 148.479219 89.761531 L 148.53 89.913875 L 148.537813 89.933406 L 148.576875 90.062313 L 148.619844 90.21075 L 148.666719 90.363094 L 148.807344 90.808406 L 148.854219 90.96075 L 148.905 91.109188 L 148.951875 91.257625 L 148.99875 91.409969 L 149.049531 91.558406 L 149.096406 91.706844 L 149.147188 91.859188 L 149.197969 92.007625 L 149.244844 92.156063 L 149.264375 92.202938 L 149.3425 92.456844 L 149.385469 92.605281 L 149.43625 92.753719 L 149.483125 92.906063 L 149.576875 93.202938 L 149.62375 93.355281 L 149.674531 93.503719 L 149.721406 93.652156 L 149.772188 93.800594 L 149.819063 93.952938 L 149.920625 94.249813 L 149.971406 94.402156 L 149.987031 94.456844 L 150.018281 94.550594 L 150.065156 94.699031 L 150.112031 94.851375 L 150.252656 95.296688 L 150.299531 95.449031 L 150.350313 95.597469 L 150.397188 95.745906 L 150.447969 95.89825 L 150.494844 96.046688 L 150.545625 96.195125 L 150.5925 96.347469 L 150.694063 96.644344 L 150.713594 96.702938 L 150.740938 96.792781 L 150.787813 96.945125 L 150.881563 97.242 L 150.928438 97.394344 L 150.979219 97.542781 L 151.026094 97.691219 M 143.78 69.714656 L 143.787813 69.867 L 143.81125 70.163875 L 143.822969 70.316219 L 143.834688 70.464656 L 143.850313 70.613094 L 143.862031 70.761531 L 143.877656 70.913875 L 143.889375 71.062313 L 143.905 71.21075 L 143.920625 71.363094 L 143.940156 71.511531 L 143.955781 71.659969 L 143.971406 71.812313 L 144.03 72.257625 L 144.049531 72.409969 L 144.069063 72.558406 L 144.0925 72.706844 L 144.112031 72.859188 L 144.182344 73.3045 L 144.201875 73.456844 L 144.24875 73.753719 L 144.272188 73.906063 L 144.319063 74.202938 L 144.3425 74.355281 L 144.397188 74.652156 L 144.420625 74.800594 L 144.447969 74.952938 L 144.502656 75.249813 L 144.533906 75.402156 L 144.56125 75.550594 L 144.5925 75.699031 L 144.619844 75.851375 L 144.713594 76.296688 L 144.74875 76.449031 L 144.81125 76.745906 L 144.846406 76.89825 L 144.881563 77.046688 L 144.908906 77.159969 L 144.916719 77.195125 L 144.947969 77.347469 L 145.010469 77.644344 L 145.045625 77.792781 L 145.080781 77.945125 L 145.112031 78.093563 L 145.147188 78.242 L 145.182344 78.394344 L 145.221406 78.542781 L 145.256563 78.691219 L 145.291719 78.843563 L 145.330781 78.992 L 145.365938 79.140438 L 145.405 79.288875 L 145.444063 79.441219 L 145.522188 79.738094 L 145.56125 79.890438 L 145.604219 80.038875 L 145.631563 80.14825 L 145.643281 80.187313 L 145.678438 80.339656 L 145.795625 80.784969 L 145.834688 80.937313 L 145.912813 81.234188 L 145.955781 81.386531 L 145.994844 81.534969 L 146.037813 81.683406 L 146.080781 81.83575 L 146.119844 81.984188 L 146.205781 82.281063 L 146.252656 82.433406 L 146.338594 82.730281 L 146.358125 82.796688 L 146.381563 82.882625 L 146.424531 83.031063 L 146.463594 83.1795 L 146.506563 83.331844 L 146.635469 83.777156 L 146.678438 83.9295 M 145.405 55.202938 L 145.365938 55.355281 L 145.330781 55.503719 L 145.291719 55.652156 L 145.256563 55.8045 L 145.221406 55.952938 L 145.182344 56.101375 L 145.147188 56.249813 L 145.112031 56.402156 L 145.080781 56.550594 L 145.045625 56.699031 L 145.010469 56.851375 L 144.947969 57.14825 L 144.916719 57.300594 L 144.908906 57.33575 L 144.881563 57.449031 L 144.81125 57.745906 L 144.78 57.89825 L 144.74875 58.046688 L 144.713594 58.195125 L 144.682344 58.347469 L 144.619844 58.644344 L 144.5925 58.796688 L 144.56125 58.945125 L 144.533906 59.093563 L 144.502656 59.242 L 144.475313 59.394344 L 144.420625 59.691219 L 144.397188 59.843563 L 144.3425 60.140438 L 144.319063 60.288875 L 144.295625 60.441219 L 144.24875 60.738094 L 144.225313 60.890438 L 144.201875 61.038875 L 144.182344 61.187313 L 144.158906 61.339656 L 144.112031 61.636531 L 144.0925 61.784969 L 144.069063 61.937313 L 144.03 62.234188 L 144.010469 62.386531 L 143.971406 62.683406 L 143.955781 62.83575 L 143.940156 62.984188 L 143.920625 63.132625 L 143.905 63.281063 L 143.889375 63.433406 L 143.877656 63.581844 L 143.862031 63.730281 L 143.850313 63.882625 L 143.834688 64.031063 L 143.822969 64.1795 L 143.81125 64.331844 L 143.787813 64.628719 L 143.78 64.777156 L 143.768281 64.9295 L 143.752656 65.226375 L 143.744844 65.378719 L 143.737031 65.527156 L 143.733125 65.675594 L 143.725313 65.827938 L 143.713594 66.27325 L 143.709688 66.425594 L 143.701875 66.722469 L 143.701875 67.02325 L 143.697969 67.171688 L 143.697969 67.324031 L 143.701875 67.472469 L 143.701875 67.769344 L 143.705781 67.921688 L 143.713594 68.218563 L 143.7175 68.370906 L 143.725313 68.667781 L 143.733125 68.820125 L 143.737031 68.968563 L 143.752656 69.265438 L 143.760469 69.417781 L 143.768281 69.566219 L 143.78 69.714656 M 149.53 41.441219 L 149.43625 41.738094 L 149.385469 41.890438 L 149.3425 42.038875 L 149.295625 42.187313 L 149.264375 42.292781 L 149.244844 42.339656 L 149.197969 42.488094 L 149.147188 42.636531 L 149.096406 42.788875 L 149.049531 42.937313 L 148.99875 43.08575 L 148.951875 43.234188 L 148.905 43.386531 L 148.854219 43.534969 L 148.807344 43.683406 L 148.760469 43.83575 L 148.666719 44.132625 L 148.619844 44.284969 L 148.576875 44.433406 L 148.537813 44.562313 L 148.53 44.581844 L 148.479219 44.730281 L 148.432344 44.882625 L 148.381563 45.031063 L 148.334688 45.1795 L 148.283906 45.331844 L 148.190156 45.628719 L 148.143281 45.781063 L 148.002656 46.226375 L 147.959688 46.378719 L 147.865938 46.675594 L 147.822969 46.827938 L 147.81125 46.863094 L 147.776094 46.976375 L 147.725313 47.124813 L 147.678438 47.27325 L 147.631563 47.425594 L 147.537813 47.722469 L 147.490938 47.874813 L 147.397188 48.171688 L 147.354219 48.324031 L 147.307344 48.472469 L 147.264375 48.620906 L 147.2175 48.769344 L 147.174531 48.921688 L 147.088594 49.218563 L 147.084688 49.230281 L 147.041719 49.370906 L 146.947969 49.667781 L 146.901094 49.820125 L 146.858125 49.968563 L 146.81125 50.117 L 146.768281 50.265438 L 146.721406 50.417781 L 146.635469 50.714656 L 146.5925 50.867 L 146.506563 51.163875 L 146.463594 51.316219 L 146.424531 51.464656 L 146.381563 51.613094 L 146.358125 51.699031 L 146.338594 51.761531 L 146.295625 51.913875 L 146.252656 52.062313 L 146.205781 52.21075 L 146.162813 52.363094 L 146.119844 52.511531 L 146.080781 52.659969 L 146.037813 52.812313 L 145.994844 52.96075 L 145.955781 53.109188 L 145.912813 53.257625 L 145.87375 53.409969 L 145.795625 53.706844 L 145.756563 53.859188 L 145.678438 54.156063 L 145.643281 54.308406 L 145.631563 54.343563 L 145.604219 54.456844 L 145.56125 54.605281 L 145.522188 54.753719 L 145.483125 54.906063 L 145.405 55.202938 M 153.924531 27.675594 L 153.877656 27.827938 L 153.834688 27.976375 L 153.787813 28.124813 L 153.740938 28.277156 L 153.694063 28.425594 L 153.651094 28.574031 L 153.615938 28.683406 L 153.604219 28.722469 L 153.557344 28.874813 L 153.506563 29.02325 L 153.459688 29.171688 L 153.412813 29.324031 L 153.365938 29.472469 L 153.315156 29.620906 L 153.268281 29.77325 L 153.127656 30.218563 L 153.080781 30.370906 L 153.033906 30.519344 L 152.990938 30.667781 L 152.944063 30.820125 L 152.897188 30.968563 L 152.893281 30.988094 L 152.799531 31.269344 L 152.752656 31.417781 L 152.701875 31.566219 L 152.655 31.714656 L 152.608125 31.867 L 152.56125 32.015438 L 152.510469 32.163875 L 152.463594 32.316219 L 152.369844 32.613094 L 152.322969 32.765438 L 152.182344 33.21075 L 152.166719 33.27325 L 152.135469 33.363094 L 152.084688 33.511531 L 152.037813 33.659969 L 151.987031 33.812313 L 151.893281 34.109188 L 151.8425 34.257625 L 151.795625 34.409969 L 151.74875 34.558406 L 151.697969 34.706844 L 151.651094 34.859188 L 151.557344 35.156063 L 151.510469 35.308406 L 151.463594 35.456844 L 151.440156 35.538875 L 151.416719 35.605281 L 151.365938 35.753719 L 151.319063 35.906063 L 151.2175 36.202938 L 151.170625 36.355281 L 151.12375 36.503719 L 151.072969 36.652156 L 151.026094 36.8045 L 150.979219 36.952938 L 150.928438 37.101375 L 150.881563 37.249813 L 150.834688 37.402156 L 150.740938 37.699031 L 150.713594 37.788875 L 150.694063 37.851375 L 150.5925 38.14825 L 150.545625 38.300594 L 150.494844 38.449031 L 150.447969 38.597469 L 150.397188 38.745906 L 150.350313 38.89825 L 150.299531 39.046688 L 150.252656 39.195125 L 150.205781 39.347469 L 150.112031 39.644344 L 150.065156 39.796688 L 150.018281 39.945125 L 149.987031 40.038875 L 149.971406 40.093563 L 149.920625 40.242 L 149.869844 40.394344 L 149.819063 40.542781 L 149.772188 40.691219 L 149.721406 40.843563 L 149.674531 40.992 L 149.62375 41.140438 L 149.576875 41.292781 L 149.53 41.441219 M 158.057344 13.913875 L 158.018281 14.062313 L 157.975313 14.21075 L 157.971406 14.222469 L 157.932344 14.363094 L 157.885469 14.511531 L 157.8425 14.659969 L 157.799531 14.812313 L 157.752656 14.96075 L 157.709688 15.109188 L 157.666719 15.261531 L 157.537813 15.706844 L 157.490938 15.859188 L 157.405 16.156063 L 157.362031 16.308406 L 157.322969 16.456844 L 157.28 16.605281 L 157.244844 16.718563 L 157.237031 16.757625 L 157.190156 16.906063 L 157.147188 17.0545 L 157.100313 17.202938 L 157.057344 17.355281 L 157.010469 17.503719 L 156.9675 17.652156 L 156.920625 17.8045 L 156.834688 18.101375 L 156.791719 18.253719 L 156.744844 18.402156 L 156.658906 18.699031 L 156.615938 18.851375 L 156.53 19.14825 L 156.522188 19.1795 L 156.483125 19.300594 L 156.43625 19.449031 L 156.393281 19.597469 L 156.346406 19.745906 L 156.303438 19.89825 L 156.209688 20.195125 L 156.166719 20.347469 L 156.119844 20.495906 L 156.076875 20.644344 L 156.033906 20.796688 L 155.987031 20.945125 L 155.901094 21.242 L 155.858125 21.394344 L 155.81125 21.542781 L 155.795625 21.601375 L 155.768281 21.691219 L 155.721406 21.843563 L 155.627656 22.140438 L 155.580781 22.292781 L 155.537813 22.441219 L 155.444063 22.738094 L 155.401094 22.890438 L 155.307344 23.187313 L 155.264375 23.339656 L 155.2175 23.488094 L 155.174531 23.636531 L 155.131563 23.788875 L 155.084688 23.937313 L 155.069063 23.992 L 155.041719 24.08575 L 154.990938 24.234188 L 154.944063 24.386531 L 154.897188 24.534969 L 154.854219 24.683406 L 154.807344 24.83575 L 154.713594 25.132625 L 154.666719 25.284969 L 154.619844 25.433406 L 154.576875 25.581844 L 154.53 25.730281 L 154.487031 25.882625 L 154.393281 26.1795 L 154.350313 26.331844 L 154.3425 26.351375 L 154.303438 26.480281 L 154.256563 26.628719 L 154.205781 26.781063 L 154.065156 27.226375 L 154.018281 27.378719 L 153.924531 27.675594 M 161.897188 -0.0001875 L 161.854219 0.14825 L 161.815156 0.300594 L 161.737031 0.597469 L 161.697969 0.749813 L 161.662813 0.89825 L 161.62375 1.046688 L 161.600313 1.124813 L 161.580781 1.195125 L 161.541719 1.347469 L 161.49875 1.495906 L 161.459688 1.644344 L 161.420625 1.796688 L 161.377656 1.945125 L 161.338594 2.093563 L 161.299531 2.245906 L 161.256563 2.394344 L 161.178438 2.691219 L 161.139375 2.843563 L 161.096406 2.992 L 161.057344 3.140438 L 161.018281 3.292781 L 160.940156 3.589656 L 160.901094 3.742 L 160.877656 3.831844 L 160.858125 3.890438 L 160.819063 4.038875 L 160.776094 4.187313 L 160.733125 4.339656 L 160.694063 4.488094 L 160.651094 4.636531 L 160.612031 4.788875 L 160.569063 4.937313 L 160.53 5.08575 L 160.487031 5.238094 L 160.408906 5.534969 L 160.365938 5.683406 L 160.326875 5.83575 L 160.287813 5.984188 L 160.244844 6.132625 L 160.205781 6.284969 L 160.166719 6.433406 L 160.151094 6.492 L 160.12375 6.581844 L 160.080781 6.730281 L 160.037813 6.882625 L 159.99875 7.031063 L 159.955781 7.1795 L 159.912813 7.331844 L 159.87375 7.480281 L 159.830781 7.628719 L 159.787813 7.781063 L 159.74875 7.9295 L 159.705781 8.077938 L 159.666719 8.226375 L 159.62375 8.378719 L 159.580781 8.527156 L 159.541719 8.675594 L 159.502656 8.827938 L 159.459688 8.976375 L 159.424531 9.109188 L 159.420625 9.124813 L 159.377656 9.277156 L 159.24875 9.722469 L 159.205781 9.874813 L 159.119844 10.171688 L 159.076875 10.324031 L 159.037813 10.472469 L 158.994844 10.620906 L 158.951875 10.77325 L 158.908906 10.921688 L 158.869844 11.070125 L 158.826875 11.218563 L 158.783906 11.370906 L 158.744844 11.519344 L 158.701875 11.667781 L 158.697969 11.683406 L 158.658906 11.820125 L 158.572969 12.117 L 158.53 12.269344 L 158.401094 12.714656 L 158.358125 12.867 L 158.272188 13.163875 L 158.229219 13.316219 L 158.143281 13.613094 L 158.100313 13.765438 L 158.057344 13.913875 M 2.143281 127.913875 L 1.990938 128.359188 L 1.940156 128.511531 L 1.916719 128.577938 L 1.889375 128.659969 L 1.8425 128.808406 L 1.791719 128.96075 L 1.744844 129.109188 L 1.694063 129.257625 L 1.647188 129.409969 L 1.545625 129.706844 L 1.49875 129.855281 L 1.447969 130.007625 L 1.346406 130.3045 L 1.299531 130.456844 L 1.197969 130.753719 L 1.190156 130.77325 L 1.151094 130.906063 L 1.100313 131.0545 L 1.006563 131.351375 L 0.959688 131.503719 L 0.908906 131.652156 L 0.862031 131.800594 L 0.815156 131.952938 L 0.764375 132.101375 L 0.7175 132.249813 L 0.666719 132.402156 L 0.619844 132.550594 L 0.569063 132.699031 L 0.522188 132.847469 L 0.471406 132.999813 L 0.463594 133.015438 L 0.424531 133.14825 L 0.377656 133.296688 L 0.330781 133.449031 L 0.237031 133.745906 L 0.190156 133.89825 L 0.0495313 134.343563 L -0.00125 134.495906 M 7.076875 114.296688 L 7.018281 114.449031 L 6.99875 114.495906 L 6.959688 114.597469 L 6.901094 114.745906 L 6.846406 114.89825 L 6.729219 115.195125 L 6.674531 115.343563 L 6.615938 115.495906 L 6.49875 115.792781 L 6.440156 115.945125 L 6.322969 116.242 L 6.272188 116.374813 L 6.264375 116.394344 L 6.155 116.691219 L 6.096406 116.839656 L 6.041719 116.992 L 5.987031 117.140438 L 5.928438 117.288875 L 5.87375 117.441219 L 5.815156 117.589656 L 5.760469 117.738094 L 5.701875 117.890438 L 5.643281 118.038875 L 5.588594 118.187313 L 5.545625 118.292781 L 5.53 118.33575 L 5.475313 118.488094 L 5.365938 118.784969 L 5.31125 118.937313 L 5.201875 119.234188 L 5.147188 119.386531 L 5.037813 119.683406 L 4.979219 119.831844 L 4.924531 119.984188 L 4.869844 120.132625 L 4.819063 120.261531 L 4.81125 120.281063 L 4.760469 120.433406 L 4.651094 120.730281 L 4.600313 120.882625 L 4.43625 121.327938 L 4.381563 121.480281 L 4.330781 121.628719 L 4.276094 121.777156 L 4.221406 121.9295 L 4.112031 122.226375 L 4.096406 122.269344 L 4.057344 122.378719 L 4.006563 122.527156 L 3.951875 122.675594 L 3.901094 122.824031 L 3.850313 122.976375 L 3.795625 123.124813 L 3.744844 123.27325 L 3.690156 123.425594 L 3.639375 123.574031 L 3.584688 123.722469 L 3.53 123.874813 L 3.479219 124.02325 L 3.369844 124.320125 L 3.369844 124.327938 L 3.319063 124.472469 L 3.2175 124.769344 L 3.166719 124.921688 L 3.065156 125.218563 L 3.010469 125.370906 L 2.858125 125.816219 L 2.803438 125.968563 L 2.701875 126.265438 L 2.647188 126.417781 L 2.643281 126.4295 L 2.596406 126.566219 L 2.549531 126.714656 L 2.49875 126.867 L 2.346406 127.312313 L 2.295625 127.464656 L 2.194063 127.761531 L 2.143281 127.913875 M 12.897188 100.831844 L 12.822969 100.984188 L 12.803438 101.02325 L 12.752656 101.132625 L 12.682344 101.281063 L 12.615938 101.433406 L 12.475313 101.730281 L 12.405 101.882625 L 12.330781 102.031063 L 12.190156 102.327938 L 12.119844 102.480281 L 12.076875 102.562313 L 12.049531 102.628719 L 11.979219 102.777156 L 11.912813 102.9295 L 11.846406 103.077938 L 11.776094 103.226375 L 11.705781 103.378719 L 11.639375 103.527156 L 11.49875 103.824031 L 11.428438 103.976375 L 11.358125 104.124813 L 11.354219 104.140438 L 11.295625 104.27325 L 11.229219 104.425594 L 11.096406 104.722469 L 11.03 104.874813 L 10.959688 105.02325 L 10.826875 105.320125 L 10.760469 105.472469 L 10.690156 105.620906 L 10.627656 105.761531 L 10.62375 105.769344 L 10.557344 105.921688 L 10.494844 106.070125 L 10.428438 106.218563 L 10.365938 106.370906 L 10.233125 106.667781 L 10.170625 106.816219 L 10.104219 106.968563 L 9.971406 107.265438 L 9.905 107.417781 L 9.901094 107.421688 L 9.8425 107.566219 L 9.78 107.714656 L 9.7175 107.867 L 9.651094 108.015438 L 9.526094 108.312313 L 9.459688 108.464656 L 9.334688 108.761531 L 9.268281 108.913875 L 9.201875 109.062313 L 9.174531 109.128719 L 9.139375 109.21075 L 9.080781 109.363094 L 8.893281 109.808406 L 8.834688 109.96075 L 8.709688 110.257625 L 8.647188 110.409969 L 8.584688 110.558406 L 8.518281 110.706844 L 8.455781 110.859188 L 8.447969 110.874813 L 8.397188 111.007625 L 8.338594 111.156063 L 8.276094 111.3045 L 8.2175 111.456844 L 8.155 111.605281 L 8.096406 111.753719 L 8.033906 111.906063 L 7.975313 112.0545 L 7.912813 112.202938 L 7.850313 112.355281 L 7.791719 112.503719 L 7.729219 112.652156 L 7.725313 112.663875 L 7.670625 112.800594 L 7.612031 112.952938 L 7.494844 113.249813 L 7.43625 113.402156 L 7.377656 113.550594 L 7.315156 113.699031 L 7.256563 113.851375 L 7.139375 114.14825 L 7.076875 114.296688 M 20.139375 87.667781 L 20.06125 87.781063 L 20.041719 87.816219 L 19.947969 87.968563 L 19.760469 88.265438 L 19.666719 88.417781 L 19.479219 88.714656 L 19.381563 88.867 L 19.338594 88.937313 L 19.291719 89.015438 L 19.112031 89.312313 L 19.022188 89.464656 L 18.928438 89.613094 L 18.838594 89.761531 L 18.744844 89.913875 L 18.651094 90.062313 L 18.612031 90.128719 L 18.56125 90.21075 L 18.475313 90.363094 L 18.389375 90.511531 L 18.299531 90.659969 L 18.213594 90.808406 L 18.12375 90.96075 L 17.944063 91.257625 L 17.885469 91.355281 L 17.854219 91.409969 L 17.772188 91.558406 L 17.68625 91.706844 L 17.604219 91.859188 L 17.432344 92.156063 L 17.3425 92.3045 L 17.256563 92.456844 L 17.170625 92.605281 L 17.158906 92.620906 L 17.088594 92.753719 L 17.006563 92.906063 L 16.924531 93.0545 L 16.838594 93.202938 L 16.756563 93.355281 L 16.674531 93.503719 L 16.502656 93.800594 L 16.432344 93.925594 L 16.420625 93.952938 L 16.338594 94.101375 L 16.260469 94.249813 L 16.182344 94.402156 L 16.018281 94.699031 L 15.93625 94.851375 L 15.772188 95.14825 L 15.709688 95.265438 L 15.690156 95.296688 L 15.615938 95.449031 L 15.459688 95.745906 L 15.381563 95.89825 L 15.303438 96.046688 L 15.221406 96.195125 L 15.143281 96.347469 L 15.065156 96.495906 L 14.983125 96.644344 L 14.983125 96.64825 L 14.908906 96.792781 L 14.834688 96.945125 L 14.756563 97.093563 L 14.682344 97.242 L 14.604219 97.394344 L 14.526094 97.542781 L 14.451875 97.691219 L 14.37375 97.843563 L 14.256563 98.066219 L 14.221406 98.140438 L 14.147188 98.288875 L 14.072969 98.441219 L 13.924531 98.738094 L 13.850313 98.890438 L 13.701875 99.187313 L 13.62375 99.339656 L 13.549531 99.488094 L 13.53 99.52325 L 13.475313 99.636531 L 13.405 99.784969 L 13.334688 99.937313 L 13.260469 100.08575 L 13.190156 100.234188 L 13.115938 100.386531 L 13.045625 100.534969 L 12.897188 100.831844 M 30.330781 75.101375 L 30.225313 75.195125 L 30.166719 75.249813 L 30.014375 75.402156 L 29.858125 75.550594 L 29.697969 75.699031 L 29.537813 75.851375 L 29.49875 75.882625 L 29.385469 75.999813 L 28.93625 76.449031 L 28.78 76.597469 L 28.772188 76.605281 L 28.639375 76.745906 L 28.494844 76.89825 L 28.205781 77.195125 L 28.057344 77.347469 L 28.045625 77.355281 L 27.920625 77.495906 L 27.647188 77.792781 L 27.506563 77.945125 L 27.362031 78.093563 L 27.322969 78.136531 L 27.229219 78.242 L 27.100313 78.394344 L 26.834688 78.691219 L 26.697969 78.843563 L 26.596406 78.952938 L 26.56125 78.992 L 26.31125 79.288875 L 26.182344 79.441219 L 26.053438 79.589656 L 25.920625 79.738094 L 25.869844 79.796688 L 25.795625 79.890438 L 25.678438 80.038875 L 25.553438 80.187313 L 25.432344 80.339656 L 25.303438 80.488094 L 25.178438 80.636531 L 25.143281 80.6795 L 25.06125 80.784969 L 24.944063 80.937313 L 24.826875 81.08575 L 24.705781 81.234188 L 24.584688 81.386531 L 24.463594 81.534969 L 24.416719 81.589656 L 24.346406 81.683406 L 24.237031 81.83575 L 24.12375 81.984188 L 23.889375 82.281063 L 23.694063 82.534969 L 23.658906 82.581844 L 23.549531 82.730281 L 23.440156 82.882625 L 23.221406 83.1795 L 23.108125 83.331844 L 22.994844 83.480281 L 22.9675 83.515438 L 22.885469 83.628719 L 22.783906 83.777156 L 22.674531 83.9295 L 22.569063 84.077938 L 22.459688 84.226375 L 22.350313 84.378719 L 22.240938 84.527156 L 22.240938 84.531063 L 22.143281 84.675594 L 22.037813 84.827938 L 21.834688 85.124813 L 21.729219 85.27325 L 21.62375 85.425594 L 21.518281 85.574031 L 21.514375 85.577938 L 21.420625 85.722469 L 21.319063 85.874813 L 21.221406 86.02325 L 21.119844 86.171688 L 21.022188 86.324031 L 20.920625 86.472469 L 20.815156 86.620906 L 20.787813 86.659969 L 20.721406 86.769344 L 20.62375 86.921688 L 20.53 87.070125 L 20.432344 87.218563 L 20.334688 87.370906 L 20.139375 87.667781 M 39.447969 65.527156 L 39.658906 65.628719 L 39.795625 65.675594 L 40.178438 65.827938 L 40.385469 65.917781 L 40.565156 65.976375 L 40.983125 66.124813 L 41.112031 66.1795 L 41.444063 66.27325 L 41.838594 66.409969 L 41.912813 66.425594 L 42.471406 66.574031 L 42.565156 66.605281 L 43.139375 66.722469 L 43.291719 66.765438 L 44.014375 66.870906 L 44.053438 66.874813 L 44.740938 66.937313 L 45.4675 66.956844 L 46.194063 66.956844 L 46.920625 66.972469 L 47.600313 67.02325 L 47.643281 67.031063 L 48.096406 67.171688 L 48.096406 67.324031 L 47.643281 67.464656 L 47.600313 67.472469 L 46.920625 67.52325 L 46.194063 67.538875 L 45.4675 67.538875 L 44.740938 67.558406 L 44.053438 67.620906 L 44.014375 67.624813 L 43.291719 67.730281 L 43.139375 67.769344 L 42.565156 67.890438 L 42.471406 67.921688 L 41.912813 68.070125 L 41.838594 68.08575 L 41.444063 68.218563 L 41.112031 68.316219 L 40.983125 68.370906 L 40.565156 68.519344 L 40.385469 68.577938 L 40.178438 68.667781 L 39.795625 68.820125 L 39.658906 68.867 L 39.447969 68.968563 L 39.104219 69.117 L 38.93625 69.187313 L 38.776094 69.265438 L 38.4675 69.417781 L 38.209688 69.531063 L 38.151094 69.566219 L 37.869844 69.714656 L 37.569063 69.867 L 37.483125 69.906063 L 37.299531 70.015438 L 37.03 70.163875 L 36.756563 70.308406 L 36.74875 70.316219 L 36.506563 70.464656 L 36.252656 70.613094 L 36.03 70.738094 L 35.994844 70.761531 L 35.764375 70.913875 L 35.526094 71.062313 L 35.307344 71.195125 L 35.28 71.21075 L 35.065156 71.363094 L 34.8425 71.511531 L 34.612031 71.659969 L 34.580781 71.6795 L 34.401094 71.812313 L 34.194063 71.96075 L 33.979219 72.109188 L 33.854219 72.191219 L 33.768281 72.257625 L 33.572969 72.409969 L 33.37375 72.558406 L 33.166719 72.706844 L 33.127656 72.734188 L 32.979219 72.859188 L 32.791719 73.007625 L 32.600313 73.156063 L 32.401094 73.3045 L 32.225313 73.456844 L 32.049531 73.605281 L 31.865938 73.753719 L 31.678438 73.906063 L 31.510469 74.0545 L 31.338594 74.202938 L 31.166719 74.355281 L 30.987031 74.503719 L 30.951875 74.534969 L 30.826875 74.652156 L 30.662813 74.800594 L 30.49875 74.952938 L 30.330781 75.101375 M 24.944063 53.558406 L 25.06125 53.706844 L 25.143281 53.816219 L 25.178438 53.859188 L 25.303438 54.007625 L 25.432344 54.156063 L 25.553438 54.308406 L 25.678438 54.456844 L 25.795625 54.605281 L 25.869844 54.695125 L 25.920625 54.753719 L 26.053438 54.906063 L 26.31125 55.202938 L 26.43625 55.355281 L 26.56125 55.503719 L 26.596406 55.542781 L 26.697969 55.652156 L 26.834688 55.8045 L 27.100313 56.101375 L 27.229219 56.249813 L 27.322969 56.359188 L 27.362031 56.402156 L 27.506563 56.550594 L 27.647188 56.699031 L 27.783906 56.851375 L 27.920625 56.999813 L 28.045625 57.140438 L 28.057344 57.14825 L 28.205781 57.300594 L 28.639375 57.745906 L 28.772188 57.890438 L 28.78 57.89825 L 28.93625 58.046688 L 29.088594 58.195125 L 29.237031 58.347469 L 29.385469 58.495906 L 29.49875 58.613094 L 29.537813 58.644344 L 29.697969 58.796688 L 29.858125 58.945125 L 30.014375 59.093563 L 30.166719 59.242 L 30.225313 59.300594 L 30.330781 59.394344 L 30.49875 59.542781 L 30.662813 59.691219 L 30.826875 59.843563 L 30.951875 59.96075 L 30.987031 59.992 L 31.166719 60.140438 L 31.338594 60.288875 L 31.510469 60.441219 L 31.674531 60.589656 L 31.865938 60.738094 L 32.049531 60.890438 L 32.401094 61.187313 L 32.600313 61.339656 L 32.791719 61.488094 L 32.979219 61.636531 L 33.127656 61.761531 L 33.166719 61.784969 L 33.37375 61.937313 L 33.572969 62.08575 L 33.768281 62.234188 L 33.854219 62.300594 L 33.979219 62.386531 L 34.194063 62.534969 L 34.401094 62.683406 L 34.580781 62.816219 L 34.612031 62.83575 L 34.8425 62.984188 L 35.065156 63.132625 L 35.28 63.281063 L 35.307344 63.300594 L 35.526094 63.433406 L 35.764375 63.581844 L 35.994844 63.730281 L 36.03 63.757625 L 36.252656 63.882625 L 36.506563 64.031063 L 36.74875 64.1795 L 36.756563 64.187313 L 37.03 64.331844 L 37.299531 64.480281 L 37.483125 64.589656 L 37.569063 64.628719 L 37.869844 64.777156 L 38.151094 64.9295 L 38.209688 64.96075 L 38.4675 65.077938 L 38.776094 65.226375 L 38.93625 65.308406 L 39.104219 65.378719 L 39.447969 65.527156 M 16.432344 40.570125 L 16.502656 40.691219 L 16.588594 40.843563 L 16.674531 40.992 L 16.756563 41.140438 L 16.838594 41.292781 L 16.924531 41.441219 L 17.088594 41.738094 L 17.158906 41.874813 L 17.170625 41.890438 L 17.3425 42.187313 L 17.432344 42.339656 L 17.604219 42.636531 L 17.68625 42.788875 L 17.772188 42.937313 L 17.854219 43.08575 L 17.885469 43.140438 L 17.944063 43.234188 L 18.033906 43.386531 L 18.213594 43.683406 L 18.299531 43.83575 L 18.389375 43.984188 L 18.475313 44.132625 L 18.56125 44.284969 L 18.612031 44.367 L 18.651094 44.433406 L 18.838594 44.730281 L 18.928438 44.882625 L 19.022188 45.031063 L 19.112031 45.1795 L 19.201875 45.331844 L 19.291719 45.480281 L 19.338594 45.558406 L 19.381563 45.628719 L 19.479219 45.781063 L 19.760469 46.226375 L 19.854219 46.378719 L 20.041719 46.675594 L 20.06125 46.714656 L 20.139375 46.827938 L 20.432344 47.27325 L 20.53 47.425594 L 20.62375 47.574031 L 20.721406 47.722469 L 20.787813 47.831844 L 20.815156 47.874813 L 20.920625 48.02325 L 21.022188 48.171688 L 21.119844 48.324031 L 21.221406 48.472469 L 21.319063 48.620906 L 21.420625 48.769344 L 21.514375 48.917781 L 21.518281 48.921688 L 21.729219 49.218563 L 21.834688 49.370906 L 22.037813 49.667781 L 22.143281 49.820125 L 22.240938 49.964656 L 22.240938 49.968563 L 22.459688 50.265438 L 22.569063 50.417781 L 22.674531 50.566219 L 22.783906 50.714656 L 22.885469 50.867 L 22.9675 50.980281 L 22.994844 51.015438 L 23.108125 51.163875 L 23.221406 51.316219 L 23.549531 51.761531 L 23.658906 51.913875 L 23.694063 51.96075 L 23.772188 52.062313 L 23.889375 52.21075 L 24.006563 52.363094 L 24.12375 52.511531 L 24.237031 52.659969 L 24.346406 52.812313 L 24.416719 52.906063 L 24.463594 52.96075 L 24.705781 53.257625 L 24.826875 53.409969 L 24.944063 53.558406 M 9.971406 27.226375 L 10.037813 27.378719 L 10.170625 27.675594 L 10.233125 27.827938 L 10.365938 28.124813 L 10.428438 28.277156 L 10.494844 28.425594 L 10.557344 28.574031 L 10.62375 28.722469 L 10.627656 28.734188 L 10.690156 28.874813 L 10.760469 29.02325 L 10.826875 29.171688 L 10.893281 29.324031 L 10.959688 29.472469 L 11.03 29.620906 L 11.096406 29.77325 L 11.295625 30.218563 L 11.354219 30.355281 L 11.358125 30.370906 L 11.49875 30.667781 L 11.569063 30.820125 L 11.639375 30.968563 L 11.705781 31.117 L 11.776094 31.269344 L 11.846406 31.417781 L 11.979219 31.714656 L 12.049531 31.867 L 12.076875 31.933406 L 12.119844 32.015438 L 12.190156 32.163875 L 12.260469 32.316219 L 12.330781 32.464656 L 12.405 32.613094 L 12.475313 32.765438 L 12.615938 33.062313 L 12.682344 33.21075 L 12.752656 33.363094 L 12.803438 33.472469 L 12.897188 33.659969 L 12.971406 33.812313 L 13.045625 33.96075 L 13.115938 34.109188 L 13.190156 34.257625 L 13.260469 34.409969 L 13.334688 34.558406 L 13.405 34.706844 L 13.475313 34.859188 L 13.53 34.972469 L 13.549531 35.007625 L 13.62375 35.156063 L 13.701875 35.308406 L 13.924531 35.753719 L 13.99875 35.906063 L 14.147188 36.202938 L 14.221406 36.355281 L 14.256563 36.4295 L 14.37375 36.652156 L 14.451875 36.8045 L 14.526094 36.952938 L 14.682344 37.249813 L 14.756563 37.402156 L 14.834688 37.550594 L 14.983125 37.847469 L 14.983125 37.851375 L 15.065156 37.999813 L 15.143281 38.14825 L 15.221406 38.300594 L 15.303438 38.449031 L 15.459688 38.745906 L 15.537813 38.89825 L 15.615938 39.046688 L 15.690156 39.195125 L 15.709688 39.230281 L 15.772188 39.347469 L 15.93625 39.644344 L 16.018281 39.796688 L 16.182344 40.093563 L 16.260469 40.242 L 16.338594 40.394344 L 16.420625 40.542781 L 16.432344 40.570125 M 4.651094 13.765438 L 4.760469 14.062313 L 4.81125 14.21075 L 4.819063 14.234188 L 4.869844 14.363094 L 4.979219 14.659969 L 5.037813 14.812313 L 5.147188 15.109188 L 5.201875 15.261531 L 5.365938 15.706844 L 5.420625 15.859188 L 5.53 16.156063 L 5.545625 16.199031 L 5.588594 16.308406 L 5.643281 16.456844 L 5.701875 16.605281 L 5.760469 16.757625 L 5.815156 16.906063 L 5.87375 17.0545 L 5.928438 17.202938 L 5.987031 17.355281 L 6.096406 17.652156 L 6.155 17.8045 L 6.264375 18.101375 L 6.272188 18.120906 L 6.322969 18.253719 L 6.49875 18.699031 L 6.557344 18.851375 L 6.674531 19.14825 L 6.729219 19.300594 L 6.846406 19.597469 L 6.901094 19.745906 L 6.99875 19.999813 L 7.018281 20.046688 L 7.076875 20.195125 L 7.139375 20.347469 L 7.256563 20.644344 L 7.315156 20.796688 L 7.377656 20.945125 L 7.494844 21.242 L 7.553438 21.394344 L 7.670625 21.691219 L 7.725313 21.831844 L 7.729219 21.843563 L 7.791719 21.992 L 7.850313 22.140438 L 7.912813 22.292781 L 7.975313 22.441219 L 8.033906 22.589656 L 8.096406 22.738094 L 8.155 22.890438 L 8.2175 23.038875 L 8.276094 23.187313 L 8.338594 23.339656 L 8.397188 23.488094 L 8.447969 23.620906 L 8.455781 23.636531 L 8.518281 23.788875 L 8.584688 23.937313 L 8.709688 24.234188 L 8.772188 24.386531 L 8.834688 24.534969 L 8.893281 24.683406 L 8.955781 24.83575 L 9.080781 25.132625 L 9.139375 25.284969 L 9.174531 25.367 L 9.201875 25.433406 L 9.334688 25.730281 L 9.397188 25.882625 L 9.459688 26.031063 L 9.526094 26.1795 L 9.588594 26.331844 L 9.651094 26.480281 L 9.7175 26.628719 L 9.78 26.781063 L 9.8425 26.9295 L 9.901094 27.070125 L 9.905 27.077938 L 9.971406 27.226375 M -0.00125 -0.0001875 L 0.0495313 0.14825 L 0.0964063 0.300594 L 0.190156 0.597469 L 0.237031 0.749813 L 0.377656 1.195125 L 0.424531 1.347469 L 0.463594 1.476375 L 0.471406 1.495906 L 0.522188 1.644344 L 0.569063 1.796688 L 0.619844 1.945125 L 0.666719 2.093563 L 0.7175 2.245906 L 0.764375 2.394344 L 0.815156 2.542781 L 0.862031 2.691219 L 0.908906 2.843563 L 0.959688 2.992 L 1.006563 3.140438 L 1.053438 3.292781 L 1.100313 3.441219 L 1.151094 3.589656 L 1.190156 3.722469 L 1.197969 3.742 L 1.299531 4.038875 L 1.346406 4.187313 L 1.397188 4.339656 L 1.49875 4.636531 L 1.545625 4.788875 L 1.647188 5.08575 L 1.694063 5.238094 L 1.744844 5.386531 L 1.791719 5.534969 L 1.8425 5.683406 L 1.889375 5.83575 L 1.916719 5.917781 L 1.940156 5.984188 L 1.990938 6.132625 L 2.041719 6.284969 L 2.194063 6.730281 L 2.244844 6.882625 L 2.346406 7.1795 L 2.397188 7.331844 L 2.49875 7.628719 L 2.549531 7.781063 L 2.596406 7.9295 L 2.643281 8.066219 L 2.647188 8.077938 L 2.701875 8.226375 L 2.752656 8.378719 L 2.803438 8.527156 L 2.858125 8.675594 L 2.908906 8.827938 L 3.010469 9.124813 L 3.065156 9.277156 L 3.2175 9.722469 L 3.268281 9.874813 L 3.319063 10.02325 L 3.369844 10.167781 L 3.369844 10.171688 L 3.424531 10.324031 L 3.479219 10.472469 L 3.53 10.620906 L 3.584688 10.77325 L 3.639375 10.921688 L 3.690156 11.070125 L 3.744844 11.218563 L 3.795625 11.370906 L 3.850313 11.519344 L 3.901094 11.667781 L 3.951875 11.820125 L 4.006563 11.968563 L 4.057344 12.117 L 4.096406 12.222469 L 4.112031 12.269344 L 4.276094 12.714656 L 4.330781 12.867 L 4.381563 13.015438 L 4.43625 13.163875 L 4.490938 13.316219 L 4.600313 13.613094 L 4.651094 13.765438 " transform="matrix(1,0,0,-1,0.72,135.492)"/>
</g>
</svg>
